<?xml version="1.0" encoding="UTF-8"?>
<svg version="1.1" viewBox="0 0 1600 1600" width="1280" height="1280" xmlns="http://www.w3.org/2000/svg">
<path transform="translate(0)" d="m0 0h1600v1600h-1600z" fill="#F2E4CB"/>
<path transform="translate(0)" d="m0 0h1600v598l-12-3-4 1-11-1-4-4-4 2-4 1-1-4 2-4-4-3-1 3h-9l-7 1-2-1h-7v3l-1 6-4 6-10-3-2 7-4-1-1-3v-3l-4-1-1 5-3 1-2 4-5 3-6-5-2 1-2 5-1 5-4 2 2-6-19-4-11-2-13-3-9-1-5-2-9-1-4-4-3-6-4-5 4-1v-2l-11-3-1-5-7-1-2-4-2-3h-14l-5-2-13-1-4-1-2-10-8-7-10-1-1 1-12 1-8-2-2-2-9-1-9 3v4l10 4v-2l9-3 15 2 11 1 4 6v5l-2-4h-8l-8-2-23-1-10-1-3 2-7 2-3 4v-3h-2l-1-4 2-2-5-1-2-1 1 3h-2l-1 7-9-1-15-1 1-10-2-6-2-1h-8l-10-3-9-1 3 6 3 11-5 2v-7l-2-7-2-1v-2h-6l1 2-1 4-1 1h-30l-5 1-32 1-2 1-16 1-6-2-5-7 2 4 2 3-1 5h-1l-2-6-4-4-2-1h-32l-10 3 1 5-4 4-4 1h-7l-5-5-6-1-2-2v-5h-2v-2l3 1 3 5 7 1 4 6 8-1v-13l3-1 5-1-12 1v2l-9 1-5 1-6-4-2 2-11-1-1 2h-20l-2-2-5 1-1 3-9 1-2 1-1-9-6 1-33-1h-19v5l9 6-1 2h-10l-7 2h-4l-4-5h-4v-3h-8l-2-1-2 2v-2l-6 2v-3l-2 1h-44l-7 3-3 1-5-1-13 1h-9l-4 3-7-1-5-4h-2l-1 2-4 1-8-2-16 1-22 2-9 3 1 5-3 5-12 1v-2l-9 1-11-3-16-1-2-1 1-4 5 1 3-1v-3l-3-5-8-1 2 2h2l-1 3-5 1-5-3v-2l-4 1-2 4-2 1v6l2 3-9 3-2 1-1-4 3-4-7-1-1-5-9-3-2-3v-3l-4-2-2-2v-3h-10l-7 2 1 9h-2v7l1 5-3 4-10-2-3-4-1-3-10 3-2 4-3 4-2-1v2l5 2 5 6-2 1-2-3-9-4-2-7-19 3v4l2 2 18 1-1 2h-12l-8 2-1 4-1 1-9-1h-3l-3 4-19 3-2-1-1-4 7-3v-6l2-2v-10l-7 2h-6l-8 3-5-3v2h-6-3l-1 2h-4l-2 2-4-2-2 1-7-1-8 5h-2l-2 4-3 1-4-1-2 5-4-1-2-3v-10l5-6 6 3h14l1-7-2 1-3-3h-11l-33-3h-5l-2 3-2 7-3 2h-4l-1 3h-39l-12-2-1 1h-11l-6-2-1-3 1 4 7 3v5l-10-5-3-4v-2l-4 1-8 6-5 2-1 2-2-1 1-5 7-7-6 2v3l-3 2h-5l-6-4-4-2v2l9 4 2 5-2 2-4-4-9-2-2-4-9 1-4 15-2-4 3-10v-3l-7 3-5-1-2-2h-4l-1 8-9 4v2l5 2v5l-5 1-6-3 1-9-4-4-2-1h-6l-2 2-6-1-4-1-1 4-1 1h-15l-2-2 3-2-1-4-11-1h-8l-6 1h-25l-4 1h-23l-1-2-2 2-5 2h-12l-4-4-7 2-1 2-24 1h-18l-2-3-2 2-10 3h-10v2l-4 4v9l-1 5 1 2v8l4 4 1 7 5 2 2 3 2 7 7 4 2 1-1 4-8 8-1 7-7 4h-6l-4 1-1-1z" fill="#CDEAE3"/>
<path transform="translate(38,1010)" d="m0 0 4 1 1 4-4 7 5 1-1 3 5 2 2 7 1 5-2 3 5 6 3 1h9l8 3 5 5 5 4 9 2 2 1h7l5-2 3-2 4 1 1 5-2 3v5l1 1h5l3-1v-6l-1-4 3-2h12l4 4 8 1 6-3 4-4 11-3h9l9-1v-2l4-2h6l6 2 14 1 2 1 1-2 3-2 5 1 6 4 5-1 1-1h8l4 4v3l11 4 6 8 4 4 2 1v2l8-1 2-4 7-7 26-3 13-1 7-5 9-2 6-5-1-4 5-1 7 1-1 4-5 7-3 2 6 1v-2l5-1 6 3 3 3 2-2 2 1 1-4-3-4-5-3-1-2 5-1 4 2 2 3 5-1 5 6v3l-5 1-4-1v1l11 1 1-4 5 2h13v-2l5-1 3 1 3 12 3 2h12v-6l6-1 13 5v2l-6 4-1 4-4 2v4l13 3 21 3 21 5h4l3-7h6l1 1 1 8h10l7-1 6 2 4-1 4 4h10l4-10 1-2h4l1-4 4-2h10l2 1 1 5 9 3 3 4 2 8 6 4v6l22 2 9 2h7l9-2 27 4 11 2 5 9 4 6 26 4h4l3-11 3-2 10 1-1-13 5-4 4 1 7 6 8 3 4 3 1 3 6-1 9-1-1-8 9 2-2-9 5-1v2l5-2h9l2 1 1-2h-19v-3l19 1 2-1 6 2v3l-12 3 1 12-1 1-8 1-3 3v6l1 2h31l1 8 1 5h3v-3l4-1 1 4 7-1 4 4 1 2 5-1 4-1 4 3 6-1 7 5v2l6-5h2l2-5 5-2 7 7 5-1 1-5 7 1 6 1 1-1 7 1 6 1h2l-2-12-2-6-1-7h-7l-1 4-5-1-9-3h-2v13l-2 2h-4l1-8-3-4 1-6 40-2 1-4-10 1-5-4v-5l1-4v-5l3-1h21l2-1 1 2v7l-4 7 1 7 6 2v4l5 2 6 4 1 1 1 7 9 2 6-1 3 2 8-1 7-3h34l37-1 11-1 1-2-7-1-1-4 2-2 9 1 4-1 2-6 4-2h5l3 5 6 1 5-2 5 5 3 6v2h33l8 1h11v-7l6-7v-4l-5-3-1-4-6-1-4-3v-2l-4-1v-4l7-2-1-3-6 1-3-2 1-4 4-3h2v-2l-7-1 1-9 1-5 2-1h13l3 5v8l-3 4 8 1 26 2 1 3h2v2h2l2 5 17 2 3 3 1 3 7-1 4-1 3 3 2 4v3h2v2l10 1 5-2 4 1 3 5 6 1 7-1 7 1 3-1 7-1 5-1h7l5-1v-5l-5-2 2-4 14-2 5 10 6 3 3 3h5l2 5 6-1 5 4-1 4-2 5 9-3 4-2h5l3 3 16-1 14 2h26l-4-8v-2h-2v-3l6-1 2 4h2l-2-3 1-4h4l-1-7 2-3v-3l-8-3-2-3 10-1 4-10 7-3 5-1 2-3 16-1 7-4h7l5-2 21-1 16-3 4-2h9l4 1h16l20-3 3 1v515h-1600v-575l8-1 4-1 7-2 5-2 8-4 5-3z" fill="#FEC07F"/>
<path transform="translate(391,273)" d="m0 0 3 1-3 10h-2l1 6 4 3 2-1 2 6 4 2 5 4v5l-4 1h-2l-1 3h-2l-2 4h-14l-5 2-10 2-2 2 8 1 14-4 9 3 5-1 1-2 4 4 9-1 7-2 5-2v-2l10-1h3v-2l5-3 6-6h6l11 3 2 4 4-1v-2l5-5 7-3 4 1-3 5-8 2-2 7 1 3 26-2h9l1 1 1 7h5l1-1 1-8 2-1 31-2h8v3l-2 2v4h13l64-5 7 1-1 5 7 2 1 1 9-1 2-2-2-6 7-2 28-2-3-7-6-6-4-2-2-5-12-5 1-5 1-1 10-1v-2l-46-1-8-1v-1h62l-1-2 4 2h7l1 2 6 2 4 3 13 5h11l3-2h9l-1 13h5l1 4 10-1 3-2v4l2-2 7-3 9-3 2-5-4-5 11-1 4-2h8l2 4 5 1 5-4 7 3 5-5h2l-2 7-7 2 1 7 13 5 4 5v4l-2 1h-6v2l7 1 3 8 9 4 2 8-1 4h-5l-3-2h-6l-7 3h-2v3l5 1 2-1h8l5 4 2 1 2-4 10-5 4-6 7-2-2-8 2-3h14l6 4 2 3 4 1v-8l3-1 2-7 4-2 5-5 12 1 2 4v3l7 1 3-2 1-5 12-3 11-1 4-4-1-7-3-8-4-3v-4l2-1h25v2l-5 2v4l11-2 6-6 30 1 2 5h3l3-4h57l5 1 4-1 5 1 15 1-4 6-8-1-2 1v7l-20-1-5 2-2 4-3 4 2 2-4 4-1 4 5-5 2-3v3l4-3h21l7 2v1l-5 1 3 2 9 3 4 6 3 1 4-2 6 1 6 2 3 5h2l3-6 4-2 3 2 1 10-2 5 2 2h3l1-8h2l1-9h-2l2-5 2-2-1-3h4v-5l8-3 3-4h9l5 2 9 1 14 8h3l1-2-4-1-3-3 1-6 2-1h10l9-5h22l12 3 1 7 2 5 2 1v-5l3-1 3 3-2 7-2 2v6l-3 1v-2h-2l3 11h1l2-10 3-4h4l1 6 3-1 3-6-2-1 3-4 3-1h12l2 1h7l2 2 4 1v-2l5-1 4 3h15l2-5 2-15 1-3 7-2h20l4 2-1 2-5 3 1 8-6 3-2-1v-5l2-2h-7l-1 8-1 1 5 3 5 1h11l2 3 2-2-1 5-3 1h-7l-6 4-2 6 1 3h4v-2l3 1 2 5h2l3 7v3l-4-1-3-1-1 11 1 2 1 6 7 6 1 6 1 5-2 2-6 2-1 4 2 1 22 1v2h5l2 4 10-2 1-4 4-2 10 2 3-4h2l1-7 1-4v-5l3-2 1-4 2-1h12l1-2h23v7l-1 5 1 1h22l11-1 41-1-3-3-14-6v-1h17l4 1 5-2 22-1 3-3 1-8-3-3 1-5 6-2 4-2v262l-12-3-4 1-11-1-4-4-4 2-4 1-1-4 2-4-4-3-1 3h-9l-7 1-2-1h-7v3l-1 6-4 6-10-3-2 7-4-1-1-3v-3l-4-1-1 5-3 1-2 4-5 3-6-5-2 1-2 5-1 5-4 2 2-6-19-4-11-2-13-3-9-1-5-2-9-1-4-4-3-6-4-5 4-1v-2l-11-3-1-5-7-1-2-4-2-3h-14l-5-2-13-1-4-1-2-10-8-7-10-1-1 1-12 1-8-2-2-2-9-1-9 3v4l10 4v-2l9-3 15 2 11 1 4 6v5l-2-4h-8l-8-2-23-1-10-1-3 2-7 2-3 4v-3h-2l-1-4 2-2-5-1-2-1 1 3h-2l-1 7-9-1-15-1 1-10-2-6-2-1h-8l-10-3-9-1 3 6 3 11-5 2v-7l-2-7-2-1v-2h-6l1 2-1 4-1 1h-30l-5 1-32 1-2 1-16 1-6-2-5-7 2 4 2 3-1 5h-1l-2-6-4-4-2-1h-32l-10 3 1 5-4 4-4 1h-7l-5-5-6-1-2-2v-5h-2v-2l3 1 3 5 7 1 4 6 8-1v-13l3-1 5-1-12 1v2l-9 1-5 1-6-4-2 2-11-1-1 2h-20l-2-2-5 1-1 3-9 1-2 1-1-9-6 1-33-1h-19v5l9 6-1 2h-10l-7 2h-4l-4-5h-4v-3h-8l-2-1-2 2v-2l-6 2v-3l-2 1h-44l-7 3-3 1-5-1-13 1h-9l-4 3-7-1-5-4h-2l-1 2-4 1-8-2-16 1-22 2-9 3 1 5-3 5-12 1v-2l-9 1-11-3-16-1-2-1 1-4 5 1 3-1v-3l-3-5-8-1 2 2h2l-1 3-5 1-5-3v-2l-4 1-2 4-2 1v6l2 3-9 3-2 1-1-4 3-4-7-1-1-5-9-3-2-3v-3l-4-2-2-2v-3h-10l-7 2 1 9h-2v7l1 5-3 4-10-2-3-4-1-3-10 3-2 4-3 4-2-1v2l5 2 5 6-2 1-2-3-9-4-2-7-19 3v4l2 2 18 1-1 2h-12l-8 2-1 4-1 1-9-1h-3l-3 4-19 3-2-1-1-4 7-3v-6l2-2v-10l-7 2h-6l-8 3-5-3v2h-6-3l-1 2h-4l-2 2-4-2-2 1-7-1-8 5h-2l-2 4-3 1-4-1-2 5-4-1-2-3v-10l5-6 6 3h14l1-7-2 1-3-3h-11l-33-3h-5l-2 3-2 7-3 2h-4l-1 3h-39l-12-2-1 1h-11l-6-2-1-3 1 4 7 3v5l-10-5-3-4v-2l-4 1-8 6-5 2-1 2-2-1 1-5 7-7-6 2v3l-3 2h-5l-6-4-4-2v2l9 4 2 5-2 2-4-4-9-2-2-4-9 1-4 15-2-4 3-10v-3l-7 3-5-1-2-2h-4l-1 8-9 4v2l5 2v5l-5 1-6-3 1-9-4-4-2-1h-6l-2 2-6-1-4-1-1 4-1 1h-15l-2-2 3-2-1-4-11-1h-8l-6 1h-25l-4 1h-23l-1-2-2 2-5 2h-12l-4-4-7 2-1 2-24 1h-18l-2-3-2 2-10 3h-10v2l-4 4v9l-1 5 1 2v8l4 4 1 7 5 2 2 3 2 7 7 4 2 1-1 4-8 8-1 7-7 4h-6l-4 1-1-1v-259l5 1 8 3 5 3h5v-2l4 1 2 6 3 1 6-1 2-5 7-5 13-1 2 2 3 9 2 4h8l5-2v-5l1-1 7 1 2 5 5-1-1-8 1-1h5l-1-2-4 1-1-5 3-1v-2h-8l-1-4 12-4 5-6 2-1 26-1 3-1h30l5 1h8l6-3 2-2-1-4-1-3-12-3-4-2-1-3 3-3 11 2 7-1 4 3 8-1 5-6 2-5 2-2-1-8 7-1 5 5 3-1 3-4 8-2 4-4 6-1 13 3 7-1 6 3h6v4l-7 4-4 2-6 12-5 4 2 6 5-1 7-6 8-7 3-2 3-5 5-6 9-5 12-1 4-3 3-1 4-4 3-12 2-2 14-2 3-1 1-6 7-2 10 1 4 1 5-7 15-5z" fill="#D8EADF"/>
<path transform="translate(0)" d="m0 0h1600v208l-4 2-5-1-6-8-7-3-9-2-2-4-5-2-2-2-4 2h-5l-3-5-5-3-7-9 1-6 1-5-9 2v2l-4 1-2-1v-2l-9-3-7-2h-5l-4 3-4-3-2-6h-23l-12-2-4-7-2-1-1-3-5-1h-7l1 7 3 4-2 4-6 3-3 7-10 5h-7l-5-2v-2l-11-3-6-6-4 1-9-1-16-1-6 1-6-4h-4l-2 3-2 1h-9l-3-1-3-7-4-3h-9l-3-9-5-1-1 7h-4l-2-2v-3l-2-1 1-4h9v-5l-26 1-5 1h-14l-5-7-2-9-4 3h-5l-1-11 4 1v2h5l1-1v-7l-2-4v-5l-5 2h-9l-3-1h-12l-8 1h-25l-2-4h-2l1-5 1-6-6 1-3-1-5 8-2-1-4 4-4-2-1-4h-9l-14-1-13-2h-27l-3-1h-10l-5 2 3 6v4l-5 1-1 5-4 4-2 9-5 2-2 6-4 1-16-3h-5l-1 4-4-3v-7l8-1-3-2-10-1-6 1-3-1-1 2-1-7 1-2v-7l-4-3-1-3-2-1-2 5-6-2-8-1v-2l3-2 8 1-1-12-5-1h-15l-3 5-4 4-6 5-8 3h-9l-3-5-8 2-7-3-6-1-5-4-4 1-2 3v9l-27 1-26 2-24 1-6 4-2 3h-7l-1 3h-2v3l-5-1-3-4h-9v-2l-5-2-1 3-13-1v-2h-2l1 3-4 3-7-1-1 7-4 1-3-4-4 1-6 3-2 2-10 1-2 2-5-1-3-4v-3l-2-1 2-5h-2v-2h-9l1-3-3-2h-6l-5 3-3 5-7 1-4 3h-2v-2l-10 4-5 1-2-2h-5l-1 4v3h-4l1-8-3-1 5-5h2v-2l4-3 1-3-31 3-2 2 8 4-1 9 1 6-10 1h-13l-2-3-2-6-5 1v2l-11 3h-7l-5-1-5 2-6-1-1-1-10-2-3-3-6-2-3-3-2-1-2 4-7 1-4-4-1-4-3-4-4-2-3 1-5-1h-11l-47 3-5 3v-7l1-3-2 4v5l-1 2 2 3 4-2 5-1 1 1 1 14 3 5v2l4 2-1 2-10-1-2-7h-9l-1 4v3l-16 3-29 1-15 1-13 1-10-5-6-8 1-4 7-2 6-9-1-4h-3l-1 3-10 2-2 1 2-5 2-3v-12l-3-4-1-11 1-3-9 1-6 2-4-1v2l5 5 5 6 7-1 1 5-3 4-6 1-4-2-3-6-4-1-2 8-1 1h-5l-3-3v-8l1-1 2-10 5-3 2-8-3-7-3-5-5-1 1 3-9 6-7 1-5 5h-3v4l3 2v4l7 1 7-6h5l1 1v12l-5 8-5-3-1-3-5 1-3 6-2 1h-9l-5-2v6l-9 3-5-1v-3l-4 1-1 2h-8l-1-2 1-5-2-7h-2l-2-3-2-4h-2l1 7-2 1-6-1-5 1v-2l-3-1-6-7-4-3h-10l-2 5-1 9-12 3h-3l1 5 12 6-2 2-8 3-2 2-1 4h-2l1 4-3 5h-14l4 2h-8l-15-9-1-1-8-1-13-8-1 2-4-2-12 1-5 2h-2l-2 9 4 2 7 9 5 1 2-4 4-1 2-7 4 1 3 5-1 8 1 3 2 1 14 2 3 7-1 4-12-2-6 2-1 7-8 6 1 10 5 10 2 5 3 6 3 2v4l-4 2-3 7-4 2-2 15-3 3-2 6-5-2v-8l-5-3-5 2-2 4-11-2-11-4h-2l-3 7h-5l-6-2h-2l-1 3 8 6-1 2h-13l-1 5-2 6 1 5-3 1-5-3-2-3-10 1-2 3h-5l-4-6 1-5 4-3-1-9-4-1-4-5 1-4 7 1 1-4-1-4-4-1v-6l-4-3-7 1-1-3-9-1-1 7-2 3-1 7-4 2v5l-2 2 1 9-1 3 4 3 3 7 5 5 10 5 8 1 14-3 5 1-1 3-4 1-3 6h-2l-2 5-4 2-1-1h-6l-3 7v7l-2 2-7-1v7l-1 3v6l-9 4-5 4-2 1h-13v3l-12-1z" fill="#B1E8E9"/>
<path transform="translate(1208,383)" d="m0 0 4 1 8 7h5l4-1 4 1 3-1 10 2 3 2v6l-4 3h-2l-1 4-1 1 13 1 3 1 33-1v-4l-7-2-2-4h2l3 3 7 2 2 7 5 1 10 5 3 4 5 2 2 7 1 1h5l3-5h9l4-1h7l1 4-1 2-5 1v2l-6-1v10l-1 1h-6l2 5 5-2 6-1 2-3v-6l2-1v2l27 4 5-1v-3-1l10-1-1 3 11-1 3 3v6l10 1-2 4-2 1-11 1v3l3 1 9-1 4 11v3 7l-1 2h-2l2 8 6 7-1 5-1 7-5 3-3 7-4 1-7-3-5-3-19-1-3-2-23-4-16-1-6-2h-4l1 4-1 3-8 5-2 4-5 1-5-1v6l-2 2h-10l-5-1-11 1-2 6-5 1h-7l-2-1-1 2-7-2-1 3 1-5h-2l2 9 1 4 1 5 1 3 8 6 3 2-9-1-15-1 1-10-2-6-2-1h-8l-10-3-9-1 3 6 3 11-5 2v-7l-2-7-2-1v-2h-6l1 2-1 4-1 1h-30l-5 1-32 1-2 1-16 1-6-2-5-7 2 4 2 3-1 5h-1l-2-6-4-4-2-1h-32l-10 3 1 5-4 4-4 1h-7l-5-5-6-1-2-2v-5h-2v-2l3 1 3 5 7 1 4 6 8-1v-13l3-1 5-1-12 1v2l-9 1-5 1-6-4-2 2-11-1-1 2h-20l-2-2-5 1-1 3-9 1-2 1-1-9-6 1-33-1h-19v5l9 6-1 2h-10l-7 2h-4l-4-5h-4v-3h-8l-2-1-2 2v-2l-6 2v-3l-2 1h-44l-7 3-3 1-5-1-13 1h-9l-4 3-7-1-5-4h-2l-1 2-4 1-8-2-16 1-22 2-9 3 1 5-3 5-12 1v-2l-9 1-11-3-16-1-2-1 1-4 5 1 3-1v-3l-3-5-8-1 2 2h2l-1 3-5 1-5-3v-2l-4 1-2 4-2 1v6l2 3-9 3-2 1-1-4 3-4-7-1-1-5-9-3-2-3v-3l-4-2-2-2v-3h-10l-7 2 1 9h-2v7l1 5-3 4-10-2-3-4-1-3-10 3-2 4-3 4-2-1v2l5 2 5 6-2 1-2-3-9-4-2-7-19 3v4l2 2 18 1-1 2h-12l-8 2-1 4-1 1-9-1h-3l-3 4-19 3-2-1-1-4 7-3v-6l2-2v-10l-7 2h-6l-8 3-5-3v2h-6-3l-1 2h-4l-2 2-4-2-2 1-7-1-8 5h-2l-2 4-3 1-4-1-2 5-4-1-2-3v-10l5-6 6 3h14l1-7-2 1-3-3h-11l-33-3h-5l-2 3-2 7-3 2h-4l-1 3h-39l-12-2-1 1h-11l-6-2-1-3 1 4 7 3v5l-10-5-3-4v-2l-4 1-8 6-5 2-1 2-2-1 1-5 7-7-6 2v3l-3 2h-5l-6-4-4-2v2l9 4 2 5-2 2-4-4-9-2-2-4-9 1-4 15-2-4 3-10v-3l-7 3-5-1-2-2h-4l-1 8-9 4v2l5 2v5l-5 1-6-3 1-9-4-4-2-1h-6l-2 2-6-1-4-1-1 4-1 1h-15l-2-2 3-2-1-4-11-1h-8l-6 1h-25l-4 1h-23l-1-2-2 2-5 2h-12l-4-4-7 2-1 2-24 1h-18l-2-3-2 2-10 3h-10v2l-4 4v9l-1 5 1 2v8l4 4 1 7 5 2 2 3 2 7 7 4 2 1-1 4-8 8-1 7-7 4h-6l-4 1-1-1v-212l4 1 2 8h12l4 3 13 1 1 2-2 3v6l4 1 2 2v1l7-1 9-2 5 1 3 2 1-1 15-2h21l3-7 4 2 4 1 3-2 7-1v-2l5-1 4-5h2v-14l2-2 5 1 2 4h5l5-9h11l5-2 11-1-1-3 10 1 3-1v3h18l4 8 5-5 3-1 1 4-5 7-5 5-3 5-5 2-10 2-3 4 1 5 14 6 10-1h2v-4l4 2h2v-6l9-6h7l5 4 6-3 2-3h4l2 5 5 3h9l6 1 1-17 8 4 3 7 8 4 1 4 5-1 2-1h7l2 2 7-1 3-3 2-5 8-1 5-8 3-2h32l2 6 1 5-4 9-9 4-5 1-6-3-4-5-8-1-2 1 1 3 9 2 3 2 5 1h7l4-2 8-1h19v-2h-17l1-10 2-3h16l14-2h8l-5 10-6 5h-4l4 1 8-7 3-5 8-7 5-5 4-13 15-1h14l3 1h7l3-3 13-2h9l7 6 2 4 18-1 30-3h6l1 3-5 3 1 4h10l18-1-1 8 5 2v2l4-1 1 4 9-5 9-1 2 3 2-3 6 3h7v2h4l-1-2-3-1-2-7-2-3 12-3 10-5 15-3-2 4v6l4 1 10-6 5 6 11-3 8-4 5-2v4l6 1v-2l6-1v4l2-1 7 1 7-7 5-1-1-6 4-2 2 4 3 1v2l7 1 2 2v9l-1 2v7l3 1h14l15-1 2 1v-2h4l-2-6v-4h2l1-3 3-3h24l43 1 1 3 7 3 6 4 14 4 6 4 10 5-1 13-5 3-5 5-3 1-3 5-3 3 3 3 4 2 12 1 4-5 3-6 1-6h-2l1-4 8-4 12 1v2h2l1 6h3l1-5 2-2 5-2 2-2 15-1 5-5 6-3 4-4 3-1-1-3-22-1h-22l-2-1-18-1-10-3-5-5 1-2 2-1 1-6 4-1 8 2-1-6 3-2 3 3v2l7-2 3-4 15-1 3 3h3l3-3 4-1 2 1v6h7l4 2h8l2 1v3h5l1 10 7-1 8-1 4 3h12l11-6 2-7 3-1 4-1 18-6 3-2h6l4 1h6v-4l4-3-2-3 8 1v3l5-1 3-3 7 1 1 3 3 1-1-5h8v-5l2 4 3-3 1 2 27-1 2 1 1-8-2-1 1-2 3 2v2h2l-5-5-2-3 5 2 4 3v4l9-1 23-1 13-1 1-6-3-1z" fill="#E1EBDB"/>
<path transform="translate(348,46)" d="m0 0h5l6 9 1 5-2 7-5 3-2 10-1 1v8l2 2h5l3-8 3-1 3 3 2 5 6 1 4-2 1-6-7 1-8-10-3-2 1-3 6 1 7-3 6 1v8l2 8 2 2v12l-4 7 3-2 8-1 1-2-2-1 7 1-1 5-7 10-6 1 1 4 5 7 9 4 13-1 15-1 29-1 10-2h6l-1-6 2-2h7l3 3 1 5h10l-6-7-1-3-1-14-5 1-4 2-3-5 2-8 2-3 2 1-2 3v6l4-3 47-3h11l5 1 4-1 5 3 3 3 1 7 7 1 4-4 5 2 9 5v2l10 1 3 2 12-2 2 1h7l9-2h2v-2l5-2 2 2 2 7h23l-2-9 1-4 1-2-7-2-2-3 3-2 22-2h9l-1 4-4 2v2l-5 5 2 1-2 8h4l-1-6 2-2h5l2 2 5-1 7-3h3v2l4-3 9-2 3-5 5-3h6l4 4-1 1h6l2 1v2h2l-1 5 5 8 5-1 7-2 5-1 4-3 4-2 4 1 2 3h4l1-7h8l2-3v-2l12 2h3l1-2 5 2v2l9-1 5 5 3 1 1-5 2-2 7 1 2-4 6-4 39-2 11-1h27l-1-9 3-4 5-1 4 4 8 2 7 2 6-2 3 5h9l10-4 7-7 3-5 1-1h15l6 1v13h-8l-3 1v2h8l6 3 2-5 3 1 2 4 3 2v7l-1 6 4 1 10-1 8 2 2 2-6 2-3-1 1 7 3 2 1-4 12 1 10 2h3l2-7h2l1-2 1 1 2-9 3-4h2l1-5 5-1-4-11 6-2h10l3 1h27l15 2 21 2 3 5 4-1 3-3 1 1 5-8 9 1v6l-2 5h2l2 3h25l8-1h12l3 1h9l6-2v6l2 4v7l-2 2-5-1-1-2-3-1 1 3v8l6-2 4-2 2 10 4 6h16l5-1 21-1 3 1v5h-9l1 5 3 5h2l2-7 3-1 4 4 1 6h9l6 5 2 5 2 1h9l4-4 5 1 5 3 11-1 11 1 9 1 5-1 1 4 4 2 9 3 3 3 4 1h7l10-5 3-7 6-3 1-3-4-7v-5h10l4 2 1 3 2-2 3 9 12 2h23l2 2 2 6 3 1 3-3 10 1 9 4 2 1v2h6v-2l3-2h6l-1 11 7 9 6 4 1 3 7-1 3-1 2 3 5 2 1 4 9 1 8 4 5 6v2l9-1v50l-13 1 1 4 2 1-3 1-1-3-4-2-3-3-6-1-1-3-4 2h-5l-1-4-13-5-4-3-2-8-2-2h-2l-2 3-4-1-5-5h-30l-9-3-11-1-26 1-4 4-3 6-4 5-2 5-5 8-1-3 3-6 1-1-1-7-9-2v2l3 1-1 11-2-4-2-5-5-3-2-2-2-7h-40l-5-2-2-2-7-1-2-2-7-3-5-9v-5l6-2 1 3 2 1v3l6 6h2l-1-6 1-4-1-2-1-8-7 1-7 3-9 2-3 1-5-4-3-1-6-1-1 5-4 1v-2h-2l-4-4-8-2-5 2h-15l-4-2-1 2h-2v2h-7l-3-6-2 2v3l-1 5-3 3-6-2-5-3v-3l-2-2-6-2-11-1-5-3h-11l-3-1h-14l-1 5h11l1 3 1 12 3 6v2l9 2v2l5 1 1-1h5l4 8-1 5-15 1h-17l-7-1h-21l-14 1h-14l-6-2v-6l-3-5v-3l-14-3-3-1v-2h2v-4l-7 1-9-4-33 1-11 1-12-3-4-6-5-3h-1v-5l1-3v-3l-9 1h-18l-1-4-3 1h-11l-1 4-7 1h-25v-5l-4-3-1 8h-5l-2-6-2-1 1-4 8 1 6-3 3-8h2l-9-12-1-6-5-2-13-3-5-2-7-2-5-2h-13l-7 7-6 1-10-1-2 5-2 3v11l-3 6-5 3-4 1-1 5 7 2 3 4v2l12-1 4 1 3-6 8 1 2 7v5l-7 2-3 2 1 5-2 6h-4l-2-8-3 2 1 6-3 8-1 4 4-1 1-3 6-2 3 9-18 2h-7l-1-2-2-13-5-5-3-5h-8-2l-13 6h-11l-3 4h-15l-1-4 2-4-4-2v-2h-9l-4-1 1-6-2-2h-6l-1 2h-2l-4 2h-6l-3-9v-2h-6l-4-2-4 6-5 2-3 9-8 9-5 5-4 3-6-1-4-1-4 3h-9l-6 10-3-3 3-4 1-4 8-4 1-7 6-5h2l4 6 4 4v2l4-1 4-8v-6l-3-6v-4l-7 3-3-5-1-1-10 1-5 2-5 1-4-4-6 1-5 2-9-2-7 1-5 1v3l-9 2-2 2h-12l-5 1h-11v2h-4l-2 6-13-2-7-3v2l-4 2 1-4h-11l-1 2-3-1-1 1-29 1v-1l-12-1-1-1-7-1-2-2-6-1-33 1-7 1-2 4v4l2 1 2-7 1-1h8l5-1 4 4 1 5-5 9-1 1h-7l-9-3-6 1-4-4v-2h-2v2l-5 1-5-1-1-3-7-2-5-4-1 8-2 1 2 5-1 5-14 1-4-3 3-11-3-1 6-5v-1l-23 1-2 5 5-2 7 1 2 3h-3l-1 3h-5l-1-3-4 1-2-1v3l-1 1h-6l-1-4h-2l-1 2 1-4 5-2-1-2-26-1-2 10-6 5-7 3-16-1-9-4-4-7 3-6 3-3-3-3v-2h-7l-6-4h-4l-2 4-6 1-3-4h-14l-6 1h-5l-2-10-3-1-11-1-3-2h-11l-5 4-3-1-3-14-4-8-4-3-10-2-7-9-3-2-6-1-1 5-1 1v5l9 2 8 1 1 8-1 2h-5l1-5-6 1-1 2v11l1 5-5 3-3 1-2 4h-2v9h2v4h2l-1 4-7 7-2-6-3-1-7 5h-5l-6 5-1 5h4v4l-3 1-4-1v6l-3 3-7-1-5 5-2 3-1 6h-2l-2 2v-2h-2v2l-2-1-1-3h-4l-3 7-3 1h-7l-1-4 5-5 4-3-6 1-5 1h-4l-1 7-4 1-10-1-3-1h-9l-4 2h-6l-2-6 4-10 10-1 3-1-8-6 2-4 7 1 1 1h5l3-7 10 3 14 4 2-5 5-2 5 3 1 1v8l4 2 2-7 2-2 2-15 5-3 3-7 4-1-1-4-4-4-3-5-3-9-3-5-1-10 6-5 2-1 2-7 6-3 8 1 4 1-2-10-14-1-3-2-1-8v-4l-2-4-3-1-1 5-3 3-2 1-2 4-5-1-5-6-4-5-2-1 1-9 3-2h2l10-2 7 1h3l5 2 8 5 8 1 14 9 6 1-2-2h16l2-6v-2h2l1-5 3-3 8-3-10-4-3-3 1-4 5-2 10-1v-9l3-6h10l10 9 4 4 7-1 4 1v-7h2l3 3 1 4h2l3 8-1 5 8 1 2-4 3 1 1 3 7-1 6-1-1-4 1-2 7 1h8l5-8 5 1 1 3 4 2 4-7v-12h-5l-7 6-7-1-1-5-3-3 1-3 5-2 3-4 9-2 6-5z" fill="#C2EAE7"/>
<path transform="translate(38,1010)" d="m0 0 4 1 1 4-4 7 5 1-1 3 5 2 2 7 1 5-2 3 5 6 3 1h9l8 3 5 5 5 4 9 2 2 1h7l5-2 3-2 4 1 1 5-2 3v5l1 1h5l3-1v-6l-1-4 3-2h12l4 4 8 1 6-3 4-4 11-3h9l9-1v-2l4-2h6l6 2 14 1 2 1 1-2 3-2 5 1 6 4 5-1 1-1h8l4 4v3l11 4 6 8 4 4 2 1v2l8-1 2-4 7-7 26-3 13-1 7-5 9-2 6-5-1-4 5-1 7 1-1 4-5 7-3 2 6 1v-2l5-1 6 3 3 3 2-2 2 1 1-4-3-4-5-3-1-2 5-1 4 2 2 3 5-1 5 6v3l-5 1-4-1v1l11 1 1-4 5 2h13v-2l5-1 3 1 3 12 3 2h12v-6l6-1 13 5v2l-6 4-1 4-4 2v4l13 3 21 3 21 5h4l3-7h6l1 1 1 8h10l7-1 6 2 4-1 4 4h10l4-10 1-2h4l1-4 4-2h10l2 1 1 5 9 3 3 4 2 8 6 4v6l22 2 9 2h7l9-2 27 4 11 2 5 9 4 6 26 4h4l3-11 3-2 10 1-1-13 5-4 4 1 7 6 8 3 4 3 1 3 6-1 9-1-1-8 9 2-2-9 5-1v2l5-2h9l2 1 1-2h-19v-3l19 1 2-1 6 2v3l-12 3 1 12-1 1-8 1-3 3v6l1 2h31l1 8 1 5h3v-3l4-1 1 4 7-1 4 4 1 2 5-1 4-1 4 3 6-1 7 5v2l6-5h2l2-5 5-2 7 7 5-1 1-5 7 1 6 1 1-1 7 1 6 1h2l-2-12-2-6-1-7h-7l-1 4-5-1-9-3h-2v13l-2 2h-4l1-8-3-4 1-6 40-2 1-4-10 1-5-4v-5l1-4v-5l3-1h21l2-1 1 2v7l-4 7 1 7 6 2v4l5 2 6 4 1 1 1 7 9 2 6-1 3 2 8-1 7-3h34l37-1 11-1 1-2-7-1-1-4 2-2 9 1 4-1 2-6 4-2h5l3 5 6 1 5-2 5 5 3 6v2h33l8 1h11v-7l6-7v-4l-5-3-1-4-6-1-4-3v-2l-4-1v-4l7-2-1-3-6 1-3-2 1-4 4-3h2v-2l-7-1 1-9 1-5 2-1h13l3 5v8l-3 4 8 1 26 2 1 3h2v2h2l2 5 17 2 3 3 1 3 7-1 4-1 3 3 2 4v3h2v2l10 1 5-2 4 1 3 5 6 1 7-1 7 1 3-1 7-1 5-1h7l5-1v-5l-5-2 2-4 14-2 5 10 6 3 3 3h5l2 5 6-1 5 4-1 4-2 5 9-3 4-2h5l3 3 16-1 14 2h26l-4-8v-2h-2v-3l6-1 2 4h2l-2-3 1-4h4l-1-7 2-3v-3l-8-3-2-3 10-1 4-10 7-3 5-1 2-3 16-1 7-4h7l5-2 21-1 16-3 4-2h9l4 1h16l20-3 3 1v34l-11 2-4 1-1-2 2-4v-3l-4 1-2-1v-3l-6 2-2 4-5 2-1 2v6l1 4-4-1-1-2v-8l-8-3 1 4v9l-2 4-1 9-3-4-12 3-2-2h-8l-5-1-4-9-18 2-6 1 1 6 4 8 1 5 13 1 4-2 4-1 2-3 7 1 2 2 2 9 6 5 6 1v5h14l2 2 1 4 5-1 12 1 3 8-1 7-7 4-7-1-7-5-1-6-14 1-7 6-9 7-1 1h-6l-2 4-5 3-5 1h-7l-3 2-9 1 1 5 7 6-1 4-5-1-6-4-5-4-5 2-8 7-7 1-8-1-4-5-6-5-1-2v-14l-10 4-8 3-1 2v12l4 6 1 5-2 5-4 3-4-20-3 1-1 7-1 6-3-1-3-3h-20l-5 2-9 1-5-4-1-5-8-6 1-5-1-3v-5l-6-5 1-9-3-3-2-1-48-1-2 6-6 8 1 8-6 6-2 5-19 1h-16v3l11 1 3 2-1 5-3 3-1 3-4 4v3l6 4-3 3-2 1v5l6 5-2 4-2 5 4 10 3 5-4-2-3-2-9-2-1-1h-6l-7 3-5 1-3-2v-2l-13-3-4-8-6-4-3-5-4-15-3-10-3-3h-2l-1 6 2 4 2 5 2 7 1 2v6l-3 3-2 7-5-2-3-4v-2l-16-1-4-4v-3h2v-2h2l-2-5-8-3-2-4-5-1-1 2v6l2 6-4 1-2-1-1-14v-7l-2-1v-2l-7-2-3 6-3 1v2l-6 3h-8l3-10-1-3-4 1h-16l-9 1 5 6-1 3-9 1-5-1-4 2-4-1v-4h-6l-10-4h-27l-16-2-30-1 5 5 7 13v2l-12 6-5-2-3-4-4-10-8-6v-3h-27l1-7 7-8 8-1 2-4 4-4 5-2v-6l-7-1-20 1 11 1v2l-20 1-2-2-8 2h-4l-1-2-8 1-5-2h-10l-10 1h-3l-6 1-1 3 2 7-4 2-3 4-7 3-8 6-7-1-6-1-3 2-6-1-1-6-7-2-3-3v-7l-2-1-30-2-2-5 1-5-13 4-5 2-1 3-11-1-12-2 2-3-5 2-6 4v10l6 3-1 4-8 4-4 1-1 3 1 7-10-1-21-5-2-1 1-3 3-1h8l-3-5-5-5-1-3-4 1-2 7-9 1-4 4-13-1-4 3h-5l-6-3-5-1-1-5-5-2-3-6-4-3h-12v2l6 1 2 1v2l-13-2v12l-9 1v2h-3l1 13-1 3-2 1h-11l-4-3v-2l-6-2-5-4-5 4h-13l-3 5-20-3-17-5-28-6-12-3 1-11 4-1 1 3 5-1 4-4h12l4 1v-2l-5-3-13-2h-8l-9 3-7-2-11-8-14-3 2-4h2l1-8-12 1-9-4-8-2-1-4-6-4v-5l7-5 3-12 1-7 1-8-2 2-3-1h-5l1 4-5-3-4 1 1-3h3v-2h-16l1 2 3 2-5 1-3-8 2-3h2l-2-4-6 5-6 2 2 2 4 2-1 4-4-1-2-1-4 1-1 3-5 1-3-1 8-4-13 1-1 2h-1v7l-1 8-5 4-5-1-5-2-6-1-5-3-2-9-2 2-5-1-1 2-2 5 5 4 2 6-2 2h-5l2 5h6v4h-2l4 4h6l3 3 1 5-4 1h-10l-5 3 1 3 4 2v2h-17l-4 3-4-2-2-6h-7l-2-7h-5l-8-6 1-4h9l3 4h5v-6l5-4 2-12-3 3-2-1h-6v-4h-5l-4-6-5-2v-5l1-4-7-3-6-1-2-3h-3l-1-2h-10l-27 3h-8l-3-1-3-6h-7l-9-6-2 4-3-1v-4l-6-2 1-3 5-3 5-5 7-2v-10l-18 4-7-1-8-1-11 3h-19l-19 2-6 1h-8l-3 2-1 9 5 1 3 3v3l-3 2-3 6-3 2-1 5-4-1-1-1v-6l-9-3-3-3 3-3 1-9h-2v-2l-12-1-3 1h-7l-10-1-7-1-6-3-1-7-2-4-5-2v-3l1-3 5-2 1-2-3-1 1-5 1-2h-6v-4l2-1v-5l-1-4 8-4h2l-2-3h-9l-4 2-3 8-3 3-12 4h-3v-30l8-1 4-1 7-2 5-2 8-4 5-3z" fill="#FDD5A4"/>
<path transform="translate(1479,411)" d="m0 0 6 1 2 3 3-2 5 1 5-1v2l4-1 10 2v2l10 1v2l7 3h7l1-2 4 9 8 1 6 6 8 1 2 2v5l-1 1v5l4 1h9l6-1 15 4v142l-12-3-4 1-11-1-4-4-4 2-4 1-1-4 2-4-4-3-1 3h-9l-7 1-2-1h-7v3l-1 6-4 6-10-3-2 7-4-1-1-3v-3l-4-1-1 5-3 1-2 4-5 3-6-5-2 1-2 5-1 5-4 2 2-6-19-4-11-2-13-3-9-1-5-2-9-1-4-4-3-6-4-5 4-1v-2l-11-3-1-5-7-1-2-4-2-3h-14l-5-2-13-1-4-1-2-10-8-7-10-1-1 1-12 1-8-2-2-2-9-1-9 3v4l10 4v-2l9-3 15 2 11 1 4 6v5l-2-4h-8l-8-2-23-1-10-1-3 2-7 2-3 4v-3h-2l-1-4 2-2-5-1-2-1 1 3h-2l-1 5-5-1-8-6v-6l-2-2-1-6-1-7h3l1 2h2v2l7-1h8l2-1 2 1 2-6 13-2 3 1h10l2-7h7l3-2 4-5 6-2-1-7 5-1 6 2 23 2 16 3 3 2 19 1 5 3 9 3 3-3 2-5 4-2 1-7 1-5v-2l-4-2-3-5v-6h2v-9-3l-3-11-11 2-3-4 2-2 11-1 3-2 2-5 10-2 4-4h9l3-5h6l4 4h4l-1-4-2-2v-7l-4-1 1-4 9 1 4 2-1-4-1-2 6-3h7l1 1 2-3h2z" fill="#D7E5D0"/>
<path transform="translate(1351,576)" d="m0 0h7l5 2 3 4h2l1-2 9-2 4 2 5-1 2-1 4 5 13 1 5 6 3 7 2 1 12 2 2 1 19 3 6 2 23 4 4 2-1 4-1 2 4-3v-5l4-6 5 3 3 2 4-2 2-5 3-1 1-4 5 1v3l1 3h3l2-7 10 3 4-7v-4l-2-2 3-2h7l6 1 8-1h4l1-2 4 2v4l-1 4 5-2h4l3 3 14 1 3-1 9 3 1 1v129h-7l-1 5-5-2-2-5-7-3-11-1-2-2 5-2 1-3-17-2-1-1-13-2-4-4-3-7-5-2-5-3-3-9-3-3-4-1-4 1h-11l-4 2-4-3-14-2h-9l-5 4h-2l2 10h2v6l7-1 7 5 1 3 8 3-2 5h-2v2l-8-4-1 5 1 4-8 2-10 1-32-11-2-3 2-2 9-3-9-4-17-6-1-3h-10l-7-3 1-2 5-1 3-1 6 2 6-1 3 3 5-3-4-3-2-9-2 5h-3l-1-7-7-2-3-2h-6l-1 1-9-1-5-9-2-5-5-2h-5l-3-5v-2l-6-2-4-6-6-4v-2l-5-1-1 4-4 2-6-1-1-5 1-3-3-10 3-3 6-1-4-14-2-3h-5l-2 3-6-1-5-2v-2h-2v-3l-6 1v-4l7-2 3 2 7-1 8 1 5-1 3-5 7-2 4 1z" fill="#E3E3C7"/>
<path transform="translate(836,1473)" d="m0 0 6 2 4 8 2 5-1 1v6 4l1 6 3 4v5l-4 4-3 1-2 9v4l6 4 1 4v5l8 3 8 4 4 5 4 2h5l7-5 3-6 4-1h13l-1-10 3-9 1-2-9-3h-2l2 5v4h-7l1-9-3-2 1-5 4-2 3 5h7l4 3-1-13-4-2v-1l5-1 36-1 8 7 7 5 9-1 1 1v8l2 4 2-3 6 2-1-6 4 2 1 2-4 17h2l1 2 7 4 2-4 3 1 1 8-2 5 4-1v-3l4-6 9 3 4 2h7l4 7v5l-4 1-2-2-8 1-2-4-5 2-3 5h-2l-1 5-5 4-11 1-1 4-2 1h-7v5l27 2 21 7 2 3h-334l1-5 3-4 5 1 3 1 1-5 2-3 8 1 4-3h2v-7l2-2h9l3 5 7 1 4-4-1-4-5-2h-10l-5-4 1-7 5-4 2 4 6 1 15-3 6 2 2-4 4-1 4 2h5l4-1 6 4 5 1 4-3 7-1 2-4 9-3-1-7-1-6 4-2 1 4 4 3v16l2 4-7 3-3 6-2 1h-11l1 5 2 1h7l5-3 7-4h3l2-7 5-8 4-1 4 1 1-4 1-5 3-6 1-4-3-3-1-3v-8l3-6 1-6h3l-3-5v-10l1-3v-8l-3-5h-3l-2 7-5 3-3 9-2 3v9l-4-4v-8l2-1-1-7 1-5 5 1 1-4 3-3 3-5z" fill="#FEB66F"/>
<path transform="translate(0,435)" d="m0 0 4 1 2 8h12l4 3 13 1 1 2-2 3v6l4 1 2 2v1l7-1 9-2 5 1-1 4-5 6-7-1 1 5 2 1 1 5 2 1 1-4 6-4 7-1h8l7 4 7 14 3 1v-3l3-1 4 5 1 6-4 2v6l4-1 5-2 2-3 6-3 7-1 4 4 3 1-1-7 5 1 2 7 8-1-1-6 3-1h7l-1 4 7 3 4 2 1 7 4 5 4 8v3h3l1-7 8 6 7 6 4 2 1 4 18-3 4-2 5 3 4 2-1 4v4l4 6 1 6h-4l-1 4 8-3h5l2 2v5l-9 4v2l5 2v5l-5 1-6-3 1-9-4-4-2-1h-6l-2 2-6-1-4-1-1 4-1 1h-15l-2-2 3-2-1-4-11-1h-8l-6 1h-25l-4 1h-23l-1-2-2 2-5 2h-12l-4-4-7 2-1 2-24 1h-18l-2-3-2 2-10 3h-10v2l-4 4v9l-1 5 1 2v8l4 4 1 7 5 2 2 3 2 7 7 4 2 1-1 4-8 8-1 7-7 4h-6l-4 1-1-1z" fill="#D7E6D1"/>
<path transform="translate(442,1517)" d="m0 0h7l6 3 2 3h5l2 10h7l3 4h-2l2 4 10 1 2 2 4-1 2-2 1-5h2v5l4 1h8l1-3h3l1 4-3 2 5-1 3-6h5l1 3h-3l1 10h2l1-3h2v-5l5 1 3 3h1l2-6 1-7h4l3 11v3l2-5 4 1-2-5-3-5-1-3 4 1 3 4 1 3h9l6 4h2l3-4 7 1 2 3 3-3 7-1 3-3 5 1 2 4 12-1 5 2h14l3-4 5 1 4 4 5 1v5h3l1-3h7l2 2 2 7 5-1 5 1 3-1 3 4 1 8-1 8 4 5 3 10-1 11h-244l-1-5 3-1 3 1 1-8-5 4-2-1 1-6 4-1 4-4h2v-2l4 2 5 1 2-1 2 1 1-3 10 1 3-4h2l-4-10-1-1v-8l-9-1-4 1-1-3 1-2-8-1-2-1 1-7 1-2h4v-4l-7 1v-3l-4-1-1-5-2-4-3 1h-2l2 6-6 2-5-5h-2l-1 7-3 2-3-3v-5l-4-2v-2l-4-1h3v-2l6-1 4 1 3-1 1 2 5-1z" fill="#FEB66F"/>
<path transform="translate(1322,501)" d="m0 0 7 1 3 1 23 2 16 3 3 2 19 1 5 3 9 3 3-3 2-5 4-2 1-2 2 1 2 4-4 1h-3l-1 4v2l5 2-1 5 2 6-1 2-9 1v4l5 1 7 3v12l-1 3 6 1 1-3 3 2-1 3 2 6-4 2h-3l2 2-6 3h1l15 1 13 2 7 1-1 2h-2l-1 4h2l2-4 6 2 1-3 5-2 4 7 4 3 6 1 1-4 3-1 1-2 2 1v3l1-2 4 2 5 3 4 2-3-6v-12l4-4 3-1 4 2 11 1 2 4 4 2 3 4 7-4 10-4 6-4 8 2h6l1 3 5 5 6 1 4 6 3 1 4-1 2 1h7v14l-12-3-4 1-11-1-4-4-4 2-4 1-1-4 2-4-4-3-1 3h-9l-7 1-2-1h-7v3l-1 6-4 6-10-3-2 7-4-1-1-3v-3l-4-1-1 5-3 1-2 4-5 3-6-5-2 1-2 5-1 5-4 2 2-6-19-4-11-2-13-3-9-1-5-2-9-1-4-4-3-6-4-5 4-1v-2l-11-3-1-5-7-1-2-4-2-3h-14l-5-2-13-1-4-1-2-10-8-7-10-1-1 1-12 1-8-2-2-2-9-1-9 3v4l10 4v-2l9-3 15 2 11 1 4 6v5l-2-4h-8l-8-2-23-1-10-1-3 2-7 2-3 4v-3h-2l-1-4 2-2-5-1-2-1 1 3h-2l-1 5-5-1-8-6v-6l-2-2-1-6-1-7h3l1 2h2v2l7-1h8l2-1 2 1 2-6 13-2 3 1h10l2-7h7l3-2 4-5 6-2-1-7z" fill="#E0E7D1"/>
<path transform="translate(88,742)" d="m0 0h21l3 2 11 1 4 5 2 1h9l3 2 2 6 7 5 5 1 3 5-1 4-5 4-4 4h-3l-1-7-2 1-2 7-2 2v3h4v5l-3 7-5 5-1 3h-2l1 3 6 4 3 4-1 4-1 3 2 5 5-2 12 1 6 4 14-1h4 6l6 4-3 5-2 1-7-5-5 2-4 2-9-2-5-1-6 2-18-2-8-2h-7l-5 3-7 2-4-4h-3l-3 1-7-5-4-1-5-5-9-2h-4l1 7 5 4 2 4 11 2 3 1 5 9h6v5l6 3-1 3-14-2v3l4 1 2 6h-10l-4 1 2 7h-3l-6-4 1-3-1-3-3-1h-15l-14 1-4-3-5-2h-3l-7-3v-3h-2v-2l-3 1-2 4-7 1-2-7-4 1-6 5h-1v-65l16 2 4 1 3-3 4 1 3 3v2h6l7 2h32l3-1 6-10 4-5 2-5 1-6-3-1 1-6 4-5-1-9-2-9-3-5z" fill="#F0DDBD"/>
<path transform="translate(137,1436)" d="m0 0 5 1 1 9-2 7 3 2-1 10-1 5v2h2l1 3-2 4-2 1-2 4-5 3-2 6h-3l2 3v4l6 2-1 5-4 2v5l7 2v3l-5 2 1 5-4 6 2 4 3 3v2l-5 1 3 4-4 4 4 7 1 9-2 2-5-1-2-2-8 2 4 7 5 3 2 2 11 1 16 3 13 2h8l3-2 8 1 8 2 3 2h13l2 2v3l7 1 2 3v3h-223v-46l6 1 6 5 2 3 7 3 11 1 1-1 7 1v2h7l4-3 1-4 5-3 5 1 5 4 3 3 9 1 3-4h6l3 2 5-1 5-3h5v-2l-2-14-1-2-1-9-3-2-3 2-10-1-5-1-1-5h4v-3h-6l-5 6-10-2v-5l9-5 5-1v-4l13 3 2 1v-5l4-1 4 5 7-1 1-1-7-4v-2l5-3 5-5h2l-1-5 2-3-10-4 3-3 4 1 1 1 1-4-3-1 1-4h-5l1-3 4-4h5l3-4v-10l3-3 2-12 7-5h6z" fill="#FE9459"/>
<path transform="translate(252,1350)" d="m0 0 3 3v5l-6 4-1 3h8l2 4v5l-5 1v5l13-5 4 3v-2l4 1 1 6-5 5-3-1 3 5h7l2 4v5l5-1 4-3 2-5 3 1 3 5 5 3 1 9h4l4-5 5 2 8 5 3 3 7 1 3 3-1 12h2l1-2h3v4l-4 1v5l5 5 4 1 4-5h9l1 3-4 2v5l5 2 3 5 5 3v4l4-1 2-1 1 7 1 4 3 4v5l4 2 3 8 3 1 4-1 4 6 4 5-1 6 1 7-5-2v-2h2l-2-4-4 1-2 1-1 8 2 4-8-1-4-3h-9l-5-2-10-1-3-3v-2l-10-3-3-2-7-1-1-1h-7l-1-4-5 4-5 1 6 2 4 2 4 7 2 1 12 1 4 2-2 4-1 3 5 1 2 5-1 7-3 1v2l-8 2-3-3h-14l2-1 1-5 5-1v-3l-5-1-1-5 1-2h2v-2l-6-1-6-2 2-1v-5l-7-2-6-3-2-2v-5l8-5 9 1 7 1 4-2v-7l1-5v-8l-4-5 2-7h-5l-3-3-2-6-12-3-4-2-4-7-4-4-3-7-10-8-1 3-2-1v-2l-5-1 1-3h5l1-6 3-1v-2h2l-1-2-7-3-9-4-2-6-8-2-1-3 5-1-9-3-2-2-4 1-4 6h-18l-10-2-5 2h-28l-1-1 1-7 1-2v-6l-5-2h-2l-1 3-4-1-2-3 2-3 8 1 4-2 2-2 1-3 5 1 1 5 5-1-1-5-3-4-4-3 28-2 19-2 13-1 3 1z" fill="#FEB66F"/>
<path transform="translate(1430,306)" d="m0 0h3l1 2h7v2h-7v5l3 4 2 6 2 1v2l5 2 4 5 9 3 5-2 4-3 6-2 8 1 4-4 1 3h2l2-9 3-4 7 2 5 3 14-1 1 3 1 4 2 4-4 1h-7l-2 1-8-7h-4l1 3 8 3 2 6 9 1 16 5h7l3-2 11-1 14 5 16 5 3 1 2 4-3 2-22 1-6 2-3-1h-15l14 6 1 3-7 1-34 1-11 1h-22l-2-4 2-10h-23l-1 3h-14l-1 5-2 1v8l-2 3-1 5-5 5-10-2-3 2-2 4-5 1h-5l-2-3-5-1v-2l-5 1-17-1-3-2 2-5 7-3-1-5-1-6-7-6-1-7-1-2 2-10 3-1 1 2 3 1v-3l-2-1-1-6h-2l-3-5-2-1v2h-4l-2-5 4-6 5-3 5 2 5 1 8-3h13l12-5 3-3h5z" fill="#CFE9DB"/>
<path transform="translate(246,1389)" d="m0 0 5 1-1 2 6 7-1 3-2 1 1 8-1 5-1 7h-2v3l2 1 4 8-2 7 2 5-2 1-2-1v9l7 3 3 6 2 9-4 6h3l1 2 3-1v4l3 1-1 8-3 6v2l11 1 2 2 2 6 10 3 4 4v2h4l2-3 7 1 4 2h-3v2l4 1v11l-2-4-1-1h-6l-3 5-5-1v-8l-5-1-10-1 2-6-16 2 1 5-1 1-8 1 3 13v-2l1-5 5-2-1 14-1 3-1-1h-5l-4 3-6-1-6-4-1-4 8-4-1-13 2-3h2v2h2v2h2l-1-6-8 1-1-5 1-5h-14l-3 3h-3l-3-5-2-7-4-4-3-6-9-3 2-6 6-5 2-2 1-2h17l-2-3-3-2 3-1 1-2-5 1-2-3 3-2-6-3-8-1-2-2v-3l-7 5v2l-10 1-2 4h-11l-6 2-1 5-3 3-1 5h-2v2l-7-2-1-5-2-5v-6l3-6 5-3h4l2-7h9l3-2 1-6-8-1v-3 4l-1 4h-6l-2-2v-5l-2 1v-2l-5 1v-3h-14l-3-5 10-8 4-2 5 1 2-5 2 2 5 4 1 1h9l1-3 8-1 3-3 4 1 2 4h8l5 5 6 1 2-1 2-9-3-1v-3l-3-2h-6l-5-7-1-4h3l1-2h7l2-2 2 1v-1l20-1z" fill="#FEB66F"/>
<path transform="translate(1151,1535)" d="m0 0 5 1 4 2v4l-7-1-4 4-1 5-3-1-1-4h-5l-2 5-5 5-10 5-3 7 1 16h5l2 2 2 10 6-2 1 1 16 2 2-5 5-1 2 4h4l1-6 4-4 2-7h8l2-9 4-11 4-4 8-1 3-3h2v-6l6 3 2 6 3 1v-6l9-1 3 4v2l7 2 3 5 8 3 6 1 5 2 4 11 1 4 1 5-1 5 1 2-4 1-2-1-3 1-1 3h-2v4h-149l-2-5-5 1-1-5v-8l-2-1-8 1-2 2h-4v-3h-5v-4l-4 1h-9-3l-2-1-5 2h-9l-7 1-4-3-7-1-1-1v-5l2-2 4 1 2 2 4-1 11-1 1-5h11 4l4 2h5l1 1h10v-7l4-1 6 1h3v-3l8 1 2-5 3-1 2 4 13-1 4-4 7-2 3-9 1-1 9-1 3-3z" fill="#FEB66F"/>
<path transform="translate(1532,1213)" d="m0 0h26l15 9 4 5 7 9 5-1 5-3 5 3 1 1v7l-5 4-9 1-3 10-2 7-4 7-7 7 1 3 5 3-1 6-5 5-4 2h-6l-5-2-4 3-2 7-2 4 3 3 6 3 3 5-1 9-6 6-3 1h-8l-7-4-2-4-6-4-4-6-3-12v-7l2-2 8-1 3-2 1 4 5-2 4-8h6l5 2h2v-6h-10l-15-8-1-3-7-1-10-20v-8l2-3 2-8 9-12 5-6z" fill="#FED4A3"/>
<path transform="translate(45,333)" d="m0 0 5 1-4 1 1 7 5 7 11-2 21-6 15-3 5 1 1 1h9l2 9 5 2 7 2 1 5-3 5-5-1-9-8-1-7-7-1-7 3-3 5-1 5 12-2 2 2-1 7 1 3h-2l-2 4-4 4-10 2v3l8 1v2l-2 1 1 4 4-1v3l-5 1 1 8-3 2-4-1-1-5h-7v5l-2 2-4 1h-8l-3-3-1-6-3-6-13 1-6 4-3 5-7 2-4-3-1-5-3-1v2l-5 1-6-4-7-2-5-2v-48h6l2 2h12l2 1-1-3 4-2 1 2 2-1-1-3 4 2 1 3 12-2z" fill="#D0E9DB"/>
<path transform="translate(1558,583)" d="m0 0 4 2v4l-1 4 5-2h4l3 3 14 1 3-1 9 3 1 1v67l-10-4-1-2-7-3-4-6-2-2h-7l-1-5-20-2-5-1 1 5-11 2-2-6-8-4-7-1v2h-5l-2-3h-5l2-4v-8l1-3h-11l-10 3-6-3v-2l4-3v-5l4-6 5 3 3 2 4-2 2-5 3-1 1-4 5 1v3l1 3h3l2-7 10 3 4-7v-4l-2-2 3-2h7l6 1 8-1h4z" fill="#F2E5CC"/>
<path transform="translate(146,513)" d="m0 0h6l1 5-4 4-1 9-3 9-10 3v1l4 1 2 9 10 4 9-2 2-1h8l7-2h6l1 1v5h-19l-6 1h-25l-4 1h-23l-1-2-2 2-5 2h-12l-4-4-7 2-1 2-24 1h-18l-2-3-2 2-10 3h-10l-2-6 3-10 3-3 9-2 6-4 4-3h8l8 3 17 1 10-3 8-5 4 1 6 1 5-3 1-3h2l1-4 6-4 7 1 3 5v3h5l2-2 1-7 7-3 11 1z" fill="#E1EBDB"/>
<path transform="translate(790,444)" d="m0 0h6l3 5v3l7-2 1-2 7 1 5 2v2h13l3-4h3l3 5 3 3v14l3-1v-5l5-3 9-3 2 2 1 7 8 4 2 5 2 1v2l2 1-2 9-7 6h-2v2h-2v2l-6 1-10-1-5-6-3-1-5 3h-6l-5-1-7-1h-5l-11-10-7-5v-6l7-1-3-3-5-1-4-9-5-3-2-4v-4l4 1 5 1v-5z" fill="#D7E6D1"/>
<path transform="translate(849,411)" d="m0 0 11 1 4 2 9 1 5 5 14 3 10 1 5 8 9 4 4 1 18 1 4 1h27l15 1 2 4-6 4-5 4-3 1-5 5-15 1-3 3-5 2-2 6-4-1v-6h-2v-2h-12l-8 4-1 3h2v6l-5 9-3 3-12-1-8-5 2-4 3-2 2-4 6-3 4-4 2-1 1-13-12-6-9-4-10-3-5-4-7-3v-3l-6-2-7-5v-4z" fill="#D7E6D1"/>
<path transform="translate(174,520)" d="m0 0 8 6 7 6 4 2 1 4 18-3 4-2 5 3 4 2-1 4v4l4 6 1 6h-4l-1 4 8-3h5l2 2v5l-9 4v2l5 2v5l-5 1-6-3 1-9-4-4-2-1h-6l-2 2-6-1-4-1-1 4-1 1h-15l-2-2 3-2-2-10-9 1-5 1h-7l-8 3-6-1-8-4-2-9h-5l4-4 8-1 2-9 1-9 2 2 1 3 3-1 14 1v-5l2 2v3h3z" fill="#E0E8D2"/>
<path transform="translate(696,118)" d="m0 0 6 1 8 5h15l6-3 4 1 1 9 5 3 6-2v-6h3 8l11 6 3 2h6l2-2 6 1 6 5 4-1 3-7 5-1 3 13v1l-45 3-25 1-7 1h-26l-9-6-4-9-1-4-8-2-6-3v-4l1-1h8l6 1z" fill="#B1E8EA"/>
<path transform="translate(9,931)" d="m0 0 9 1 12 1 6 5 2 6-11 14h-3l-2 10v8l2 3 9-1 3 2-2 5 1 6 1 4-4 5-4 4 2 1-1 1h-7l-6-5-3-2v-2l2-1-6-1-8 7h-1v-63l5-3z" fill="#FED4A3"/>
<path transform="translate(355,396)" d="m0 0h22v4l-5 5-2 3-1 5h3l-1 4-5 3-10 3-3 3-5 3-9 10-4 4-8-1-5-2-3 1 3 7 2 4-3 3-7-1h-8l-5 1-5-5-1-2 13-1 1 2 3-8 2-6-8 1-4-5 3-10-10-1-5-3 1-6 2 1 3-3h6l4 3 2-1 2 7 2 2 3-3 14-4 5 1 3 1 4-9 11-6z" fill="#E0EBDC"/>
<path transform="translate(91,526)" d="m0 0 6 1 5-1-1 4h-2l-1 4-5 3-6-1-4-1-10 6-8 2-17-1-8-3h-8l-8 6-5 2-7 2-2 3-2 10 1 6-4 4v9l-1 5 1 2v8l4 4 1 7 5 2 2 3 2 7 7 4 2 1-1 4-8 8-1 7-7 4h-6l-4 1-1-1v-114l10-2 4 1 14-1 8 3 6 1 5 2 6 1h13l6-4 3-3 5-2z" fill="#DFE7D1"/>
<path transform="translate(969,1541)" d="m0 0 4 2 4 3h5l4-1 4 3 2-4 3 1 1 8-2 5 4-1v-3l4-6 9 3 4 2h7l4 7v5l-4 1-2-2-8 1-2-4-5 2-3 5h-2l-1 5-5 4-11 1-1 4-2 1h-7v5l27 2 21 7 2 3h-67l2-2 6-1 1-4 4-13 2-3-5-1-1-2h2l-3-5v-3l3-2 1-6-3-4 1-5z" fill="#FFB66F"/>
<path transform="translate(0,1407)" d="m0 0 2 1 1 4 8-1 3 3 9 2 5 1 3 1-6 2h-4v3h12l-2 4-1 4-5 2 1 7 2 3v6l-4 3 2 4 3 4-1 4-2 2-3 2-2 1-2 12-6 3-5 10-5 7-3 1z" fill="#FF9459"/>
<path transform="translate(959,351)" d="m0 0h5l1 1v9l1 2 9-1 7-2 2-2 9-2h3l-2 8-6 3-3 9v5l-2 2h-8l-4 4-6 2-4 4h-2l-2 7-2 2 2 2-5 4-5-1-1-2 5-2 2-9v-2h-2v-2l-5 1-1 1-10-1-1-1h-6l-3-3 1-4h3v-2l-12-2h-2l-6 1 2-6 1-5h5l3 6 7-1-1-10 1-3 11-3 4-2 1 3-2 7 6 3 3-3 2-5h8l-3-5 1-4z" fill="#D0E8DA"/>
<path transform="translate(1487,1035)" d="m0 0h12l7 1 23 1 4 7v5l-10 1v4l-4-1h-10l-2 6-4 7-4 2-8 1-3 3-9 4-5 6h-12l-8 5-14 2-5 3h-9l-4-4-1-5 8-2 9 1 4-5 12 2v-5l1-3 1-5 6 1 7 1 5 3-2-4 1-5 4-7h10l2 1 1-4 5-1 3 1v-2l8-1 1-2-2-2-6 1-5-4-6-1-2 1v5h-4l-3-5z" fill="#FED5A4"/>
<path transform="translate(40,192)" d="m0 0 5 1 3 3 8-1 4 5-1 5 5 1 1 5-2 3h-7l1 4 2 4 4 1 2 9-5 4 1 5 2 4h5l2-3 10-1 7 7-2 1-4-3h-6v3l-17 4-11-2-10-6-5-7-2-5-3-3 1-5-1-6 2-2 1-5 3-2 2-9 2-3 1-5z" fill="#C3EBE7"/>
<path transform="translate(249,231)" d="m0 0 7 1 6 4 7 9 3 3 6 3 1 3 6 1 7-4 6 1 5 8-2 4-8 4 1 5-6 4-4 2-4-4-2-3-9 1-4 1-8-10-8-3-8-7-8-3-9-6v-3h7l5 1 8-7h2l2-4z" fill="#D9EBE0"/>
<path transform="translate(954,1525)" d="m0 0 4 1 4 4 2 6 12 3 1 4 6 2-1 2h-5l-6-5h-2l-2 7-1 5 3 4-1 6-4 2 3 6-1 3 5 2-3 11-3 6-1 4-6 1-7 1 1-5 1-3-1-3-2-1v-8l-7-2-1-3 8-1 2-5h3l-4-7v-9l-3-3-5-2-5-3-7 3-2 3h-6l-8-7 2-4 4-2 17-1-1-6 5 1 2 2h5l3-5z" fill="#FEC07F"/>
<path transform="translate(1042,495)" d="m0 0 7 1 3 2-1 4 7 2 5 5 4 7 10-1v6l2-1 4 2 2-2v6h-2v2h-2l-1 2-3 3-3 4-3-1 1-7-4 3 2 2-6 1-16 2v2l-9 1-5 1-6-4-4-2-1-5-4-1 1-5 9-3 9 1 4-2-5 6 6 1v-3l2-1v-7l-2-6-12 1-5 1 1-4 3-4 5-2 3-6z" fill="#E0E8D2"/>
<path transform="translate(785,150)" d="m0 0 9 2 5 4 4 2 4-6 6 2 9 1 1 1h15l2-4 3-2 12 1 16 3 1 2-7 1h-10l-8-1-9 6-8 2-2 1-3-1h-15l-5 5-10-2h-8l-8 6-10 3-2 4v5l-2 2-5 2-3 9-4-1 1-5 1-4-1-3 1-2h7l-2-6v-6l5-8v-6l2-3 9-1 5 1 1-3z" fill="#B1E8EA"/>
<path transform="translate(1225,93)" d="m0 0 6 1 1 5-1 5 1 3 6 2 3 3 2 7v2l6 3 1 6-47 2h-16l-1-3 4-5 7-4 2-4-1-2 11-4 7-2v-7l6-7z" fill="#B1E8E9"/>
<path transform="translate(819,346)" d="m0 0 4 1 9 4 2 5 5 2 4 4h2l1-3 5 1-2 5-2 4v5l4 1 3 9h-6v5h6l3 3v2l-5 3h-3v2h-2l2 4-1 6h-2l-1-6-5-1 2-2 3-1-1-3-6-2-1-7-9 1-2-1 2-4-2-4h-5l-4-5-3-2 1-12-4-9 1-3z" fill="#D0E8DA"/>
<path transform="translate(890,307)" d="m0 0 3 3v6l6 1-1 12-5-1-4-4-4-2h-13l-1 5 2 2-1 4-7 2-5 7-10 5-1 2-5-2-2-2h-8l-5 1-3-3 3-3 7-3h6l3 2h5l-1-11-9-3-3-6 7-7h7l4 4 10-5 1 4 6-2 2-2 5-2h5l1 3h3z" fill="#CFE9DB"/>
<path transform="translate(379,131)" d="m0 0 3 1 4 4 3 1-3 6h4l1 5h2v-6l4 1 4 8-1 5-10 11-8 3-9-2-8-3-5-6-2-6 1-6 2-7 5-6h9l3-1z" fill="#CEEBE4"/>
<path transform="translate(1165,289)" d="m0 0 4 1v2h-3l-1 5 4 2 1 4-1 8h-4l2 4-4 4-1 2h2l1 6-2 3h-2v8l-4 1-3-3 2-6-1-9-3-1-3 2-3 6-3-1-3-5-5-1-6-1-5 2-5-4-2-4-11-3v-3l7-2 6-5h12l-4-8-1-3 4 2 3 6 6 2 1 2-1 10 1 5 8-6 3-1h10l1-5 3-4-10-1-4 1v-4l3-5h9z" fill="#CFE9DB"/>
<path transform="translate(1351,576)" d="m0 0h7l5 2 3 4h2l1-2 9-2 4 2 5-1 2-1 4 5 11 1v1h-8v5l-5-1-5-2-8-2-3 9-1 1-10 2-7 1-4-2v-2h-11l-4 2-2 2-3-1v5l-2-4-2-3h-5l-2 3-6-1-5-2v-2h-2v-3l-6 1v-4l7-2 3 2 7-1 8 1 5-1 3-5 7-2 4 1z" fill="#E0E8D2"/>
<path transform="translate(1105,1399)" d="m0 0 3 1-4 1v5l4 9 1-1h7l7 2 1 5 5-2 2-2h5l-1-1-3-4 1-3 4 1 4-1 3 5 5 3v1l-5 1-4 11-1 3 5 1 5-2h3l4 9-1 3-6 3-2 2-5-1-2-2-5-2-1-3-1-6-11 2-3-2-1-3h-7l-3-3-2-9-3-4-1-12 1-4z" fill="#FEB66F"/>
<path transform="translate(1485,1228)" d="m0 0 4 2 12 14 1 7-1 4h-6l-7-9-3-4-12-4 3 5 8 3 5 9-5 1-27-1-13-8-1-3-5-1-1-4 4 1 1 3 5-1 1-4 1-5 4 1 6 5 6 1 2 6h3l1-3-2-1v-2l-2-5 3-2 11-1z" fill="#FED4A3"/>
<path transform="translate(1420,1581)" d="m0 0h5l5 8 2 8 5 2v1h-82l1-2 5-1 1-5h11l11-2 5 1 3-2 10-2 7-5z" fill="#FF9459"/>
<path transform="translate(1192,531)" d="m0 0 7 2 2 6 1 4-2 2h-30l-5 1-32 1-2 1-16 1-6-2-5-7 1-6 5 1 2 1v2l10-1 7 1 5 2 18-1 11-2h7l6-4h5v2l11-2z" fill="#E1E7D1"/>
<path transform="translate(463,1364)" d="m0 0h10l37 4 7 1 1 2-5 8-3 1h-11l-9 1-17-2h-10l-5 1-5-2-3-3v-3h2l1-4 7-2z" fill="#FEB56E"/>
<path transform="translate(1421,569)" d="m0 0 2 1-2 2 15 1 13 2 7 1-1 2h-2l-1 4h2l2-4 6 2 1-3 5-2 4 7 4 3 6 2-4 5-12 1-1-5-4-2-1-5-3 1 1 8-1 11-4-1-1-3-12-5-8-1-1-4 2-9-6 4-3-2-1 1-2 1-4-2-1-5 2-5z" fill="#E2E3C7"/>
<path transform="translate(641,526)" d="m0 0 5 1 5 5v2l7 5 3 1 3 4h2l-1 3-5 1-5-3v-2l-4 1-2 4-2 1v6l2 3-9 3-2 1-1-4 3-4-7-1-1-5-9-3-2-3v-3l-3-1-1-8 5-1 1 1 2-2h3l-1 5 3-1 2-5 8 2 3 5 4 2 1-4-6-1-2-4z" fill="#D9E6D0"/>
<path transform="translate(1484,375)" d="m0 0h28l13 6 8 4 1 2-23 1h-20l3 7v11l-3 2-3 7h-3l-4-3-4 1-2 2-1-5 6-3 1-5 2-1v-8l2-5-2-10z" fill="#D0E8DA"/>
<path transform="translate(1185,134)" d="m0 0 3 3h3v4l4-1-1-4 26 1 25-1h26l17-2h7l2 1 1 6-3 1-28 1-52 3-13-2-12-2v-2l-4-1z" fill="#B1E8EA"/>
<path transform="translate(1218,1554)" d="m0 0h6l2 5 7 3 2 4v5l-2 3-1 8h-2v-6l-5 1-3 8-6 1-4-1-5-7-2-9h-9l-2-4 6-4 13-6z" fill="#FEC180"/>
<path transform="translate(1287,563)" d="m0 0 3 1-1 4-8 7-5 1-2 7-8 6-10 7-9 5-10 3-5 3-7 2-2 2-11 4-2 2-5 2-4 2-1 2-5 3-9 3-6 3-13-2-20-1-6 1v-2l9-3 9 1h20l14-5 10-6 9-4 5-2 1-2 12-6 3-2 5-2 13-2 11-8 6-5 4-7 3-7z" fill="#E2E3C7"/>
<path transform="translate(455,510)" d="m0 0 5 2v2l9 3 4 9 4 5 2 9 4 1 5 7-5 2v-2h-8l-2 1v-2l-4-2-5-9-1-2h-5l-3-1-1-2h-5l-3-5 1-3h6l-3-5-1-1v-5z" fill="#E0E7D1"/>
<path transform="translate(1151,459)" d="m0 0h8l9 3 1 3-14 2-21 6-1 4-9 1-2 2-3-2-3 3-11 1-5-1-7 3-5 2h-7v-4h9l-5-1 1-3 15-5 4-2 11-1 13-1 5-4 7-1 2-3 5-1z" fill="#D7E6D1"/>
<path transform="translate(1364,526)" d="m0 0 3 1 1 5-4 3h-2v2h2v2l13 2v2l19 1 11 2 3 3-1 5-1 3-2 1h-10l-7-1-3-5-9-4-6-3h-7l-4 5h-4v2h-2v-13l-5-4-4-2 1-2h8l4-2 5 2z" fill="#D7E6D1"/>
<path transform="translate(397,1087)" d="m0 0 5 2v2h3v2l4 2 2 3-1 3 3-1v3l-2 3-4 1-3 8-10-2-2-7-4-1h-3l-1-2-5 2-7 1-3-3 1-3 4-1 1-3 7-3 5-3 6-1z" fill="#FEC180"/>
<path transform="translate(641,284)" d="m0 0h13l2 2-1 4-12 4h-2l-1 4-9 2-4 3-6-2-7-4h-6l-4-5-1-4 3-1z" fill="#D9EBE0"/>
<path transform="translate(1212,470)" d="m0 0 6 1 21 3 4-2 4 3 12 4 4 3 9 3 10 2 3 3v2l-7 1-8-1-8-3-10-2-3-4-9-1h-16l-10-4-12-2-2-2 8-3z" fill="#D7E6D1"/>
<path transform="translate(1493,799)" d="m0 0h8v4l-5 3v6l-2 1 6 7-1 5h-6l-5 4-4-1-3-4-5-1v-2l-6-2-8 1-1-4 7-5 9-1 7 1v-8l2-3h6z" fill="#F0DDBD"/>
<path transform="translate(1484,540)" d="m0 0 4 1 4 2 12 1 4 2 1 3-2 10-5 5h-2v2h-2l-2 4-1 1h-6l-2-1v-12l2-3h2v-2l-3 2-7 1-2-1v-7l5-3-1-4z" fill="#E0E8D2"/>
<path transform="translate(122,129)" d="m0 0 4 2 1 4-2 5v2l7 1 4 6 2 12-4 3-10 1-9-6-1-4 2-4h4l-1-9-4-5z" fill="#C2EAE8"/>
<path transform="translate(1350,395)" d="m0 0 15 1h20l2 2-1 9-4 3-11-1h-4l-4-4 1-7h-3l-1 2-2 1v5l-4 5h-6l-3-3 2-10z" fill="#D7E6D1"/>
<path transform="translate(409,59)" d="m0 0 5 3 6 7 5 7-1 4-8 7-7-1-4-5-4-7-1-9 2-4z" fill="#C2EAE8"/>
<path transform="translate(1357,703)" d="m0 0 4 1 2 5 3 3 1 4 1 1v5l-1 4 1 10-3 6-4-2-2-3-4-16-5-1v-6l-3-1 1-4-2-1 2-4 3 1z" fill="#EFDDBD"/>
<path transform="translate(1166,265)" d="m0 0 5 1v3h-4l-1 4-7 3-6 3v2l1 2-6 1-1-4-10 4-5 3-1 2-7 1-6 8h-9l-1 3-7-3v-2l9-3 7-3 11-9 9-4 12-5 11-2 4-2z" fill="#B1E8EA"/>
<path transform="translate(1276,1161)" d="m0 0 9 1 6 6h5l2-1 6 4-2 3-16 1-7 4h-5l-3-3-9-1h-2l-1-5 1-1h6l2-4 6-1z" fill="#FEC180"/>
<path transform="translate(70,188)" d="m0 0 4 1 9 6 5 1-1 4h11l1-2 8 3-3 7-6 1-4-1-13 2-7-6-2-5-2-1-1-8z" fill="#C3EBE8"/>
<path transform="translate(1288,389)" d="m0 0 5 3 9 5 5 2 4 7 18 9v11h-10v-3l3-1v-4l-13-3-5-6-5-1-3-6-8-6-2-4z" fill="#D6E6D1"/>
<path transform="translate(500,1162)" d="m0 0 16 2 22 4 4 3v3h2v2l4 1 4 3-1 3-6-1-4-3-5-2-4-6-7 1-6 4-12 1-2-10-6-1z" fill="#FEC180"/>
<path transform="translate(1326,349)" d="m0 0 10 3h4l-3 10-2 2-4-1-3-1-3 5h-6l-4-4-5 1-4-3-6-1 3-5 3-2h12l3 3 3-1z" fill="#D0E9DB"/>
<path transform="translate(1318,314)" d="m0 0 4 1-3 7 1 5 2 3 4 2-2 5-5 2-2 7 3 3-1 1-9-1-3-5v-4l-5-1-1-4-6 3h-3v-2h-2l-1-4 4-5 7 1 5 6h14l-2-6-1-1v-5l1-3z" fill="#CFE9DB"/>
<path transform="translate(1314,528)" d="m0 0 5 1 1 2-3 5h10l5 3 10 2 4 3-1 3-5-3-10-1-1 1-12 1-8-2-2-2-12-1 3-3h3v-6l1-1z" fill="#E1ECDC"/>
<path transform="translate(948,839)" d="m0 0h5v3h-3v2l2 1h7l5 3v2h2v-2h7l3 3-1 9h-5l2 6-6-1-4-4-7-2 1-3h3l-4-2-9-2-1-5-2-4h2l1-3z" fill="#F0DDBD"/>
<path transform="translate(849,30)" d="m0 0 17 1 6 10v3l-8 2-4 4-3-1-2-5-6-3-6-7-4-3h7z" fill="#C3EBE8"/>
<path transform="translate(1308,546)" d="m0 0 15 2 11 1 4 6v5l-2-4h-8l-8-2-23-1-10-1-3 2-7 2-3 4v-3h-2l-1-4 5-3h7l4-3 8 2 4 2v-2z" fill="#E1ECDC"/>
<path transform="translate(312,1589)" d="m0 0 8 4 4-3h8l7 1 5 5v4h-38l1-6z" fill="#FF9459"/>
<path transform="translate(1042,495)" d="m0 0 7 1 3 2-1 4 7 2 3 6v3h-14l-2-2v-3l-13 1-2-1v-4l5-2 3-6z" fill="#D7E6D1"/>
<path transform="translate(847,279)" d="m0 0h8l3 5 3 3-2 7-4 2-6-4h-10l-7-8v-3l2-1z" fill="#D9EBE0"/>
<path transform="translate(4,627)" d="m0 0h6l7 5 2 8-2 4-6 3h-6l-4 1-1-1v-17z" fill="#E3E3C7"/>
<path transform="translate(95,877)" d="m0 0h4l1 3-21 9-9 3-8 4-2 2-6 2v3l2 3-5-1-3-1-3 4-8 2-2 2h-5l1-3 14-8 11-7 20-10 5-2 5-1 6-1v-2z" fill="#FED5A4"/>
<path transform="translate(235,100)" d="m0 0h12l3 9-1 3-5 2-7 1-4 1h-2l-1 2-4 1-3-2v2h-8l4-2 3-2 5 1-1-5 2-3 4-4z" fill="#B1E8EA"/>
<path transform="translate(502,1553)" d="m0 0 1 2 8-1 9 3v2l6-1v-4l4 1 1 5 1 7 2 3-1 5-4 3-4-1v-12l-2-1-5 1-3-5h-7l-4 4h-4l1-4 1-2-4-1z" fill="#FEC180"/>
<path transform="translate(294,491)" d="m0 0 4 1 7 8 1 6-5 2-6-1-4-4-10 1-6-5v-3l2-1 11-1z" fill="#D7E6D1"/>
<path transform="translate(1248,1183)" d="m0 0h11l3 2-1 5-5 6v6l-4 3-6 1-5-2 1-4h2l1-11-2-4z" fill="#FEC180"/>
<path transform="translate(587,1194)" d="m0 0 13 1 5 2 10 2 2 4-5 1-9-1v6l-2 3-7 1-3-4v-7l-4-3z" fill="#FEC180"/>
<path transform="translate(525,56)" d="m0 0h5l1 4-5 4-9 3h-10l-2 2-6-1-2-3 6-8z" fill="#C3EBE8"/>
<path transform="translate(432,556)" d="m0 0 6 3h14l2 1v2l-8 5h-2l-2 4-3 1-4-1-2 5-4-1-2-3v-10z" fill="#E0E8D2"/>
<path transform="translate(617,1229)" d="m0 0h5l1 5-1 9 2 4 4 4h-2v2l-12-1-6-3 1-6 3-8z" fill="#FED5A4"/>
<path transform="translate(1372,424)" d="m0 0h21l1 4-5 7-7 1h-10l-3-6 1-4z" fill="#E1ECDC"/>
<path transform="translate(165,331)" d="m0 0h10l6 3 2 5 4-2h5l2 3-1 7-8-1-5 1-4-1-7-9-4-4z" fill="#CFE9DB"/>
<path transform="translate(398,111)" d="m0 0 8 1 4 2 2 6-1 6-3 2h-7l-7-3v-7l3-6z" fill="#C3EBE8"/>
<path transform="translate(641,526)" d="m0 0 5 1 5 5v2l7 5 3 1 3 4h2l-1 3-5 1-5-3v-2l-4 1-2 4-7 2-3-5 1-5 3-3 3 3 2-8-6-1-2-4z" fill="#E0E8D4"/>
<path transform="translate(1282,304)" d="m0 0h9l5 1 3 1-7 4-1 4 1 3-3 5h-3l-1-6-4 1-3 5-1 8h-3l-2-11h2v2l2-1v-6l3-4z" fill="#CFE9DB"/>
<path transform="translate(1248,380)" d="m0 0h14l7 2 2 2 15 4 2 2v2h-10l-9-3-4-2-12-1-12 1-5-3v-2l10-1z" fill="#D0E8D9"/>
<path transform="translate(1396,376)" d="m0 0 5 1h4v5l4 4 9 2v-7l4-1v2l6-1v7l-5 1-2 1-2 4-5 1h-5l-2-3-5-1-4-10-2-2z" fill="#D6E6D1"/>
<path transform="translate(272,333)" d="m0 0h5l1 1v5l-13 13-5 4-4-1-2-7 8-4 3-4 2-5z" fill="#CFE9DC"/>
<path transform="translate(277,1428)" d="m0 0 3 2 3 5 5 2 1 5-8 8 2 5-1 4-5 3h-2l1-7 1-3-1-3v-20z" fill="#FFB66F"/>
<path transform="translate(204,1394)" d="m0 0h6l-1 3-3 1v7l-1 2-7-1-13-3-4-3v-3l11-2z" fill="#FEB670"/>
<path transform="translate(455,510)" d="m0 0 5 2v2l9 3 1 6-6 2-8-1-1 1h5v1h-11l-3-2 5-1h2l-3-5-1-1v-5z" fill="#D7E6D1"/>
<path transform="translate(850,1559)" d="m0 0 4 1 4 10v3l4 2v2l-17-2-4-4-2-1 1-4 6-4z" fill="#FEC180"/>
<path transform="translate(221,1331)" d="m0 0 3 2v6h-41l-1-4 36-3 3 1z" fill="#FEB66F"/>
<path transform="translate(166,445)" d="m0 0 5 1 5 3 6 4v3l-3 1h-10l-2 1v7l-3-4-2-4-6-1-4 3-8 1-3 3 1-5 10-2 3-3h9l1-7z" fill="#D9EBDF"/>
<path transform="translate(1399,1085)" d="m0 0h7v4h-6l-1 4-8 4-7-1-5-4-2-2 2-3z" fill="#FED5A4"/>
<path transform="translate(1348,673)" d="m0 0h7l3 2 1 8-3 2h-16l-2-2v-5l4-3z" fill="#E3E3C7"/>
<path transform="translate(939,342)" d="m0 0 5 2 1 2 1 5 2 4h-9l-5-4-2 4h-5l-1-5 2-7h8z" fill="#D0E9DB"/>
<path transform="translate(1085,491)" d="m0 0 6 2 6 6v4l-11 1-5 4h-2l-3-5-2-2v-4l4 2 3-1-1-3 3-3z" fill="#D8E6D1"/>
<path transform="translate(1287,563)" d="m0 0 3 1-1 4-8 7-5 1-2 7-8 6-5 3v-4l7-6 4-7 3-7z" fill="#E0E7D1"/>
<path transform="translate(804,513)" d="m0 0 4 2 4 5 4 3-2 4-5 6v4l-5-4-1-6-1-4-1-5z" fill="#E1E8D2"/>
<path transform="translate(613,1129)" d="m0 0 5 1 3 4 10 2v5l-14 3-7-1 2-4 1-5-1-4z" fill="#F3E5CC"/>
<path transform="translate(1108,596)" d="m0 0h3l-1 4-11 15-6 3v-9l1-2h4l-1-3-2-2 7-4z" fill="#E3E3C7"/>
<path transform="translate(241,321)" d="m0 0 9 1 1 3-1 4 2 3-8 3h-7l-1-5 4-8z" fill="#CEEBE4"/>
<path transform="translate(1141,1483)" d="m0 0h7l5 2v6l-7 6-5-1-5-5v-2l4-1z" fill="#FFB66F"/>
<path transform="translate(1338,432)" d="m0 0 4 1 2 1v-2l4 1-1 4v6l-3 4-8 2h-4l-1-5 6-1v-10z" fill="#D7E6D1"/>
<path transform="translate(738,1593)" d="m0 0h3l3 4 9 1 6-3 3-2 2 2-2 5h-48l4-5 3 1v3l11-3z" fill="#FEC180"/>
<path transform="translate(159,1398)" d="m0 0 10 1 3-1v3l-6 2-4 10-6 1-5-2 1-3 1-4z" fill="#FEB66F"/>
<path transform="translate(1349,718)" d="m0 0 1 2 5 1 4 10-1 4-4-6-3-1-13-1-5-3 1-3h10l4 1z" fill="#E3E3C7"/>
<path transform="translate(126,863)" d="m0 0 5 1 5 6-8 2-6-2h-3v3h-2l-1 5-3-3-2-6 6-2 2-3z" fill="#F0DDBD"/>
<path transform="translate(865,504)" d="m0 0h12l4 3-2 4-5 1-1 3h-3v-2h-2l-3-4-8 1 1-4z" fill="#E0E8D2"/>
<path transform="translate(1039,1402)" d="m0 0 8 1 4 4-1 3h-3l1 10-7 3h-5l2-2 1-4h2v-12z" fill="#FFB66F"/>
<path transform="translate(834,1200)" d="m0 0h14l4 3-4 3-9 2h-6l-8-4-1-3z" fill="#FEC180"/>
<path transform="translate(817,1513)" d="m0 0 4 1 1 2v10l-6 8-4-1-1-8 4-3v-8z" fill="#FFB66F"/>
<path transform="translate(279,424)" d="m0 0 8 3 1 2-1 2-3 1-1 3 7-1 2 1-2 4-5-2h-5l-5-4-1-6z" fill="#E1ECDC"/>
<path transform="translate(919,1208)" d="m0 0 4 1 1 2h2l1 8-1 2-7 1-3-1-1-2v-6z" fill="#FED5A4"/>
<path transform="translate(319,506)" d="m0 0 5 2 2 1 3 6-2 6-4 1-5-4-1-11z" fill="#D8E6D1"/>
<path transform="translate(53 1e3)" d="m0 0h6l3 2-2 6-5 2h-9l-1-4 6-5z" fill="#FED5A4"/>
<path transform="translate(930,293)" d="m0 0 1 4v1l10 1 1-3 3 4-1 4-10 3h-4l-3-5z" fill="#D0E9DB"/>
<path transform="translate(483,1548)" d="m0 0h2v3h7l3 4 1 7-4-2-10-2-3-2 2-5z" fill="#FEC180"/>
<path transform="translate(1120,326)" d="m0 0h2l2 4 3 2h-2v2l-6 3v7l-5 1-1-2 2-6 2-5-5-2 1-3z" fill="#D0E9DB"/>
<path transform="translate(462,1077)" d="m0 0h14l2 4v6l-2 3-4-1-3-5-6-4z" fill="#FED5A4"/>
<path transform="translate(107,738)" d="m0 0 5 3v2h9l5 3 1 3h-2l-2-3-11-1-3-2h-21l4 7-1 4-6-10v-4h17z" fill="#E3E3C7"/>
<path transform="translate(1063,1407)" d="m0 0h9l7 2-2 4-6 4h-2l-1-2-6-2v-5z" fill="#FFB66F"/>
<path transform="translate(1597,1058)" d="m0 0 3 1v18l-4-2 2-4-5-1-2-4v-5z" fill="#FED5A4"/>
<path transform="translate(343,453)" d="m0 0 8 1 5 6 6 2 10-2-4 3-2 1h-7l-7-2-3-2-7-1-2-4z" fill="#D9EBE0"/>
<path transform="translate(1025,109)" d="m0 0 3 2-1 4 2-1v-3l6-1-1 6-3 4h-10l-2-7 5-2z" fill="#B1E8EA"/>
<path transform="translate(785,528)" d="m0 0 6 1 6 3 5 1 2 1-2 4-5 4-3-1v-3l-6-3v-3l-3-2z" fill="#E1E7D1"/>
<path transform="translate(1453,313)" d="m0 0 6 1 8 3-4 4 1 2-12 1v-10z" fill="#D0E9DB"/>
<path transform="translate(275,1464)" d="m0 0 2 4-1 4-1 3 1 6-1 2h-5l-3-3-1-5-1-3 1-2 5 1 3 1z" fill="#FFB66F"/>
<path transform="translate(959,1572)" d="m0 0 5 1 1 12-3 2h-3l-5-8 1-3h3z" fill="#FF9459"/>
<path transform="translate(1031,1390)" d="m0 0 5 1v4l-4 2-4 6h-2l1 4-3 1-1-7 2-8z" fill="#FFB66F"/>
<path transform="translate(256,512)" d="m0 0h2l3 12 4 1 1 7h-4v-2l-4-2-4-5 1-3v-7z" fill="#D7E6D1"/>
<path transform="translate(369,46)" d="m0 0h8l3 3 1 8-7-1-5-3z" fill="#C3EBE8"/>
<path transform="translate(1271,368)" d="m0 0 4 1v6l-2 4-5-1-5-5-4-2v-2h10z" fill="#D0E9DB"/>
<path transform="translate(960,73)" d="m0 0h7l2 4v5l-6 2-5-1-1-4h1z" fill="#C2EAE8"/>
<path transform="translate(317,1476)" d="m0 0 10 5 1 2-4 4h-7l-3-5 2-5z" fill="#FFB66F"/>
<path transform="translate(1173,535)" d="m0 0v3l-3 2-20 2h-19l-3-2-6-1 2-2 5 1 5 2 18-1 11-2h7z" fill="#F3E5CC"/>
<path transform="translate(1587,430)" d="m0 0 1 2 12 2v5l-3 4-4-1-4-5-3-2z" fill="#E1ECDC"/>
<path transform="translate(653,316)" d="m0 0 2 1v6h5l2-3 2 4-6 3h-6l-3-2-6-2v-2l9-4z" fill="#CFE9DC"/>
<path transform="translate(1352,699)" d="m0 0 7 1 4 3 3 6-1 2-4-3-1-4-10 2v-2h-2l-1 4 1 3-2 2-4-4v-2h3v-2h2v-2h5z" fill="#E4E2C6"/>
<path transform="translate(924,216)" d="m0 0 4 1v5l-4 2h-12v-3l5-3z" fill="#C3EBE8"/>
<path transform="translate(880,312)" d="m0 0 3 2 1 5 1 3h-13l-2 2-1-4 4-4h2v-2z" fill="#CEEBE3"/>
<path transform="translate(1486,579)" d="m0 0 3 1v3l1-2 4 2 2 2v3h-2v2h-7l-1-2-4-2 1-4 3-1z" fill="#E1E3C8"/>
<path transform="translate(1129,1421)" d="m0 0 4 5-1 5h-2l-1 2-5-2-4-3v-2l3-1 3-3 3 1z" fill="#FEC07F"/>
<path transform="translate(261,448)" d="m0 0h15l2 2-1 4h-13l-4-3z" fill="#E1ECDC"/>
<path transform="translate(866,52)" d="m0 0 4 1 1 6-3-1 3 5v3l-5-1-4-5 1-5h2z" fill="#C3EBE8"/>
<path transform="translate(296,1135)" d="m0 0 3 4 3 1v3h-2l-1 2v-4h-16l-3-3 1-2h14z" fill="#FEC181"/>
<path transform="translate(890,35)" d="m0 0h2v2l4 1-1 6-3 6h-2l-1-3v-6l-5-1v-2z" fill="#C3EBE8"/>
<path transform="translate(805,292)" d="m0 0 6 1 2 2v8l-5-1h-8l-2 1 1-3h7l-2-7z" fill="#CEEBE3"/>
<path transform="translate(641,526)" d="m0 0 5 1 5 5v2l7 5 3 2-6 1-5-2h-1l-1-8-6-1-2-4z" fill="#E0E6CF"/>
<path transform="translate(633,537)" d="m0 0 3 3v2h-3l-1 3 1 1v5l-1-3-9-3-2-3v-3h3l1 2 7-1z" fill="#DFE8D2"/>
<path transform="translate(37,343)" d="m0 0h5l2 2-1 4-1 1h-12l1-4z" fill="#CEEBE4"/>
<path transform="translate(209,450)" d="m0 0 6 1 3 5-1 3-10-1 1-6z" fill="#E1ECDC"/>
<path transform="translate(1174,1104)" d="m0 0 22 1-1 2h-23v2l-5-1 1-3z" fill="#F3E5CC"/>
<path transform="translate(997,156)" d="m0 0 4 1 3 8 1 5h-4l-3-7-3-2v-4z" fill="#CEEBE4"/>
<path transform="translate(954,394)" d="m0 0 4 2-1 4-2 2 2 2-5 4-5-1-1-2 5-2z" fill="#D7E6D1"/>
<path transform="translate(1025,1409)" d="m0 0 3 2v8l-1 3 5-1-5 5-3-1-1-7z" fill="#FFB66F"/>
<path transform="translate(843,394)" d="m0 0 8 1 1 2h-3v2h-2l2 4-1 6h-2l-1-6-5-1 2-2 3-1z" fill="#D7E6D1"/>
<path transform="translate(974,291)" d="m0 0 7 1 1 5-5 2-6-3 1-4z" fill="#CEEBE4"/>
<path transform="translate(697,417)" d="m0 0h3v9h-8v-5z" fill="#E1ECDC"/>
<path transform="translate(1436,739)" d="m0 0 6 2h5l1 4-2 2-11-3z" fill="#E3E3C7"/>
<path transform="translate(1217,539)" d="m0 0 5 1 1 5-3 2-5-1-1-5z" fill="#E1ECDC"/>
<path transform="translate(337,574)" d="m0 0 6 4 3 3-1 3-5-5h-6l-2 5v5l-4-2 4-8z" fill="#E1ECDC"/>
<path transform="translate(1375,318)" d="m0 0h2l-3 9 1 2-1 2h-4l-2-5 4-6z" fill="#CFEAE2"/>
<path transform="translate(911,1523)" d="m0 0h6l3 2-3 6h-5l-1-4z" fill="#FEC180"/>
<path transform="translate(1420,1141)" d="m0 0 6 2 2 2-1 5h-5l-2-2z" fill="#FED5A4"/>
<path transform="translate(449,533)" d="m0 0 4 1 2 4-2 7h-4l-1-10z" fill="#E0E8D2"/>
<path transform="translate(1364,337)" d="m0 0h6l2 2v6l-6-1-3-2z" fill="#D0E9DB"/>
<path transform="translate(5,167)" d="m0 0 8 2h6l-1 2-9 2-9-1v-3z" fill="#C3EBE8"/>
<path transform="translate(89,850)" d="m0 0 2 3-2 5h-6l-5-2v-2l9-2z" fill="#F3E5CC"/>
<path transform="translate(986,300)" d="m0 0h27v1l-7 1-21 1-1-2z" fill="#CEEBE4"/>
<path transform="translate(916,123)" d="m0 0h4l3 6-13 2z" fill="#B1E8EA"/>
<path transform="translate(156,441)" d="m0 0 3 1v6l-3 4-4-1 1-5z" fill="#D9EBE0"/>
<path transform="translate(1536,327)" d="m0 0 5 2v3h-15l3-3z" fill="#D0E9DB"/>
<path transform="translate(343,1128)" d="m0 0 1 2h4l1-2h2l-2 9-4-1-3-3z" fill="#FEC181"/>
<path transform="translate(1022,175)" d="m0 0 5 2-1 4 1 2-5 1-2-2-1-5z" fill="#CEEBE4"/>
<path transform="translate(1109,1419)" d="m0 0 2 2 5-1 1 2-4 7h-3l-1-2z" fill="#FEC180"/>
<path transform="translate(1359,1088)" d="m0 0h8l1 4-4 3-6-3z" fill="#FED5A4"/>
<path transform="translate(927,189)" d="m0 0 4 1-2 5h-3l-3 5h-2l-1-3 4-6z" fill="#C3EBE7"/>
<path transform="translate(544,115)" d="m0 0 2 1 1 7h-10l6-7z" fill="#B1E8EA"/>
<path transform="translate(75,897)" d="m0 0 8 3 1 6 2 4-2 2-7-11v-2h-2z" fill="#F0DDBD"/>
<path transform="translate(1496,619)" d="m0 0 11 1-1 5-5-1-9-3z" fill="#E0E7D1"/>
<path transform="translate(1029,505)" d="m0 0 1 3h15l-1 3-1-1-12 1-5 1 1-4z" fill="#E0E8D2"/>
<path transform="translate(1350,386)" d="m0 0 7 1 3 5h-9z" fill="#D0E9DB"/>
<path transform="translate(3,985)" d="m0 0h5l-1 5-4 2h-3v-6z" fill="#FEC180"/>
<path transform="translate(656,540)" d="m0 0 6 2 2 2h2l-1 3-5 1-4-4z" fill="#DCE7D3"/>
<path transform="translate(1597,1131)" d="m0 0h3v9l-4-1-2-2 1-5z" fill="#FED5A4"/>
<path transform="translate(1146,530)" d="m0 0 2 2 5-2h5l2 3-9 2-6-2z" fill="#E9E6D0"/>
<path transform="translate(1040,520)" d="m0 0 2 1-4 4-11-1-7 2 1 4-2-1 1-5 9-3 9 1z" fill="#F3E5CC"/>
<path transform="translate(1511,409)" d="m0 0 4 2v5l-9-1-1-2z" fill="#D0E9DB"/>
<path transform="translate(405,1177)" d="m0 0 5 3v4l-8-1v-4z" fill="#FED5A4"/>
<path transform="translate(1525,878)" d="m0 0 5 2 5 5v3l-4-1v-2l-5-2z" fill="#F0DDBD"/>
<path transform="translate(1523,420)" d="m0 0 10 1 5 1v2l-7 1-7-3z" fill="#D0E9DB"/>
<path transform="translate(1384,351)" d="m0 0 3 1-1 5-2 2-4-1v-4z" fill="#D9EBE0"/>
<path transform="translate(550,291)" d="m0 0 5 2 1 4-1 1h-5l-2-2 1-4z" fill="#D9EBE0"/>
<path transform="translate(802,534)" d="m0 0h2l-2 4-5 4-3-1v-3l-4-3h5l3 2z" fill="#F3E5CC"/>
<path transform="translate(173,1385)" d="m0 0 3 1 1 5-12-1-1-3h6z" fill="#FFB66F"/>
<path transform="translate(866,338)" d="m0 0 4 1 8 4-2 2-5-1-6-3z" fill="#D0E9DB"/>
<path transform="translate(409,100)" d="m0 0h5l2 2v4l-4 1-3-2z" fill="#C3EBE8"/>
<path transform="translate(1597,734)" d="m0 0h3v7l-5-1-4-4z" fill="#E3E3C7"/>
<path transform="translate(959,1109)" d="m0 0 3 3 1-3v10l-4-1-1-2v-6z" fill="#FED5A4"/>
<path transform="translate(96,731)" d="m0 0h11l1 2h3l-1 3h-6l-8-4z" fill="#E3E3C7"/>
<path transform="translate(1275,1089)" d="m0 0 7 1 2 1v2l-2 1h-7z" fill="#FED5A4"/>
<path transform="translate(1056,1526)" d="m0 0 4 3v5l-5-1-2-5z" fill="#FFB66F"/>
<path transform="translate(200,1482)" d="m0 0 5 2 1 3-1 1-7-1v-4z" fill="#FFB66F"/>
<path transform="translate(799,1115)" d="m0 0 17 1-1 3-2-1h-9l-5 1v-2l-2-1z" fill="#F3E5CC"/>
<path transform="translate(1479,597)" d="m0 0 17 4 3 2-5 1-3-2-11-2z" fill="#E3E3C7"/>
<path transform="translate(214,537)" d="m0 0 4 4-1 5-4-2-1-5z" fill="#E1ECDC"/>
<path transform="translate(641,526)" d="m0 0 5 1 4 4-3 1-5-1-2-4z" fill="#F3E5CC"/>
<path transform="translate(27,371)" d="m0 0 4 2v5l-4 1-2-2 1-5z" fill="#D9EBE0"/>
<path transform="translate(1136,289)" d="m0 0h4v2h2l2 5h-7z" fill="#CFE9DC"/>
<path transform="translate(382,1464)" d="m0 0h5v5l-1 1h-5l-1-3z" fill="#FFB66F"/>
<path transform="translate(1407,1115)" d="m0 0 4 2-3 6-4-2-1-4z" fill="#FED5A4"/>
<path transform="translate(125,524)" d="m0 0h1v5l-3 3-5-1-1-5 3 1h3z" fill="#E0E8D2"/>
<path transform="translate(195,451)" d="m0 0 5 5 1 2-8-1-1-3z" fill="#E1ECDC"/>
<path transform="translate(987,172)" d="m0 0h3l1 5-3 3-3-2 1-5z" fill="#CEEBE4"/>
<path transform="translate(289,1535)" d="m0 0h3l1 3-5 5-4-5 1-2z" fill="#FFB66F"/>
<path transform="translate(1088,298)" d="m0 0h3l1 6-4 2-2-3 1-4z" fill="#CFE9DB"/>
<path transform="translate(1,1390)" d="m0 0 5 1v5l-4 1-2-4z" fill="#FFB66F"/>
<path transform="translate(418,449)" d="m0 0 1 3-7 7-4 1-3-3h5l4-4h2z" fill="#D9EBE0"/>
<path transform="translate(407,310)" d="m0 0 2 1v3l-4 2-4-2v-3z" fill="#D9EBE0"/>
<path transform="translate(1569,238)" d="m0 0h3l-2 4-4 3-4-1 1-3 6-1z" fill="#CEEBE4"/>
<path transform="translate(689,211)" d="m0 0h3v5l1 4h-2l-1 3-2-7z" fill="#C3EBE8"/>
<path transform="translate(820,137)" d="m0 0 6 3 1 2-9 1 1-5z" fill="#B1E8EA"/>
<path transform="translate(1248,1548)" d="m0 0h1v7l-3 2-6-1-3-4 9 2z" fill="#FFB66F"/>
<path transform="translate(1442,316)" d="m0 0h5v7h-5l-1-3z" fill="#D0E9DB"/>
<path transform="translate(73 1e3)" d="m0 0 5 1v3h-8-3l1-2z" fill="#FED5A4"/>
<path transform="translate(174,520)" d="m0 0 4 4 4 5h-9l2-6z" fill="#D7E6D1"/>
<path transform="translate(0,343)" d="m0 0 5 1-1 5-4 1z" fill="#CEEBE4"/>
<path transform="translate(1091,298)" d="m0 0 5 1 1 6h-6z" fill="#CEEBE4"/>
<path transform="translate(809,202)" d="m0 0 5 1v3l-1 1h-6z" fill="#C3EBE8"/>
<path transform="translate(622,437)" d="m0 0 7 1v3l-7 1z" fill="#D7E6D1"/>
<path transform="translate(1347,703)" d="m0 0 2 1-2 4 1 3-2 2-4-4v-2h3v-2h2z" fill="#E3E3C7"/>
<path transform="translate(669,272)" d="m0 0 12 1v2h-12z" fill="#D9EBE0"/>
<path transform="translate(1449,694)" d="m0 0h6v4l-7-1z" fill="#F3E5CC"/>
<path transform="translate(220,448)" d="m0 0 3 1v5h-4l-1-5z" fill="#E1ECDC"/>
<path transform="translate(1096,299)" d="m0 0 3 3 5 1-1 3h-5l-3-5z" fill="#CFE9DC"/>
<path transform="translate(1234,1596)" d="m0 0h6l2 1-1 3h-8z" fill="#FEC180"/>
<path transform="translate(1502,1243)" d="m0 0 4 1 1 6-2 5-2-2 1-8h-2z" fill="#FED5A4"/>
</svg>
