<svg width="369" height="202" viewBox="0 0 369 202" fill="none" xmlns="http://www.w3.org/2000/svg">
<g clip-path="url(#clip0_291_22496)">
<path d="M0 8C0 3.58172 3.58172 0 8 0H361C365.418 0 369 3.58172 369 8V194C369 198.418 365.418 202 361 202H8.00001C3.58173 202 0 198.418 0 194V8Z" fill="#F4CAEE"/>
<path d="M250 107.46C250 102.576 253.527 98.4072 258.343 97.5979L369 79V172L258.343 153.402C253.527 152.593 250 148.424 250 143.54V107.46Z" fill="white"/>
<g clip-path="url(#clip1_291_22496)">
<path d="M276.795 11.6341L275.113 10.5532L275.653 9.71179C275.796 9.48864 275.845 9.21769 275.789 8.95855C275.732 8.69941 275.575 8.4733 275.352 8.32996C275.129 8.18662 274.858 8.1378 274.599 8.19424C274.34 8.25067 274.114 8.40774 273.97 8.63089L273.43 9.47226L268.381 6.22957L268.922 5.38819C269.065 5.16505 269.114 4.8941 269.058 4.63496C269.001 4.37581 268.844 4.1497 268.621 4.00637C268.398 3.86303 268.127 3.81421 267.868 3.87065C267.609 3.92708 267.383 4.08415 267.239 4.30729L266.699 5.14867L265.016 4.06777C264.347 3.63776 263.534 3.4913 262.756 3.66061C261.979 3.82991 261.301 4.30111 260.871 4.97056L254.385 15.0671C253.955 15.7365 253.809 16.5494 253.978 17.3268C254.147 18.1042 254.618 18.7825 255.288 19.2126L267.067 26.7788C267.737 27.2088 268.549 27.3553 269.327 27.186C270.104 27.0167 270.783 26.5455 271.213 25.8761L277.698 15.7795C278.128 15.1101 278.275 14.2973 278.105 13.5198C277.936 12.7424 277.465 12.0641 276.795 11.6341ZM269.53 24.7952C269.387 25.0183 269.16 25.1754 268.901 25.2318C268.642 25.2882 268.371 25.2394 268.148 25.0961L256.369 17.5298C256.146 17.3865 255.989 17.1604 255.932 16.9012C255.876 16.6421 255.925 16.3711 256.068 16.148L259.851 10.2583L273.313 18.9055L269.53 24.7952ZM274.394 17.2228L260.932 8.57558L262.553 6.05145C262.697 5.82831 262.923 5.67124 263.182 5.6148C263.441 5.55837 263.712 5.60719 263.935 5.75053L265.618 6.83142L265.077 7.6728C264.934 7.89595 264.885 8.1669 264.942 8.42604C264.998 8.68518 265.155 8.91129 265.378 9.05463C265.601 9.19796 265.872 9.24678 266.132 9.19035C266.391 9.13391 266.617 8.97685 266.76 8.7537L267.301 7.91232L272.349 11.155L271.808 11.9964C271.665 12.2195 271.616 12.4905 271.673 12.7496C271.729 13.0088 271.886 13.2349 272.109 13.3782C272.332 13.5216 272.603 13.5704 272.863 13.5139C273.122 13.4575 273.348 13.3004 273.491 13.0773L274.032 12.2359L275.714 13.3168C275.938 13.4602 276.095 13.6863 276.151 13.9454C276.207 14.2045 276.159 14.4755 276.015 14.6986L274.394 17.2228Z" fill="#B5A1DE"/>
</g>
<g clip-path="url(#clip2_291_22496)">
<path d="M224.015 65.7253L220.549 62.472L221.358 61.6091C221.583 61.3699 221.571 60.9944 221.332 60.7699C221.093 60.5454 220.717 60.5573 220.492 60.7965L219.683 61.6592L216.219 58.4087L217.029 57.5461C217.253 57.3068 217.241 56.9313 217.002 56.7068C216.763 56.4823 216.387 56.4942 216.163 56.7334L215.353 57.5961L211.893 54.3485C211.415 53.8997 210.663 53.9236 210.214 54.4018L200.056 65.2257C199.608 65.7039 199.632 66.4555 200.11 66.9042L212.233 78.2809C212.711 78.7297 213.462 78.7058 213.911 78.2276L224.069 67.4037C224.517 66.9257 224.494 66.1741 224.015 65.7253ZM213.045 77.415L200.922 66.0383L211.08 55.2144L214.541 58.462L214.131 58.8982C213.907 59.1374 213.919 59.513 214.158 59.7375C214.397 59.962 214.773 59.95 214.997 59.7108L215.406 59.2749L218.87 62.5253L218.461 62.9615C218.236 63.2007 218.248 63.5763 218.487 63.8008C218.727 64.0253 219.102 64.0134 219.327 63.7741L219.736 63.3379L223.203 66.5913L213.045 77.415ZM215.703 68.5096L216.569 69.3222C216.808 69.5465 217.184 69.5346 217.408 69.2956L218.22 68.4297C218.445 68.1907 218.433 67.8147 218.194 67.5904L217.328 66.7778C217.089 66.5535 216.713 66.5654 216.489 66.8044L215.676 67.6703C215.452 67.9093 215.464 68.2853 215.703 68.5096ZM212.452 71.9731L213.318 72.7857C213.557 73.01 213.933 72.9982 214.158 72.759L214.97 71.8931C215.194 71.6541 215.182 71.2781 214.943 71.0538L214.078 70.2412C213.839 70.0169 213.463 70.0289 213.238 70.2679L212.426 71.1338C212.201 71.3732 212.213 71.7488 212.452 71.9731ZM211.48 67.8034L210.614 66.9908C210.375 66.7665 209.999 66.7784 209.775 67.0174L208.962 67.8833C208.738 68.1225 208.75 68.4983 208.989 68.7226L209.855 69.5352C210.094 69.7595 210.469 69.7478 210.694 69.5086L211.506 68.6426C211.731 68.4039 211.719 68.0277 211.48 67.8034ZM214.73 64.3399L213.864 63.5273C213.625 63.303 213.249 63.315 213.025 63.554L212.212 64.4199C211.988 64.6589 212 65.0349 212.239 65.2591L213.105 66.0718C213.344 66.296 213.72 66.2841 213.944 66.0451L214.757 65.1792C214.981 64.94 214.969 64.5642 214.73 64.3399ZM211.266 61.0895L210.401 60.2768C210.162 60.0526 209.786 60.0645 209.561 60.3035L208.749 61.1694C208.524 61.4084 208.536 61.7844 208.775 62.0087L209.641 62.8213C209.88 63.0456 210.256 63.0336 210.48 62.7946L211.293 61.9287C211.518 61.6895 211.505 61.3137 211.266 61.0895ZM208.016 64.5529L207.15 63.7403C206.911 63.516 206.535 63.5279 206.311 63.7669L205.498 64.6329C205.274 64.8721 205.286 65.2478 205.525 65.4721L206.391 66.2847C206.63 66.509 207.006 66.4973 207.23 66.2581L208.043 65.3922C208.267 65.1534 208.255 64.7772 208.016 64.5529Z" fill="#B5A1DE"/>
</g>
<path d="M172.979 7.02116L174.438 8.48991L167.635 15.3545L164.021 11.7087L165.479 10.2399L167.635 12.4066L172.979 7.02116ZM162.458 -1.83301C163.563 -1.83301 164.623 -1.39402 165.405 -0.61262C166.186 0.168782 166.625 1.22859 166.625 2.33366C166.625 3.43873 166.186 4.49854 165.405 5.27994C164.623 6.06134 163.563 6.50033 162.458 6.50033C161.353 6.50033 160.293 6.06134 159.512 5.27994C158.731 4.49854 158.292 3.43873 158.292 2.33366C158.292 1.22859 158.731 0.168782 159.512 -0.61262C160.293 -1.39402 161.353 -1.83301 162.458 -1.83301ZM162.458 0.250325C161.906 0.250325 161.376 0.469819 160.985 0.860519C160.594 1.25122 160.375 1.78112 160.375 2.33366C160.375 2.88619 160.594 3.4161 160.985 3.8068C161.376 4.1975 161.906 4.41699 162.458 4.41699C163.011 4.41699 163.541 4.1975 163.931 3.8068C164.322 3.4161 164.542 2.88619 164.542 2.33366C164.542 1.78112 164.322 1.25122 163.931 0.860519C163.541 0.469819 163.011 0.250325 162.458 0.250325ZM162.458 7.54199C163.167 7.54199 164.021 7.63574 164.969 7.81283L163.229 9.55241L162.458 9.52116C159.365 9.52116 156.104 11.042 156.104 11.7087V12.8545H162.562L164.542 14.8337H154.125V11.7087C154.125 8.93783 159.677 7.54199 162.458 7.54199Z" fill="#B5A1DE"/>
<path d="M168.125 46.125L173.375 51.375L183.875 40.125" stroke="#B5A1DE" stroke-width="2.25" stroke-linecap="round" stroke-linejoin="round"/>
<g clip-path="url(#clip3_291_22496)">
<path d="M222.375 10.9582L218.389 12.7113C217.502 11.7814 216.101 11.4418 214.861 11.9871C213.622 12.5323 212.925 13.7946 213.011 15.0768L209.026 16.8299C208.52 17.0524 208.123 17.4666 207.923 17.9816C207.723 18.4965 207.735 19.07 207.957 19.5757L213.829 32.9248C214.052 33.4305 214.466 33.8272 214.981 34.0275C215.496 34.2279 216.069 34.2154 216.575 33.993L229.924 28.1212C230.43 27.8988 230.826 27.4845 231.027 26.9696C231.227 26.4546 231.215 25.8812 230.992 25.3754L225.12 12.0264C224.898 11.5206 224.484 11.1239 223.969 10.9236C223.454 10.7233 222.88 10.7357 222.375 10.9582ZM215.7 13.8941C215.953 13.7828 216.24 13.7766 216.497 13.8768C216.755 13.9769 216.962 14.1753 217.073 14.4282C217.184 14.681 217.19 14.9678 217.09 15.2252C216.99 15.4827 216.792 15.6898 216.539 15.8011C216.286 15.9123 215.999 15.9185 215.742 15.8184C215.484 15.7182 215.277 15.5199 215.166 15.267C215.055 15.0141 215.049 14.7274 215.149 14.4699C215.249 14.2124 215.447 14.0053 215.7 13.8941ZM212.61 19.8051L222.145 15.611L221.306 13.704L223.213 12.8652L229.085 26.2142L215.736 32.0859L209.864 18.7369L211.771 17.8981L212.61 19.8051ZM215.813 25.7932L216.614 23.7338L219.36 24.802L221.764 18.6239L223.823 19.425L220.618 27.6625L215.813 25.7932Z" fill="#B5A1DE"/>
</g>
</g>
<path d="M0.5 8C0.5 3.85786 3.85786 0.5 8 0.5H361C365.142 0.5 368.5 3.85786 368.5 8V194C368.5 198.142 365.142 201.5 361 201.5H8.00001C3.85787 201.5 0.5 198.142 0.5 194V8Z" stroke="#A992D6"/>
<defs>
<clipPath id="clip0_291_22496">
<path d="M0 8C0 3.58172 3.58172 0 8 0H361C365.418 0 369 3.58172 369 8V194C369 198.418 365.418 202 361 202H8.00001C3.58173 202 0 198.418 0 194V8Z" fill="white"/>
</clipPath>
<clipPath id="clip1_291_22496">
<rect width="24" height="24" fill="white" transform="translate(262.971 -2) rotate(32.7142)"/>
</clipPath>
<clipPath id="clip2_291_22496">
<rect width="25" height="25" fill="white" transform="translate(212.108 48) rotate(43.1813)"/>
</clipPath>
<clipPath id="clip3_291_22496">
<rect width="25" height="25" fill="white" transform="translate(203 16.0664) rotate(-23.7428)"/>
</clipPath>
</defs>
</svg>
