<svg width="337" height="149" viewBox="0 0 337 149" fill="none" xmlns="http://www.w3.org/2000/svg">
<path d="M305.68 99.8131C308.168 101.279 311.398 100.459 312.624 97.8447C316.537 89.5016 318.331 80.2908 317.807 71.036C317.183 60.0358 313.312 49.4674 306.682 40.6674C300.052 31.8675 290.962 25.231 280.561 21.5974C270.159 17.9638 258.914 17.4962 248.246 20.2537C237.579 23.0113 227.969 28.8701 220.632 37.0893C213.294 45.3085 208.559 55.5189 207.024 66.4294C205.49 77.3399 207.225 88.4605 212.01 98.3848C216.037 106.734 222.07 113.922 229.536 119.323C231.876 121.016 235.098 120.168 236.564 117.68C238.03 115.192 237.179 112.01 234.876 110.267C229.175 105.951 224.557 100.329 221.429 93.8431C217.542 85.7816 216.132 76.7484 217.379 67.8858C218.625 59.0232 222.472 50.7293 228.432 44.0528C234.392 37.3764 242.198 32.6173 250.863 30.3773C259.528 28.1374 268.663 28.5172 277.112 31.4688C285.561 34.4204 292.945 39.8111 298.331 46.9594C303.716 54.1076 306.861 62.6922 307.367 71.6277C307.775 78.8167 306.46 85.9729 303.564 92.5114C302.395 95.1515 303.193 98.3474 305.68 99.8131Z" fill="#5611B1"/>
<path d="M241.728 83.124C241.616 83.124 241.532 83.0867 241.476 83.012C241.42 82.9374 241.411 82.844 241.448 82.732L246.012 67.08C246.049 66.968 246.012 66.912 245.9 66.912H242.82C242.727 66.912 242.68 66.9587 242.68 67.052V68.032C242.68 68.1254 242.643 68.2094 242.568 68.284C242.512 68.34 242.437 68.368 242.344 68.368H239.824C239.731 68.368 239.647 68.34 239.572 68.284C239.516 68.2094 239.488 68.1254 239.488 68.032L239.516 63.86C239.516 63.7667 239.544 63.692 239.6 63.636C239.675 63.5614 239.759 63.524 239.852 63.524H249.904C249.997 63.524 250.072 63.5614 250.128 63.636C250.203 63.692 250.24 63.7667 250.24 63.86V66.716C250.24 66.7907 250.221 66.9214 250.184 67.108L245.564 82.844C245.508 83.0307 245.387 83.124 245.2 83.124H241.728ZM262.062 75.284C262.137 75.9934 262.174 76.572 262.174 77.02C262.174 77.636 262.146 78.224 262.09 78.784C262.016 80.2214 261.502 81.3414 260.55 82.144C259.617 82.9467 258.357 83.348 256.77 83.348C255.277 83.348 254.073 82.9747 253.158 82.228C252.244 81.4814 251.693 80.3707 251.506 78.896L251.422 78.112C251.422 77.888 251.534 77.776 251.758 77.776H255.034C255.258 77.776 255.38 77.888 255.398 78.112C255.398 78.224 255.417 78.3734 255.454 78.56C255.622 79.4934 256.061 79.96 256.77 79.96C257.144 79.96 257.442 79.8387 257.666 79.596C257.909 79.3347 258.068 78.98 258.142 78.532C258.198 78.0467 258.226 77.5334 258.226 76.992C258.226 76.6 258.189 76.124 258.114 75.564C258.04 75.1347 257.881 74.808 257.638 74.584C257.414 74.36 257.125 74.248 256.77 74.248C256.061 74.248 255.604 74.5747 255.398 75.228C255.342 75.4334 255.221 75.536 255.034 75.536H251.73C251.637 75.536 251.553 75.508 251.478 75.452C251.422 75.3774 251.394 75.2934 251.394 75.2V63.86C251.394 63.7667 251.422 63.692 251.478 63.636C251.553 63.5614 251.637 63.524 251.73 63.524H261.614C261.708 63.524 261.782 63.5614 261.838 63.636C261.913 63.692 261.95 63.7667 261.95 63.86V66.576C261.95 66.6694 261.913 66.7534 261.838 66.828C261.782 66.884 261.708 66.912 261.614 66.912H255.482C255.389 66.912 255.342 66.9587 255.342 67.052V71.756C255.342 71.812 255.361 71.8494 255.398 71.868C255.436 71.8867 255.473 71.868 255.51 71.812C255.828 71.4947 256.201 71.252 256.63 71.084C257.06 70.916 257.517 70.832 258.002 70.832C259.197 70.832 260.149 71.224 260.858 72.008C261.586 72.792 261.988 73.884 262.062 75.284ZM268.431 72.12C267.647 72.12 266.919 71.924 266.247 71.532C265.575 71.14 265.043 70.608 264.651 69.936C264.259 69.2454 264.063 68.4987 264.063 67.696C264.063 66.8934 264.259 66.156 264.651 65.484C265.043 64.812 265.575 64.28 266.247 63.888C266.919 63.4774 267.647 63.272 268.431 63.272C269.215 63.272 269.934 63.4774 270.587 63.888C271.259 64.28 271.782 64.812 272.155 65.484C272.547 66.156 272.743 66.8934 272.743 67.696C272.743 68.4987 272.547 69.2454 272.155 69.936C271.782 70.608 271.259 71.14 270.587 71.532C269.934 71.924 269.215 72.12 268.431 72.12ZM267.255 83.124C267.124 83.124 267.04 83.0867 267.003 83.012C266.966 82.9374 266.975 82.844 267.031 82.732L277.223 63.748C277.298 63.5987 277.438 63.524 277.643 63.524H279.743C279.874 63.524 279.958 63.5614 279.995 63.636C280.032 63.7107 280.023 63.804 279.967 63.916L269.775 82.9C269.7 83.0494 269.56 83.124 269.355 83.124H267.255ZM268.431 70.076C269.066 70.076 269.588 69.8427 269.999 69.376C270.428 68.9094 270.643 68.3494 270.643 67.696C270.643 67.0427 270.428 66.492 269.999 66.044C269.57 65.5774 269.047 65.344 268.431 65.344C267.796 65.344 267.255 65.5774 266.807 66.044C266.378 66.492 266.163 67.0427 266.163 67.696C266.163 68.368 266.378 68.9374 266.807 69.404C267.255 69.852 267.796 70.076 268.431 70.076ZM278.707 83.376C277.923 83.376 277.195 83.18 276.523 82.788C275.87 82.3774 275.347 81.836 274.955 81.164C274.563 80.4734 274.367 79.7267 274.367 78.924C274.367 78.1214 274.563 77.384 274.955 76.712C275.347 76.04 275.87 75.508 276.523 75.116C277.195 74.724 277.923 74.528 278.707 74.528C279.491 74.528 280.21 74.724 280.863 75.116C281.535 75.508 282.067 76.04 282.459 76.712C282.851 77.384 283.047 78.1214 283.047 78.924C283.047 79.7267 282.851 80.4734 282.459 81.164C282.067 81.836 281.535 82.3774 280.863 82.788C280.21 83.18 279.491 83.376 278.707 83.376ZM278.707 81.304C279.342 81.304 279.874 81.0707 280.303 80.604C280.732 80.1374 280.947 79.5774 280.947 78.924C280.947 78.2707 280.723 77.72 280.275 77.272C279.846 76.8054 279.323 76.572 278.707 76.572C278.072 76.572 277.54 76.8054 277.111 77.272C276.682 77.72 276.467 78.2707 276.467 78.924C276.467 79.596 276.682 80.1654 277.111 80.632C277.54 81.08 278.072 81.304 278.707 81.304Z" fill="black"/>
<circle cx="8" cy="48" r="8" fill="#32D445"/>
<path d="M34.5398 48.1364C34.5398 49.0682 34.3693 49.8693 34.0284 50.5398C33.6875 51.2074 33.2202 51.7216 32.6264 52.0824C32.0355 52.4403 31.3636 52.6193 30.6108 52.6193C29.8551 52.6193 29.1804 52.4403 28.5866 52.0824C27.9957 51.7216 27.5298 51.206 27.1889 50.5355C26.848 49.8651 26.6776 49.0653 26.6776 48.1364C26.6776 47.2045 26.848 46.4048 27.1889 45.7372C27.5298 45.0668 27.9957 44.5526 28.5866 44.1946C29.1804 43.8338 29.8551 43.6534 30.6108 43.6534C31.3636 43.6534 32.0355 43.8338 32.6264 44.1946C33.2202 44.5526 33.6875 45.0668 34.0284 45.7372C34.3693 46.4048 34.5398 47.2045 34.5398 48.1364ZM33.2358 48.1364C33.2358 47.4261 33.1207 46.8281 32.8906 46.3423C32.6634 45.8537 32.3509 45.4844 31.9531 45.2344C31.5582 44.9815 31.1108 44.8551 30.6108 44.8551C30.108 44.8551 29.6591 44.9815 29.2642 45.2344C28.8693 45.4844 28.5568 45.8537 28.3267 46.3423C28.0994 46.8281 27.9858 47.4261 27.9858 48.1364C27.9858 48.8466 28.0994 49.446 28.3267 49.9347C28.5568 50.4205 28.8693 50.7898 29.2642 51.0426C29.6591 51.2926 30.108 51.4176 30.6108 51.4176C31.1108 51.4176 31.5582 51.2926 31.9531 51.0426C32.3509 50.7898 32.6634 50.4205 32.8906 49.9347C33.1207 49.446 33.2358 48.8466 33.2358 48.1364ZM41.4786 45.9545L39.105 52.5H37.7414L35.3636 45.9545H36.7315L38.3891 50.9915H38.4573L40.1107 45.9545H41.4786ZM45.0744 52.6321C44.4295 52.6321 43.8741 52.4943 43.4082 52.2188C42.9452 51.9403 42.5872 51.5497 42.3344 51.0469C42.0844 50.5412 41.9594 49.9489 41.9594 49.2699C41.9594 48.5994 42.0844 48.0085 42.3344 47.4972C42.5872 46.9858 42.9395 46.5866 43.3912 46.2997C43.8457 46.0128 44.377 45.8693 44.9849 45.8693C45.3543 45.8693 45.7122 45.9304 46.0588 46.0526C46.4054 46.1747 46.7165 46.3665 46.992 46.6278C47.2676 46.8892 47.4849 47.2287 47.644 47.6463C47.8031 48.0611 47.8827 48.5653 47.8827 49.1591V49.6108H42.6795V48.6562H46.6341C46.6341 48.321 46.5659 48.0241 46.4295 47.7656C46.2932 47.5043 46.1014 47.2983 45.8543 47.1477C45.6099 46.9972 45.323 46.9219 44.9935 46.9219C44.6355 46.9219 44.323 47.0099 44.056 47.1861C43.7918 47.3594 43.5872 47.5866 43.4423 47.8679C43.3003 48.1463 43.2293 48.4489 43.2293 48.7756V49.5213C43.2293 49.9588 43.306 50.331 43.4594 50.6378C43.6156 50.9446 43.833 51.179 44.1114 51.3409C44.3898 51.5 44.7151 51.5795 45.0872 51.5795C45.3287 51.5795 45.5489 51.5455 45.7477 51.4773C45.9466 51.4062 46.1185 51.3011 46.2634 51.1619C46.4082 51.0227 46.519 50.8509 46.5957 50.6463L47.8017 50.8636C47.7051 51.2187 47.5318 51.5298 47.2818 51.7969C47.0347 52.0611 46.7236 52.267 46.3486 52.4148C45.9764 52.5597 45.5517 52.6321 45.0744 52.6321ZM49.0964 52.5V45.9545H50.3279V46.9943H50.3961C50.5154 46.642 50.7256 46.3651 51.0268 46.1634C51.3308 45.9588 51.6745 45.8565 52.058 45.8565C52.1376 45.8565 52.2313 45.8594 52.3393 45.8651C52.4501 45.8707 52.5367 45.8778 52.5992 45.8864V47.1051C52.5481 47.0909 52.4572 47.0753 52.3265 47.0582C52.1958 47.0384 52.0651 47.0284 51.9344 47.0284C51.6333 47.0284 51.3648 47.0923 51.129 47.2202C50.8961 47.3452 50.7114 47.5199 50.5751 47.7443C50.4387 47.9659 50.3705 48.2187 50.3705 48.5028V52.5H49.0964ZM55.3481 52.6449C54.9333 52.6449 54.5583 52.5682 54.2231 52.4148C53.8879 52.2585 53.6222 52.0327 53.4262 51.7372C53.233 51.4418 53.1364 51.0795 53.1364 50.6506C53.1364 50.2812 53.2075 49.9773 53.3495 49.7386C53.4915 49.5 53.6833 49.3111 53.9248 49.1719C54.1663 49.0327 54.4362 48.9276 54.7344 48.8565C55.0327 48.7855 55.3367 48.7315 55.6464 48.6946C56.0384 48.6491 56.3566 48.6122 56.6009 48.5838C56.8452 48.5526 57.0228 48.5028 57.1336 48.4347C57.2444 48.3665 57.2998 48.2557 57.2998 48.1023V48.0724C57.2998 47.7003 57.1947 47.4119 56.9844 47.2074C56.7771 47.0028 56.4674 46.9006 56.0555 46.9006C55.6265 46.9006 55.2884 46.9957 55.0413 47.1861C54.7969 47.3736 54.6279 47.5824 54.5342 47.8125L53.3367 47.5398C53.4788 47.142 53.6862 46.821 53.9589 46.5767C54.2344 46.3295 54.5512 46.1506 54.9092 46.0398C55.2671 45.9261 55.6435 45.8693 56.0384 45.8693C56.2998 45.8693 56.5768 45.9006 56.8694 45.9631C57.1648 46.0227 57.4404 46.1335 57.6961 46.2955C57.9546 46.4574 58.1663 46.6889 58.331 46.9901C58.4958 47.2884 58.5782 47.6761 58.5782 48.1534V52.5H57.3339V51.6051H57.2827C57.2004 51.7699 57.0768 51.9318 56.912 52.0909C56.7472 52.25 56.5356 52.3821 56.2771 52.4872C56.0185 52.5923 55.7089 52.6449 55.3481 52.6449ZM55.6251 51.6222C55.9773 51.6222 56.2785 51.5526 56.5285 51.4134C56.7813 51.2741 56.9731 51.0923 57.1038 50.8679C57.2373 50.6406 57.304 50.3977 57.304 50.1392V49.2955C57.2586 49.3409 57.1705 49.3835 57.0398 49.4233C56.912 49.4602 56.7657 49.4929 56.6009 49.5213C56.4362 49.5469 56.2756 49.571 56.1194 49.5938C55.9631 49.6136 55.8325 49.6307 55.7273 49.6449C55.4802 49.6761 55.2543 49.7287 55.0498 49.8026C54.8481 49.8764 54.6862 49.983 54.564 50.1222C54.4447 50.2585 54.385 50.4403 54.385 50.6676C54.385 50.983 54.5015 51.2216 54.7344 51.3835C54.9674 51.5426 55.2643 51.6222 55.6251 51.6222ZM61.3494 43.7727V52.5H60.0753V43.7727H61.3494ZM64.1377 43.7727V52.5H62.8636V43.7727H64.1377ZM68.9046 52.5L72.7143 44.9659V44.902H68.308V43.7727H74.0779V44.9403L70.281 52.5H68.9046ZM78.1329 52.6193C77.5221 52.6193 76.9823 52.5142 76.5136 52.304C76.0477 52.0937 75.6826 51.804 75.4184 51.4347C75.1542 51.0653 75.0235 50.6449 75.0264 50.1733C75.0235 49.804 75.0988 49.4645 75.2522 49.1548C75.4085 48.8423 75.6201 48.5824 75.8871 48.375C76.1542 48.1648 76.4525 48.0312 76.782 47.9744V47.9233C76.3474 47.8182 75.9994 47.5852 75.738 47.2244C75.4766 46.8636 75.3474 46.4489 75.3502 45.9801C75.3474 45.5341 75.4653 45.1364 75.7039 44.7869C75.9454 44.4347 76.2764 44.1577 76.6968 43.956C77.1173 43.7543 77.596 43.6534 78.1329 43.6534C78.6641 43.6534 79.1386 43.7557 79.5562 43.9602C79.9766 44.1619 80.3076 44.4389 80.5491 44.7912C80.7906 45.1406 80.9127 45.5369 80.9156 45.9801C80.9127 46.4489 80.7792 46.8636 80.515 47.2244C80.2508 47.5852 79.907 47.8182 79.4837 47.9233V47.9744C79.8104 48.0312 80.1045 48.1648 80.3658 48.375C80.63 48.5824 80.8403 48.8423 80.9965 49.1548C81.1556 49.4645 81.2366 49.804 81.2394 50.1733C81.2366 50.6449 81.1031 51.0653 80.8389 51.4347C80.5746 51.804 80.2082 52.0937 79.7394 52.304C79.2735 52.5142 78.738 52.6193 78.1329 52.6193ZM78.1329 51.5412C78.4937 51.5412 78.8062 51.4815 79.0704 51.3622C79.3346 51.2401 79.5391 51.071 79.684 50.8551C79.8289 50.6364 79.9028 50.3807 79.9056 50.0881C79.9028 49.7841 79.8232 49.5156 79.667 49.2827C79.5136 49.0497 79.3048 48.8665 79.0406 48.733C78.7764 48.5994 78.4738 48.5327 78.1329 48.5327C77.7891 48.5327 77.4837 48.5994 77.2167 48.733C76.9496 48.8665 76.7394 49.0497 76.586 49.2827C76.4326 49.5156 76.3573 49.7841 76.3602 50.0881C76.3573 50.3807 76.4269 50.6364 76.569 50.8551C76.7139 51.071 76.9198 51.2401 77.1869 51.3622C77.4539 51.4815 77.7692 51.5412 78.1329 51.5412ZM78.1329 47.4801C78.4227 47.4801 78.6798 47.4219 78.9042 47.3054C79.1286 47.1889 79.3048 47.027 79.4326 46.8196C79.5633 46.6122 79.63 46.3693 79.6329 46.0909C79.63 45.8182 79.5647 45.5795 79.4369 45.375C79.3119 45.1705 79.1371 45.0128 78.9127 44.902C78.6883 44.7884 78.4283 44.7315 78.1329 44.7315C77.8317 44.7315 77.5675 44.7884 77.3403 44.902C77.1158 45.0128 76.9411 45.1705 76.8161 45.375C76.6911 45.5795 76.63 45.8182 76.6329 46.0909C76.63 46.3693 76.6925 46.6122 76.8204 46.8196C76.9482 47.027 77.1244 47.1889 77.3488 47.3054C77.5761 47.4219 77.8374 47.4801 78.1329 47.4801ZM87.1214 50.8636V50.4034C87.1214 50.0739 87.1896 49.7727 87.326 49.5C87.4652 49.2244 87.6669 49.0043 87.9311 48.8395C88.1982 48.6719 88.5206 48.5881 88.8984 48.5881C89.2848 48.5881 89.6087 48.6705 89.87 48.8352C90.1314 49 90.3288 49.2202 90.4624 49.4957C90.5987 49.7713 90.6669 50.0739 90.6669 50.4034V50.8636C90.6669 51.1932 90.5987 51.4957 90.4624 51.7713C90.326 52.044 90.1257 52.2642 89.8615 52.4318C89.6001 52.5966 89.2791 52.679 88.8984 52.679C88.5149 52.679 88.1911 52.5966 87.9268 52.4318C87.6626 52.2642 87.4624 52.044 87.326 51.7713C87.1896 51.4957 87.1214 51.1932 87.1214 50.8636ZM88.1143 50.4034V50.8636C88.1143 51.108 88.1726 51.3295 88.2891 51.5284C88.4055 51.7273 88.6087 51.8267 88.8984 51.8267C89.1854 51.8267 89.3857 51.7273 89.4993 51.5284C89.6129 51.3295 89.6697 51.108 89.6697 50.8636V50.4034C89.6697 50.1591 89.6143 49.9375 89.5036 49.7386C89.3956 49.5398 89.1939 49.4403 88.8984 49.4403C88.6143 49.4403 88.4126 49.5398 88.2933 49.7386C88.174 49.9375 88.1143 50.1591 88.1143 50.4034ZM82.7322 45.8693V45.4091C82.7322 45.0795 82.8004 44.777 82.9368 44.5014C83.076 44.2259 83.2777 44.0057 83.5419 43.8409C83.8089 43.6761 84.1314 43.5938 84.5092 43.5938C84.8956 43.5938 85.2195 43.6761 85.4808 43.8409C85.7422 44.0057 85.9396 44.2259 86.0732 44.5014C86.2067 44.777 86.2734 45.0795 86.2734 45.4091V45.8693C86.2734 46.1989 86.2053 46.5014 86.0689 46.777C85.9354 47.0497 85.7365 47.2699 85.4723 47.4375C85.2109 47.6023 84.8899 47.6847 84.5092 47.6847C84.1229 47.6847 83.7976 47.6023 83.5334 47.4375C83.272 47.2699 83.0732 47.0497 82.9368 46.777C82.8004 46.5014 82.7322 46.1989 82.7322 45.8693ZM83.7294 45.4091V45.8693C83.7294 46.1136 83.7862 46.3352 83.8999 46.5341C84.0163 46.733 84.2195 46.8324 84.5092 46.8324C84.7933 46.8324 84.9922 46.733 85.1058 46.5341C85.2223 46.3352 85.2805 46.1136 85.2805 45.8693V45.4091C85.2805 45.1648 85.2251 44.9432 85.1143 44.7443C85.0036 44.5455 84.8018 44.446 84.5092 44.446C84.2251 44.446 84.0234 44.5455 83.9041 44.7443C83.7876 44.9432 83.7294 45.1648 83.7294 45.4091ZM83.1371 52.5L89.1371 43.7727H90.1555L84.1555 52.5H83.1371ZM96.1359 52.5H94.7381L97.8788 43.7727H99.4001L102.541 52.5H101.143L98.6756 45.358H98.6075L96.1359 52.5ZM96.3702 49.0824H100.904V50.1903H96.3702V49.0824ZM106.144 45.9545V46.9773H102.569V45.9545H106.144ZM103.527 44.3864H104.802V50.5781C104.802 50.8253 104.839 51.0114 104.912 51.1364C104.986 51.2585 105.081 51.3423 105.198 51.3878C105.317 51.4304 105.447 51.4517 105.586 51.4517C105.688 51.4517 105.777 51.4446 105.854 51.4304C105.931 51.4162 105.991 51.4048 106.033 51.3963L106.263 52.4489C106.189 52.4773 106.084 52.5057 105.948 52.5341C105.812 52.5653 105.641 52.5824 105.437 52.5852C105.101 52.5909 104.789 52.5312 104.499 52.4062C104.209 52.2812 103.975 52.0881 103.796 51.8267C103.617 51.5653 103.527 51.2372 103.527 50.8423V44.3864ZM110.409 45.9545V46.9773H106.834V45.9545H110.409ZM107.792 44.3864H109.066V50.5781C109.066 50.8253 109.103 51.0114 109.177 51.1364C109.251 51.2585 109.346 51.3423 109.463 51.3878C109.582 51.4304 109.711 51.4517 109.851 51.4517C109.953 51.4517 110.042 51.4446 110.119 51.4304C110.196 51.4162 110.255 51.4048 110.298 51.3963L110.528 52.4489C110.454 52.4773 110.349 52.5057 110.213 52.5341C110.076 52.5653 109.906 52.5824 109.701 52.5852C109.366 52.5909 109.054 52.5312 108.764 52.4062C108.474 52.2812 108.24 52.0881 108.061 51.8267C107.882 51.5653 107.792 51.2372 107.792 50.8423V44.3864ZM114.369 52.6321C113.724 52.6321 113.169 52.4943 112.703 52.2188C112.24 51.9403 111.882 51.5497 111.629 51.0469C111.379 50.5412 111.254 49.9489 111.254 49.2699C111.254 48.5994 111.379 48.0085 111.629 47.4972C111.882 46.9858 112.234 46.5866 112.686 46.2997C113.14 46.0128 113.672 45.8693 114.279 45.8693C114.649 45.8693 115.007 45.9304 115.353 46.0526C115.7 46.1747 116.011 46.3665 116.287 46.6278C116.562 46.8892 116.779 47.2287 116.939 47.6463C117.098 48.0611 117.177 48.5653 117.177 49.1591V49.6108H111.974V48.6562H115.929C115.929 48.321 115.86 48.0241 115.724 47.7656C115.588 47.5043 115.396 47.2983 115.149 47.1477C114.904 46.9972 114.618 46.9219 114.288 46.9219C113.93 46.9219 113.618 47.0099 113.35 47.1861C113.086 47.3594 112.882 47.5866 112.737 47.8679C112.595 48.1463 112.524 48.4489 112.524 48.7756V49.5213C112.524 49.9588 112.6 50.331 112.754 50.6378C112.91 50.9446 113.127 51.179 113.406 51.3409C113.684 51.5 114.01 51.5795 114.382 51.5795C114.623 51.5795 114.843 51.5455 115.042 51.4773C115.241 51.4062 115.413 51.3011 115.558 51.1619C115.703 51.0227 115.814 50.8509 115.89 50.6463L117.096 50.8636C117 51.2187 116.826 51.5298 116.576 51.7969C116.329 52.0611 116.018 52.267 115.643 52.4148C115.271 52.5597 114.846 52.6321 114.369 52.6321ZM119.665 48.6136V52.5H118.391V45.9545H119.614V47.0199H119.695C119.845 46.6733 120.081 46.3949 120.402 46.1847C120.726 45.9744 121.134 45.8693 121.625 45.8693C122.071 45.8693 122.462 45.9631 122.797 46.1506C123.132 46.3352 123.392 46.6108 123.577 46.9773C123.762 47.3437 123.854 47.7969 123.854 48.3366V52.5H122.58V48.4901C122.58 48.0156 122.456 47.6449 122.209 47.3778C121.962 47.108 121.622 46.973 121.191 46.973C120.895 46.973 120.632 47.0369 120.402 47.1648C120.175 47.2926 119.995 47.4801 119.861 47.7273C119.73 47.9716 119.665 48.267 119.665 48.6136ZM127.813 52.6278C127.285 52.6278 126.813 52.4929 126.398 52.223C125.986 51.9503 125.662 51.5625 125.427 51.0597C125.194 50.554 125.077 49.9474 125.077 49.2401C125.077 48.5327 125.195 47.9276 125.431 47.4247C125.67 46.9219 125.996 46.5369 126.411 46.2699C126.826 46.0028 127.296 45.8693 127.822 45.8693C128.228 45.8693 128.555 45.9375 128.802 46.0739C129.052 46.2074 129.245 46.3636 129.381 46.5426C129.52 46.7216 129.628 46.8793 129.705 47.0156H129.782V43.7727H131.056V52.5H129.812V51.4815H129.705C129.628 51.6207 129.518 51.7798 129.373 51.9588C129.231 52.1378 129.035 52.294 128.785 52.4276C128.535 52.5611 128.211 52.6278 127.813 52.6278ZM128.094 51.5412C128.461 51.5412 128.77 51.4446 129.023 51.2514C129.279 51.0554 129.472 50.7841 129.603 50.4375C129.736 50.0909 129.803 49.6875 129.803 49.2273C129.803 48.7727 129.738 48.375 129.607 48.0341C129.476 47.6932 129.285 47.4276 129.032 47.2372C128.779 47.0469 128.466 46.9517 128.094 46.9517C127.711 46.9517 127.391 47.0511 127.136 47.25C126.88 47.4489 126.687 47.7202 126.556 48.0639C126.428 48.4077 126.364 48.7955 126.364 49.2273C126.364 49.6648 126.43 50.0582 126.56 50.4077C126.691 50.7571 126.884 51.0341 127.14 51.2386C127.398 51.4403 127.716 51.5412 128.094 51.5412ZM134.579 52.6449C134.165 52.6449 133.79 52.5682 133.454 52.4148C133.119 52.2585 132.853 52.0327 132.657 51.7372C132.464 51.4418 132.368 51.0795 132.368 50.6506C132.368 50.2812 132.439 49.9773 132.581 49.7386C132.723 49.5 132.915 49.3111 133.156 49.1719C133.398 49.0327 133.667 48.9276 133.966 48.8565C134.264 48.7855 134.568 48.7315 134.878 48.6946C135.27 48.6491 135.588 48.6122 135.832 48.5838C136.076 48.5526 136.254 48.5028 136.365 48.4347C136.476 48.3665 136.531 48.2557 136.531 48.1023V48.0724C136.531 47.7003 136.426 47.4119 136.216 47.2074C136.008 47.0028 135.699 46.9006 135.287 46.9006C134.858 46.9006 134.52 46.9957 134.273 47.1861C134.028 47.3736 133.859 47.5824 133.765 47.8125L132.568 47.5398C132.71 47.142 132.917 46.821 133.19 46.5767C133.466 46.3295 133.782 46.1506 134.14 46.0398C134.498 45.9261 134.875 45.8693 135.27 45.8693C135.531 45.8693 135.808 45.9006 136.101 45.9631C136.396 46.0227 136.672 46.1335 136.927 46.2955C137.186 46.4574 137.398 46.6889 137.562 46.9901C137.727 47.2884 137.809 47.6761 137.809 48.1534V52.5H136.565V51.6051H136.514C136.432 51.7699 136.308 51.9318 136.143 52.0909C135.978 52.25 135.767 52.3821 135.508 52.4872C135.25 52.5923 134.94 52.6449 134.579 52.6449ZM134.856 51.6222C135.209 51.6222 135.51 51.5526 135.76 51.4134C136.013 51.2741 136.204 51.0923 136.335 50.8679C136.469 50.6406 136.535 50.3977 136.535 50.1392V49.2955C136.49 49.3409 136.402 49.3835 136.271 49.4233C136.143 49.4602 135.997 49.4929 135.832 49.5213C135.667 49.5469 135.507 49.571 135.351 49.5938C135.194 49.6136 135.064 49.6307 134.959 49.6449C134.711 49.6761 134.486 49.7287 134.281 49.8026C134.079 49.8764 133.917 49.983 133.795 50.1222C133.676 50.2585 133.616 50.4403 133.616 50.6676C133.616 50.983 133.733 51.2216 133.966 51.3835C134.199 51.5426 134.496 51.6222 134.856 51.6222ZM140.581 48.6136V52.5H139.307V45.9545H140.53V47.0199H140.611C140.761 46.6733 140.997 46.3949 141.318 46.1847C141.642 45.9744 142.049 45.8693 142.541 45.8693C142.987 45.8693 143.378 45.9631 143.713 46.1506C144.048 46.3352 144.308 46.6108 144.493 46.9773C144.677 47.3437 144.77 47.7969 144.77 48.3366V52.5H143.495V48.4901C143.495 48.0156 143.372 47.6449 143.125 47.3778C142.878 47.108 142.538 46.973 142.106 46.973C141.811 46.973 141.548 47.0369 141.318 47.1648C141.091 47.2926 140.91 47.4801 140.777 47.7273C140.646 47.9716 140.581 48.267 140.581 48.6136ZM149.036 52.6321C148.402 52.6321 147.857 52.4886 147.399 52.2017C146.945 51.9119 146.595 51.5128 146.351 51.0043C146.107 50.4957 145.984 49.9134 145.984 49.2571C145.984 48.5923 146.109 48.0057 146.359 47.4972C146.609 46.9858 146.962 46.5866 147.416 46.2997C147.871 46.0128 148.406 45.8693 149.023 45.8693C149.52 45.8693 149.963 45.9616 150.352 46.1463C150.741 46.3281 151.055 46.5838 151.294 46.9134C151.536 47.2429 151.679 47.6278 151.724 48.0682H150.484C150.416 47.7614 150.26 47.4972 150.016 47.2756C149.774 47.054 149.45 46.9432 149.044 46.9432C148.689 46.9432 148.378 47.0369 148.111 47.2244C147.847 47.4091 147.641 47.6733 147.493 48.017C147.345 48.358 147.271 48.7614 147.271 49.2273C147.271 49.7045 147.344 50.1165 147.489 50.4631C147.634 50.8097 147.838 51.0781 148.102 51.2685C148.369 51.4588 148.683 51.554 149.044 51.554C149.286 51.554 149.504 51.5099 149.7 51.4219C149.899 51.331 150.065 51.2017 150.199 51.0341C150.335 50.8665 150.43 50.6648 150.484 50.429H151.724C151.679 50.8523 151.541 51.2301 151.311 51.5625C151.081 51.8949 150.773 52.1562 150.386 52.3466C150.003 52.5369 149.553 52.6321 149.036 52.6321ZM155.708 52.6321C155.063 52.6321 154.508 52.4943 154.042 52.2188C153.579 51.9403 153.221 51.5497 152.968 51.0469C152.718 50.5412 152.593 49.9489 152.593 49.2699C152.593 48.5994 152.718 48.0085 152.968 47.4972C153.221 46.9858 153.573 46.5866 154.025 46.2997C154.479 46.0128 155.011 45.8693 155.619 45.8693C155.988 45.8693 156.346 45.9304 156.692 46.0526C157.039 46.1747 157.35 46.3665 157.626 46.6278C157.901 46.8892 158.119 47.2287 158.278 47.6463C158.437 48.0611 158.516 48.5653 158.516 49.1591V49.6108H153.313V48.6562H157.268C157.268 48.321 157.2 48.0241 157.063 47.7656C156.927 47.5043 156.735 47.2983 156.488 47.1477C156.244 46.9972 155.957 46.9219 155.627 46.9219C155.269 46.9219 154.957 47.0099 154.69 47.1861C154.425 47.3594 154.221 47.5866 154.076 47.8679C153.934 48.1463 153.863 48.4489 153.863 48.7756V49.5213C153.863 49.9588 153.94 50.331 154.093 50.6378C154.249 50.9446 154.467 51.179 154.745 51.3409C155.023 51.5 155.349 51.5795 155.721 51.5795C155.962 51.5795 156.182 51.5455 156.381 51.4773C156.58 51.4062 156.752 51.3011 156.897 51.1619C157.042 51.0227 157.153 50.8509 157.229 50.6463L158.435 50.8636C158.339 51.2187 158.165 51.5298 157.915 51.7969C157.668 52.0611 157.357 52.267 156.982 52.4148C156.61 52.5597 156.185 52.6321 155.708 52.6321Z" fill="#2F0C77"/>
<ellipse cx="8" cy="74.5" rx="8" ry="8.5" fill="#F6C92A"/>
<path d="M30.1506 70.2727V79H28.8295V71.5938H28.7784L26.6903 72.9574V71.696L28.8679 70.2727H30.1506ZM32.3114 79V78.0455L35.2645 74.9858C35.5798 74.6534 35.8398 74.3622 36.0443 74.1122C36.2517 73.8594 36.4065 73.6193 36.5088 73.392C36.6111 73.1648 36.6622 72.9233 36.6622 72.6676C36.6622 72.3778 36.594 72.1278 36.4577 71.9176C36.3213 71.7045 36.1352 71.5412 35.8994 71.4276C35.6636 71.3111 35.398 71.2528 35.1026 71.2528C34.7901 71.2528 34.5173 71.3168 34.2844 71.4446C34.0514 71.5724 33.8724 71.7528 33.7474 71.9858C33.6224 72.2187 33.5599 72.4915 33.5599 72.804H32.3028C32.3028 72.2727 32.425 71.8082 32.6693 71.4105C32.9136 71.0128 33.2489 70.7045 33.675 70.4858C34.1011 70.2642 34.5855 70.1534 35.1281 70.1534C35.6764 70.1534 36.1594 70.2628 36.577 70.4815C36.9974 70.6974 37.3256 70.9929 37.5614 71.3679C37.7972 71.7401 37.9151 72.1605 37.9151 72.6293C37.9151 72.9531 37.854 73.2699 37.7318 73.5795C37.6125 73.8892 37.4037 74.2344 37.1054 74.6151C36.8071 74.9929 36.3923 75.4517 35.8611 75.9915L34.1267 77.8068V77.8707H38.0557V79H32.3114ZM44.0261 77.3636V76.9034C44.0261 76.5739 44.0943 76.2727 44.2307 76C44.3699 75.7244 44.5716 75.5043 44.8358 75.3395C45.1028 75.1719 45.4253 75.0881 45.8031 75.0881C46.1895 75.0881 46.5134 75.1705 46.7747 75.3352C47.0361 75.5 47.2335 75.7202 47.367 75.9957C47.5034 76.2713 47.5716 76.5739 47.5716 76.9034V77.3636C47.5716 77.6932 47.5034 77.9957 47.367 78.2713C47.2307 78.544 47.0304 78.7642 46.7662 78.9318C46.5048 79.0966 46.1838 79.179 45.8031 79.179C45.4196 79.179 45.0957 79.0966 44.8315 78.9318C44.5673 78.7642 44.367 78.544 44.2307 78.2713C44.0943 77.9957 44.0261 77.6932 44.0261 77.3636ZM45.019 76.9034V77.3636C45.019 77.608 45.0773 77.8295 45.1938 78.0284C45.3102 78.2273 45.5134 78.3267 45.8031 78.3267C46.0901 78.3267 46.2903 78.2273 46.404 78.0284C46.5176 77.8295 46.5744 77.608 46.5744 77.3636V76.9034C46.5744 76.6591 46.519 76.4375 46.4082 76.2386C46.3003 76.0398 46.0986 75.9403 45.8031 75.9403C45.519 75.9403 45.3173 76.0398 45.198 76.2386C45.0787 76.4375 45.019 76.6591 45.019 76.9034ZM39.6369 72.3693V71.9091C39.6369 71.5795 39.7051 71.277 39.8415 71.0014C39.9807 70.7259 40.1824 70.5057 40.4466 70.3409C40.7136 70.1761 41.0361 70.0938 41.4139 70.0938C41.8003 70.0938 42.1241 70.1761 42.3855 70.3409C42.6469 70.5057 42.8443 70.7259 42.9778 71.0014C43.1114 71.277 43.1781 71.5795 43.1781 71.9091V72.3693C43.1781 72.6989 43.1099 73.0014 42.9736 73.277C42.8401 73.5497 42.6412 73.7699 42.377 73.9375C42.1156 74.1023 41.7946 74.1847 41.4139 74.1847C41.0276 74.1847 40.7023 74.1023 40.4381 73.9375C40.1767 73.7699 39.9778 73.5497 39.8415 73.277C39.7051 73.0014 39.6369 72.6989 39.6369 72.3693ZM40.6341 71.9091V72.3693C40.6341 72.6136 40.6909 72.8352 40.8045 73.0341C40.921 73.233 41.1241 73.3324 41.4139 73.3324C41.698 73.3324 41.8969 73.233 42.0105 73.0341C42.127 72.8352 42.1852 72.6136 42.1852 72.3693V71.9091C42.1852 71.6648 42.1298 71.4432 42.019 71.2443C41.9082 71.0455 41.7065 70.946 41.4139 70.946C41.1298 70.946 40.9281 71.0455 40.8088 71.2443C40.6923 71.4432 40.6341 71.6648 40.6341 71.9091ZM40.0418 79L46.0418 70.2727H47.0602L41.0602 79H40.0418ZM53.0406 79H51.6428L54.7835 70.2727H56.3048L59.4454 79H58.0477L55.5803 71.858H55.5121L53.0406 79ZM53.2749 75.5824H57.809V76.6903H53.2749V75.5824ZM63.0487 72.4545V73.4773H59.4734V72.4545H63.0487ZM60.4322 70.8864H61.7063V77.0781C61.7063 77.3253 61.7433 77.5114 61.8171 77.6364C61.891 77.7585 61.9862 77.8423 62.1026 77.8878C62.2219 77.9304 62.3512 77.9517 62.4904 77.9517C62.5927 77.9517 62.6822 77.9446 62.7589 77.9304C62.8356 77.9162 62.8952 77.9048 62.9379 77.8963L63.168 78.9489C63.0941 78.9773 62.989 79.0057 62.8526 79.0341C62.7163 79.0653 62.5458 79.0824 62.3413 79.0852C62.006 79.0909 61.6935 79.0312 61.4038 78.9062C61.114 78.7812 60.8796 78.5881 60.7006 78.3267C60.5217 78.0653 60.4322 77.7372 60.4322 77.3423V70.8864ZM67.3135 72.4545V73.4773H63.7382V72.4545H67.3135ZM64.697 70.8864H65.9712V77.0781C65.9712 77.3253 66.0081 77.5114 66.082 77.6364C66.1558 77.7585 66.251 77.8423 66.3675 77.8878C66.4868 77.9304 66.6161 77.9517 66.7553 77.9517C66.8575 77.9517 66.947 77.9446 67.0237 77.9304C67.1004 77.9162 67.1601 77.9048 67.2027 77.8963L67.4328 78.9489C67.3589 78.9773 67.2538 79.0057 67.1175 79.0341C66.9811 79.0653 66.8107 79.0824 66.6061 79.0852C66.2709 79.0909 65.9584 79.0312 65.6686 78.9062C65.3788 78.7812 65.1445 78.5881 64.9655 78.3267C64.7865 78.0653 64.697 77.7372 64.697 77.3423V70.8864ZM71.2736 79.1321C70.6288 79.1321 70.0734 78.9943 69.6075 78.7188C69.1444 78.4403 68.7864 78.0497 68.5336 77.5469C68.2836 77.0412 68.1586 76.4489 68.1586 75.7699C68.1586 75.0994 68.2836 74.5085 68.5336 73.9972C68.7864 73.4858 69.1387 73.0866 69.5904 72.7997C70.045 72.5128 70.5762 72.3693 71.1842 72.3693C71.5535 72.3693 71.9114 72.4304 72.258 72.5526C72.6046 72.6747 72.9157 72.8665 73.1913 73.1278C73.4668 73.3892 73.6842 73.7287 73.8433 74.1463C74.0023 74.5611 74.0819 75.0653 74.0819 75.6591V76.1108H68.8788V75.1562H72.8333C72.8333 74.821 72.7651 74.5241 72.6288 74.2656C72.4924 74.0043 72.3006 73.7983 72.0535 73.6477C71.8092 73.4972 71.5222 73.4219 71.1927 73.4219C70.8347 73.4219 70.5222 73.5099 70.2552 73.6861C69.991 73.8594 69.7864 74.0866 69.6415 74.3679C69.4995 74.6463 69.4285 74.9489 69.4285 75.2756V76.0213C69.4285 76.4588 69.5052 76.831 69.6586 77.1378C69.8148 77.4446 70.0322 77.679 70.3106 77.8409C70.589 78 70.9143 78.0795 71.2864 78.0795C71.5279 78.0795 71.7481 78.0455 71.9469 77.9773C72.1458 77.9062 72.3177 77.8011 72.4626 77.6619C72.6075 77.5227 72.7183 77.3509 72.795 77.1463L74.0009 77.3636C73.9043 77.7187 73.731 78.0298 73.481 78.2969C73.2339 78.5611 72.9228 78.767 72.5478 78.9148C72.1756 79.0597 71.7509 79.1321 71.2736 79.1321ZM76.5697 75.1136V79H75.2956V72.4545H76.5186V73.5199H76.5996C76.7501 73.1733 76.9859 72.8949 77.307 72.6847C77.6308 72.4744 78.0385 72.3693 78.53 72.3693C78.976 72.3693 79.3666 72.4631 79.7018 72.6506C80.0371 72.8352 80.297 73.1108 80.4817 73.4773C80.6663 73.8437 80.7587 74.2969 80.7587 74.8366V79H79.4845V74.9901C79.4845 74.5156 79.3609 74.1449 79.1138 73.8778C78.8666 73.608 78.5271 73.473 78.0953 73.473C77.7999 73.473 77.5371 73.5369 77.307 73.6648C77.0797 73.7926 76.8993 73.9801 76.7658 74.2273C76.6351 74.4716 76.5697 74.767 76.5697 75.1136ZM84.7178 79.1278C84.1893 79.1278 83.7178 78.9929 83.303 78.723C82.8911 78.4503 82.5672 78.0625 82.3314 77.5597C82.0984 77.054 81.982 76.4474 81.982 75.7401C81.982 75.0327 82.0999 74.4276 82.3357 73.9247C82.5743 73.4219 82.901 73.0369 83.3158 72.7699C83.7305 72.5028 84.2007 72.3693 84.7263 72.3693C85.1325 72.3693 85.4592 72.4375 85.7064 72.5739C85.9564 72.7074 86.1496 72.8636 86.2859 73.0426C86.4251 73.2216 86.5331 73.3793 86.6098 73.5156H86.6865V70.2727H87.9607V79H86.7163V77.9815H86.6098C86.5331 78.1207 86.4223 78.2798 86.2774 78.4588C86.1354 78.6378 85.9393 78.794 85.6893 78.9276C85.4393 79.0611 85.1155 79.1278 84.7178 79.1278ZM84.999 78.0412C85.3655 78.0412 85.6751 77.9446 85.928 77.7514C86.1837 77.5554 86.3768 77.2841 86.5075 76.9375C86.6411 76.5909 86.7078 76.1875 86.7078 75.7273C86.7078 75.2727 86.6425 74.875 86.5118 74.5341C86.3811 74.1932 86.1893 73.9276 85.9365 73.7372C85.6837 73.5469 85.3712 73.4517 84.999 73.4517C84.6155 73.4517 84.2959 73.5511 84.0402 73.75C83.7845 73.9489 83.5913 74.2202 83.4607 74.5639C83.3328 74.9077 83.2689 75.2955 83.2689 75.7273C83.2689 76.1648 83.3342 76.5582 83.4649 76.9077C83.5956 77.2571 83.7888 77.5341 84.0445 77.7386C84.303 77.9403 84.6212 78.0412 84.999 78.0412ZM91.484 79.1449C91.0692 79.1449 90.6942 79.0682 90.359 78.9148C90.0238 78.7585 89.7582 78.5327 89.5621 78.2372C89.369 77.9418 89.2724 77.5795 89.2724 77.1506C89.2724 76.7812 89.3434 76.4773 89.4854 76.2386C89.6275 76 89.8192 75.8111 90.0607 75.6719C90.3022 75.5327 90.5721 75.4276 90.8704 75.3565C91.1687 75.2855 91.4727 75.2315 91.7823 75.1946C92.1744 75.1491 92.4925 75.1122 92.7369 75.0838C92.9812 75.0526 93.1587 75.0028 93.2695 74.9347C93.3803 74.8665 93.4357 74.7557 93.4357 74.6023V74.5724C93.4357 74.2003 93.3306 73.9119 93.1204 73.7074C92.913 73.5028 92.6033 73.4006 92.1914 73.4006C91.7624 73.4006 91.4244 73.4957 91.1772 73.6861C90.9329 73.8736 90.7638 74.0824 90.6701 74.3125L89.4727 74.0398C89.6147 73.642 89.8221 73.321 90.0948 73.0767C90.3704 72.8295 90.6871 72.6506 91.0451 72.5398C91.4031 72.4261 91.7795 72.3693 92.1744 72.3693C92.4357 72.3693 92.7127 72.4006 93.0053 72.4631C93.3008 72.5227 93.5763 72.6335 93.832 72.7955C94.0906 72.9574 94.3022 73.1889 94.467 73.4901C94.6317 73.7884 94.7141 74.1761 94.7141 74.6534V79H93.4698V78.1051H93.4187C93.3363 78.2699 93.2127 78.4318 93.0479 78.5909C92.8832 78.75 92.6715 78.8821 92.413 78.9872C92.1545 79.0923 91.8448 79.1449 91.484 79.1449ZM91.761 78.1222C92.1133 78.1222 92.4144 78.0526 92.6644 77.9134C92.9173 77.7741 93.109 77.5923 93.2397 77.3679C93.3732 77.1406 93.44 76.8977 93.44 76.6392V75.7955C93.3945 75.8409 93.3065 75.8835 93.1758 75.9233C93.0479 75.9602 92.9016 75.9929 92.7369 76.0213C92.5721 76.0469 92.4116 76.071 92.2553 76.0938C92.0991 76.1136 91.9684 76.1307 91.8633 76.1449C91.6161 76.1761 91.3903 76.2287 91.1857 76.3026C90.984 76.3764 90.8221 76.483 90.6999 76.6222C90.5806 76.7585 90.521 76.9403 90.521 77.1676C90.521 77.483 90.6374 77.7216 90.8704 77.8835C91.1033 78.0426 91.4002 78.1222 91.761 78.1222ZM97.4854 75.1136V79H96.2112V72.4545H97.4342V73.5199H97.5152C97.6658 73.1733 97.9016 72.8949 98.2226 72.6847C98.5465 72.4744 98.9541 72.3693 99.4456 72.3693C99.8916 72.3693 100.282 72.4631 100.617 72.6506C100.953 72.8352 101.213 73.1108 101.397 73.4773C101.582 73.8437 101.674 74.2969 101.674 74.8366V79H100.4V74.9901C100.4 74.5156 100.277 74.1449 100.029 73.8778C99.7822 73.608 99.4428 73.473 99.0109 73.473C98.7155 73.473 98.4527 73.5369 98.2226 73.6648C97.9953 73.7926 97.8149 73.9801 97.6814 74.2273C97.5507 74.4716 97.4854 74.767 97.4854 75.1136ZM105.94 79.1321C105.307 79.1321 104.761 78.9886 104.304 78.7017C103.849 78.4119 103.5 78.0128 103.256 77.5043C103.011 76.9957 102.889 76.4134 102.889 75.7571C102.889 75.0923 103.014 74.5057 103.264 73.9972C103.514 73.4858 103.866 73.0866 104.321 72.7997C104.775 72.5128 105.311 72.3693 105.927 72.3693C106.425 72.3693 106.868 72.4616 107.257 72.6463C107.646 72.8281 107.96 73.0838 108.199 73.4134C108.44 73.7429 108.584 74.1278 108.629 74.5682H107.389C107.321 74.2614 107.165 73.9972 106.92 73.7756C106.679 73.554 106.355 73.4432 105.949 73.4432C105.594 73.4432 105.283 73.5369 105.015 73.7244C104.751 73.9091 104.545 74.1733 104.398 74.517C104.25 74.858 104.176 75.2614 104.176 75.7273C104.176 76.2045 104.248 76.6165 104.393 76.9631C104.538 77.3097 104.743 77.5781 105.007 77.7685C105.274 77.9588 105.588 78.054 105.949 78.054C106.19 78.054 106.409 78.0099 106.605 77.9219C106.804 77.831 106.97 77.7017 107.104 77.5341C107.24 77.3665 107.335 77.1648 107.389 76.929H108.629C108.584 77.3523 108.446 77.7301 108.216 78.0625C107.986 78.3949 107.677 78.6562 107.291 78.8466C106.908 79.0369 106.457 79.1321 105.94 79.1321ZM112.613 79.1321C111.968 79.1321 111.412 78.9943 110.947 78.7188C110.483 78.4403 110.125 78.0497 109.873 77.5469C109.623 77.0412 109.498 76.4489 109.498 75.7699C109.498 75.0994 109.623 74.5085 109.873 73.9972C110.125 73.4858 110.478 73.0866 110.929 72.7997C111.384 72.5128 111.915 72.3693 112.523 72.3693C112.893 72.3693 113.25 72.4304 113.597 72.5526C113.944 72.6747 114.255 72.8665 114.53 73.1278C114.806 73.3892 115.023 73.7287 115.182 74.1463C115.341 74.5611 115.421 75.0653 115.421 75.6591V76.1108H110.218V75.1562H114.172C114.172 74.821 114.104 74.5241 113.968 74.2656C113.831 74.0043 113.64 73.7983 113.393 73.6477C113.148 73.4972 112.861 73.4219 112.532 73.4219C112.174 73.4219 111.861 73.5099 111.594 73.6861C111.33 73.8594 111.125 74.0866 110.981 74.3679C110.839 74.6463 110.768 74.9489 110.768 75.2756V76.0213C110.768 76.4588 110.844 76.831 110.998 77.1378C111.154 77.4446 111.371 77.679 111.65 77.8409C111.928 78 112.253 78.0795 112.625 78.0795C112.867 78.0795 113.087 78.0455 113.286 77.9773C113.485 77.9062 113.657 77.8011 113.802 77.6619C113.947 77.5227 114.057 77.3509 114.134 77.1463L115.34 77.3636C115.243 77.7187 115.07 78.0298 114.82 78.2969C114.573 78.5611 114.262 78.767 113.887 78.9148C113.515 79.0597 113.09 79.1321 112.613 79.1321ZM119.713 79V70.2727H122.824C123.5 70.2727 124.061 70.3892 124.507 70.6222C124.956 70.8551 125.291 71.1776 125.512 71.5895C125.734 71.9986 125.845 72.4716 125.845 73.0085C125.845 73.5426 125.733 74.0128 125.508 74.419C125.287 74.8224 124.951 75.1364 124.502 75.3608C124.056 75.5852 123.495 75.6974 122.819 75.6974H120.463V74.5639H122.7C123.126 74.5639 123.473 74.5028 123.74 74.3807C124.01 74.2585 124.207 74.081 124.332 73.848C124.457 73.6151 124.52 73.3352 124.52 73.0085C124.52 72.679 124.456 72.3935 124.328 72.152C124.203 71.9105 124.005 71.7259 123.735 71.598C123.468 71.4673 123.118 71.402 122.683 71.402H121.029V79H119.713ZM124.021 75.0625L126.177 79H124.677L122.564 75.0625H124.021ZM129.884 79.1321C129.239 79.1321 128.684 78.9943 128.218 78.7188C127.755 78.4403 127.397 78.0497 127.144 77.5469C126.894 77.0412 126.769 76.4489 126.769 75.7699C126.769 75.0994 126.894 74.5085 127.144 73.9972C127.397 73.4858 127.749 73.0866 128.201 72.7997C128.655 72.5128 129.186 72.3693 129.794 72.3693C130.164 72.3693 130.522 72.4304 130.868 72.5526C131.215 72.6747 131.526 72.8665 131.801 73.1278C132.077 73.3892 132.294 73.7287 132.453 74.1463C132.613 74.5611 132.692 75.0653 132.692 75.6591V76.1108H127.489V75.1562H131.443C131.443 74.821 131.375 74.5241 131.239 74.2656C131.103 74.0043 130.911 73.7983 130.664 73.6477C130.419 73.4972 130.132 73.4219 129.803 73.4219C129.445 73.4219 129.132 73.5099 128.865 73.6861C128.601 73.8594 128.397 74.0866 128.252 74.3679C128.11 74.6463 128.039 74.9489 128.039 75.2756V76.0213C128.039 76.4588 128.115 76.831 128.269 77.1378C128.425 77.4446 128.642 77.679 128.921 77.8409C129.199 78 129.524 78.0795 129.897 78.0795C130.138 78.0795 130.358 78.0455 130.557 77.9773C130.756 77.9062 130.928 77.8011 131.073 77.6619C131.218 77.5227 131.328 77.3509 131.405 77.1463L132.611 77.3636C132.514 77.7187 132.341 78.0298 132.091 78.2969C131.844 78.5611 131.533 78.767 131.158 78.9148C130.786 79.0597 130.361 79.1321 129.884 79.1321ZM133.906 79V72.4545H135.129V73.5199H135.21C135.346 73.1591 135.569 72.8778 135.879 72.6761C136.188 72.4716 136.559 72.3693 136.991 72.3693C137.428 72.3693 137.795 72.4716 138.09 72.6761C138.389 72.8807 138.609 73.1619 138.751 73.5199H138.819C138.975 73.1705 139.224 72.892 139.565 72.6847C139.906 72.4744 140.312 72.3693 140.784 72.3693C141.377 72.3693 141.862 72.5554 142.237 72.9276C142.615 73.2997 142.803 73.8608 142.803 74.6108V79H141.529V74.7301C141.529 74.2869 141.409 73.9659 141.167 73.767C140.926 73.5682 140.637 73.4688 140.302 73.4688C139.887 73.4688 139.565 73.5966 139.335 73.8523C139.105 74.1051 138.99 74.4304 138.99 74.8281V79H137.72V74.6491C137.72 74.294 137.609 74.0085 137.387 73.7926C137.166 73.5767 136.877 73.4688 136.522 73.4688C136.281 73.4688 136.058 73.5327 135.853 73.6605C135.651 73.7855 135.488 73.9602 135.363 74.1847C135.241 74.4091 135.18 74.669 135.18 74.9645V79H133.906ZM144.311 79V72.4545H145.585V79H144.311ZM144.955 71.4446C144.733 71.4446 144.543 71.3707 144.384 71.223C144.227 71.0724 144.149 70.8935 144.149 70.6861C144.149 70.4759 144.227 70.2969 144.384 70.1491C144.543 69.9986 144.733 69.9233 144.955 69.9233C145.176 69.9233 145.365 69.9986 145.521 70.1491C145.681 70.2969 145.76 70.4759 145.76 70.6861C145.76 70.8935 145.681 71.0724 145.521 71.223C145.365 71.3707 145.176 71.4446 144.955 71.4446ZM148.374 75.1136V79H147.099V72.4545H148.323V73.5199H148.403C148.554 73.1733 148.79 72.8949 149.111 72.6847C149.435 72.4744 149.842 72.3693 150.334 72.3693C150.78 72.3693 151.171 72.4631 151.506 72.6506C151.841 72.8352 152.101 73.1108 152.286 73.4773C152.47 73.8437 152.563 74.2969 152.563 74.8366V79H151.288V74.9901C151.288 74.5156 151.165 74.1449 150.918 73.8778C150.671 73.608 150.331 73.473 149.899 73.473C149.604 73.473 149.341 73.5369 149.111 73.6648C148.884 73.7926 148.703 73.9801 148.57 74.2273C148.439 74.4716 148.374 74.767 148.374 75.1136ZM154.071 79V72.4545H155.346V79H154.071ZM154.715 71.4446C154.493 71.4446 154.303 71.3707 154.144 71.223C153.988 71.0724 153.909 70.8935 153.909 70.6861C153.909 70.4759 153.988 70.2969 154.144 70.1491C154.303 69.9986 154.493 69.9233 154.715 69.9233C154.936 69.9233 155.125 69.9986 155.282 70.1491C155.441 70.2969 155.52 70.4759 155.52 70.6861C155.52 70.8935 155.441 71.0724 155.282 71.223C155.125 71.3707 154.936 71.4446 154.715 71.4446ZM158.134 75.1136V79H156.86V72.4545H158.083V73.5199H158.164C158.314 73.1733 158.55 72.8949 158.871 72.6847C159.195 72.4744 159.603 72.3693 160.094 72.3693C160.54 72.3693 160.931 72.4631 161.266 72.6506C161.601 72.8352 161.861 73.1108 162.046 73.4773C162.23 73.8437 162.323 74.2969 162.323 74.8366V79H161.049V74.9901C161.049 74.5156 160.925 74.1449 160.678 73.8778C160.431 73.608 160.091 73.473 159.659 73.473C159.364 73.473 159.101 73.5369 158.871 73.6648C158.644 73.7926 158.463 73.9801 158.33 74.2273C158.199 74.4716 158.134 74.767 158.134 75.1136ZM166.576 81.5909C166.056 81.5909 165.609 81.5227 165.234 81.3864C164.861 81.25 164.557 81.0696 164.322 80.8452C164.086 80.6207 163.91 80.375 163.793 80.108L164.888 79.6562C164.965 79.7812 165.067 79.9134 165.195 80.0526C165.326 80.1946 165.502 80.3153 165.724 80.4148C165.948 80.5142 166.236 80.5639 166.589 80.5639C167.072 80.5639 167.471 80.446 167.786 80.2102C168.101 79.9773 168.259 79.6051 168.259 79.0938V77.8068H168.178C168.101 77.946 167.991 78.1009 167.846 78.2713C167.704 78.4418 167.508 78.5895 167.258 78.7145C167.008 78.8395 166.682 78.902 166.282 78.902C165.765 78.902 165.299 78.7812 164.884 78.5398C164.472 78.2955 164.145 77.9361 163.904 77.4616C163.665 76.9844 163.546 76.3977 163.546 75.7017C163.546 75.0057 163.664 74.4091 163.9 73.9119C164.138 73.4148 164.465 73.0341 164.88 72.7699C165.295 72.5028 165.765 72.3693 166.29 72.3693C166.697 72.3693 167.025 72.4375 167.275 72.5739C167.525 72.7074 167.719 72.8636 167.859 73.0426C168.001 73.2216 168.11 73.3793 168.187 73.5156H168.28V72.4545H169.529V79.1449C169.529 79.7074 169.398 80.169 169.137 80.5298C168.876 80.8906 168.522 81.1577 168.076 81.331C167.633 81.5043 167.133 81.5909 166.576 81.5909ZM166.563 77.8452C166.93 77.8452 167.239 77.7599 167.492 77.5895C167.748 77.4162 167.941 77.169 168.072 76.848C168.205 76.5241 168.272 76.1364 168.272 75.6847C168.272 75.2443 168.207 74.8565 168.076 74.5213C167.945 74.1861 167.753 73.9247 167.501 73.7372C167.248 73.5469 166.935 73.4517 166.563 73.4517C166.18 73.4517 165.86 73.5511 165.604 73.75C165.349 73.946 165.155 74.2131 165.025 74.5511C164.897 74.8892 164.833 75.267 164.833 75.6847C164.833 76.1136 164.898 76.4901 165.029 76.8139C165.16 77.1378 165.353 77.3906 165.609 77.5724C165.867 77.7543 166.185 77.8452 166.563 77.8452Z" fill="#2F0C77"/>
<circle cx="8" cy="101" r="8" fill="#FF1B1B"/>
<path d="M30.1506 96.7727V105.5H28.8295V98.0938H28.7784L26.6903 99.4574V98.196L28.8679 96.7727H30.1506ZM35.3497 105.645C34.6764 105.642 34.1011 105.464 33.6239 105.112C33.1466 104.76 32.7815 104.247 32.5287 103.574C32.2759 102.901 32.1494 102.089 32.1494 101.141C32.1494 100.195 32.2759 99.3864 32.5287 98.7159C32.7844 98.0455 33.1509 97.5341 33.6281 97.1818C34.1082 96.8295 34.6821 96.6534 35.3497 96.6534C36.0173 96.6534 36.5898 96.831 37.067 97.1861C37.5443 97.5384 37.9094 98.0497 38.1622 98.7202C38.4179 99.3878 38.5457 100.195 38.5457 101.141C38.5457 102.092 38.4193 102.905 38.1665 103.578C37.9136 104.249 37.5486 104.761 37.0713 105.116C36.594 105.469 36.0202 105.645 35.3497 105.645ZM35.3497 104.507C35.9406 104.507 36.4023 104.219 36.7347 103.642C37.0699 103.065 37.2375 102.232 37.2375 101.141C37.2375 100.416 37.1608 99.804 37.0074 99.304C36.8568 98.8011 36.6395 98.4205 36.3554 98.1619C36.0741 97.9006 35.7389 97.7699 35.3497 97.7699C34.7616 97.7699 34.3 98.0597 33.9648 98.6392C33.6295 99.2187 33.4605 100.053 33.4577 101.141C33.4577 101.868 33.533 102.483 33.6835 102.986C33.8369 103.486 34.0543 103.865 34.3355 104.124C34.6168 104.379 34.9548 104.507 35.3497 104.507ZM44.4129 103.864V103.403C44.4129 103.074 44.481 102.773 44.6174 102.5C44.7566 102.224 44.9583 102.004 45.2225 101.839C45.4896 101.672 45.812 101.588 46.1898 101.588C46.5762 101.588 46.9001 101.67 47.1614 101.835C47.4228 102 47.6202 102.22 47.7538 102.496C47.8901 102.771 47.9583 103.074 47.9583 103.403V103.864C47.9583 104.193 47.8901 104.496 47.7538 104.771C47.6174 105.044 47.4171 105.264 47.1529 105.432C46.8915 105.597 46.5705 105.679 46.1898 105.679C45.8063 105.679 45.4825 105.597 45.2183 105.432C44.954 105.264 44.7538 105.044 44.6174 104.771C44.481 104.496 44.4129 104.193 44.4129 103.864ZM45.4058 103.403V103.864C45.4058 104.108 45.464 104.33 45.5805 104.528C45.6969 104.727 45.9001 104.827 46.1898 104.827C46.4768 104.827 46.6771 104.727 46.7907 104.528C46.9043 104.33 46.9612 104.108 46.9612 103.864V103.403C46.9612 103.159 46.9058 102.937 46.795 102.739C46.687 102.54 46.4853 102.44 46.1898 102.44C45.9058 102.44 45.704 102.54 45.5847 102.739C45.4654 102.937 45.4058 103.159 45.4058 103.403ZM40.0237 98.8693V98.4091C40.0237 98.0795 40.0918 97.777 40.2282 97.5014C40.3674 97.2259 40.5691 97.0057 40.8333 96.8409C41.1004 96.6761 41.4228 96.5938 41.8006 96.5938C42.187 96.5938 42.5109 96.6761 42.7722 96.8409C43.0336 97.0057 43.231 97.2259 43.3646 97.5014C43.4981 97.777 43.5648 98.0795 43.5648 98.4091V98.8693C43.5648 99.1989 43.4967 99.5014 43.3603 99.777C43.2268 100.05 43.0279 100.27 42.7637 100.438C42.5023 100.602 42.1813 100.685 41.8006 100.685C41.4143 100.685 41.089 100.602 40.8248 100.438C40.5634 100.27 40.3646 100.05 40.2282 99.777C40.0918 99.5014 40.0237 99.1989 40.0237 98.8693ZM41.0208 98.4091V98.8693C41.0208 99.1136 41.0776 99.3352 41.1913 99.5341C41.3077 99.733 41.5109 99.8324 41.8006 99.8324C42.0847 99.8324 42.2836 99.733 42.3972 99.5341C42.5137 99.3352 42.5719 99.1136 42.5719 98.8693V98.4091C42.5719 98.1648 42.5165 97.9432 42.4058 97.7443C42.295 97.5455 42.0933 97.446 41.8006 97.446C41.5165 97.446 41.3148 97.5455 41.1955 97.7443C41.079 97.9432 41.0208 98.1648 41.0208 98.4091ZM40.4285 105.5L46.4285 96.7727H47.4469L41.4469 105.5H40.4285ZM55.0381 105.628C54.5097 105.628 54.0381 105.493 53.6233 105.223C53.2114 104.95 52.8875 104.562 52.6517 104.06C52.4188 103.554 52.3023 102.947 52.3023 102.24C52.3023 101.533 52.4202 100.928 52.656 100.425C52.8946 99.9219 53.2213 99.5369 53.6361 99.2699C54.0509 99.0028 54.521 98.8693 55.0466 98.8693C55.4528 98.8693 55.7795 98.9375 56.0267 99.0739C56.2767 99.2074 56.4699 99.3636 56.6063 99.5426C56.7455 99.7216 56.8534 99.8793 56.9301 100.016H57.0068V96.7727H58.281V105.5H57.0366V104.482H56.9301C56.8534 104.621 56.7426 104.78 56.5977 104.959C56.4557 105.138 56.2597 105.294 56.0097 105.428C55.7597 105.561 55.4358 105.628 55.0381 105.628ZM55.3193 104.541C55.6858 104.541 55.9955 104.445 56.2483 104.251C56.504 104.055 56.6972 103.784 56.8278 103.438C56.9614 103.091 57.0281 102.687 57.0281 102.227C57.0281 101.773 56.9628 101.375 56.8321 101.034C56.7014 100.693 56.5097 100.428 56.2568 100.237C56.004 100.047 55.6915 99.9517 55.3193 99.9517C54.9358 99.9517 54.6162 100.051 54.3605 100.25C54.1048 100.449 53.9116 100.72 53.781 101.064C53.6531 101.408 53.5892 101.795 53.5892 102.227C53.5892 102.665 53.6545 103.058 53.7852 103.408C53.9159 103.757 54.1091 104.034 54.3648 104.239C54.6233 104.44 54.9415 104.541 55.3193 104.541ZM61.8043 105.645C61.3896 105.645 61.0146 105.568 60.6793 105.415C60.3441 105.259 60.0785 105.033 59.8825 104.737C59.6893 104.442 59.5927 104.08 59.5927 103.651C59.5927 103.281 59.6637 102.977 59.8058 102.739C59.9478 102.5 60.1396 102.311 60.381 102.172C60.6225 102.033 60.8924 101.928 61.1907 101.857C61.489 101.786 61.793 101.732 62.1026 101.695C62.4947 101.649 62.8129 101.612 63.0572 101.584C63.3015 101.553 63.479 101.503 63.5898 101.435C63.7006 101.366 63.756 101.256 63.756 101.102V101.072C63.756 100.7 63.6509 100.412 63.4407 100.207C63.2333 100.003 62.9237 99.9006 62.5117 99.9006C62.0827 99.9006 61.7447 99.9957 61.4975 100.186C61.2532 100.374 61.0842 100.582 60.9904 100.812L59.793 100.54C59.935 100.142 60.1424 99.821 60.4151 99.5767C60.6907 99.3295 61.0075 99.1506 61.3654 99.0398C61.7234 98.9261 62.0998 98.8693 62.4947 98.8693C62.756 98.8693 63.033 98.9006 63.3256 98.9631C63.6211 99.0227 63.8967 99.1335 64.1523 99.2955C64.4109 99.4574 64.6225 99.6889 64.7873 99.9901C64.9521 100.288 65.0344 100.676 65.0344 101.153V105.5H63.7901V104.605H63.739C63.6566 104.77 63.533 104.932 63.3683 105.091C63.2035 105.25 62.9918 105.382 62.7333 105.487C62.4748 105.592 62.1651 105.645 61.8043 105.645ZM62.0813 104.622C62.4336 104.622 62.7347 104.553 62.9847 104.413C63.2376 104.274 63.4293 104.092 63.56 103.868C63.6935 103.641 63.7603 103.398 63.7603 103.139V102.295C63.7148 102.341 63.6268 102.384 63.4961 102.423C63.3683 102.46 63.2219 102.493 63.0572 102.521C62.8924 102.547 62.7319 102.571 62.5756 102.594C62.4194 102.614 62.2887 102.631 62.1836 102.645C61.9364 102.676 61.7106 102.729 61.506 102.803C61.3043 102.876 61.1424 102.983 61.0202 103.122C60.9009 103.259 60.8413 103.44 60.8413 103.668C60.8413 103.983 60.9577 104.222 61.1907 104.384C61.4237 104.543 61.7205 104.622 62.0813 104.622ZM67.1026 107.955C66.9122 107.955 66.7389 107.939 66.5827 107.908C66.4264 107.879 66.3099 107.848 66.2332 107.814L66.5401 106.77C66.773 106.832 66.9804 106.859 67.1622 106.851C67.344 106.842 67.5045 106.774 67.6437 106.646C67.7858 106.518 67.9108 106.31 68.0187 106.02L68.1764 105.585L65.7815 98.9545H67.1452L68.8028 104.034H68.871L70.5287 98.9545H71.8966L69.1991 106.374C69.0741 106.714 68.9151 107.003 68.7219 107.239C68.5287 107.477 68.2986 107.656 68.0315 107.776C67.7645 107.895 67.4548 107.955 67.1026 107.955ZM77.7989 100.553L76.644 100.757C76.5957 100.609 76.519 100.469 76.4139 100.335C76.3116 100.202 76.1724 100.092 75.9963 100.007C75.8202 99.9219 75.6 99.8793 75.3358 99.8793C74.975 99.8793 74.6739 99.9602 74.4324 100.122C74.1909 100.281 74.0702 100.487 74.0702 100.74C74.0702 100.959 74.1511 101.135 74.3131 101.268C74.475 101.402 74.7364 101.511 75.0972 101.597L76.1369 101.835C76.7392 101.974 77.1881 102.189 77.4835 102.479C77.779 102.768 77.9267 103.145 77.9267 103.608C77.9267 104 77.8131 104.349 77.5858 104.656C77.3614 104.96 77.0474 105.199 76.644 105.372C76.2435 105.545 75.779 105.632 75.2506 105.632C74.5176 105.632 73.9196 105.476 73.4565 105.163C72.9935 104.848 72.7094 104.401 72.6043 103.821L73.8358 103.634C73.9125 103.955 74.0702 104.197 74.3088 104.362C74.5474 104.524 74.8585 104.605 75.242 104.605C75.6597 104.605 75.9935 104.518 76.2435 104.345C76.4935 104.169 76.6185 103.955 76.6185 103.702C76.6185 103.497 76.5418 103.325 76.3884 103.186C76.2378 103.047 76.0062 102.942 75.6937 102.871L74.5858 102.628C73.975 102.489 73.5233 102.267 73.2307 101.963C72.9409 101.659 72.796 101.274 72.796 100.808C72.796 100.422 72.904 100.084 73.1199 99.794C73.3358 99.5043 73.6341 99.2784 74.0148 99.1165C74.3955 98.9517 74.8315 98.8693 75.323 98.8693C76.0304 98.8693 76.5872 99.0227 76.9935 99.3295C77.3997 99.6335 77.6682 100.041 77.7989 100.553ZM82.9429 105.5H81.5452L84.6858 96.7727H86.2071L89.3477 105.5H87.95L85.4827 98.358H85.4145L82.9429 105.5ZM83.1773 102.082H87.7114V103.19H83.1773V102.082ZM90.408 105.5V96.7727H91.6822V100.016H91.7589C91.8327 99.8793 91.9393 99.7216 92.0785 99.5426C92.2177 99.3636 92.4109 99.2074 92.658 99.0739C92.9052 98.9375 93.2319 98.8693 93.6381 98.8693C94.1665 98.8693 94.6381 99.0028 95.0529 99.2699C95.4677 99.5369 95.793 99.9219 96.0288 100.425C96.2674 100.928 96.3867 101.533 96.3867 102.24C96.3867 102.947 96.2688 103.554 96.033 104.06C95.7972 104.562 95.4734 104.95 95.0614 105.223C94.6495 105.493 94.1793 105.628 93.6509 105.628C93.2532 105.628 92.9279 105.561 92.6751 105.428C92.4251 105.294 92.229 105.138 92.087 104.959C91.945 104.78 91.8356 104.621 91.7589 104.482H91.6523V105.5H90.408ZM91.6566 102.227C91.6566 102.687 91.7234 103.091 91.8569 103.438C91.9904 103.784 92.1836 104.055 92.4364 104.251C92.6893 104.445 92.9989 104.541 93.3654 104.541C93.7461 104.541 94.0643 104.44 94.32 104.239C94.5756 104.034 94.7688 103.757 94.8995 103.408C95.033 103.058 95.0998 102.665 95.0998 102.227C95.0998 101.795 95.0344 101.408 94.9038 101.064C94.7759 100.72 94.5827 100.449 94.3242 100.25C94.0685 100.051 93.7489 99.9517 93.3654 99.9517C92.9961 99.9517 92.6836 100.047 92.4279 100.237C92.1751 100.428 91.9833 100.693 91.8526 101.034C91.7219 101.375 91.6566 101.773 91.6566 102.227ZM102.522 100.553L101.367 100.757C101.319 100.609 101.242 100.469 101.137 100.335C101.035 100.202 100.896 100.092 100.72 100.007C100.544 99.9219 100.323 99.8793 100.059 99.8793C99.6984 99.8793 99.3973 99.9602 99.1558 100.122C98.9143 100.281 98.7936 100.487 98.7936 100.74C98.7936 100.959 98.8746 101.135 99.0365 101.268C99.1984 101.402 99.4598 101.511 99.8206 101.597L100.86 101.835C101.463 101.974 101.912 102.189 102.207 102.479C102.502 102.768 102.65 103.145 102.65 103.608C102.65 104 102.537 104.349 102.309 104.656C102.085 104.96 101.771 105.199 101.367 105.372C100.967 105.545 100.502 105.632 99.974 105.632C99.2411 105.632 98.643 105.476 98.18 105.163C97.7169 104.848 97.4328 104.401 97.3277 103.821L98.5592 103.634C98.6359 103.955 98.7936 104.197 99.0322 104.362C99.2709 104.524 99.582 104.605 99.9655 104.605C100.383 104.605 100.717 104.518 100.967 104.345C101.217 104.169 101.342 103.955 101.342 103.702C101.342 103.497 101.265 103.325 101.112 103.186C100.961 103.047 100.73 102.942 100.417 102.871L99.3092 102.628C98.6984 102.489 98.2467 102.267 97.9541 101.963C97.6643 101.659 97.5195 101.274 97.5195 100.808C97.5195 100.422 97.6274 100.084 97.8433 99.794C98.0592 99.5043 98.3575 99.2784 98.7382 99.1165C99.1189 98.9517 99.555 98.8693 100.046 98.8693C100.754 98.8693 101.311 99.0227 101.717 99.3295C102.123 99.6335 102.392 100.041 102.522 100.553ZM106.672 105.632C106.027 105.632 105.472 105.494 105.006 105.219C104.543 104.94 104.185 104.55 103.932 104.047C103.682 103.541 103.557 102.949 103.557 102.27C103.557 101.599 103.682 101.009 103.932 100.497C104.185 99.9858 104.537 99.5866 104.989 99.2997C105.443 99.0128 105.975 98.8693 106.583 98.8693C106.952 98.8693 107.31 98.9304 107.656 99.0526C108.003 99.1747 108.314 99.3665 108.59 99.6278C108.865 99.8892 109.083 100.229 109.242 100.646C109.401 101.061 109.48 101.565 109.48 102.159V102.611H104.277V101.656H108.232C108.232 101.321 108.164 101.024 108.027 100.766C107.891 100.504 107.699 100.298 107.452 100.148C107.208 99.9972 106.921 99.9219 106.591 99.9219C106.233 99.9219 105.921 100.01 105.654 100.186C105.389 100.359 105.185 100.587 105.04 100.868C104.898 101.146 104.827 101.449 104.827 101.776V102.521C104.827 102.959 104.904 103.331 105.057 103.638C105.213 103.945 105.431 104.179 105.709 104.341C105.987 104.5 106.313 104.58 106.685 104.58C106.926 104.58 107.147 104.545 107.345 104.477C107.544 104.406 107.716 104.301 107.861 104.162C108.006 104.023 108.117 103.851 108.193 103.646L109.399 103.864C109.303 104.219 109.129 104.53 108.879 104.797C108.632 105.061 108.321 105.267 107.946 105.415C107.574 105.56 107.149 105.632 106.672 105.632ZM111.968 101.614V105.5H110.694V98.9545H111.917V100.02H111.998C112.149 99.6733 112.384 99.3949 112.705 99.1847C113.029 98.9744 113.437 98.8693 113.928 98.8693C114.374 98.8693 114.765 98.9631 115.1 99.1506C115.436 99.3352 115.695 99.6108 115.88 99.9773C116.065 100.344 116.157 100.797 116.157 101.337V105.5H114.883V101.49C114.883 101.016 114.759 100.645 114.512 100.378C114.265 100.108 113.926 99.973 113.494 99.973C113.198 99.973 112.936 100.037 112.705 100.165C112.478 100.293 112.298 100.48 112.164 100.727C112.034 100.972 111.968 101.267 111.968 101.614ZM120.721 98.9545V99.9773H117.146V98.9545H120.721ZM118.105 97.3864H119.379V103.578C119.379 103.825 119.416 104.011 119.49 104.136C119.564 104.259 119.659 104.342 119.775 104.388C119.895 104.43 120.024 104.452 120.163 104.452C120.265 104.452 120.355 104.445 120.432 104.43C120.508 104.416 120.568 104.405 120.611 104.396L120.841 105.449C120.767 105.477 120.662 105.506 120.525 105.534C120.389 105.565 120.218 105.582 120.014 105.585C119.679 105.591 119.366 105.531 119.076 105.406C118.787 105.281 118.552 105.088 118.373 104.827C118.194 104.565 118.105 104.237 118.105 103.842V97.3864Z" fill="#2F0C77"/>
</svg>
