<svg width="30" height="28" viewBox="0 0 30 28" fill="none" xmlns="http://www.w3.org/2000/svg">
<path d="M22.9699 3.6168L22.9845 3.62789C23.0791 3.69642 23.197 3.72504 23.3127 3.70751C23.4283 3.68998 23.5323 3.62773 23.6022 3.53427C23.672 3.44082 23.7019 3.32371 23.6855 3.20839C23.6691 3.09307 23.6077 2.98885 23.5145 2.91837C23.4214 2.8479 23.3041 2.81686 23.1881 2.832C23.0721 2.84713 22.9668 2.90723 22.8951 2.99923C22.8233 3.09122 22.7909 3.20769 22.8049 3.32332C22.8189 3.43896 22.8782 3.54442 22.9699 3.6168ZM22.9921 24.3658C22.9005 24.4356 22.8401 24.5385 22.824 24.6522C22.8079 24.766 22.8374 24.8815 22.9061 24.9738C22.9748 25.0661 23.0772 25.1277 23.1912 25.1455C23.3051 25.1633 23.4216 25.1357 23.5153 25.0687L23.5299 25.0576C23.6198 24.9859 23.6778 24.8818 23.6913 24.7679C23.7049 24.654 23.673 24.5393 23.6025 24.4486C23.5319 24.3579 23.4285 24.2984 23.3143 24.2829C23.2001 24.2674 23.0844 24.2972 22.9921 24.3658ZM13.208 1.05081C13.2276 1.05061 13.2472 1.04925 13.2666 1.04673H13.2724C13.3296 1.03907 13.3848 1.02026 13.4347 0.99139C13.4846 0.962518 13.5283 0.924142 13.5633 0.878453C13.5983 0.832765 13.6239 0.780658 13.6387 0.725109C13.6535 0.669559 13.6571 0.611655 13.6495 0.554701C13.6418 0.497748 13.6229 0.442861 13.5939 0.393174C13.5649 0.343488 13.5263 0.299974 13.4804 0.265119C13.4346 0.230263 13.3822 0.204748 13.3264 0.19003C13.2706 0.175312 13.2125 0.171679 13.1553 0.179339H13.1494C13.0383 0.193394 12.9368 0.24917 12.8656 0.335266C12.7944 0.421363 12.7589 0.53128 12.7664 0.642553C12.7738 0.753827 12.8237 0.858055 12.9058 0.933937C12.9879 1.00982 13.096 1.05162 13.208 1.05081ZM19.9661 13.9175C20.0826 13.9175 20.1944 13.8714 20.2768 13.7894C20.3592 13.7073 20.4055 13.5961 20.4055 13.48V11.7289C20.4054 11.638 20.3768 11.5494 20.3238 11.4754C20.2708 11.4014 20.1959 11.3456 20.1096 11.3159L15.2691 7.46608C15.1913 7.40408 15.0946 7.3703 14.9949 7.3703C14.8952 7.3703 14.7985 7.40408 14.7207 7.46608L9.86851 11.3264C9.78847 11.3596 9.7201 11.4157 9.67204 11.4875C9.62397 11.5594 9.59835 11.6438 9.59842 11.7301V13.48C9.59842 13.5961 9.64471 13.7073 9.72712 13.7894C9.80952 13.8714 9.92129 13.9175 10.0378 13.9175H10.6079V18.0375C10.3206 18.1068 10.065 18.2701 9.88203 18.5011C9.69901 18.7322 9.59915 19.0177 9.59842 19.312V20.187C9.59842 20.303 9.64471 20.4143 9.72712 20.4963C9.80952 20.5784 9.92129 20.6245 10.0378 20.6245H19.9661C20.0826 20.6245 20.1944 20.5784 20.2768 20.4963C20.3592 20.4143 20.4055 20.303 20.4055 20.187V19.312C20.4047 19.0177 20.3049 18.7322 20.1219 18.5011C19.9388 18.2701 19.6833 18.1068 19.396 18.0375V13.9175H19.9661ZM14.9949 8.37139L18.6701 11.2926H11.3197L14.9949 8.37139ZM19.5267 19.312V19.7495H10.4772V19.312C10.4774 19.196 10.5237 19.0848 10.6061 19.0028C10.6885 18.9208 10.8001 18.8747 10.9166 18.8745H19.0873C19.2037 18.8748 19.3153 18.921 19.3976 19.003C19.48 19.085 19.5264 19.1961 19.5267 19.312ZM11.4867 18.0007V13.9175H12.3655V18.0007H11.4867ZM13.2443 18.0007V13.9175H16.7596V18.0007H13.2443ZM17.6384 18.0007V13.9175H18.5172V18.0007H17.6384ZM10.4772 13.0426V12.1676H19.5267V13.0426H10.4772ZM14.9785 0.933563H14.9844C15.1009 0.933563 15.2127 0.887471 15.2951 0.805427C15.3775 0.723382 15.4238 0.612107 15.4238 0.496078C15.4238 0.38005 15.3775 0.268774 15.2951 0.18673C15.2127 0.104686 15.1009 0.0585938 14.9844 0.0585938H14.9785C14.862 0.0585938 14.7502 0.104686 14.6678 0.18673C14.5854 0.268774 14.5391 0.38005 14.5391 0.496078C14.5391 0.612107 14.5854 0.723382 14.6678 0.805427C14.7502 0.887471 14.862 0.933563 14.9785 0.933563ZM15.0096 27.066H15.0019C14.8854 27.066 14.7736 27.1121 14.6912 27.1941C14.6088 27.2762 14.5625 27.3874 14.5625 27.5035C14.5625 27.6195 14.6088 27.7308 14.6912 27.8128C14.7736 27.8949 14.8854 27.9409 15.0019 27.9409H15.0078C15.1243 27.9409 15.2361 27.8949 15.3185 27.8128C15.4009 27.7308 15.4472 27.6195 15.4472 27.5035C15.4472 27.3874 15.4009 27.2762 15.3185 27.1941C15.2361 27.1121 15.1243 27.066 15.0078 27.066H15.0096ZM18.3737 1.36871L18.3883 1.3728C18.4234 1.38134 18.4594 1.38565 18.4955 1.38563C18.6024 1.3856 18.7056 1.34677 18.7859 1.27642C18.8661 1.20606 18.9178 1.109 18.9313 1.00342C18.9448 0.897842 18.9192 0.79098 18.8592 0.702851C18.7993 0.614722 18.7091 0.55137 18.6057 0.524661C18.4936 0.495234 18.3744 0.511069 18.274 0.568719C18.1737 0.626368 18.1002 0.721164 18.0697 0.832469C18.0392 0.943773 18.0541 1.06257 18.1111 1.16301C18.1681 1.26344 18.2627 1.33738 18.3742 1.36871H18.3737ZM21.5708 25.3137L21.555 25.323C21.4565 25.3839 21.3862 25.481 21.3592 25.5933C21.3323 25.7055 21.3509 25.8238 21.411 25.9224C21.4711 26.0211 21.5679 26.0921 21.6803 26.1201C21.7927 26.1481 21.9117 26.1308 22.0114 26.072C22.1111 26.0132 22.1835 25.9176 22.2128 25.8059C22.2421 25.6943 22.226 25.5757 22.168 25.4758C22.1099 25.3759 22.0147 25.3029 21.9028 25.2725C21.791 25.2422 21.6717 25.257 21.5708 25.3137ZM21.8251 25.7617L21.787 25.6946L21.8292 25.7681L21.8251 25.7617ZM23.5341 6.77894C23.7983 7.90182 24.4826 8.83454 25.086 9.65817C25.4986 10.2269 25.9414 10.7733 26.4125 11.2949L26.4271 11.3101C26.5082 11.3909 26.6178 11.437 26.7326 11.4384C26.8473 11.4398 26.958 11.3965 27.0411 11.3177C27.0516 11.3072 27.0616 11.2967 27.0716 11.2856L27.0821 11.2734C27.0842 11.2714 27.0862 11.2692 27.088 11.2669C27.5069 10.8003 27.9287 10.2817 28.3406 9.72467C28.3902 9.65701 28.4402 9.58973 28.4906 9.52284C29.0565 8.76454 29.6424 7.97532 29.8826 6.97552C29.9474 6.70589 29.9856 6.43063 29.9968 6.15363C30.0302 5.30083 29.7982 4.51685 29.326 3.88688C29.0537 3.51023 28.7017 3.1976 28.2949 2.97102C27.8881 2.74443 27.4363 2.60939 26.9715 2.57541C26.5066 2.54144 26.0399 2.60934 25.6042 2.77435C25.1685 2.93936 24.7744 3.19746 24.4498 3.53047C24.0295 3.94788 23.7245 4.46612 23.5641 5.03515C23.4037 5.60418 23.3933 6.20477 23.5341 6.77894ZM25.069 4.15403C25.3044 3.90938 25.5912 3.71949 25.9088 3.59793C26.2264 3.47637 26.5671 3.42614 26.9065 3.45082C27.2459 3.47551 27.5756 3.5745 27.8721 3.74073C28.1686 3.90696 28.4246 4.13632 28.6218 4.41244C28.9733 4.87909 29.1444 5.47174 29.1192 6.12213C29.1098 6.34077 29.0792 6.55799 29.0278 6.77077C28.8298 7.59733 28.3248 8.27864 27.7846 9.00078C27.7336 9.06844 27.6832 9.13669 27.6328 9.20436C27.3399 9.60451 27.037 9.98308 26.7364 10.3354C26.4306 9.97783 26.1201 9.58351 25.7961 9.14136C25.2419 8.38305 24.6132 7.52791 24.39 6.57828C24.2843 6.14971 24.2913 5.70126 24.4102 5.27615C24.5291 4.85103 24.756 4.46358 25.069 4.15112V4.15403ZM28.3857 16.2035C28.407 16.2065 28.4286 16.2081 28.4501 16.2082C28.5555 16.208 28.6573 16.1702 28.737 16.1016C28.8167 16.0329 28.869 15.9381 28.8843 15.8343V15.8156C28.8931 15.7303 28.8766 15.6444 28.8368 15.5684C28.797 15.4924 28.7356 15.4297 28.6603 15.3881C28.585 15.3465 28.4991 15.3279 28.4132 15.3345C28.3274 15.3411 28.2454 15.3727 28.1774 15.4254C28.1094 15.478 28.0585 15.5493 28.0309 15.6305C28.0033 15.7118 28.0003 15.7992 28.0223 15.8821C28.0442 15.965 28.0901 16.0397 28.1543 16.0968C28.2185 16.154 28.2982 16.1911 28.3833 16.2035H28.3857ZM26.7376 16.564C25.8776 16.5743 25.0561 16.9203 24.4498 17.5276C24.0295 17.9451 23.7245 18.4633 23.5641 19.0323C23.4037 19.6014 23.3933 20.202 23.5341 20.7761C23.7983 21.899 24.4826 22.8323 25.086 23.6553C25.4984 24.2242 25.9412 24.7706 26.4125 25.2921L26.4271 25.3073C26.5082 25.3881 26.6178 25.4342 26.7326 25.4356C26.8473 25.437 26.958 25.3937 27.0411 25.3149C27.0516 25.3044 27.0616 25.2939 27.0716 25.2828L27.088 25.2641C27.5069 24.7975 27.9281 24.2795 28.3406 23.7218C28.3904 23.6548 28.4402 23.5871 28.4906 23.52C29.0571 22.7617 29.6424 21.9731 29.8826 20.9727C29.9474 20.7031 29.9856 20.4278 29.9968 20.1508C30.0302 19.298 29.7982 18.5146 29.326 17.8841C29.027 17.4789 28.6376 17.1485 28.1884 16.9189C27.7392 16.6893 27.2425 16.5668 26.7376 16.5611V16.564ZM29.1215 20.1135C29.1124 20.3333 29.0818 20.5517 29.0301 20.7656C28.8321 21.5922 28.3271 22.2741 27.7869 22.9956L27.6352 23.1998C27.3422 23.5993 27.0399 23.9779 26.7388 24.3308C26.433 23.9727 26.1224 23.5784 25.7985 23.1362C25.2442 22.3779 24.6156 21.5228 24.3924 20.5731C24.2863 20.1447 24.2928 19.6962 24.4113 19.271C24.5298 18.8458 24.7564 18.4581 25.069 18.1454C25.3044 17.9007 25.5912 17.7107 25.9089 17.5891C26.2265 17.4676 26.5672 17.4174 26.9067 17.4421C27.2461 17.4669 27.5758 17.5659 27.8723 17.7323C28.1688 17.8986 28.4247 18.1281 28.6218 18.4044C28.9727 18.8722 29.1444 19.4637 29.1215 20.1135ZM26.7376 7.34359C27.0345 7.3437 27.3248 7.25615 27.5717 7.09201C27.8186 6.92787 28.0111 6.69451 28.1248 6.42144C28.2385 6.14838 28.2683 5.84788 28.2104 5.55795C28.1526 5.26801 28.0097 5.00167 27.7998 4.79261C27.5899 4.58355 27.3224 4.44116 27.0313 4.38345C26.7401 4.32574 26.4382 4.3553 26.1639 4.4684C25.8896 4.58149 25.6552 4.77304 25.4902 5.01881C25.3252 5.26458 25.2372 5.55354 25.2372 5.84914C25.2377 6.24525 25.3959 6.62501 25.6771 6.90516C25.9584 7.1853 26.3398 7.34297 26.7376 7.34359ZM26.7376 5.22966C26.8607 5.22955 26.9811 5.26578 27.0835 5.33378C27.1859 5.40178 27.2657 5.49849 27.3129 5.61167C27.3601 5.72486 27.3725 5.84943 27.3485 5.96964C27.3246 6.08984 27.2654 6.20028 27.1784 6.28697C27.0914 6.37366 26.9805 6.43272 26.8598 6.45667C26.7391 6.48062 26.614 6.46839 26.5002 6.42152C26.3865 6.37465 26.2893 6.29525 26.2209 6.19337C26.1525 6.09148 26.116 5.97169 26.116 5.84914C26.1162 5.68499 26.1817 5.5276 26.2982 5.41148C26.4147 5.29535 26.5728 5.22997 26.7376 5.22966ZM26.7376 18.3495C26.4407 18.3495 26.1505 18.4372 25.9036 18.6014C25.6568 18.7657 25.4644 18.9991 25.3508 19.2722C25.2372 19.5453 25.2075 19.8458 25.2655 20.1357C25.3235 20.4257 25.4665 20.6919 25.6764 20.9009C25.8864 21.1099 26.1539 21.2522 26.4451 21.3098C26.7364 21.3674 27.0382 21.3377 27.3124 21.2245C27.5867 21.1113 27.8211 20.9197 27.986 20.6738C28.1508 20.428 28.2387 20.139 28.2386 19.8434C28.2382 19.4472 28.0799 19.0675 27.7984 18.7874C27.517 18.5073 27.1355 18.3498 26.7376 18.3495ZM26.7376 20.4629C26.6146 20.4629 26.4943 20.4265 26.3919 20.3585C26.2896 20.2904 26.2099 20.1937 26.1628 20.0805C26.1157 19.9673 26.1034 19.8427 26.1274 19.7225C26.1514 19.6024 26.2106 19.492 26.2977 19.4054C26.3847 19.3187 26.4955 19.2597 26.6162 19.2358C26.7369 19.2119 26.862 19.2242 26.9757 19.2711C27.0894 19.318 27.1866 19.3974 27.255 19.4992C27.3233 19.6011 27.3598 19.7209 27.3598 19.8434C27.3598 20.0077 27.2943 20.1653 27.1776 20.2814C27.0609 20.3976 26.9026 20.4629 26.7376 20.4629ZM20.0059 1.91703C20.1114 1.95402 20.2271 1.94956 20.3295 1.90453C20.4318 1.85951 20.513 1.77733 20.5566 1.67474C20.6001 1.57215 20.6028 1.45688 20.5639 1.35243C20.5251 1.24798 20.4476 1.16222 20.3475 1.11264L20.3363 1.10797C20.2829 1.08637 20.2256 1.07547 20.1679 1.07588C20.1102 1.0763 20.0532 1.08803 20 1.1104C19.9469 1.13277 19.8987 1.16534 19.8582 1.20626C19.8177 1.24718 19.7856 1.29564 19.7639 1.34888C19.7422 1.40212 19.7313 1.45909 19.7317 1.51654C19.7321 1.574 19.7439 1.6308 19.7664 1.68372C19.7888 1.73664 19.8216 1.78464 19.8627 1.82497C19.9038 1.8653 19.9524 1.89718 20.0059 1.91878V1.91703ZM14.9949 9.76725C14.908 9.76725 14.8231 9.79291 14.7508 9.84098C14.6785 9.88905 14.6222 9.95738 14.589 10.0373C14.5557 10.1173 14.547 10.2052 14.564 10.2901C14.5809 10.3749 14.6228 10.4529 14.6842 10.5141C14.7457 10.5753 14.824 10.6169 14.9092 10.6338C14.9944 10.6507 15.0828 10.642 15.1631 10.6089C15.2434 10.5758 15.312 10.5197 15.3603 10.4478C15.4086 10.3758 15.4343 10.2913 15.4343 10.2047C15.4343 10.0887 15.388 9.97743 15.3056 9.89539C15.2232 9.81334 15.1115 9.76725 14.9949 9.76725ZM28.4466 12.6506C28.4638 12.6505 28.481 12.6495 28.4982 12.6477C28.5555 12.641 28.611 12.6231 28.6615 12.5951C28.7119 12.5671 28.7563 12.5294 28.7921 12.4843C28.8279 12.4392 28.8544 12.3874 28.8702 12.3321C28.8859 12.2768 28.8905 12.2189 28.8837 12.1618L28.8808 12.1437C28.8674 12.0612 28.8307 11.9842 28.7748 11.9219C28.719 11.8595 28.6463 11.8144 28.5655 11.7918C28.4847 11.7693 28.3991 11.7702 28.3189 11.7946C28.2386 11.8189 28.167 11.8657 28.1126 11.9292C28.0581 11.9928 28.0231 12.0706 28.0116 12.1533C28.0002 12.2361 28.0127 12.3204 28.0479 12.3963C28.083 12.4721 28.1392 12.5364 28.2099 12.5815C28.2806 12.6265 28.3627 12.6505 28.4466 12.6506ZM29.0044 13.9998C29.0047 13.9953 29.0047 13.9908 29.0044 13.9864C29.0044 13.9829 29.0044 13.9788 29.0044 13.9753V13.9694C29.0044 13.8534 28.9581 13.7421 28.8757 13.6601C28.7933 13.578 28.6815 13.532 28.565 13.532C28.4484 13.532 28.3367 13.578 28.2543 13.6601C28.1719 13.7421 28.1256 13.8534 28.1256 13.9694V14.0039C28.1256 14.1199 28.1719 14.2312 28.2543 14.3132C28.3367 14.3952 28.4484 14.4413 28.565 14.4413C28.6815 14.4413 28.7933 14.3952 28.8757 14.3132C28.9581 14.2312 29.0044 14.1199 29.0044 14.0039V13.9998ZM16.691 1.04089H16.7033C16.7204 1.0432 16.7376 1.04437 16.7549 1.04439C16.8714 1.05135 16.986 1.01194 17.0733 0.934817C17.1607 0.857695 17.2137 0.749185 17.2207 0.633157C17.2276 0.517129 17.1881 0.403087 17.1106 0.31612C17.0331 0.229153 16.9242 0.176385 16.8076 0.169423C16.7504 0.161763 16.6923 0.165396 16.6365 0.180114C16.5807 0.194832 16.5283 0.220347 16.4824 0.255203C16.3898 0.325596 16.329 0.429762 16.3134 0.544785C16.2979 0.659808 16.3289 0.776265 16.3996 0.868537C16.4703 0.96081 16.5749 1.02134 16.6904 1.03681L16.691 1.04089ZM7.02408 24.3734L7.01295 24.3652C6.91972 24.2956 6.80253 24.2657 6.68716 24.2821C6.5718 24.2986 6.4677 24.3599 6.39778 24.4527C6.32786 24.5456 6.29783 24.6622 6.31431 24.7771C6.3308 24.892 6.39243 24.9956 6.48566 25.0652L6.75633 24.7205L6.48683 25.0658C6.57882 25.137 6.69546 25.169 6.81111 25.1546C6.92675 25.1402 7.03191 25.0807 7.10347 24.9891C7.17502 24.8975 7.2071 24.7814 7.19265 24.6662C7.17821 24.5511 7.11841 24.4464 7.02642 24.3752L7.02408 24.3734ZM8.20579 2.75C8.28171 2.7495 8.3562 2.7294 8.42198 2.69167L8.43721 2.68233C8.5268 2.62595 8.59291 2.53923 8.62335 2.43815C8.65378 2.33706 8.64649 2.22844 8.60282 2.13228C8.55915 2.03613 8.48205 1.95893 8.38572 1.91491C8.28939 1.8709 8.18033 1.86303 8.07863 1.89277C7.97694 1.9225 7.88946 1.98783 7.83233 2.07672C7.7752 2.1656 7.75227 2.27205 7.76775 2.37645C7.78324 2.48084 7.8361 2.57614 7.9166 2.64479C7.9971 2.71344 8.0998 2.7508 8.20579 2.75ZM3.30201 18.3495C3.00509 18.3494 2.7148 18.437 2.46787 18.6012C2.22094 18.7653 2.02847 18.9987 1.91478 19.2718C1.8011 19.5449 1.77133 19.8454 1.82923 20.1354C1.88713 20.4253 2.0301 20.6917 2.24005 20.9007C2.45001 21.1098 2.71751 21.2521 3.00874 21.3097C3.29996 21.3674 3.60181 21.3377 3.87611 21.2246C4.15041 21.1114 4.38483 20.9197 4.54972 20.6739C4.71461 20.428 4.80256 20.139 4.80244 19.8434C4.80198 19.4473 4.64375 19.0676 4.36246 18.7876C4.08118 18.5075 3.69981 18.35 3.30201 18.3495ZM3.30201 20.4629C3.17893 20.463 3.05858 20.4268 2.95618 20.3588C2.85378 20.2908 2.77394 20.1941 2.72676 20.0809C2.67958 19.9677 2.66717 19.8431 2.69111 19.7229C2.71505 19.6027 2.77427 19.4923 2.86126 19.4056C2.94825 19.3189 3.05912 19.2598 3.17983 19.2359C3.30054 19.2119 3.42567 19.2242 3.5394 19.271C3.65312 19.3179 3.75033 19.3973 3.81873 19.4992C3.88712 19.6011 3.92363 19.7209 3.92363 19.8434C3.92347 20.0075 3.85795 20.1649 3.74143 20.2811C3.6249 20.3972 3.46688 20.4626 3.30201 20.4629ZM8.44483 25.3201C8.34492 25.2639 8.22688 25.2489 8.11596 25.2782C8.00505 25.3075 7.91005 25.3788 7.85128 25.477C7.7925 25.5751 7.77462 25.6922 7.80146 25.8033C7.82829 25.9144 7.89771 26.0106 7.99488 26.0714L8.01011 26.0808C8.11042 26.1295 8.2256 26.1384 8.33225 26.1056C8.43891 26.0729 8.52905 26.0009 8.58438 25.9044C8.6397 25.8079 8.65607 25.6941 8.63015 25.586C8.60423 25.4779 8.53798 25.3837 8.44483 25.3225V25.3201ZM6.56124 20.1473C6.59463 19.2945 6.36263 18.5111 5.88983 17.8806C5.27055 17.0546 4.30327 16.5611 3.30201 16.5611C2.44304 16.5721 1.62266 16.9181 1.0171 17.5247C0.59614 17.9417 0.290362 18.4598 0.129329 19.0289C-0.031703 19.5979 -0.0425422 20.1987 0.0978598 20.7732C0.362676 21.8961 1.04639 22.8294 1.64984 23.6524C2.06241 24.2211 2.50518 24.7675 2.97627 25.2892L2.99033 25.3044C3.07141 25.3852 3.18104 25.4312 3.29577 25.4327C3.41051 25.4341 3.52125 25.3908 3.60432 25.312C3.61487 25.3015 3.62542 25.291 3.63479 25.2799L3.65178 25.2612C4.07068 24.7946 4.49193 24.2766 4.90438 23.7189C4.9536 23.6518 5.00398 23.5842 5.05378 23.5171C5.62032 22.7588 6.2062 21.9702 6.44582 20.9698C6.51126 20.7002 6.54992 20.425 6.56124 20.1479V20.1473ZM5.68243 20.1129C5.67326 20.3327 5.64265 20.5511 5.59103 20.765C5.393 21.5916 4.88798 22.2735 4.3478 22.995C4.29742 23.0633 4.24644 23.131 4.19664 23.1992C3.90371 23.5988 3.60081 23.9773 3.30026 24.3302C2.99384 23.9721 2.68333 23.5778 2.35934 23.1356C1.8051 22.3773 1.17704 21.5228 0.953238 20.5725C0.84741 20.1439 0.854411 19.6953 0.973564 19.2701C1.09272 18.8449 1.32 18.4576 1.63344 18.1454C2.07511 17.7009 2.67408 17.4462 3.30201 17.4361C3.66984 17.4413 4.03143 17.5314 4.3583 17.6995C4.68516 17.8675 4.96837 18.1088 5.1856 18.4044C5.53654 18.8722 5.7082 19.4637 5.68301 20.1135L5.68243 20.1129ZM11.4709 1.39496C11.5336 1.39555 11.5958 1.38277 11.6531 1.35747C11.7105 1.33218 11.7618 1.29497 11.8035 1.24832C11.8453 1.20168 11.8765 1.14669 11.8951 1.08704C11.9138 1.02739 11.9194 0.964456 11.9116 0.90247C11.9038 0.840484 11.8828 0.780876 11.8499 0.727645C11.8171 0.674413 11.7732 0.62879 11.7212 0.593837C11.6692 0.558883 11.6103 0.535408 11.5484 0.524986C11.4865 0.514564 11.4231 0.517436 11.3625 0.53341H11.3537C11.2512 0.561567 11.1624 0.62579 11.1038 0.714168C11.0452 0.802546 11.0208 0.909079 11.0351 1.01401C11.0494 1.11893 11.1015 1.21513 11.1816 1.28476C11.2617 1.35438 11.3645 1.39271 11.4709 1.39263V1.39496ZM13.297 26.9569H13.2912C13.1756 26.9414 13.0585 26.9723 12.9658 27.0428C12.8731 27.1132 12.8122 27.2175 12.7967 27.3326C12.7812 27.4477 12.8122 27.5642 12.883 27.6565C12.9537 27.7488 13.0584 27.8094 13.174 27.8249H13.1799C13.1993 27.8272 13.2189 27.8284 13.2385 27.8284C13.3497 27.828 13.4567 27.7857 13.5378 27.71C13.6189 27.6342 13.6682 27.5306 13.6756 27.4201C13.683 27.3096 13.6481 27.2004 13.5778 27.1146C13.5076 27.0287 13.4072 26.9726 13.297 26.9575V26.9569ZM11.615 26.6267L11.6004 26.6232C11.544 26.6076 11.485 26.6032 11.4269 26.6105C11.3689 26.6179 11.3128 26.6366 11.2622 26.6658C11.2115 26.695 11.1672 26.7339 11.1318 26.7804C11.0965 26.8268 11.0708 26.8799 11.0563 26.9363C11.0418 26.9928 11.0388 27.0516 11.0475 27.1092C11.0561 27.1669 11.0763 27.2222 11.1067 27.272C11.1371 27.3218 11.1772 27.365 11.2247 27.3992C11.2721 27.4333 11.326 27.4577 11.383 27.4708C11.4388 27.4865 11.4972 27.491 11.5548 27.4841C11.6125 27.4772 11.6681 27.459 11.7186 27.4306C11.7691 27.4022 11.8135 27.364 11.8491 27.3185C11.8847 27.2729 11.911 27.2207 11.9262 27.165C11.9415 27.1092 11.9456 27.0511 11.9381 26.9938C11.9307 26.9365 11.912 26.8812 11.883 26.8312C11.854 26.7811 11.8153 26.7373 11.7692 26.7022C11.7231 26.6671 11.6705 26.6415 11.6144 26.6267H11.615ZM9.79117 1.96603C9.84779 1.96593 9.90388 1.95504 9.95639 1.93394L9.97162 1.92753C10.0788 1.88124 10.1633 1.79455 10.2064 1.68643C10.2496 1.5783 10.2479 1.45756 10.2019 1.35063C10.1792 1.29798 10.1464 1.25029 10.1051 1.21033C10.0639 1.17037 10.0152 1.13891 9.96172 1.11777C9.90825 1.09663 9.85111 1.08622 9.79359 1.08714C9.73607 1.08806 9.6793 1.1003 9.62654 1.12314L9.79117 1.53146L9.62537 1.12314C9.53086 1.16131 9.45262 1.23102 9.40408 1.32033C9.35554 1.40964 9.33972 1.51297 9.35932 1.61263C9.37892 1.71228 9.43273 1.80204 9.51152 1.86651C9.59031 1.93099 9.68918 1.96617 9.79117 1.96603ZM9.98334 26.0784C9.8762 26.0346 9.75599 26.0346 9.64888 26.0785C9.54177 26.1225 9.45642 26.2067 9.41139 26.313C9.36636 26.4193 9.36531 26.5389 9.40845 26.646C9.4516 26.753 9.53545 26.8388 9.64177 26.8846L9.6529 26.8892C9.70533 26.9106 9.76147 26.9215 9.81812 26.9213C9.92006 26.9213 10.0188 26.8861 10.0975 26.8215C10.1762 26.757 10.2299 26.6672 10.2494 26.5676C10.269 26.468 10.2531 26.3647 10.2046 26.2755C10.156 26.1862 10.0778 26.1166 9.98334 26.0784ZM16.7209 26.9534H16.715C16.6049 26.9685 16.5045 27.0246 16.4343 27.1105C16.364 27.1964 16.3291 27.3055 16.3365 27.416C16.3439 27.5265 16.3932 27.6301 16.4743 27.7059C16.5554 27.7816 16.6624 27.824 16.7736 27.8243C16.7932 27.8243 16.8128 27.8231 16.8322 27.8208H16.8381C16.9536 27.8053 17.0582 27.7448 17.1289 27.6525C17.1996 27.5602 17.2306 27.4438 17.2151 27.3288C17.1996 27.2137 17.1388 27.1096 17.0461 27.0392C16.9534 26.9688 16.8364 26.9379 16.7209 26.9534ZM3.30436 7.34242C3.60118 7.34196 3.8912 7.25389 4.13776 7.08935C4.38431 6.9248 4.57634 6.69117 4.68955 6.41799C4.80277 6.14481 4.83209 5.84434 4.77381 5.55456C4.71553 5.26479 4.57228 4.99873 4.36215 4.79001C4.15202 4.58128 3.88445 4.43927 3.59327 4.38193C3.30209 4.32459 3.00037 4.35449 2.72625 4.46784C2.45213 4.5812 2.21792 4.77293 2.05323 5.0188C1.88855 5.26466 1.80077 5.55362 1.801 5.84914C1.80131 6.2454 1.95955 6.62534 2.24098 6.90553C2.52241 7.18573 2.90401 7.34328 3.30201 7.34359L3.30436 7.34242ZM3.30436 5.2285C3.42727 5.22896 3.54728 5.26565 3.64927 5.33395C3.75126 5.40225 3.83064 5.49909 3.87741 5.61225C3.92418 5.72542 3.93623 5.84984 3.91206 5.96982C3.88788 6.0898 3.82855 6.19997 3.74156 6.28642C3.65457 6.37287 3.54381 6.43173 3.42326 6.45557C3.3027 6.47942 3.17776 6.46718 3.06418 6.4204C2.9506 6.37363 2.85349 6.29441 2.78508 6.19274C2.71668 6.09107 2.68005 5.97151 2.67981 5.84914C2.67997 5.68489 2.74557 5.52741 2.86222 5.41127C2.97887 5.29513 3.13704 5.22982 3.30201 5.22966L3.30436 5.2285ZM1.64984 9.65817C2.06241 10.2269 2.50518 10.7733 2.97627 11.2949L2.99033 11.3101C3.07141 11.3909 3.18104 11.437 3.29577 11.4384C3.41051 11.4398 3.52125 11.3965 3.60432 11.3177C3.61487 11.3072 3.62542 11.2967 3.63479 11.2856L3.64592 11.2734C3.64771 11.2711 3.64967 11.2689 3.65178 11.2669C4.07068 10.8003 4.49193 10.2817 4.90438 9.72467C4.9536 9.65701 5.00398 9.58993 5.05378 9.52284C5.62032 8.76454 6.2062 7.97532 6.44582 6.97552C6.51185 6.70604 6.5511 6.43075 6.563 6.15363C6.59639 5.30083 6.36438 4.51685 5.89158 3.88688C5.27056 3.06032 4.30327 2.56684 3.30201 2.56684C2.44304 2.57784 1.62266 2.92382 1.0171 3.53047C0.59614 3.94746 0.290362 4.46554 0.129329 5.03461C-0.031703 5.60368 -0.0425422 6.20448 0.0978598 6.77894C0.362676 7.90182 1.04639 8.83454 1.64984 9.65817ZM1.63344 4.15112C2.0749 3.70629 2.674 3.45161 3.30201 3.44181C3.6698 3.44689 4.03137 3.53694 4.35824 3.70487C4.68511 3.8728 4.96834 4.11402 5.1856 4.40952C5.53713 4.87617 5.7082 5.46882 5.68301 6.11921C5.67377 6.33883 5.64316 6.55704 5.59161 6.77077C5.39359 7.59733 4.88856 8.27864 4.34839 9.00078C4.298 9.06844 4.24703 9.13669 4.19723 9.20436C3.90429 9.60451 3.6014 9.98308 3.30084 10.3354C2.99443 9.97783 2.68391 9.58351 2.35993 9.14136C1.80569 8.38305 1.17763 7.52791 0.953824 6.57828C0.847922 6.14967 0.85483 5.70112 0.97388 5.27595C1.09293 4.85078 1.3201 4.46336 1.63344 4.15112ZM21.5473 2.67184C21.6144 2.71057 21.6907 2.73071 21.7682 2.73017C21.865 2.73031 21.9591 2.69868 22.036 2.64018C22.1129 2.58168 22.1683 2.49957 22.1936 2.40657C22.2189 2.31357 22.2127 2.21486 22.1759 2.12572C22.1391 2.03659 22.0739 1.96201 21.9903 1.91353L21.9803 1.9077C21.9301 1.87384 21.8735 1.85069 21.8139 1.8397C21.7543 1.82871 21.693 1.83011 21.634 1.84382C21.575 1.85753 21.5194 1.88325 21.4709 1.91937C21.4223 1.95548 21.3818 2.0012 21.3518 2.05367C21.3219 2.10613 21.3031 2.16419 21.2968 2.22421C21.2905 2.28423 21.2967 2.3449 21.3151 2.40241C21.3334 2.45992 21.3636 2.51303 21.4035 2.55839C21.4435 2.60375 21.4925 2.64039 21.5473 2.666V2.67184ZM18.4035 26.6227C18.3476 26.637 18.2951 26.6621 18.249 26.6967C18.2029 26.7312 18.164 26.7744 18.1347 26.8239C18.0754 26.9238 18.0584 27.0431 18.0875 27.1555C18.1165 27.2679 18.1892 27.3642 18.2896 27.4232C18.39 27.4822 18.5098 27.4991 18.6227 27.4702L18.6344 27.4673C18.7469 27.4368 18.8426 27.3631 18.9005 27.2623C18.9584 27.1616 18.9737 27.0421 18.9431 26.9301C18.9125 26.8181 18.8385 26.7227 18.7373 26.6651C18.6361 26.6075 18.516 26.5922 18.4035 26.6227ZM6.73056 3.73755C6.80053 3.73822 6.86966 3.72231 6.93223 3.69113C6.99481 3.65996 7.04904 3.61441 7.09045 3.55825C7.13185 3.50209 7.15925 3.43693 7.17037 3.36814C7.18149 3.29936 7.17602 3.22893 7.15441 3.16267C7.13279 3.09641 7.09566 3.03622 7.04607 2.98706C6.99648 2.93791 6.93586 2.9012 6.86922 2.87998C6.80257 2.85875 6.73181 2.85362 6.66277 2.865C6.59374 2.87637 6.52841 2.90393 6.47219 2.94541L6.46105 2.95358C6.38868 3.00957 6.33567 3.08668 6.30944 3.17413C6.28321 3.26157 6.28507 3.35499 6.31475 3.44134C6.34443 3.52768 6.40046 3.60264 6.475 3.65574C6.54955 3.70885 6.63889 3.73745 6.73056 3.73755ZM20.0329 26.0714L20.0176 26.0778C19.9104 26.1241 19.826 26.2108 19.7828 26.3189C19.7397 26.4271 19.7413 26.5478 19.7874 26.6547C19.8211 26.733 19.8772 26.7997 19.9486 26.8466C20.02 26.8935 20.1037 26.9184 20.1893 26.9184C20.2498 26.9189 20.3097 26.9066 20.3651 26.8822L20.2004 26.4768L20.3662 26.8822C20.4742 26.8385 20.5603 26.7539 20.6057 26.647C20.651 26.54 20.6518 26.4196 20.6079 26.312C20.564 26.2045 20.479 26.1188 20.3716 26.0736C20.2642 26.0285 20.1432 26.0277 20.0352 26.0714H20.0329ZM0.999522 14.0149C0.999522 14.131 1.04582 14.2422 1.12822 14.3243C1.21063 14.4063 1.32239 14.4524 1.43893 14.4524C1.55547 14.4524 1.66723 14.4063 1.74964 14.3243C1.83204 14.2422 1.87834 14.131 1.87834 14.0149V14.0091C1.87834 13.8931 1.83204 13.7818 1.74964 13.6998C1.66723 13.6177 1.55547 13.5716 1.43893 13.5716C1.32239 13.5716 1.21063 13.6177 1.12822 13.6998C1.04582 13.7818 0.999522 13.8931 0.999522 14.0091V14.0149ZM1.55435 16.2146C1.57172 16.2155 1.58912 16.2155 1.60649 16.2146C1.66381 16.2079 1.71925 16.19 1.76962 16.1619C1.81999 16.1339 1.86431 16.0962 1.90006 16.0511C1.9358 16.0059 1.96227 15.9542 1.97794 15.8989C1.99362 15.8436 1.99819 15.7858 1.99141 15.7287V15.7106C1.9781 15.6282 1.94136 15.5512 1.88552 15.4889C1.82969 15.4265 1.7571 15.3814 1.67634 15.3588C1.59557 15.3363 1.51 15.3372 1.42974 15.3615C1.34948 15.3858 1.27788 15.4324 1.2234 15.496C1.16893 15.5595 1.13386 15.6372 1.12233 15.7199C1.1108 15.8027 1.1233 15.8869 1.15835 15.9628C1.1934 16.0387 1.24954 16.103 1.32013 16.1482C1.39071 16.1933 1.4728 16.2174 1.55669 16.2175L1.55435 16.2146ZM1.48814 15.7847L1.55493 15.7771L1.48287 15.7853L1.48814 15.7847ZM1.49927 12.6867C1.51685 12.6867 1.53443 12.6897 1.55142 12.6897C1.63604 12.69 1.719 12.6662 1.79043 12.621C1.86185 12.5758 1.91873 12.5111 1.9543 12.4347C1.98986 12.3582 2.00263 12.2732 1.99107 12.1898C1.9795 12.1063 1.9441 12.0279 1.88908 11.9639C1.83405 11.8998 1.76171 11.8529 1.68067 11.8286C1.59963 11.8044 1.51329 11.8038 1.43193 11.827C1.35056 11.8502 1.2776 11.8961 1.22172 11.9594C1.16583 12.0227 1.12938 12.1006 1.1167 12.1839V12.2014C1.10281 12.3163 1.13531 12.4319 1.20706 12.5229C1.2788 12.614 1.38391 12.6729 1.49927 12.6867Z" fill="#5611B1"/>
</svg>
