<svg width="19" height="19" viewBox="0 0 19 19" fill="none" xmlns="http://www.w3.org/2000/svg">
<path d="M9.21195 1.54297H9.29372C10.9499 1.54297 12.2475 1.54297 13.2603 1.67925C14.2961 1.81841 15.1138 2.10963 15.7558 2.75088C16.3977 3.39285 16.6882 4.21056 16.8274 5.24704C16.9637 6.25914 16.9637 7.55671 16.9637 9.21293V9.2947C16.9637 10.9509 16.9637 12.2485 16.8274 13.2613C16.6882 14.2971 16.397 15.1148 15.7558 15.7567C15.1611 16.3507 14.4159 16.6447 13.4841 16.7954C12.5681 16.9439 11.4162 16.9618 9.97084 16.9639C9.82816 16.9641 9.69125 16.9076 9.59023 16.8069C9.48921 16.7061 9.43235 16.5694 9.43216 16.4267C9.43197 16.284 9.48846 16.1471 9.58922 16.0461C9.68997 15.9451 9.82673 15.8882 9.96941 15.888C11.4327 15.8859 12.4964 15.8658 13.312 15.7331C14.1132 15.604 14.616 15.3744 14.9947 14.9957C15.4036 14.5868 15.6381 14.0345 15.7615 13.1171C15.8863 12.1847 15.8877 10.9595 15.8877 9.25381C15.8877 7.5481 15.8863 6.32297 15.7608 5.3905C15.6381 4.47309 15.4036 3.92006 14.9947 3.51121C14.5859 3.10307 14.0336 2.86852 13.1161 2.74514C12.1837 2.62034 10.9585 2.6189 9.25284 2.6189C7.54713 2.6189 6.32128 2.62034 5.38881 2.74514C4.47211 2.86852 3.91908 3.10379 3.51095 3.51192C3.1315 3.89065 2.90269 4.39419 2.77358 5.19396C2.64088 6.01024 2.62079 7.07398 2.61792 8.53724C2.61783 8.67992 2.56106 8.81671 2.4601 8.91754C2.35915 9.01836 2.22228 9.07494 2.0796 9.07485C1.93692 9.07475 1.80013 9.01798 1.69931 8.91703C1.59848 8.81607 1.5419 8.6792 1.54199 8.53652C1.54486 7.09047 1.56351 5.93851 1.71127 5.02325C1.8619 4.09078 2.15599 3.34623 2.7499 2.7516C3.39188 2.10963 4.20959 1.81912 5.24607 1.67997C6.25816 1.54369 7.55573 1.54369 9.21195 1.54369" fill="black"/>
<path d="M9.61022 5.66687C9.61022 5.52419 9.6669 5.38736 9.76779 5.28647C9.86868 5.18558 10.0055 5.12891 10.1482 5.12891H12.838C12.9807 5.12891 13.1175 5.18558 13.2184 5.28647C13.3193 5.38736 13.376 5.52419 13.376 5.66687V8.3567C13.376 8.49938 13.3193 8.63621 13.2184 8.7371C13.1175 8.83799 12.9807 8.89467 12.838 8.89467C12.6953 8.89467 12.5585 8.83799 12.4576 8.7371C12.3567 8.63621 12.3001 8.49938 12.3001 8.3567V6.96516L9.63174 9.63347C9.58249 9.68633 9.5231 9.72872 9.45711 9.75812C9.39112 9.78753 9.31988 9.80334 9.24765 9.80461C9.17542 9.80589 9.10367 9.7926 9.03668 9.76554C8.9697 9.73849 8.90885 9.69821 8.85776 9.64713C8.80668 9.59605 8.76641 9.5352 8.73935 9.46821C8.71229 9.40122 8.699 9.32947 8.70028 9.25724C8.70155 9.18501 8.71736 9.11377 8.74677 9.04778C8.77617 8.98179 8.81856 8.9224 8.87142 8.87315L11.5397 6.20484H10.1482C10.0055 6.20484 9.86868 6.14816 9.76779 6.04727C9.6669 5.94638 9.61022 5.80955 9.61022 5.66687Z" fill="black"/>
<path fill-rule="evenodd" clip-rule="evenodd" d="M4.91181 10.1484C4.26769 10.1484 3.72972 10.1484 3.30365 10.2058C2.85319 10.2661 2.44649 10.3995 2.12013 10.7266C1.79304 11.0529 1.65963 11.4596 1.59938 11.9101C1.54199 12.3362 1.54199 12.8734 1.54199 13.5183V13.5929C1.54199 14.2377 1.54199 14.7749 1.59938 15.201C1.65963 15.6515 1.79304 16.0582 2.11941 16.3845C2.44649 16.7116 2.85319 16.845 3.30293 16.9053C3.72972 16.9627 4.26769 16.9627 4.91181 16.9627H4.98641C5.63053 16.9627 6.1685 16.9627 6.59457 16.9053C7.04502 16.845 7.45173 16.7116 7.77809 16.3845C8.10518 16.0582 8.23859 15.6515 8.29884 15.201C8.35623 14.7749 8.35623 14.2377 8.35623 13.5929V13.5183C8.35623 12.8734 8.35623 12.3362 8.29884 11.9101C8.23859 11.4596 8.10518 11.0529 7.77881 10.7266C7.45173 10.3995 7.04502 10.2661 6.59528 10.2058C6.1685 10.1484 5.63053 10.1484 4.98641 10.1484H4.91181ZM2.88045 11.4869C2.9737 11.3936 3.11572 11.3169 3.44711 11.2717C3.79284 11.2258 4.25764 11.2244 4.94911 11.2244C5.64057 11.2244 6.10538 11.2258 6.45183 11.2717C6.7825 11.3169 6.92452 11.3936 7.01777 11.4869C7.11101 11.5801 7.18776 11.7222 7.23295 12.0536C7.27886 12.3993 7.28029 12.8641 7.28029 13.5556C7.28029 14.247 7.27886 14.7118 7.23224 15.0583C7.18776 15.3889 7.11101 15.531 7.01705 15.6242C6.9238 15.7175 6.7825 15.7942 6.45183 15.8394C6.10538 15.8853 5.64057 15.8867 4.94911 15.8867C4.25764 15.8867 3.79284 15.8853 3.44639 15.8387C3.11572 15.7942 2.9737 15.7175 2.88045 15.6235C2.7872 15.5302 2.71045 15.3889 2.66526 15.0583C2.61936 14.7118 2.61792 14.247 2.61792 13.5556C2.61792 12.8641 2.61936 12.3993 2.66598 12.0528C2.71045 11.7222 2.7872 11.5801 2.88117 11.4869" fill="black"/>
</svg>
