<svg xmlns="http://www.w3.org/2000/svg" version="1.1" width="600" height="600">
<path d="M0 0 C198 0 396 0 600 0 C600 198 600 396 600 600 C402 600 204 600 0 600 C0 402 0 204 0 0 Z " fill="#F8F8F8" transform="translate(0,0)"/>
<path d="M0 0 C21.89214381 3.47777437 43.61435156 15.71661542 62.5 26.8125 C71.49667208 32.00445701 80.92899085 36.2916088 90.31591797 40.72314453 C95.1513998 43.02345106 99.93190974 45.42902579 104.7109375 47.84375 C108.05864651 49.53461029 111.42177203 51.19224164 114.7890625 52.84375 C165.9493559 78.01435738 165.9493559 78.01435738 173 95 C173 96.98 173 98.96 173 101 C-14.44 101 -201.88 101 -395 101 C-386.57572148 92.57572148 -377.88872081 84.57912956 -368.5859375 77.12890625 C-366.10621575 75.08744348 -363.77683355 72.94961226 -361.4375 70.75 C-356.79222022 66.51613792 -351.83251067 62.80965401 -346.75 59.125 C-345.59649048 58.28533691 -345.59649048 58.28533691 -344.41967773 57.42871094 C-338.33445045 53.07447206 -333.44448544 49.72359144 -325.75 49.5625 C-315.46252473 48.93265458 -308.88670283 45.21039627 -300.765625 39.07421875 C-292.11430766 32.58573075 -282.79544864 27.6807671 -273.08837891 23.00732422 C-271.07821788 22.0377282 -269.07605637 21.05304411 -267.07421875 20.06640625 C-258.54517246 15.9103165 -249.85113668 12.19725967 -241.0625 8.625 C-240.02037354 8.19590332 -238.97824707 7.76680664 -237.90454102 7.32470703 C-225.47986174 2.35324763 -225.47986174 2.35324763 -219 2 C-216.375 3.6875 -216.375 3.6875 -215 6 C-215 6.99 -215 7.98 -215 9 C-214.34 9 -213.68 9 -213 9 C-208.23255814 13.30232558 -208.23255814 13.30232558 -207 17 C-205.16286025 18.05443499 -205.16286025 18.05443499 -203 19 C-201.56042092 19.96672464 -200.14341184 20.96784308 -198.75 22 C-198.04359375 22.515625 -197.3371875 23.03125 -196.609375 23.5625 C-195.81273437 24.2740625 -195.81273437 24.2740625 -195 25 C-195 25.66 -195 26.32 -195 27 C-194.31035156 27.25265625 -193.62070313 27.5053125 -192.91015625 27.765625 C-189.57350896 29.1809009 -186.56317754 30.91513128 -183.4375 32.75 C-180.96219683 34.1734609 -178.48131775 35.58705571 -176 37 C-175.02675781 37.55558594 -174.05351562 38.11117187 -173.05078125 38.68359375 C-167.27502822 41.78493952 -161.46970608 43.95613464 -155.1875 45.75 C-154.50139648 45.94875732 -153.81529297 46.14751465 -153.10839844 46.35229492 C-140.65531714 49.68559445 -128.01438591 50.35405688 -115.1875 50.25 C-114.13876709 50.24484879 -114.13876709 50.24484879 -113.06884766 50.23959351 C-89.9533211 50.10693861 -65.18611248 47.9191977 -44 38 C-43.3719043 37.71253906 -42.74380859 37.42507813 -42.09667969 37.12890625 C-25.80050569 29.61598815 -9.02017696 19.38329532 -2 2 C-1.34 2 -0.68 2 0 2 C0 1.34 0 0.68 0 0 Z " fill="#BABABA" transform="translate(411,499)"/>
<path d="M0 0 C1.2681958 -0.00471313 1.2681958 -0.00471313 2.56201172 -0.00952148 C14.56114856 0.19800748 26.40099849 2.36419747 38.2265625 4.24609375 C46.23395695 5.51494258 53.94051368 6.67672924 62.04882812 6.11743164 C75.32450264 5.3432319 86.26648814 11.39591183 96.23828125 19.8671875 C101.15357925 24.40960082 102.47392519 27.68239441 103.34765625 34.23046875 C103.77585372 36.80684824 103.77585372 36.80684824 106.9375 38.4375 C114.06912568 39.13897138 119.89776624 37.51981747 126.703125 35.41015625 C129.4463799 34.58519191 132.12082577 33.94047754 134.9375 33.4375 C134.9375 36.4075 134.9375 39.3775 134.9375 42.4375 C135.63875 42.52 136.34 42.6025 137.0625 42.6875 C145.50449866 44.88976052 150.61652004 51.98839295 155 59.0625 C163.16032935 74.54565121 164.0980734 93.22701277 164.0703125 110.34375 C164.07174759 112.32272278 164.07174759 112.32272278 164.07321167 114.3416748 C164.0746774 117.12525617 164.0725733 119.90880524 164.06787109 122.69238281 C164.06221825 126.20421186 164.06553619 129.71596449 164.07129574 133.22779083 C164.09806464 152.24798178 164.09011835 171.10027757 161.125 189.9375 C160.97224609 191.01257813 160.81949219 192.08765625 160.66210938 193.1953125 C159.47671644 200.89802387 158.105772 209.18799025 152.5 214.9375 C149.9375 216.4375 149.9375 216.4375 147.5 217.25 C142.16557965 219.72204845 139.09054755 224.48919447 137.0625 229.875 C136.505625 231.6384375 136.505625 231.6384375 135.9375 233.4375 C135.2775 233.4375 134.6175 233.4375 133.9375 233.4375 C133.91244385 232.68243164 133.8873877 231.92736328 133.86157227 231.14941406 C133.74409976 227.66199906 133.62207221 224.17475691 133.5 220.6875 C133.46068359 219.50027344 133.42136719 218.31304687 133.38085938 217.08984375 C134.0618543 204.52704081 134.0618543 204.52704081 130.9375 193.4375 C130.65067444 191.52733184 130.42209351 189.60834947 130.21875 187.6875 C130.02732422 185.93953125 130.02732422 185.93953125 129.83203125 184.15625 C129.56901042 181.67708333 129.30598958 179.19791667 129.04296875 176.71875 C128.85154297 174.97078125 128.85154297 174.97078125 128.65625 173.1875 C128.54216797 172.10984375 128.42808594 171.0321875 128.31054688 169.921875 C128.19856874 167.5004796 128.19856874 167.5004796 126.9375 166.4375 C126.8279647 164.85687364 126.78160826 163.2717923 126.76171875 161.6875 C126.5267568 135.46344775 126.5267568 135.46344775 114 113.3125 C94.54570257 98.09661159 70.04040815 97.90491598 46.66015625 100.73046875 C39.2311756 101.75277741 30.69021319 103.0611434 23.9375 106.4375 C19.23664863 106.74659824 14.52252838 106.73325982 9.8125 106.75 C9.11854126 106.75261841 8.42458252 106.75523682 7.70959473 106.75793457 C-1.75758637 106.76175264 -10.95516514 106.27119988 -20.3125 104.6875 C-21.70879639 104.45220581 -21.70879639 104.45220581 -23.13330078 104.2121582 C-28.85314983 103.13171924 -34.11385463 101.44268869 -39.51538086 99.27612305 C-44.81468721 97.53135957 -49.86340406 97.71942786 -55.125 99.4375 C-62.74467516 104.62536394 -68.50832778 110.42215689 -73.0625 118.4375 C-73.63871094 119.43265625 -74.21492188 120.4278125 -74.80859375 121.453125 C-87.2974552 144.55080424 -89.74872364 173.90810365 -92.31889343 199.71279907 C-92.79009497 204.13635311 -93.78295655 208.1840726 -95.0625 212.4375 C-96.02186402 218.58759516 -96.34952657 224.72354201 -96.625 230.9375 C-96.66818359 231.8553125 -96.71136719 232.773125 -96.75585938 233.71875 C-96.86083456 235.95822061 -96.96299248 238.19778092 -97.0625 240.4375 C-99.82490033 237.67509967 -100.07087395 234.56979166 -100.875 230.875 C-102.68569507 223.11561872 -105.43590603 217.13114777 -110.0625 210.625 C-112.54037987 206.67587895 -114.18763469 202.56375519 -115.9140625 198.2421875 C-116.9354405 195.53286427 -116.9354405 195.53286427 -118.19921875 193.5859375 C-119.55758258 190.20539404 -119.30923082 186.77252317 -119.25 183.1875 C-119.24935547 182.46175781 -119.24871094 181.73601562 -119.24804688 180.98828125 C-119.21903786 177.3718246 -119.03420569 173.84798616 -118.55859375 170.26171875 C-118.1296695 166.95528692 -117.92816471 163.82803259 -117.9375 160.5 C-117.93492187 159.56285156 -117.93234375 158.62570313 -117.9296875 157.66015625 C-117.81414929 155.46462718 -117.81414929 155.46462718 -119.0625 154.4375 C-119.2017195 151.45839473 -119.27521962 148.50428657 -119.30078125 145.5234375 C-119.31062042 144.61007126 -119.32045959 143.69670502 -119.33059692 142.75566101 C-119.66061545 104.10484857 -119.66061545 104.10484857 -115.0625 87.4375 C-114.82112305 86.53612305 -114.57974609 85.63474609 -114.33105469 84.70605469 C-109.6826154 67.89566103 -103.12117856 54.30342973 -89.0625 43.4375 C-88.38364746 42.9115625 -87.70479492 42.385625 -87.00537109 41.84375 C-59.17844064 20.4375 -59.17844064 20.4375 -53.0625 20.4375 C-52.85625 19.86 -52.65 19.2825 -52.4375 18.6875 C-50.33529995 15.24753629 -47.18089175 13.17967437 -43.37890625 11.84765625 C-40.63076308 11.36105417 -37.90745116 11.25005756 -35.12182617 11.14746094 C-24.71872044 10.91615102 -24.71872044 10.91615102 -15.0625 7.4375 C-12.67861084 5.00141207 -12.67861084 5.00141207 -11.0625 2.4375 C-7.315716 -0.060356 -4.35287855 0.01364953 0 0 Z " fill="#A8A8A8" transform="translate(272.0625,61.5625)"/>
<path d="M0 0 C0.66 0 1.32 0 2 0 C2 1.65 2 3.3 2 5 C1.360625 5.103125 0.72125 5.20625 0.0625 5.3125 C-0.9584375 5.6528125 -0.9584375 5.6528125 -2 6 C-2.33 6.99 -2.66 7.98 -3 9 C-4.6015625 10.54296875 -4.6015625 10.54296875 -6.625 12.1875 C-10.29246766 15.27658566 -13.34616314 18.57814815 -16.359375 22.30078125 C-18.13224989 24.1369731 -19.70589738 24.92492054 -22 26 C-23.06775633 26.84296552 -24.11144962 27.71758055 -25.125 28.625 C-28 31 -28 31 -30 31 C-30 30.34 -30 29.68 -30 29 C-28.34634594 27.97862543 -26.67623498 26.98387706 -25 26 C-20.11680563 22.13413779 -15.64287653 18.11226982 -11.8125 13.1875 C-11.214375 12.465625 -10.61625 11.74375 -10 11 C-9.34 11 -8.68 11 -8 11 C-8 10.34 -8 9.68 -8 9 C-7.34 9 -6.68 9 -6 9 C-5.7525 8.443125 -5.505 7.88625 -5.25 7.3125 C-3.77075182 4.57589087 -2.06532561 2.32349131 0 0 Z " fill="#D8D8D8" transform="translate(387,412)"/>
<path d="M0 0 C0.33 0 0.66 0 1 0 C1 5.61 1 11.22 1 17 C1.99 16.67 2.98 16.34 4 16 C3.34 18.31 2.68 20.62 2 23 C1.34 23 0.68 23 0 23 C0 15.41 0 7.82 0 0 Z " fill="#C9C9C9" transform="translate(406,272)"/>
<path d="M0 0 C0 0.33 0 0.66 0 1 C-0.60328125 1.03738281 -1.2065625 1.07476562 -1.828125 1.11328125 C-6.54199657 1.5010352 -9.30450441 1.8730422 -13 5 C-13.99 4.67 -14.98 4.34 -16 4 C-15 2 -15 2 -13.0625 0.875 C-8.70255107 -0.37069969 -4.50398419 -0.15742081 0 0 Z " fill="#E1E1E1" transform="translate(230,159)"/>
<path d="M0 0 C1.485 0.99 1.485 0.99 3 2 C2.34 5.3 1.68 8.6 1 12 C0.67 12 0.34 12 0 12 C0 8.04 0 4.08 0 0 Z " fill="#D9D9D9" transform="translate(202,428)"/>
</svg>