<svg width="1031" height="52" viewBox="0 0 1031 52" fill="none" xmlns="http://www.w3.org/2000/svg">
<mask id="mask0_73_35626" style="mask-type:alpha" maskUnits="userSpaceOnUse" x="0" y="0" width="1031" height="52">
<path d="M78.6283 36.3261L0 0H1031V52H149.927C125.306 52 100.979 46.6521 78.6283 36.3261Z" fill="#5611B1"/>
</mask>
<g mask="url(#mask0_73_35626)">
<path d="M229 65C229 86.5391 211.539 104 190 104C168.461 104 151 86.5391 151 65C151 43.4609 168.461 26 190 26C211.539 26 229 43.4609 229 65ZM161.717 65C161.717 80.6202 174.38 93.2828 190 93.2828C205.62 93.2828 218.283 80.6202 218.283 65C218.283 49.3798 205.62 36.7172 190 36.7172C174.38 36.7172 161.717 49.3798 161.717 65Z" fill="#9E80C5"/>
<path d="M362 0C362 21.5391 344.539 39 323 39C301.461 39 284 21.5391 284 0C284 -21.5391 301.461 -39 323 -39C344.539 -39 362 -21.5391 362 0ZM294.717 0C294.717 15.6202 307.38 28.2828 323 28.2828C338.62 28.2828 351.283 15.6202 351.283 0C351.283 -15.6202 338.62 -28.2828 323 -28.2828C307.38 -28.2828 294.717 -15.6202 294.717 0Z" fill="#9E80C5"/>
<path d="M128 0C128 10.4934 119.493 19 109 19C98.5066 19 90 10.4934 90 0C90 -10.4934 98.5066 -19 109 -19C119.493 -19 128 -10.4934 128 0ZM95.2212 0C95.2212 7.60983 101.39 13.7788 109 13.7788C116.61 13.7788 122.779 7.60983 122.779 0C122.779 -7.60983 116.61 -13.7788 109 -13.7788C101.39 -13.7788 95.2212 -7.60983 95.2212 0Z" fill="#9E80C5"/>
</g>
</svg>
