<svg width="455" height="80" viewBox="0 0 455 80" fill="none" xmlns="http://www.w3.org/2000/svg">
<path d="M203.947 6.59155L243.421 -36H447C451.418 -36 455 -32.4183 455 -28V148C455 152.418 451.418 156 447 156H80L203.947 6.59155Z" fill="#5611B1"/>
<path d="M457.257 -5.78479C444.232 -5.62006 431.765 0.414658 422.598 10.9918C413.431 21.5689 408.315 35.822 408.376 50.6156C408.437 65.4092 413.67 79.5314 422.923 89.8756C432.176 100.22 444.691 105.939 457.716 105.774L457.681 97.2576C446.645 97.3972 436.04 92.5516 428.2 83.7867C420.359 75.0219 415.926 63.0557 415.874 50.5208C415.822 37.9858 420.157 25.9088 427.925 16.9465C435.692 7.98429 446.256 2.87093 457.292 2.73135L457.257 -5.78479Z" fill="#7F46CB"/>
<path d="M238.882 54.2252C265.994 54.9016 287.349 80.4187 286.578 111.219C285.807 142.02 263.204 166.44 236.091 165.764C208.979 165.087 187.625 139.57 188.395 108.77C189.166 77.9692 211.77 53.5488 238.882 54.2252ZM236.304 157.249C259.277 157.822 278.43 137.13 279.083 111.032C279.736 84.9342 261.642 63.3129 238.669 62.7398C215.696 62.1667 196.543 82.8587 195.89 108.957C195.237 135.055 213.331 156.676 236.304 157.249Z" fill="#7F46CB"/>
<circle cx="271.619" cy="18.619" r="1.61905" fill="#7F46CB"/>
<circle cx="271.619" cy="23.4765" r="1.61905" fill="#7F46CB"/>
<circle cx="271.619" cy="27.5233" r="1.61905" fill="#7F46CB"/>
<circle cx="271.619" cy="32.3808" r="1.61905" fill="#7F46CB"/>
<circle cx="275.667" cy="18.619" r="1.61905" fill="#7F46CB"/>
<circle cx="275.667" cy="23.4765" r="1.61905" fill="#7F46CB"/>
<circle cx="275.667" cy="27.5233" r="1.61905" fill="#7F46CB"/>
<circle cx="275.667" cy="32.3808" r="1.61905" fill="#7F46CB"/>
<circle cx="279.715" cy="18.619" r="1.61905" fill="#7F46CB"/>
<circle cx="279.715" cy="23.4765" r="1.61905" fill="#7F46CB"/>
<circle cx="279.715" cy="27.5233" r="1.61905" fill="#7F46CB"/>
<circle cx="279.715" cy="32.3808" r="1.61905" fill="#7F46CB"/>
<circle cx="283.762" cy="18.619" r="1.61905" fill="#7F46CB"/>
<circle cx="283.762" cy="23.4765" r="1.61905" fill="#7F46CB"/>
<circle cx="283.762" cy="27.5233" r="1.61905" fill="#7F46CB"/>
<circle cx="283.762" cy="32.3808" r="1.61905" fill="#7F46CB"/>
<path opacity="0.23" d="M204.348 -15.8203L9.39965 215.369" stroke="#7F46CB" stroke-width="3"/>
</svg>
