<svg width="30" height="30" viewBox="0 0 30 30" fill="none" xmlns="http://www.w3.org/2000/svg">
<g id="online-education (1)" clip-path="url(#clip0_41_33817)">
<g id="Group">
<g id="Group_2">
<g id="Group_3">
<g id="Group_4">
<g id="Group_5">
<path id="Vector" d="M28.2853 14.6678H17.8604C17.6769 14.6678 17.5108 14.5553 17.4443 14.3839C17.3776 14.2124 17.4235 14.018 17.559 13.8935L19.9738 11.6818V8.6903C19.9738 7.74448 20.7427 6.97559 21.6896 6.97559H28.2853C29.2311 6.97559 30 7.74448 30 8.6903V12.9531C30 13.8989 29.2311 14.6678 28.2853 14.6678ZM19.0083 13.7755H28.2852C28.7384 13.7755 29.1076 13.4063 29.1076 12.952V8.6903C29.1076 8.23593 28.7384 7.86678 28.2852 7.86678H21.6895C21.2352 7.86678 20.866 8.23593 20.866 8.6903V11.8784C20.866 12.004 20.8135 12.1231 20.7218 12.2072L19.0083 13.7755Z" fill="#0051C8"/>
</g>
</g>
</g>
<g id="Group_6">
<g id="Group_7">
<path id="Vector_2" d="M14.7959 6.65008H13.7747C13.5279 6.65008 13.3291 6.45025 13.3291 6.20443C13.3291 5.95861 13.5289 5.75879 13.7747 5.75879H14.7959C15.0428 5.75879 15.2416 5.95861 15.2416 6.20443C15.2416 6.45025 15.0417 6.65008 14.7959 6.65008Z" fill="#0051C8"/>
</g>
</g>
<g id="Group_8">
<g id="Group_9">
<path id="Vector_3" d="M26.6514 25.9278H1.91895C0.860594 25.9278 0 25.0672 0 24.0089V23.098C0 22.8511 0.199826 22.6523 0.445643 22.6523H13.2787C13.5256 22.6523 13.7244 22.8522 13.7244 23.098C13.7244 23.3448 13.5245 23.5436 13.2787 23.5436H0.891192V24.0078C0.891192 24.5746 1.35213 25.0355 1.91895 25.0355H26.6513C27.2181 25.0355 27.6791 24.5746 27.6791 24.0078V23.5436H15.2927C15.0458 23.5436 14.847 23.3438 14.847 23.098C14.847 22.8511 15.0468 22.6523 15.2927 22.6523H28.1258C28.3727 22.6523 28.5715 22.8522 28.5715 23.098V24.0089C28.5714 25.0672 27.7097 25.9278 26.6514 25.9278Z" fill="#0051C8"/>
</g>
</g>
<g id="Group_10">
<g id="Group_11">
<path id="Vector_4" d="M13.2777 23.5436H1.93978C1.69293 23.5436 1.49414 23.3438 1.49414 23.098V5.99234C1.49414 4.93399 2.35473 4.07227 3.41309 4.07227H25.1572C26.2156 4.07227 27.0762 4.93286 27.0762 5.99234V7.42088C27.0762 7.66773 26.8764 7.86652 26.6305 7.86652C26.3848 7.86652 26.1849 7.66669 26.1849 7.42088V5.99234C26.1849 5.42553 25.724 4.96458 25.1571 4.96458H3.41318C2.84637 4.96458 2.38543 5.42553 2.38543 5.99234V22.6524H13.2777C13.5245 22.6524 13.7233 22.8523 13.7233 23.0981C13.7233 23.3438 13.5245 23.5436 13.2777 23.5436Z" fill="#0051C8"/>
</g>
</g>
<g id="Group_12">
<g id="Group_13">
<path id="Vector_5" d="M26.6307 23.5438H15.2928C15.046 23.5438 14.8472 23.344 14.8472 23.0982C14.8472 22.8524 15.047 22.6525 15.2928 22.6525H26.1851V14.222C26.1851 13.9752 26.3849 13.7764 26.6307 13.7764C26.8764 13.7764 27.0764 13.9762 27.0764 14.222V23.0982C27.0764 23.344 26.8765 23.5438 26.6307 23.5438Z" fill="#0051C8"/>
</g>
</g>
<g id="Group_14">
<g id="Group_15">
<path id="Vector_6" d="M14.2846 24.5507C13.4829 24.5507 12.832 23.8987 12.832 23.097C12.832 22.8502 13.0319 22.6514 13.2777 22.6514C13.5235 22.6514 13.7233 22.8512 13.7233 23.097C13.7233 23.4061 13.9756 23.6584 14.2847 23.6584C14.5938 23.6584 14.8461 23.4072 14.8461 23.097C14.8461 22.8502 15.0459 22.6514 15.2917 22.6514C15.5374 22.6514 15.7373 22.8512 15.7373 23.097C15.7383 23.8987 15.0862 24.5507 14.2846 24.5507Z" fill="#0051C8"/>
</g>
</g>
<g id="Group_16">
<g id="Group_17">
<path id="Vector_7" d="M18.5771 20.3251C18.3302 20.3251 18.1314 20.1253 18.1314 19.8795V17.8993C18.1314 17.8677 18.127 17.836 18.1172 17.8054C18.1128 17.7912 18.1096 17.7781 18.1064 17.7639C17.9829 17.1764 17.4324 15.8089 15.0089 15.8089H14.3863C14.3514 15.8089 14.3175 15.8045 14.2848 15.7969C14.252 15.8045 14.2181 15.8089 14.1832 15.8089H13.5607C11.1371 15.8089 10.5866 17.1764 10.4632 17.7639C10.4599 17.7781 10.4567 17.7923 10.4523 17.8054C10.4425 17.836 10.4382 17.8666 10.4382 17.8993V19.8795C10.4382 20.1263 10.2383 20.3251 9.99252 20.3251C9.7467 20.3251 9.54688 20.1253 9.54688 19.8795V17.8993C9.54688 17.7847 9.5633 17.67 9.59606 17.5608C9.71948 16.995 10.2656 15.3972 12.4947 15.0051C12.1889 14.6294 12.0043 14.15 12.0043 13.6289V11.9983C12.0043 10.7958 12.9818 9.81836 14.1843 9.81836H14.3863C15.5889 9.81836 16.5663 10.7959 16.5663 11.9983V13.6289C16.5663 14.15 16.3828 14.6294 16.0759 15.0051C18.3039 15.3972 18.85 16.995 18.9746 17.5608C19.0073 17.6711 19.0226 17.7847 19.0226 17.8993V19.8795C19.0237 20.1263 18.8239 20.3251 18.5771 20.3251ZM14.1843 10.7096C13.4743 10.7096 12.8955 11.2873 12.8955 11.9972V13.6278C12.8955 14.3378 13.4733 14.9155 14.1843 14.9155C14.2192 14.9155 14.2531 14.9199 14.2858 14.9275C14.3186 14.9199 14.3525 14.9155 14.3874 14.9155C15.0973 14.9155 15.6762 14.3377 15.6762 13.6278V11.9973C15.6762 11.2873 15.0984 10.7096 14.3874 10.7096L14.1843 10.7096Z" fill="#0051C8"/>
</g>
</g>
</g>
</g>
</g>
<defs>
<clipPath id="clip0_41_33817">
<rect width="30" height="30" fill="white"/>
</clipPath>
</defs>
</svg>
