<?xml version="1.0" standalone="no"?>
<!DOCTYPE svg PUBLIC "-//W3C//DTD SVG 20010904//EN"
 "http://www.w3.org/TR/2001/REC-SVG-20010904/DTD/svg10.dtd">
<svg version="1.0" xmlns="http://www.w3.org/2000/svg"
 width="355.000000pt" height="249.000000pt" viewBox="0 0 355.000000 249.000000"
 preserveAspectRatio="xMidYMid meet">
<metadata>
Created by potrace 1.16, written by Peter Selinger 2001-2019
</metadata>
<g transform="translate(0.000000,249.000000) scale(0.100000,-0.100000)"
fill="#000000" stroke="none">
<path d="M1385 2121 c-2 -4 -5 -30 -7 -59 -3 -58 -9 -64 -26 -27 -21 46 -44
30 -31 -21 6 -18 14 -71 18 -116 9 -84 48 -370 75 -553 9 -55 18 -145 21 -200
3 -55 7 -134 10 -175 2 -42 11 -92 20 -112 11 -28 34 -203 35 -269 0 -4 -27
-9 -59 -11 -90 -6 -94 -13 -86 -131 l7 -100 -108 7 c-60 4 -110 9 -111 10 -1
1 -5 36 -9 77 -10 121 -7 119 -187 119 l-152 0 32 21 c48 30 58 79 44 201 -10
81 -10 102 3 131 14 34 15 35 53 26 21 -5 41 -9 45 -9 4 0 3 -12 -3 -27 -23
-62 -5 -247 27 -274 11 -9 16 -6 24 12 10 23 10 23 5 -3 -5 -27 -4 -28 33 -28
63 0 74 15 73 96 -3 165 -9 198 -36 221 -17 15 -39 23 -63 23 l-37 0 -1 103
c-1 113 -26 252 -56 310 -38 76 -122 96 -213 51 -54 -27 -74 -72 -89 -200 -13
-124 -20 -124 -66 3 -15 43 -37 104 -49 135 -12 32 -21 70 -21 86 0 16 -9 78
-20 138 -30 166 -28 184 31 252 28 32 39 82 19 82 -6 0 -9 21 -8 53 3 45 1 52
-14 49 -11 -2 -18 3 -18 13 0 27 -18 16 -64 -40 -61 -76 -68 -112 -60 -358 7
-239 29 -347 118 -599 l56 -157 0 -156 0 -155 -49 0 c-67 0 -110 -17 -117 -46
-4 -14 -3 -54 1 -89 l7 -65 -76 0 c-47 0 -76 -4 -76 -11 0 -7 27 -9 77 -7 l78
3 0 87 c0 48 5 91 10 97 6 6 140 12 351 15 286 5 344 3 353 -8 9 -11 25 -111
31 -193 0 -2 55 -3 121 -3 l121 0 -3 102 -4 102 29 15 c25 12 47 12 135 2 58
-6 195 -15 303 -18 238 -7 231 -4 237 -124 l3 -79 129 0 129 0 0 125 0 125 28
6 c15 3 34 8 42 10 8 3 73 -3 143 -12 113 -16 149 -16 302 -6 192 13 219 9
236 -35 12 -32 14 -126 4 -172 -5 -22 -3 -33 7 -36 8 -3 68 -2 134 3 l119 9
-123 2 -123 1 7 70 c5 54 3 80 -10 114 -26 67 -43 71 -251 57 -158 -11 -290
-8 -299 8 -7 10 22 202 37 251 10 30 20 45 31 45 14 0 17 -13 19 -80 2 -52 9
-90 20 -110 l16 -30 1 58 c1 136 85 197 129 94 20 -47 66 -97 88 -97 16 0 73
56 73 71 0 27 143 -10 164 -43 7 -12 5 -42 -8 -109 -20 -104 -11 -134 23 -78
37 61 41 173 7 224 -15 22 -33 30 -119 49 -40 9 -32 36 18 61 90 44 113 76
122 167 6 74 -14 127 -67 171 -69 59 -156 58 -244 -1 -75 -51 -104 -133 -87
-250 15 -97 2 -112 -52 -66 -18 15 -38 24 -49 20 -15 -3 -23 4 -34 32 -35 88
-48 112 -59 112 -7 0 -26 37 -43 83 -52 136 -67 366 -36 525 14 68 15 90 5
123 -9 29 -17 39 -29 37 -12 -3 -16 -12 -15 -33 2 -26 -1 -23 -21 20 -27 59
-42 73 -76 70 -23 -2 -25 -6 -23 -45 2 -42 2 -42 -13 -21 -13 18 -19 20 -30
10 -8 -7 -12 -19 -9 -27 3 -8 1 -20 -5 -27 -8 -9 2 -29 34 -72 25 -33 49 -71
54 -84 6 -15 5 -93 -1 -202 l-11 -177 43 -133 c24 -72 43 -136 43 -142 -1 -5
-7 -34 -14 -62 -11 -50 -11 -54 11 -77 22 -24 74 -159 62 -163 -3 -2 -49 1
-101 5 -89 7 -95 8 -101 32 -6 22 -7 23 -8 4 -2 -35 21 -44 122 -51 86 -5 96
-8 101 -27 13 -49 10 -53 -49 -48 -67 5 -119 -4 -141 -25 -14 -14 -15 -32 -9
-125 l7 -108 -101 -2 c-56 -1 -108 -2 -117 -2 -12 -1 -16 13 -19 65 -6 81 7
99 55 79 28 -12 33 -10 57 11 14 13 32 38 39 56 8 17 18 34 24 38 5 3 10 21
10 39 0 17 6 38 13 45 10 11 9 13 -3 9 -9 -3 -16 -19 -18 -39 -4 -45 -22 -63
-22 -22 0 18 -5 35 -10 38 -7 4 -9 -15 -8 -54 3 -54 0 -63 -26 -90 -27 -28
-31 -29 -55 -17 -14 7 -33 12 -41 9 -8 -2 -5 2 8 8 24 13 38 52 48 142 l7 58
23 -22 c13 -12 26 -20 29 -17 3 2 -6 15 -20 28 -47 44 -26 72 30 40 20 -11 41
-17 47 -14 12 7 -57 43 -84 44 -9 0 -18 -5 -20 -12 -3 -8 -12 -4 -25 9 -12 12
-42 25 -68 28 -45 7 -46 8 -41 39 5 23 4 26 -3 11 -8 -18 -9 -17 -13 10 -4 22
-5 18 -7 -17 -1 -43 -3 -48 -24 -48 -38 0 -67 27 -67 63 0 59 19 105 43 109
13 2 29 16 39 36 27 55 31 51 26 -23 -3 -38 -3 -59 0 -45 5 20 7 17 12 -20 4
-25 4 21 2 102 l-5 148 59 1 c32 1 49 4 36 6 -12 2 -20 9 -16 14 3 6 0 10 -7
8 -29 -3 -46 2 -67 21 -12 12 -22 16 -22 11 0 -6 9 -15 20 -21 20 -11 19 -30
-1 -30 -6 0 -7 4 -4 10 3 6 -1 7 -9 4 -9 -3 -16 -10 -16 -16 0 -5 5 -6 10 -3
11 7 13 -50 2 -77 -13 -32 -29 -4 -35 59 -9 103 -56 161 -140 170 -111 13
-187 -61 -187 -183 0 -30 -4 -43 -12 -41 -17 3 -12 -64 7 -111 12 -27 19 -32
35 -27 17 6 20 2 20 -29 0 -20 -4 -36 -9 -36 -22 0 -70 59 -76 93 -7 34 -10
37 -44 38 -36 1 -36 1 -6 8 27 6 30 9 27 41 -10 108 -34 247 -56 323 -33 113
-66 286 -66 344 0 28 8 58 19 77 27 43 64 146 57 154 -4 3 -16 1 -26 -6 -19
-12 -20 -9 -20 41 0 46 -4 57 -27 78 -26 22 -88 35 -98 20z m75 -72 c0 -38 4
-58 10 -54 6 4 7 23 4 44 -4 24 -2 41 5 45 7 5 11 -3 11 -22 0 -16 3 -51 7
-77 l6 -47 18 23 c10 13 20 21 24 18 6 -6 3 -13 -54 -129 -31 -64 -32 -66 -21
-140 14 -103 47 -253 70 -325 17 -53 50 -254 50 -305 0 -14 -7 -20 -22 -20
-13 0 -38 -9 -56 -20 -56 -35 -62 -29 -63 58 0 42 -4 109 -9 147 -18 156 -70
531 -75 550 -3 11 -10 58 -15 105 -5 47 -11 101 -14 120 -6 33 -5 32 15 -12
12 -27 25 -48 30 -48 5 0 9 34 9 75 0 41 4 75 9 75 5 0 13 -29 16 -65 4 -36
11 -65 16 -65 5 0 9 32 9 71 0 44 4 68 10 64 6 -3 10 -33 10 -66z m-982 -85
c-5 -45 7 -43 21 4 l11 37 -4 -50 c-3 -27 -8 -59 -12 -70 l-7 -20 23 20 23 20
-8 -25 c-4 -14 -20 -39 -35 -57 -49 -56 -54 -87 -31 -210 11 -59 23 -135 27
-168 3 -33 20 -94 36 -135 17 -41 38 -98 47 -126 10 -27 30 -67 47 -87 l29
-37 6 123 c6 134 23 187 69 216 l25 16 -22 -30 c-34 -49 -43 -102 -43 -255 0
-80 -7 -200 -15 -265 -25 -198 -21 -239 28 -292 16 -19 17 -23 5 -23 -26 0
-66 39 -79 77 -14 44 -7 195 16 322 8 47 13 87 10 89 -7 7 -12 -14 -25 -93 -6
-38 -23 -92 -38 -119 l-27 -50 -6 65 c-4 39 -29 129 -63 228 -52 149 -68 204
-96 342 -5 26 -10 141 -11 255 -2 180 1 215 16 252 12 28 22 41 31 38 8 -3 14
1 14 11 0 19 33 54 39 41 1 -5 1 -25 -1 -44z m1892 -101 c15 -57 36 -84 27
-37 -3 18 -9 43 -13 58 -3 14 -2 26 3 26 10 0 18 -15 48 -87 10 -24 22 -43 27
-43 4 0 8 19 9 43 l1 42 14 -33 c12 -27 12 -44 4 -85 -26 -125 -30 -214 -16
-353 10 -103 21 -156 40 -203 29 -71 32 -91 15 -91 -7 0 -26 -16 -45 -35 l-32
-35 -43 127 -42 127 12 176 c13 195 11 208 -43 275 -44 54 -55 75 -28 51 25
-22 28 -12 7 24 -25 44 -16 56 16 20 l30 -35 -5 31 c-3 18 -8 43 -12 58 -3 15
-2 26 4 26 5 0 15 -21 22 -47z m-1469 -469 c14 -13 33 -48 42 -78 19 -60 47
-239 47 -304 l0 -43 -42 3 -43 3 -7 124 c-4 68 -12 146 -18 172 -15 61 -61
126 -97 136 l-28 7 30 7 c44 10 87 0 116 -27z m-93 -19 c47 -39 63 -101 71
-265 4 -80 7 -146 6 -147 -1 -2 -15 1 -31 6 l-29 8 0 -71 c-1 -46 -9 -99 -25
-151 l-25 -80 -7 114 c-6 103 -17 145 -34 128 -14 -14 -23 -98 -24 -217 l-1
-125 -19 24 c-32 38 -34 66 -16 220 9 80 16 210 16 288 0 157 11 229 41 268
26 31 40 31 77 0z m1102 -74 c41 -30 62 -77 65 -144 1 -35 7 -63 14 -65 14 -5
14 -44 -1 -77 -13 -29 -21 -31 -42 -10 -8 8 -20 15 -26 15 -8 0 -9 7 -5 18 21
50 27 93 22 149 -11 110 -32 127 -141 109 -68 -12 -70 -13 -88 -51 -22 -49
-24 -162 -4 -210 17 -40 44 -59 113 -76 41 -10 58 -10 79 0 26 12 27 11 20
-20 -3 -17 -6 -50 -6 -72 l0 -40 -58 6 c-32 2 -74 13 -93 23 -19 10 -44 17
-57 15 -13 -1 -29 3 -37 9 -11 9 -19 2 -40 -40 -33 -66 -67 -100 -98 -100 -22
0 -26 6 -32 48 -4 26 -13 62 -21 81 -8 18 -14 53 -14 77 0 53 23 72 99 81 48
5 51 4 51 -16 0 -36 27 -77 65 -100 20 -11 38 -21 41 -21 3 0 4 24 2 53 -3 47
-5 52 -25 49 -18 -3 -24 4 -33 40 -6 24 -13 49 -15 56 -4 9 1 11 16 7 19 -6
20 -4 14 24 -8 39 10 129 33 159 39 51 147 63 202 23z m-11 -25 c7 -8 17 -41
23 -74 10 -54 9 -68 -10 -127 -27 -80 -27 -78 -2 -70 34 11 22 -15 -14 -30
-34 -14 -70 -10 -138 17 -40 15 -62 80 -56 162 8 91 24 120 73 127 72 11 112
9 124 -5z m1159 -10 c34 -18 65 -51 86 -94 21 -40 13 -135 -14 -180 -15 -25
-98 -77 -107 -68 -2 2 12 34 31 72 45 90 61 151 47 187 -27 71 -149 89 -230
33 -46 -32 -81 -96 -81 -147 0 -62 28 -135 62 -164 28 -24 38 -27 83 -22 45 5
52 3 61 -16 6 -15 25 -24 62 -33 30 -6 61 -18 69 -26 35 -36 39 -148 6 -211
-21 -42 -23 -30 -7 38 7 33 14 79 14 102 0 52 -24 71 -114 90 -54 11 -62 11
-71 -3 -58 -93 -101 -85 -148 29 -9 20 -21 37 -28 37 -9 0 -9 3 0 14 8 10 10
43 5 110 -6 78 -4 104 10 140 18 48 60 90 111 112 40 18 119 17 153 0z m10
-59 c37 -34 27 -105 -28 -212 -39 -75 -48 -86 -79 -95 -48 -13 -57 -13 -90 5
-48 24 -80 134 -60 207 13 49 64 103 112 117 48 15 117 5 145 -22z m-488 -119
c0 -2 14 -36 30 -77 31 -77 36 -96 21 -87 -34 21 -78 -81 -90 -207 l-6 -72
-18 69 c-16 62 -48 135 -79 177 -9 13 -7 30 8 75 17 50 27 64 68 92 42 28 66
39 66 30z m-1717 -162 c-4 -11 -6 -80 -5 -153 3 -84 0 -139 -7 -152 -11 -21
-62 -51 -110 -66 l-24 -7 5 167 c4 92 10 171 16 177 15 15 26 -185 14 -249 -5
-29 -6 -53 -3 -53 8 0 56 129 76 205 8 32 15 83 15 112 0 43 3 51 15 47 11 -5
13 -13 8 -28z m230 -11 c11 -10 17 -51 22 -141 7 -117 6 -128 -11 -141 -10 -7
-29 -13 -42 -13 -23 0 -24 3 -17 38 3 20 13 47 21 60 8 12 11 22 7 22 -11 -1
-63 -76 -63 -91 0 -26 -17 6 -29 53 -14 58 -14 141 0 191 10 36 12 37 54 37
25 0 50 -6 58 -15z m615 -61 c10 4 35 -3 57 -14 23 -12 59 -20 87 -20 41 0 48
-3 48 -19 0 -26 12 -29 105 -23 77 4 82 3 113 -23 32 -27 33 -30 27 -79 -15
-114 -32 -145 -63 -114 -6 6 -15 8 -19 3 -5 -4 -2 -10 5 -12 6 -3 12 -16 12
-29 l0 -25 -23 27 c-22 25 -28 27 -107 25 -126 -3 -414 20 -422 33 -4 6 -8 39
-8 73 0 61 0 61 37 80 28 13 45 33 67 75 25 50 31 56 48 47 10 -6 27 -8 36 -5z"/>
</g>
</svg>
