<svg width="834" height="597" viewBox="0 0 834 597" fill="none" xmlns="http://www.w3.org/2000/svg">
<g clip-path="url(#clip0_393_17268)">
<rect width="834" height="597" fill="#5611B1"/>
<path d="M649.976 541.903H599.102C599.102 541.903 589.626 562.27 587.879 583.966C586.134 605.663 594.779 759.119 594.779 759.119H622.544L626.87 654.057L628.863 759.119H658.04C658.04 759.119 663.221 655.086 664.845 605.133C665.341 589.867 662.953 574.642 657.716 560.294C655.056 553.007 652.185 545.794 649.976 541.903Z" fill="#EDE3DB"/>
<path d="M626.951 654.293C626.749 648.345 626.655 642.397 626.576 636.449C626.496 630.501 626.503 624.553 626.463 618.605C626.501 612.657 626.497 606.71 626.575 600.761L626.712 591.839C626.793 588.866 626.84 585.891 626.952 582.917C627.062 585.891 627.109 588.866 627.191 591.839L627.328 600.761C627.406 606.71 627.402 612.657 627.44 618.605C627.4 624.553 627.407 630.501 627.326 636.449C627.246 642.397 627.152 648.346 626.951 654.293Z" fill="#E6CDBD"/>
<path d="M622.717 580.533C620.657 579.1 618.679 577.555 616.501 576.411C614.355 575.238 611.994 574.436 609.596 574.411L609.9 573.571C611.32 574.774 612.811 575.896 614.358 576.947C615.916 577.981 617.533 578.935 619.199 579.831C617.399 579.245 615.659 578.461 614.004 577.523C612.339 576.602 610.76 575.516 609.29 574.301L608.295 573.478L609.593 573.46C612.227 573.423 614.743 574.381 616.911 575.698C619.075 577.06 620.951 578.751 622.717 580.533Z" fill="#E6CDBD"/>
<path d="M611.992 580.611C613.134 580.358 614.281 580.505 615.364 580.811C616.441 581.144 617.481 581.647 618.3 582.484C617.142 582.344 616.123 582.04 615.087 581.746C614.058 581.424 613.038 581.123 611.992 580.611Z" fill="#E6CDBD"/>
<path d="M630.434 579.803C631.395 578.103 632.718 576.658 634.172 575.384C635.645 574.133 637.269 573.037 639.093 572.339C637.688 573.689 636.233 574.878 634.81 576.124C633.367 577.347 631.976 578.611 630.434 579.803Z" fill="#E6CDBD"/>
<path d="M632.08 581.773C632.979 580.826 633.916 579.928 634.892 579.078C635.371 578.643 635.873 578.236 636.365 577.815L637.117 577.203L637.516 576.886C637.676 576.777 637.908 576.616 638.266 576.626C638.63 576.64 638.937 576.915 639.046 577.164C639.171 577.414 639.198 577.708 639.129 577.967C638.99 578.458 638.698 578.724 638.503 578.959C638.068 579.437 637.647 579.928 637.199 580.394C636.322 581.345 635.396 582.256 634.422 583.126C635.104 582.012 635.835 580.939 636.614 579.906C636.993 579.381 637.4 578.879 637.794 578.366C638.003 578.105 638.181 577.885 638.203 577.739C638.218 577.685 638.204 577.639 638.185 577.6C638.156 577.559 638.178 577.602 638.214 577.601C638.267 577.547 637.956 577.742 637.707 577.952L636.936 578.539C636.412 578.917 635.898 579.309 635.362 579.673C634.306 580.424 633.212 581.123 632.08 581.773Z" fill="#E6CDBD"/>
<path d="M600.682 546.971C598.965 551.054 597.406 555.203 595.972 559.39C594.544 563.579 593.258 567.821 592.272 572.128C591.278 576.436 590.582 580.799 590.797 585.224C590.877 589.645 591.023 594.074 591.176 598.5L593.103 651.618L594.99 704.739L595.884 731.302L596.692 757.868L595.407 731.32L594.24 704.768L592.128 651.653C591.526 633.944 590.876 616.237 590.43 598.521C590.321 594.092 590.219 589.665 590.183 585.227C590.012 580.779 590.757 576.314 591.81 572.017C592.879 567.706 594.243 563.48 595.747 559.311C597.258 555.144 598.892 551.023 600.682 546.971Z" fill="#E6CDBD"/>
<path d="M647.836 543.146C649.958 547.145 651.874 551.253 653.647 555.421C655.413 559.592 657.017 563.836 658.37 568.166C659.705 572.498 660.799 576.921 661.401 581.432C661.999 585.954 661.88 590.511 661.926 595.033C661.915 604.092 661.686 613.145 661.455 622.196L660.634 649.345C659.966 667.44 659.255 685.533 658.434 703.622L657.152 730.752L655.714 757.874L659.659 649.312C660.303 631.22 660.937 613.123 661.178 595.03C661.176 590.508 661.338 585.977 660.792 581.509C660.243 577.039 659.191 572.634 657.915 568.305C656.644 563.97 655.118 559.707 653.427 555.513C651.73 551.319 649.887 547.181 647.836 543.146Z" fill="#E6CDBD"/>
<path d="M636.463 457.172C635.995 454.467 635.662 451.497 635.897 449.163V449.153C636.004 448.001 636.249 447.004 636.688 446.272L625.271 440.436L613.246 444.282C613.685 445.015 614.17 448.001 614.278 449.153L614.037 447.173C614.272 449.507 614.181 454.466 613.711 457.172C613.018 461.129 612.021 464.508 612.021 464.508H621.669H623.865H638.153C638.153 464.508 637.157 461.129 636.463 457.172Z" fill="#C27559"/>
<path d="M614.035 447.175C614.035 447.175 621.809 452.648 636.156 447.601C636.156 447.601 624.94 463.924 614.035 447.175Z" fill="#C2674E"/>
<path d="M610.711 463.008C610.711 463.008 612.271 459.764 613.097 454.567C613.234 453.71 613.904 453.039 614.759 452.895C617.85 452.376 625.603 451.449 635.802 452.906C636.789 453.047 637.515 453.901 637.518 454.899C637.524 456.958 637.705 460.283 638.755 461.532C640.322 463.395 651.915 464.559 656.114 467.916C660.313 471.273 651.118 526.622 651.118 526.622C651.118 526.622 652.472 539.008 649.978 541.918C649.978 541.918 622.67 548.984 599.103 541.918C599.103 541.918 596.618 532.982 597.736 526.996C598.854 521.01 590.473 470.103 590.473 470.103C590.473 470.103 595.76 466.73 610.711 463.008Z" fill="#4A826B"/>
<path d="M616.247 453.183C616.633 454.898 616.719 456.614 616.735 458.329C616.721 460.044 616.634 461.76 616.247 463.475C615.86 461.76 615.774 460.044 615.76 458.329C615.776 456.613 615.862 454.898 616.247 453.183Z" fill="#2A5744"/>
<path d="M622.732 452.746C623.117 454.461 623.203 456.175 623.219 457.89C623.205 459.605 623.118 461.319 622.732 463.034C622.344 461.319 622.258 459.605 622.244 457.89C622.26 456.175 622.347 454.461 622.732 452.746Z" fill="#2A5744"/>
<path d="M629.715 453.115C630.101 454.67 630.187 456.224 630.203 457.778C630.189 459.332 630.102 460.886 629.715 462.44C629.328 460.886 629.242 459.332 629.227 457.778C629.244 456.224 629.33 454.67 629.715 453.115Z" fill="#2A5744"/>
<path d="M634.64 453.738C635.026 455.297 635.112 456.858 635.128 458.417C635.114 459.976 635.027 461.536 634.64 463.095C634.253 461.536 634.167 459.976 634.152 458.417C634.169 456.858 634.255 455.298 634.64 453.738Z" fill="#2A5744"/>
<path d="M641.324 507.25H604.834V556.942H641.324V507.25Z" fill="#D8B467"/>
<path d="M642.526 536.891C644.18 535.032 642.804 532.514 642.804 532.514C643.802 529.521 641.325 527.104 641.325 527.104V529.768C641.325 529.768 635.073 530.892 633.522 529.755C631.97 528.617 637.872 525.526 637.872 525.526C637.872 525.526 638.253 524.47 636.259 523.971C634.264 523.471 624.133 530.197 624.133 530.197L622.135 530.059C617.773 529.757 606.866 528.989 593.17 527.96C594.875 522.724 596.543 517.661 598.131 512.923C592.232 516.53 586.286 520.126 580.92 524.502C576.149 528.393 571.71 532.641 567.443 537.062C570.092 544.415 577.485 549.732 586.1 548.79C586.229 548.775 586.359 548.761 586.488 548.747C599.603 547.274 625.542 539.556 625.518 539.493C629.848 540.833 639.9 543.836 641.326 543.302C643.15 542.618 642.432 540.619 642.432 540.619C643.178 538.937 642.526 536.891 642.526 536.891Z" fill="#C27559"/>
<path d="M610.712 463.003C610.712 463.003 593.775 463.022 587.649 471.999C581.522 480.977 565.437 524.246 565.312 528.735C565.187 533.225 566.76 540.227 570.3 542.89C573.839 545.553 596.735 527.114 596.735 527.114C596.735 527.114 596.735 525.868 594.615 525.992L610.712 483.348V463.003Z" fill="#4A826B"/>
<path d="M587.51 526.343C588.629 525.976 589.724 525.87 590.824 525.795C591.927 525.751 593.027 525.742 594.178 525.99C593.119 526.511 591.998 526.697 590.876 526.77C589.753 526.814 588.619 526.747 587.51 526.343Z" fill="#2A5744"/>
<path d="M593.75 524.97C591.656 524.75 589.671 523.779 588.045 522.397C587.935 522.297 587.794 522.163 587.689 521.952C587.579 521.724 587.548 521.441 587.672 521.167C587.781 520.861 588.217 520.663 588.472 520.725C588.727 520.762 588.882 520.853 588.993 520.92C589.431 521.2 589.878 521.464 590.307 521.761C591.174 522.335 592.02 522.94 592.808 523.622C591.805 523.285 590.863 522.871 589.939 522.428C589.473 522.215 589.026 521.97 588.569 521.741C588.457 521.684 588.375 521.658 588.373 521.663C588.373 521.687 588.531 521.623 588.541 521.561C588.559 521.524 588.548 521.522 588.555 521.523C588.565 521.543 588.611 521.597 588.692 521.665C590.188 522.967 591.896 524.014 593.75 524.97Z" fill="#2A5744"/>
<path d="M593.182 527.74C593.182 527.299 593.326 527.12 593.505 527.001C593.7 526.91 593.928 526.882 594.304 527.117C594.305 527.559 594.16 527.739 593.98 527.855C593.785 527.944 593.556 527.973 593.182 527.74Z" fill="#2A5744"/>
<path d="M597.905 518.394C597.85 516.212 597.926 514.034 598.044 511.859C598.151 509.682 598.361 507.514 598.594 505.349C598.852 503.187 599.137 501.027 599.522 498.883L600.121 495.671C600.364 494.608 600.577 493.54 600.86 492.484C600.797 493.575 600.676 494.655 600.595 495.742L600.266 498.986L599.564 505.46L598.787 511.927C598.516 514.082 598.252 516.239 597.905 518.394Z" fill="#2A5744"/>
<path d="M568.319 537.151C568.985 538.063 569.489 538.928 570.062 539.776C570.613 540.638 571.206 541.443 571.776 542.419C570.703 542.036 569.863 541.231 569.246 540.311C568.649 539.376 568.245 538.287 568.319 537.151Z" fill="#2A5744"/>
<path d="M665.973 524.321C666.127 524.579 666.278 524.829 666.434 525.088C660.844 533.841 655.666 541.888 651.58 548.213C652.92 551.705 653.516 555.557 653.612 559.246C654.203 561.076 654.752 562.923 655.29 564.773C663.62 558.885 671.284 552.152 678.262 544.985C682.043 541.097 685.628 537.088 689.016 533.026C689.038 533 689.058 532.972 689.08 532.944C681.988 528.956 673.861 526.755 665.973 524.321Z" fill="#C27559"/>
<path d="M641.322 462.782C641.322 462.782 655.09 465.03 661.2 470.143C667.31 475.255 691.375 515.656 693.122 519.771C694.867 523.886 692.872 530.383 685.64 536.985L663.196 527.751C663.196 527.751 663.134 526.005 664.911 524.882L650.478 502.312L641.322 462.782Z" fill="#4A826B"/>
<path d="M653.826 507.449C652.714 505.076 651.812 502.659 650.9 500.241C650.016 497.813 649.128 495.391 648.43 492.866C649.835 495.08 650.9 497.467 651.816 499.903C652.704 502.349 653.449 504.854 653.826 507.449Z" fill="#2A5744"/>
<path d="M665.318 524.694C666.425 524.355 667.519 524.314 668.61 524.344C669.699 524.404 670.786 524.537 671.861 524.969C670.754 525.31 669.66 525.351 668.569 525.319C667.48 525.257 666.393 525.125 665.318 524.694Z" fill="#2A5744"/>
<path d="M665.256 523.584C665.538 523.123 665.837 522.939 666.164 522.794C666.502 522.675 666.847 522.606 667.368 522.754C667.232 523.281 666.89 523.543 666.522 523.702C666.142 523.834 665.714 523.874 665.256 523.584Z" fill="#2A5744"/>
<path d="M665.565 525.812C666.025 525.704 666.257 525.76 666.479 525.868C666.688 526.001 666.855 526.171 666.999 526.623C666.615 526.909 666.272 526.857 665.999 526.718C665.74 526.554 665.518 526.287 665.565 525.812Z" fill="#2A5744"/>
<path d="M652.793 504.443C652.291 507.579 651.685 510.69 651.118 513.804C650.558 516.92 649.991 520.029 649.525 523.152C649.036 526.272 648.658 529.405 648.38 532.549C648.229 534.12 648.136 535.696 648.106 537.279C648.028 538.86 647.984 540.443 647.877 542.029C647.693 538.862 647.483 535.687 647.629 532.503C647.733 529.32 648.088 526.151 648.559 523.007C649.052 519.865 649.649 516.742 650.384 513.654C651.107 510.561 651.897 507.489 652.793 504.443Z" fill="#2A5744"/>
<path d="M659.619 553.784C659.619 553.784 659.525 553.201 652.396 548.991L652.721 552.861C652.721 552.861 645.64 562.841 646.21 563.697C646.781 564.553 652.648 559.989 652.648 559.989C652.648 559.989 646.709 566.265 647.423 567.477C648.136 568.689 650.632 567.477 650.632 567.477C650.632 567.477 650.275 569.403 651.06 569.688C651.844 569.973 657.051 566.764 657.051 566.764C657.051 566.764 654.198 573.255 654.983 573.682C655.767 574.11 663.178 566.445 663.716 561.862C664.255 557.279 659.619 553.784 659.619 553.784Z" fill="#C27559"/>
<path d="M652.547 548.916C655.138 549.401 657.558 550.722 659.553 552.471C661.536 554.237 663.143 556.478 663.939 558.991C662.45 556.832 660.818 554.88 658.906 553.203C657.01 551.509 654.873 550.127 652.547 548.916Z" fill="#A85F45"/>
<path d="M650.936 566.932C651.45 565.784 652.283 564.865 653.211 564.079C654.158 563.316 655.219 562.673 656.445 562.389C655.622 563.335 654.729 564.075 653.832 564.832C652.918 565.566 652.02 566.303 650.936 566.932Z" fill="#A85F45"/>
<path d="M650.865 423.659C650.183 421.518 647.902 419.803 645.625 420.352C646.646 390.517 621.766 394.552 621.766 394.552C606.164 395.906 604.384 412.487 604.499 420.933C603.994 420.639 603.521 420.422 603.257 420.356C600.971 419.787 598.673 421.51 597.989 423.66C597.444 425.372 597.813 427.307 598.79 428.815C599.603 430.068 600.922 431.237 602.333 431.774C602.653 431.897 603.98 432.122 605.055 432.093C607.469 451.582 625.128 449.664 625.128 449.664C640.437 450.422 644.413 439.729 645.306 432.009C645.875 431.938 646.348 431.841 646.523 431.774C647.933 431.237 649.252 430.068 650.066 428.815C651.041 427.306 651.41 425.371 650.865 423.659Z" fill="#C27559"/>
<path d="M637.555 436.104C640.313 436.104 642.549 433.868 642.549 431.11C642.549 428.352 640.313 426.116 637.555 426.116C634.797 426.116 632.561 428.352 632.561 431.11C632.561 433.868 634.797 436.104 637.555 436.104Z" fill="#C2674E"/>
<path d="M612.699 436.104C615.457 436.104 617.693 433.868 617.693 431.11C617.693 428.352 615.457 426.116 612.699 426.116C609.941 426.116 607.705 428.352 607.705 431.11C607.705 433.868 609.941 436.104 612.699 436.104Z" fill="#C2674E"/>
<path d="M629.93 421.425C629.93 423.056 630.575 424.377 631.371 424.377C632.168 424.377 632.813 423.056 632.813 421.425C632.813 419.794 632.168 418.472 631.371 418.472C630.575 418.472 629.93 419.794 629.93 421.425Z" fill="#3D1525"/>
<path d="M634.316 417.538C634.072 418.015 633.752 418.432 633.339 418.797C632.931 419.162 632.412 419.444 631.83 419.578L631.805 419.584C631.518 419.65 631.232 419.471 631.166 419.184C631.1 418.896 631.279 418.61 631.567 418.544C631.613 418.533 631.662 418.529 631.707 418.531C632.514 418.564 633.409 418.073 634.02 417.36L634.03 417.347C634.092 417.276 634.201 417.266 634.273 417.329C634.336 417.381 634.351 417.468 634.316 417.538Z" fill="#3D1525"/>
<path d="M620.323 421.425C620.323 423.056 619.678 424.377 618.881 424.377C618.085 424.377 617.439 423.056 617.439 421.425C617.439 419.794 618.085 418.472 618.881 418.472C619.678 418.472 620.323 419.794 620.323 421.425Z" fill="#3D1525"/>
<path d="M616.23 417.359C616.841 418.071 617.737 418.562 618.543 418.53C618.838 418.518 619.086 418.748 619.098 419.042C619.11 419.337 618.88 419.586 618.586 419.597C618.538 419.599 618.492 419.594 618.448 419.585L618.421 419.579C617.838 419.445 617.319 419.162 616.911 418.797C616.499 418.432 616.18 418.015 615.935 417.538C615.891 417.453 615.926 417.35 616.01 417.306C616.083 417.27 616.169 417.288 616.219 417.348L616.23 417.359Z" fill="#3D1525"/>
<path d="M630.542 430.355C630.041 431.328 629.28 432.169 628.368 432.827C627.457 433.485 626.316 433.907 625.139 433.898C623.972 433.869 622.824 433.471 621.926 432.789C621.454 432.481 621.087 432.05 620.681 431.681C620.341 431.244 620.01 430.807 619.713 430.355C620.159 430.681 620.565 431.029 620.974 431.365C621.428 431.64 621.833 431.98 622.293 432.211C623.188 432.724 624.168 433.005 625.144 433.021C626.126 433.045 627.104 432.734 628.008 432.248C628.907 431.75 629.755 431.106 630.542 430.355Z" fill="#3D1525"/>
<path d="M626.648 435.59C626.237 435.956 625.672 436.088 625.129 436.104C624.584 436.087 624.028 435.939 623.609 435.59C624.143 435.675 624.627 435.78 625.13 435.76C625.631 435.781 626.122 435.694 626.648 435.59Z" fill="#3D1525"/>
<path d="M621.523 411.182C620.85 410.585 620.088 410.39 619.288 410.354C618.494 410.336 617.68 410.429 616.908 410.692C616.129 410.93 615.412 411.368 614.813 411.893C614.187 412.399 613.748 413.068 613.382 413.728C613.197 414.061 613.317 414.482 613.65 414.667C613.917 414.814 614.239 414.768 614.452 414.573L614.511 414.519C614.98 414.087 615.432 413.682 615.936 413.388C616.42 413.061 616.965 412.883 617.508 412.741C618.056 412.614 618.628 412.546 619.212 412.576C619.787 412.596 620.401 412.626 621.033 412.471L621.215 412.427C621.603 412.332 621.84 411.941 621.746 411.552C621.709 411.403 621.629 411.276 621.523 411.182Z" fill="#3D1525"/>
<path d="M628.732 411.182C629.405 410.585 630.167 410.39 630.967 410.354C631.76 410.336 632.575 410.429 633.347 410.692C634.125 410.93 634.843 411.368 635.442 411.893C636.067 412.399 636.506 413.068 636.873 413.728C637.058 414.061 636.937 414.482 636.605 414.667C636.338 414.814 636.016 414.768 635.802 414.573L635.743 414.519C635.274 414.087 634.823 413.682 634.319 413.388C633.835 413.061 633.29 412.883 632.747 412.741C632.198 412.614 631.627 412.546 631.043 412.576C630.467 412.596 629.854 412.626 629.222 412.471L629.039 412.427C628.652 412.332 628.414 411.941 628.509 411.552C628.546 411.403 628.626 411.276 628.732 411.182Z" fill="#3D1525"/>
<path d="M625.461 416.909C625.716 418.021 625.905 419.127 626.11 420.22C626.323 421.311 626.524 422.401 626.834 423.435C626.906 423.695 626.987 423.95 627.079 424.197C627.154 424.399 627.335 424.786 627.33 425.15C627.368 425.887 626.896 426.61 626.295 426.901C625.681 427.246 624.972 427.191 624.412 427.001C623.845 426.797 623.35 426.488 622.922 426.11C623.957 426.499 625.167 426.802 625.896 426.253C626.262 425.974 626.459 425.604 626.407 425.2C626.389 424.993 626.324 424.861 626.191 424.545C626.08 424.268 625.982 423.99 625.899 423.711C625.583 422.586 625.42 421.451 625.357 420.313C625.29 419.177 625.313 418.04 625.461 416.909Z" fill="#3D1525"/>
<path d="M599.798 425.26C599.782 424.582 599.969 423.831 600.567 423.306C601.203 422.786 602.108 422.833 602.795 423.091C603.524 423.344 604.122 423.844 604.593 424.404C605.075 424.97 605.425 425.583 605.711 426.29C605.813 426.541 605.691 426.829 605.44 426.93C605.249 427.007 605.04 426.956 604.904 426.819L604.872 426.785C604.392 426.298 603.789 425.778 603.219 425.616C602.933 425.541 602.722 425.551 602.525 425.693C602.32 425.837 602.163 426.143 602.029 426.458C601.777 427.106 601.625 427.863 602.178 428.163C602.756 428.493 603.605 428.413 604.363 428.312C603.649 428.626 602.858 428.89 601.962 428.635C601.507 428.487 601.145 427.969 601.114 427.503C601.071 427.035 601.137 426.611 601.255 426.195C601.378 425.785 601.549 425.349 601.953 424.989C602.363 424.622 603.005 424.536 603.464 424.678C604.397 424.959 605.029 425.498 605.616 426.126L604.776 426.622C604.324 425.491 603.581 424.316 602.508 423.785C601.972 423.529 601.337 423.399 600.83 423.684C600.298 423.959 599.978 424.61 599.798 425.26Z" fill="#3D1525"/>
<path d="M649.7 425.26C649.716 424.582 649.529 423.831 648.931 423.306C648.295 422.786 647.39 422.833 646.703 423.091C645.974 423.344 645.376 423.844 644.904 424.404C644.422 424.97 644.072 425.583 643.786 426.29C643.684 426.541 643.805 426.829 644.057 426.93C644.248 427.007 644.457 426.956 644.593 426.819L644.625 426.785C645.105 426.298 645.708 425.778 646.278 425.616C646.564 425.541 646.775 425.551 646.972 425.693C647.177 425.837 647.334 426.143 647.468 426.458C647.72 427.106 647.872 427.863 647.319 428.163C646.741 428.493 645.892 428.413 645.134 428.312C645.848 428.626 646.638 428.89 647.535 428.635C647.99 428.487 648.352 427.969 648.383 427.503C648.426 427.035 648.359 426.611 648.243 426.195C648.12 425.785 647.949 425.349 647.544 424.989C647.134 424.622 646.492 424.536 646.033 424.678C645.1 424.959 644.468 425.498 643.881 426.126L644.721 426.622C645.173 425.491 645.916 424.316 646.989 423.785C647.525 423.529 648.159 423.399 648.667 423.684C649.199 423.959 649.52 424.61 649.7 425.26Z" fill="#3D1525"/>
<path d="M648.333 409.952C647.17 404.873 644.934 399.882 641.046 396.394C638.564 394.166 635.528 392.701 632.297 391.819C633.831 389.914 638.08 384.131 635.758 381.138C632.953 377.522 621.78 376.753 615.919 380.306C610.863 383.372 615.659 389.943 617.073 391.692C615.132 392.217 613.268 392.975 611.568 394.049C607.124 396.843 604.066 401.55 602.689 406.61C601.488 411.035 601.478 415.713 602.221 420.255C602.563 420.236 602.914 420.265 603.256 420.353C603.424 420.397 603.682 420.504 603.973 420.649C605.191 422.081 606.275 423.653 606.959 425.377C607.624 423.639 607.809 421.466 607.288 419.68C610.419 419.107 613.029 416.828 614.733 414.141C616.438 411.453 617.731 408.25 618.643 405.2C620.813 409.598 624.453 413.255 628.841 415.445C633.229 417.636 638.338 418.348 643.158 417.439C642.809 420.078 642.771 422.999 643.742 425.477C644.161 423.607 645.085 421.665 646.443 420.257C647.317 420.246 648.166 420.532 648.889 421.017C649.466 417.386 649.162 413.566 648.333 409.952Z" fill="#3D1525"/>
<path d="M486.387 548.546H549.336C549.336 548.546 557.463 577.102 558.211 595.307C558.958 613.512 539.008 769.879 539.008 769.879H495.864C495.864 769.879 478.158 640.686 478.158 591.188C478.158 591.188 476.91 568.37 486.387 548.546Z" fill="#6B393A"/>
<path d="M518.167 769.878L517.931 747.619L517.794 725.362L517.68 680.846L517.792 636.33L517.929 614.073L518.167 591.815L518.407 614.073L518.544 636.33L518.656 680.846L518.542 725.362L518.405 747.619L518.167 769.878Z" fill="#4D2222"/>
<path d="M515.319 589.949C513.921 589.265 512.496 588.701 511.049 588.24C510.322 588.023 509.594 587.813 508.854 587.66C508.484 587.583 508.115 587.503 507.743 587.441C507.378 587.384 506.97 587.304 506.683 587.307C506.356 587.312 506.273 587.392 506.261 587.47C506.239 587.608 506.32 587.82 506.559 587.981C506.786 588.152 507.166 588.306 507.515 588.461L508.568 588.936C509.973 589.572 511.354 590.266 512.721 591.023C511.221 590.622 509.737 590.161 508.274 589.64L507.177 589.248C506.815 589.107 506.456 589.006 506.038 588.747C505.632 588.5 505.221 587.963 505.319 587.314C505.367 586.981 505.604 586.665 505.888 586.516C506.171 586.365 506.44 586.339 506.677 586.333C507.164 586.347 507.515 586.439 507.913 586.505C508.3 586.582 508.689 586.66 509.069 586.766C509.83 586.978 510.584 587.216 511.308 587.529C512.767 588.127 514.126 588.947 515.319 589.949Z" fill="#4D2222"/>
<path d="M521.402 589.131C522.45 586.542 524.775 584.468 527.479 583.533L528.984 583.013L528.031 584.282C526.465 586.365 524.841 588.404 522.989 590.275C524.237 587.957 525.714 585.809 527.248 583.703L527.799 584.452C525.309 585.329 523.129 586.969 521.402 589.131Z" fill="#4D2222"/>
<path d="M522.301 592.69C522.729 591.917 523.402 591.413 524.123 591.035C524.858 590.683 525.664 590.447 526.54 590.57C525.908 591.183 525.243 591.551 524.559 591.908C523.863 592.239 523.169 592.55 522.301 592.69Z" fill="#4D2222"/>
<path d="M511.576 594.184C512.179 593.798 512.781 593.712 513.384 593.696C513.987 593.71 514.589 593.797 515.192 594.184C514.589 594.571 513.987 594.657 513.384 594.671C512.782 594.655 512.179 594.569 511.576 594.184Z" fill="#4D2222"/>
<path d="M488.833 558.032C489.086 560.127 488.973 562.267 488.602 564.362C488.242 566.461 487.567 568.504 486.678 570.443C485.767 572.372 484.638 574.203 483.264 575.83L482.2 577.017L481.07 578.137L479.851 579.155C479.428 579.473 478.999 579.78 478.566 580.079C478.933 579.697 479.302 579.325 479.677 578.963L480.728 577.801L481.734 576.611L482.669 575.369C483.867 573.68 484.931 571.905 485.792 570.03C486.673 568.165 487.348 566.207 487.87 564.204C488.382 562.196 488.682 560.132 488.833 558.032Z" fill="#4D2222"/>
<path d="M546.032 559.01C546.577 562.917 546.845 566.865 548.244 570.452C548.924 572.232 549.92 573.896 551.196 575.315C552.48 576.721 554.07 577.891 555.955 578.511C553.982 578.27 552.104 577.255 550.651 575.849C549.177 574.448 548.072 572.69 547.334 570.803C546.614 568.912 546.227 566.924 546.062 564.943C545.883 562.96 545.924 560.981 546.032 559.01Z" fill="#4D2222"/>
<path d="M514.568 562.26C514.698 564.229 514.811 566.199 514.863 568.168C514.925 570.137 514.997 572.107 515.017 574.076L514.885 573.759C516.435 575.265 517.974 576.784 519.493 578.321L518.672 578.661C518.686 576.094 518.705 573.526 518.801 570.959C518.872 568.392 518.971 565.824 519.154 563.257C519.336 565.824 519.435 568.392 519.506 570.959C519.602 573.526 519.62 576.094 519.634 578.661L519.64 579.818L518.813 579C517.276 577.482 515.758 575.943 514.252 574.393L514.119 574.256L514.121 574.076C514.14 572.107 514.213 570.137 514.275 568.168C514.326 566.199 514.439 564.23 514.568 562.26Z" fill="#4D2222"/>
<path d="M542.511 424.021C541.829 421.88 539.549 420.165 537.271 420.714C538.292 390.878 513.412 394.913 513.412 394.913C497.811 396.267 496.03 412.848 496.145 421.294C495.64 421 495.168 420.783 494.904 420.718C492.617 420.148 490.32 421.871 489.635 424.021C489.09 425.733 489.459 427.669 490.437 429.176C491.249 430.43 492.569 431.598 493.979 432.136C494.3 432.258 495.626 432.484 496.702 432.454C499.116 451.943 516.775 450.025 516.775 450.025C532.084 450.783 536.059 440.09 536.953 432.37C537.521 432.3 537.995 432.202 538.17 432.136C539.579 431.598 540.9 430.43 541.712 429.176C542.687 427.669 543.057 425.733 542.511 424.021Z" fill="#E29579"/>
<path d="M521.576 421.783C521.576 423.414 522.222 424.735 523.018 424.735C523.814 424.735 524.46 423.413 524.46 421.783C524.46 420.152 523.814 418.83 523.018 418.83C522.222 418.83 521.576 420.153 521.576 421.783Z" fill="#3D1525"/>
<path d="M511.969 421.783C511.969 423.414 511.323 424.735 510.526 424.735C509.729 424.735 509.084 423.413 509.084 421.783C509.084 420.152 509.729 418.83 510.526 418.83C511.322 418.83 511.969 420.153 511.969 421.783Z" fill="#3D1525"/>
<path d="M522.187 430.71C521.686 431.683 520.925 432.524 520.012 433.182C519.102 433.839 517.96 434.262 516.784 434.253C515.616 434.224 514.469 433.826 513.57 433.144C513.099 432.836 512.731 432.405 512.326 432.036C511.986 431.599 511.655 431.162 511.357 430.71C511.804 431.036 512.209 431.383 512.617 431.72C513.071 431.995 513.477 432.335 513.936 432.566C514.832 433.079 515.812 433.36 516.789 433.376C517.77 433.4 518.749 433.089 519.652 432.603C520.55 432.105 521.399 431.461 522.187 430.71Z" fill="#3D1525"/>
<path d="M518.29 435.945C517.88 436.31 517.315 436.442 516.772 436.459C516.226 436.442 515.671 436.294 515.252 435.945C515.785 436.03 516.27 436.134 516.773 436.115C517.275 436.135 517.765 436.048 518.29 435.945Z" fill="#3D1525"/>
<path d="M513.169 411.535C512.496 410.938 511.734 410.743 510.934 410.708C510.141 410.689 509.326 410.782 508.554 411.045C507.775 411.283 507.058 411.721 506.459 412.246C505.834 412.752 505.395 413.421 505.028 414.081C504.843 414.415 504.964 414.835 505.296 415.02C505.564 415.167 505.885 415.121 506.099 414.926L506.157 414.871C506.627 414.439 507.078 414.034 507.582 413.74C508.067 413.413 508.611 413.235 509.154 413.094C509.703 412.967 510.274 412.899 510.858 412.929C511.434 412.949 512.047 412.979 512.679 412.824L512.862 412.78C513.249 412.685 513.487 412.294 513.392 411.905C513.354 411.756 513.275 411.629 513.169 411.535Z" fill="#3D1525"/>
<path d="M520.378 411.535C521.051 410.938 521.813 410.743 522.613 410.708C523.407 410.689 524.221 410.782 524.993 411.045C525.772 411.283 526.489 411.721 527.088 412.246C527.714 412.752 528.153 413.421 528.519 414.081C528.704 414.415 528.584 414.835 528.251 415.02C527.985 415.167 527.662 415.121 527.449 414.926L527.39 414.871C526.921 414.439 526.469 414.034 525.965 413.74C525.482 413.413 524.936 413.235 524.393 413.094C523.845 412.967 523.273 412.899 522.689 412.929C522.114 412.949 521.5 412.979 520.868 412.824L520.686 412.78C520.298 412.685 520.061 412.294 520.156 411.905C520.192 411.756 520.271 411.629 520.378 411.535Z" fill="#3D1525"/>
<path d="M517.108 417.266C517.363 418.378 517.551 419.484 517.756 420.578C517.97 421.668 518.17 422.758 518.481 423.792C518.553 424.052 518.634 424.307 518.726 424.554C518.801 424.756 518.982 425.145 518.977 425.507C519.014 426.245 518.543 426.967 517.942 427.259C517.327 427.604 516.618 427.549 516.059 427.359C515.491 427.154 514.996 426.847 514.568 426.467C515.603 426.856 516.814 427.159 517.542 426.61C517.908 426.332 518.106 425.961 518.054 425.557C518.036 425.349 517.97 425.218 517.837 424.901C517.726 424.625 517.628 424.347 517.545 424.067C517.229 422.942 517.066 421.807 517.004 420.67C516.936 419.535 516.959 418.397 517.108 417.266Z" fill="#3D1525"/>
<path d="M491.442 425.617C491.426 424.939 491.613 424.188 492.211 423.663C492.848 423.143 493.752 423.191 494.439 423.449C495.169 423.702 495.767 424.201 496.237 424.761C496.72 425.327 497.07 425.941 497.355 426.647C497.457 426.899 497.336 427.186 497.084 427.287C496.894 427.364 496.684 427.314 496.549 427.176L496.516 427.143C496.037 426.655 495.434 426.135 494.863 425.973C494.578 425.898 494.366 425.908 494.169 426.049C493.965 426.194 493.808 426.499 493.673 426.815C493.421 427.462 493.27 428.219 493.822 428.52C494.401 428.85 495.25 428.77 496.008 428.669C495.293 428.983 494.503 429.247 493.607 428.992C493.151 428.845 492.789 428.326 492.759 427.86C492.715 427.393 492.782 426.969 492.898 426.553C493.022 426.142 493.193 425.706 493.597 425.346C494.007 424.979 494.65 424.893 495.108 425.034C496.042 425.315 496.673 425.855 497.26 426.482L496.42 426.979C495.968 425.848 495.225 424.672 494.153 424.142C493.617 423.886 492.981 423.755 492.474 424.041C491.943 424.317 491.622 424.968 491.442 425.617Z" fill="#3D1525"/>
<path d="M541.347 425.617C541.363 424.939 541.176 424.188 540.578 423.663C539.941 423.143 539.037 423.191 538.35 423.449C537.62 423.702 537.022 424.201 536.551 424.761C536.068 425.327 535.718 425.941 535.433 426.647C535.331 426.899 535.452 427.186 535.704 427.287C535.894 427.364 536.104 427.314 536.239 427.176L536.271 427.143C536.751 426.655 537.354 426.135 537.925 425.973C538.21 425.898 538.422 425.908 538.62 426.049C538.824 426.194 538.981 426.499 539.116 426.815C539.368 427.462 539.519 428.219 538.967 428.52C538.388 428.85 537.538 428.77 536.781 428.669C537.496 428.983 538.286 429.247 539.182 428.992C539.638 428.845 540 428.326 540.03 427.86C540.074 427.393 540.007 426.969 539.89 426.553C539.766 426.142 539.595 425.706 539.191 425.346C538.782 424.979 538.138 424.893 537.681 425.034C536.747 425.315 536.116 425.855 535.529 426.482L536.369 426.979C536.821 425.848 537.564 424.672 538.636 424.142C539.172 423.886 539.808 423.755 540.315 424.041C540.846 424.317 541.166 424.968 541.347 425.617Z" fill="#3D1525"/>
<path d="M538.51 406.092C537.679 403.455 536.155 400.652 533.479 399.939C531.72 395.133 526.759 391.978 521.709 391.168C516.659 390.357 511.492 391.577 506.715 393.414C503.599 394.615 500.503 396.138 498.247 398.6C495.98 401.062 494.691 404.636 495.678 407.831C494.056 411.825 493.343 416.329 493.9 420.617C494.232 420.597 494.574 420.627 494.906 420.715C495.152 420.778 495.582 420.975 496.052 421.24C496.929 422.428 497.713 423.683 498.26 425.05C499.971 422.431 501.076 419.12 501.297 415.999C506.032 416.658 510.88 415.689 515.337 413.959C519.794 412.229 524.265 409.639 528.365 407.182C528.182 413.279 530.817 419.403 535.368 423.465C536.472 422.563 537.37 421.649 538.245 420.618C538.538 420.626 538.825 420.664 539.103 420.734C540.17 415.909 539.975 410.81 538.51 406.092Z" fill="#3D1525"/>
<path d="M564.396 477.785C568.078 479.198 571.771 480.553 575.719 481.458C576.058 481.535 576.397 481.61 576.736 481.685C576.759 478.514 576.691 475.337 576.496 472.161H576.448C578.977 468.616 584.78 460.098 585.532 455.683C585.6 455.322 585.258 455.087 584.936 455.253C584.233 455.605 582.992 456.708 581.087 460.049C581.194 459.648 583.226 452.128 582.512 450.877C581.78 449.588 577.599 459.258 577.599 459.258C577.599 459.258 579.084 450.105 578.009 449.285C576.935 448.464 573.936 458.486 573.936 458.486C573.936 458.486 574.932 448.972 574.15 449.012C572.206 449.11 570.448 462.432 569.061 462.1C567.84 461.807 566.97 458.603 566.815 456.893C566.785 456.532 566.473 456.297 566.111 456.385C565.418 456.551 564.432 457.108 564.48 458.915C564.549 461.269 564.745 465.899 567.02 471.046C566.861 471.46 565.918 473.89 564.396 477.785Z" fill="#E29579"/>
<path d="M503.351 470.817C508.538 474.179 514.635 476.854 520.849 477.453C526.801 478.027 529.782 475.151 532.94 470.394C534.273 468.387 535.487 466.309 536.659 464.205C534.653 464.127 532.903 463.813 531.376 463.34C529.942 461.677 528.81 459.47 527.895 456.167C527.551 453.855 527.348 451.463 527.545 449.514V449.503C527.652 448.351 527.897 447.354 528.336 446.622L516.919 440.786L504.894 444.633C505.197 445.139 505.519 446.71 505.726 448.018C505.877 450.117 505.823 453.646 505.538 456.217C504.626 459.491 503.499 461.686 502.071 463.341C500.521 463.821 498.743 464.14 496.698 464.212C496.179 464.23 495.664 464.285 495.152 464.356C497.745 466.914 500.792 469.158 503.351 470.817Z" fill="#E29579"/>
<path d="M505.684 447.526C505.684 447.526 513.457 452.998 527.804 447.952C527.804 447.952 516.589 464.275 505.684 447.526Z" fill="#DF8666"/>
<path d="M470.796 606.412C470.949 605.793 472.174 600.848 474.077 593.26C469.149 593.066 464.226 592.833 459.307 592.468C459.728 597.165 460.365 601.858 461.258 606.516H461.306C459.255 610.354 454.583 619.546 454.397 624.015C454.382 624.381 454.744 624.577 455.05 624.369C455.694 623.932 456.796 622.671 458.257 619.094C458.257 619.094 457.114 627.216 458.005 628.398C458.896 629.58 461.814 619.463 461.814 619.463C461.814 619.463 461.503 628.73 462.675 629.404C463.848 630.079 465.538 619.754 465.538 619.754C465.538 619.754 465.766 629.321 466.537 629.181C468.457 628.835 468.499 615.393 469.911 615.546C471.16 615.683 472.431 618.749 472.807 620.424C472.886 620.776 473.226 620.972 473.568 620.842C474.24 620.587 475.144 619.909 474.864 618.121C474.501 615.8 473.711 611.232 470.796 606.412Z" fill="#E29579"/>
<path d="M486.874 547.794C486.874 547.794 482.812 555.404 482.021 556.733C482.021 556.733 528.698 568.703 551.891 556.733L548.815 547.34L486.874 547.794Z" fill="#242A4B"/>
<path d="M565.982 473.234L566.564 470.823L577.579 472.569L577.246 478.139L565.4 475.27L565.982 473.234Z" fill="#242A4B"/>
<path d="M565.583 472.721L556.381 495.966C556.381 495.966 554.802 475.932 549.896 469.864C544.992 463.795 531.376 463.342 531.376 463.342C531.376 463.342 524.087 470.529 515.905 471.527C507.722 472.524 502.069 463.342 502.069 463.342C502.069 463.342 489.379 460.262 482.021 469.49C474.664 478.717 461.322 528.72 459.576 539.069C457.831 549.419 458.829 599.296 458.829 599.296H473.916L486.578 548.968C523.917 559.449 549.979 548.544 549.979 548.544C549.979 548.544 550.171 545.343 550.444 540.295C552.509 540.921 554.855 541.142 557.545 540.773C574.431 538.457 577.347 486.588 577.765 476.113C573.653 475.211 569.579 474.184 565.583 472.721Z" fill="#F9D6B0"/>
<path d="M550.443 540.312C549.278 536.545 548.332 532.714 547.468 528.867C546.605 525.02 545.913 521.135 545.252 517.247C544.656 513.348 544.159 509.431 543.812 505.501C543.473 501.571 543.313 497.623 543.371 493.682C543.579 495.645 543.669 497.608 543.917 499.562C544.088 501.521 544.321 503.473 544.56 505.423C545.06 509.321 545.547 513.22 546.216 517.094C546.794 520.982 547.498 524.85 548.201 528.719C548.551 530.654 548.918 532.587 549.303 534.515C549.656 536.452 550.063 538.377 550.443 540.312Z" fill="#D9AE80"/>
<path d="M556.242 496.435C555.769 498.144 555.263 499.837 554.746 501.522L553.213 506.582L550.108 516.69L549.752 516.384C550.275 516.183 550.781 515.911 551.179 515.496C551.578 515.085 551.87 514.563 552.066 513.999C551.99 514.592 551.775 515.182 551.403 515.684C551.033 516.184 550.528 516.602 549.957 516.866L549.49 517.081L549.6 516.559C549.964 514.828 550.334 513.095 550.797 511.386C551.254 509.676 551.753 507.976 552.306 506.295C552.852 504.611 553.449 502.944 554.112 501.302C554.756 499.653 555.458 498.027 556.242 496.435Z" fill="#D9AE80"/>
<path d="M551.975 499.916C551.991 499.218 552.253 498.691 552.572 498.203C552.916 497.734 553.319 497.305 553.97 497.048C553.956 497.747 553.694 498.274 553.373 498.761C553.027 499.229 552.623 499.658 551.975 499.916Z" fill="#D9AE80"/>
<path d="M556.336 497.546C556.779 498.097 556.866 498.745 556.818 499.362C556.741 499.976 556.522 500.592 555.974 501.04C555.781 500.364 555.802 499.82 555.847 499.262C555.919 498.705 556.011 498.168 556.336 497.546Z" fill="#D9AE80"/>
<path d="M486.686 548.554C487.193 544.972 487.807 541.41 488.435 537.852C489.053 534.291 489.746 530.746 490.439 527.2C491.156 523.658 491.874 520.118 492.666 516.592L493.858 511.304C494.29 509.548 494.69 507.786 495.151 506.035C494.907 507.828 494.601 509.609 494.328 511.397L493.403 516.738C492.785 520.298 492.092 523.844 491.396 527.389C490.679 530.93 489.962 534.47 489.168 537.996C488.386 541.526 487.589 545.051 486.686 548.554Z" fill="#D9AE80"/>
<path d="M461.688 533.482C462.248 533.352 462.665 533.484 463.047 533.676C463.415 533.896 463.748 534.179 463.935 534.724C463.373 534.856 462.956 534.724 462.575 534.53C462.209 534.309 461.876 534.026 461.688 533.482Z" fill="#D9AE80"/>
<path d="M462.465 531.44C463.014 531.317 463.411 531.453 463.771 531.648C464.116 531.87 464.425 532.153 464.579 532.695C464.029 532.819 463.632 532.684 463.273 532.487C462.928 532.263 462.621 531.98 462.465 531.44Z" fill="#D9AE80"/>
<path d="M514.82 502.397C516.416 504.398 517.861 506.449 519.362 508.468C520.841 510.503 522.366 512.495 523.797 514.617C521.796 513.016 520.095 511.091 518.575 509.045C517.08 506.982 515.752 504.785 514.82 502.397Z" fill="#D9AE80"/>
<path d="M512.873 504.417C514.48 508.163 516.185 511.813 518.187 515.312C520.166 518.825 522.424 522.16 524.814 525.463C521.838 522.667 519.368 519.345 517.338 515.794C515.332 512.229 513.749 508.404 512.873 504.417Z" fill="#D9AE80"/>
<path d="M530.243 458.895C530.243 458.895 518.959 463.197 518.21 463.758C517.463 464.319 515.217 469.744 515.217 469.744L515.12 469.841L515.023 469.744C515.023 469.744 512.779 464.319 512.03 463.758C511.283 463.196 499.997 458.895 499.997 458.895L491.775 463.013L505.172 470.367L508.477 470.118C508.477 470.118 511.242 472.229 515.12 472.064C518.999 472.23 521.764 470.118 521.764 470.118L525.068 470.367L538.465 463.013L530.243 458.895Z" fill="#242A4B"/>
<path d="M505.359 470.9C506.81 469.024 508.335 467.216 509.875 465.421L510.154 465.095L510.441 465.449C512.176 467.589 513.843 469.779 515.492 471.983L514.65 472.113C515.506 469.717 516.475 467.289 518.027 465.193L518.312 464.807L518.568 465.18C519.138 466.012 519.773 466.794 520.422 467.567C521.075 468.339 521.795 469.053 522.559 469.73C521.684 469.2 520.887 468.545 520.127 467.851C519.365 467.158 518.69 466.375 518.036 465.58L518.576 465.568C517.276 467.693 516.387 470.049 515.562 472.433L515.266 473.29L514.719 472.563C513.063 470.365 511.424 468.153 509.853 465.89L510.417 465.917C508.766 467.61 507.1 469.288 505.359 470.9Z" fill="#414C87"/>
<path d="M177.614 560.756C177.614 560.756 171.483 575.437 169.157 593.035C166.831 610.633 168.66 771.778 168.66 771.778H192.434C192.434 771.778 208.728 602.652 208.728 603.151C208.728 603.649 208.728 771.778 208.728 771.778H232.004C232.004 771.778 251.124 613.188 249.961 594.785C248.797 576.383 241.149 559.923 241.149 559.923L177.614 560.756Z" fill="#F9D6B0"/>
<path d="M207.691 600.708C205.416 598.673 202.864 596.996 200.102 595.818C197.354 594.615 194.413 593.885 191.434 593.67L191.722 592.79C193.744 594.086 195.803 595.323 197.886 596.528C199.98 597.715 202.107 598.848 204.253 599.967C201.967 599.169 199.738 598.211 197.565 597.137C195.381 596.081 193.263 594.89 191.21 593.596L189.646 592.612L191.497 592.716C194.603 592.891 197.662 593.725 200.444 595.084C203.211 596.468 205.733 598.354 207.691 600.708Z" fill="#D9AE80"/>
<path d="M211.842 599.29C214.214 596.244 217.713 594.061 221.501 593.07L221.943 592.955L222.081 593.377C222.509 594.69 221.654 595.831 220.875 596.459C220.06 597.094 219.293 597.652 218.483 598.23C217.686 598.806 216.876 599.369 216.064 599.926C215.236 600.463 214.43 601.028 213.583 601.542C214.291 600.851 215.04 600.21 215.767 599.543C216.509 598.895 217.255 598.252 218.012 597.623C218.748 596.987 219.563 596.372 220.265 595.756C220.607 595.453 220.903 595.125 221.065 594.769C221.235 594.408 221.276 594.014 221.165 593.709L221.745 594.014C218.116 594.94 214.756 596.786 211.842 599.29Z" fill="#D9AE80"/>
<path d="M177.638 567.477C176.545 571.568 175.527 575.68 174.582 579.806C173.657 583.936 172.756 588.08 172.19 592.263C171.867 594.348 171.848 596.456 171.796 598.568L171.717 604.918L171.642 617.622L171.409 668.441L171.069 719.261L170.839 744.671L170.52 770.081L170.362 744.669L170.318 719.258L170.435 668.436C170.566 651.495 170.657 634.555 170.895 617.615L171.104 604.91L171.249 598.556C171.326 596.436 171.36 594.299 171.721 592.197C172.368 587.995 173.349 583.868 174.351 579.752C175.374 575.64 176.469 571.547 177.638 567.477Z" fill="#D9AE80"/>
<path d="M238.276 568.332C240.411 572.054 242.208 575.968 243.721 579.99C245.178 584.025 246.404 588.187 246.862 592.487C246.967 593.561 247.071 594.637 247.051 595.722C247.095 596.807 247.006 597.879 246.938 598.951C246.819 601.102 246.62 603.236 246.447 605.376C246.103 609.656 245.689 613.926 245.312 618.2C243.717 635.29 241.944 652.361 240.206 669.436L234.698 720.628L231.831 746.212L228.844 771.783L231.356 746.162L233.951 720.55L239.236 669.336L244.567 618.129C244.988 613.86 245.446 609.593 245.834 605.322C246.028 603.188 246.25 601.052 246.389 598.919C246.469 597.852 246.568 596.784 246.535 595.723C246.569 594.658 246.469 593.597 246.387 592.534C246.015 588.281 244.874 584.118 243.495 580.071C242.065 576.034 240.343 572.091 238.276 568.332Z" fill="#D9AE80"/>
<path d="M221.68 457.065C221.212 454.36 220.879 451.39 221.113 449.056V449.046C221.221 447.893 221.464 446.897 221.905 446.164L210.488 440.327L198.463 444.174C198.903 444.906 199.387 447.892 199.495 449.045L199.254 447.065C199.488 449.399 199.397 454.359 198.928 457.064C198.235 461.02 197.238 464.4 197.238 464.4H206.887H209.083H223.371C223.371 464.4 222.373 461.021 221.68 457.065Z" fill="#C27559"/>
<path d="M199.252 447.067C199.252 447.067 207.025 452.539 221.373 447.493C221.373 447.493 210.157 463.816 199.252 447.067Z" fill="#B35844"/>
<path d="M245.223 567.29C245.223 567.29 240.484 544.97 239.113 539.359C237.741 533.747 246.405 473.074 242.903 469.578C240.128 466.809 231.005 463.66 227.329 462.469C227.222 462.009 227.062 461.384 226.817 460.553C226.194 458.433 221.364 455.049 221.364 455.049L221.615 457.067C221.615 457.067 215.843 457.934 215.003 458.309C214.435 458.562 211.875 460.857 210.27 462.325C208.665 460.857 206.105 458.562 205.537 458.309C204.697 457.934 198.925 457.067 198.925 457.067L199.176 455.049C199.176 455.049 194.347 458.433 193.723 460.553C193.52 461.24 193.38 461.776 193.275 462.207C185.125 463.685 177.614 469.579 177.614 469.579L183.499 536.367L174.895 567.291H245.223V567.29Z" fill="#F2E8E2"/>
<path d="M209.639 464.396L205.443 468.914L207.542 474.774H214.048L214.515 469.007L210.727 464.461L209.639 464.396Z" fill="#4A826B"/>
<path d="M207.647 474.025C207.647 474.025 201.462 524.451 200.082 533.628C198.703 542.805 210.806 558.566 212.8 558.442C214.795 558.317 222.931 539.78 222.931 535.665C222.931 531.55 213.798 474.025 213.798 474.025H207.647Z" fill="#4A826B"/>
<path d="M210.313 464.383L209.642 464.449L209.691 464.427C208.82 465.528 207.941 466.62 207.035 467.686L206.784 467.982L206.519 467.661C205.362 466.261 204.22 464.85 203.114 463.411L203.87 463.412C202.93 464.672 201.962 465.91 200.989 467.144L200.76 467.435L200.443 467.287C199.073 466.642 197.793 465.89 196.572 465.026C195.364 464.155 194.226 463.154 193.332 461.972C194.435 462.96 195.656 463.763 196.916 464.494C198.175 465.216 199.487 465.882 200.805 466.443L200.259 466.585C201.199 465.326 202.142 464.07 203.114 462.835L203.5 462.344L203.871 462.836C204.961 464.286 206.016 465.764 207.056 467.252L206.54 467.227C207.536 466.243 208.56 465.286 209.593 464.338L209.619 464.315L209.642 464.317L210.313 464.383Z" fill="#E6CDBD"/>
<path d="M210.061 464.383L210.731 464.317L210.755 464.315L210.78 464.338C211.813 465.287 212.838 466.244 213.833 467.227L213.317 467.252C214.358 465.764 215.412 464.286 216.503 462.836L216.873 462.344L217.259 462.835C218.232 464.069 219.175 465.326 220.115 466.585L219.568 466.443C220.887 465.882 222.198 465.216 223.458 464.494C224.717 463.763 225.938 462.96 227.041 461.972C226.148 463.155 225.01 464.156 223.802 465.026C222.58 465.891 221.3 466.642 219.931 467.287L219.614 467.435L219.384 467.144C218.412 465.91 217.444 464.672 216.504 463.412L217.259 463.411C216.154 464.85 215.011 466.261 213.855 467.661L213.59 467.982L213.339 467.686C212.432 466.62 211.553 465.528 210.683 464.427L210.731 464.449L210.061 464.383Z" fill="#E6CDBD"/>
<path d="M229.467 506.365H192.977V556.057H229.467V506.365Z" fill="#D8B467"/>
<path d="M230.666 536.002C232.321 534.143 230.944 531.625 230.944 531.625C231.942 528.632 229.465 526.215 229.465 526.215V528.879C229.465 528.879 223.213 530.003 221.662 528.866C220.11 527.727 226.012 524.637 226.012 524.637C226.012 524.637 226.393 523.582 224.399 523.082C222.404 522.582 212.273 529.31 212.273 529.31L210.276 529.172C208.115 529.022 204.344 528.758 199.427 528.405C199.382 528.654 199.33 528.901 199.286 529.15C198.455 533.808 197.781 538.492 197.193 543.187C206.169 540.887 213.671 538.638 213.658 538.605C217.989 539.945 228.041 542.948 229.466 542.413C231.291 541.729 230.572 539.731 230.572 539.731C231.319 538.046 230.666 536.002 230.666 536.002Z" fill="#C27559"/>
<path d="M193.332 461.975C193.332 461.975 182.268 462.641 176.649 469.575C171.031 476.51 152.784 532.469 160.348 543.331C167.913 554.194 210.682 540.354 210.682 540.354L210.312 527.885L182.543 525.501L199.975 476.012L193.332 461.975Z" fill="#F2E8E2"/>
<path d="M180.723 547.207C182.713 546.642 184.687 546.27 186.663 545.857C188.645 545.475 190.61 545.059 192.665 544.815C190.842 545.798 188.861 546.398 186.855 546.814C184.842 547.201 182.785 547.41 180.723 547.207Z" fill="#E6CDBD"/>
<path d="M176.975 524.007C179.643 523.71 182.323 523.824 184.974 524.124C187.622 524.453 190.253 524.972 192.777 525.89C190.099 525.729 187.484 525.392 184.858 525.094C182.236 524.765 179.615 524.478 176.975 524.007Z" fill="#E6CDBD"/>
<path d="M178.139 521.023C178.965 521.305 179.58 521.798 180.146 522.34C180.69 522.905 181.183 523.52 181.463 524.347C180.636 524.067 180.02 523.574 179.456 523.03C178.913 522.464 178.42 521.849 178.139 521.023Z" fill="#E6CDBD"/>
<path d="M182.406 523.843C182.654 520.855 183.076 517.885 183.581 514.93C184.075 511.971 184.71 509.039 185.412 506.123C186.136 503.213 186.928 500.318 187.856 497.466C188.324 496.042 188.802 494.621 189.299 493.208C189.832 491.806 190.347 490.399 190.934 489.019L188.576 497.678C187.821 500.568 187.058 503.453 186.359 506.355C185.638 509.25 184.98 512.162 184.314 515.074L182.406 523.843Z" fill="#E6CDBD"/>
<path d="M241.455 563.881C241.146 563.493 240.839 563.102 240.532 562.713C239.281 566.547 238.497 568.936 238.361 569.351C233.33 571.891 230.234 575.339 228.7 577.116C227.508 578.484 227.919 579.539 228.348 580.105C228.573 580.399 228.963 580.418 229.217 580.154C230.428 578.933 233.125 577.008 234.257 577.566C235.537 578.181 228.435 589.59 229.881 590.908C230.437 591.416 235.419 583.924 235.722 583.465C235.516 583.954 231.717 593.097 233.036 593.145C234.345 593.194 238.759 585.663 239.032 585.195C238.896 585.683 236.18 595.294 237.528 594.776C238.905 594.239 242.246 586.757 242.246 586.757C241.591 590.556 241.855 592.216 242.168 592.93C242.315 593.261 242.724 593.291 242.911 592.969C245.127 589.091 246.046 578.816 246.349 574.479L246.388 574.498C247.153 573.675 247.892 572.83 248.635 571.991C246.116 569.462 243.738 566.754 241.455 563.881Z" fill="#C27559"/>
<path d="M227.329 462.472C227.329 462.472 241.197 464.795 247.386 472.4C253.575 480.007 271.785 521.243 272.529 527.265C274.026 539.36 247.386 574.898 247.386 574.898L238.114 565.422L248.838 535.283L222.934 481.566L227.329 462.472Z" fill="#F2E8E2"/>
<path d="M240.515 517.685C239.436 515.386 238.455 513.045 237.49 510.698C236.515 508.355 235.61 505.984 234.706 503.612C233.823 501.233 232.943 498.853 232.134 496.447L230.924 492.838C230.554 491.623 230.153 490.42 229.811 489.196C230.361 490.346 230.852 491.517 231.374 492.676L232.84 496.189C233.814 498.531 234.719 500.9 235.62 503.268C236.5 505.645 237.38 508.023 238.188 510.428C239.007 512.829 239.811 515.237 240.515 517.685Z" fill="#E6CDBD"/>
<path d="M249.448 534.737C249.33 533.82 249.625 532.956 250.068 532.206C250.535 531.471 251.171 530.816 252.043 530.507C251.72 531.366 251.308 532.028 250.9 532.717C250.469 533.391 250.065 534.059 249.448 534.737Z" fill="#E6CDBD"/>
<path d="M249.959 535.339C250.217 534.941 250.49 534.84 250.766 534.811C251.045 534.811 251.326 534.884 251.621 535.257C251.363 535.658 251.09 535.758 250.814 535.786C250.537 535.782 250.254 535.71 249.959 535.339Z" fill="#E6CDBD"/>
<path d="M238.688 566.158C238.614 564.053 238.936 561.977 239.419 559.951C239.931 557.931 240.609 555.944 241.654 554.114C241.342 556.195 240.844 558.183 240.367 560.183C239.859 562.178 239.376 564.169 238.688 566.158Z" fill="#E6CDBD"/>
<path d="M236.079 423.562C235.397 421.421 233.116 419.706 230.839 420.255C231.86 390.42 206.979 394.455 206.979 394.455C191.377 395.809 189.596 412.39 189.712 420.836C189.207 420.542 188.734 420.325 188.47 420.259C186.184 419.69 183.886 421.413 183.202 423.563C182.657 425.275 183.026 427.21 184.003 428.718C184.816 429.972 186.135 431.14 187.545 431.677C187.866 431.8 189.193 432.025 190.268 431.996C192.682 451.485 210.341 449.567 210.341 449.567C225.65 450.325 229.626 439.632 230.519 431.912C231.088 431.841 231.561 431.744 231.736 431.677C233.147 431.14 234.466 429.972 235.278 428.718C236.255 427.209 236.624 425.274 236.079 423.562Z" fill="#C27559"/>
<path d="M215.143 421.315C215.143 422.946 215.788 424.267 216.584 424.267C217.381 424.267 218.026 422.945 218.026 421.315C218.026 419.684 217.381 418.363 216.584 418.363C215.788 418.363 215.143 419.684 215.143 421.315Z" fill="#3D1525"/>
<path d="M205.536 421.315C205.536 422.946 204.89 424.267 204.094 424.267C203.298 424.267 202.652 422.945 202.652 421.315C202.652 419.684 203.298 418.362 204.094 418.362C204.89 418.362 205.536 419.684 205.536 421.315Z" fill="#3D1525"/>
<path d="M215.756 430.251C215.255 431.225 214.494 432.065 213.582 432.723C212.671 433.381 211.529 433.804 210.353 433.794C209.185 433.765 208.038 433.368 207.14 432.686C206.668 432.377 206.3 431.946 205.894 431.578C205.554 431.141 205.223 430.703 204.926 430.251C205.372 430.577 205.778 430.924 206.185 431.261C206.64 431.536 207.045 431.876 207.505 432.107C208.4 432.62 209.381 432.901 210.357 432.917C211.338 432.942 212.317 432.63 213.22 432.144C214.121 431.646 214.969 431.002 215.756 430.251Z" fill="#3D1525"/>
<path d="M211.859 435.486C211.448 435.852 210.883 435.984 210.34 436.001C209.795 435.984 209.239 435.836 208.82 435.486C209.354 435.571 209.838 435.676 210.341 435.657C210.843 435.677 211.334 435.59 211.859 435.486Z" fill="#3D1525"/>
<path d="M206.738 411.077C206.065 410.48 205.303 410.285 204.502 410.249C203.709 410.231 202.895 410.324 202.123 410.587C201.344 410.825 200.626 411.263 200.027 411.788C199.402 412.294 198.963 412.963 198.597 413.623C198.412 413.955 198.532 414.376 198.865 414.562C199.132 414.709 199.454 414.663 199.667 414.467L199.726 414.413C200.195 413.981 200.647 413.576 201.15 413.282C201.635 412.955 202.179 412.777 202.723 412.636C203.271 412.509 203.843 412.441 204.427 412.471C205.002 412.49 205.615 412.521 206.248 412.366L206.43 412.321C206.817 412.226 207.055 411.836 206.96 411.447C206.924 411.297 206.844 411.171 206.738 411.077Z" fill="#3D1525"/>
<path d="M213.945 411.077C214.618 410.48 215.379 410.284 216.18 410.249C216.973 410.231 217.787 410.324 218.559 410.587C219.339 410.825 220.056 411.263 220.655 411.788C221.28 412.294 221.719 412.963 222.086 413.622C222.271 413.955 222.15 414.376 221.817 414.561C221.55 414.709 221.229 414.662 221.015 414.467L220.956 414.413C220.487 413.98 220.036 413.576 219.532 413.281C219.047 412.955 218.503 412.776 217.959 412.636C217.411 412.508 216.839 412.441 216.256 412.471C215.68 412.49 215.067 412.52 214.434 412.366L214.252 412.321C213.865 412.226 213.627 411.836 213.722 411.447C213.759 411.297 213.837 411.171 213.945 411.077Z" fill="#3D1525"/>
<path d="M210.674 416.807C210.929 417.919 211.118 419.025 211.323 420.119C211.536 421.21 211.737 422.299 212.047 423.333C212.119 423.593 212.2 423.848 212.292 424.095C212.367 424.298 212.548 424.686 212.543 425.048C212.581 425.786 212.109 426.507 211.508 426.8C210.894 427.145 210.185 427.09 209.625 426.9C209.058 426.696 208.563 426.387 208.135 426.009C209.17 426.397 210.379 426.701 211.108 426.151C211.475 425.873 211.672 425.503 211.62 425.099C211.602 424.892 211.536 424.76 211.404 424.443C211.293 424.167 211.194 423.889 211.111 423.61C210.796 422.484 210.633 421.349 210.57 420.212C210.502 419.075 210.526 417.939 210.674 416.807Z" fill="#3D1525"/>
<path d="M185.011 425.158C184.995 424.48 185.182 423.73 185.78 423.204C186.416 422.684 187.321 422.732 188.008 422.99C188.737 423.243 189.335 423.743 189.807 424.302C190.288 424.868 190.639 425.482 190.925 426.188C191.027 426.44 190.905 426.727 190.653 426.829C190.463 426.906 190.254 426.855 190.118 426.718L190.086 426.685C189.606 426.197 189.003 425.677 188.433 425.515C188.147 425.44 187.936 425.451 187.737 425.592C187.533 425.737 187.376 426.042 187.242 426.358C186.99 427.006 186.838 427.763 187.39 428.063C187.969 428.393 188.819 428.313 189.576 428.212C188.862 428.525 188.071 428.789 187.175 428.535C186.72 428.387 186.357 427.869 186.327 427.402C186.284 426.935 186.35 426.511 186.467 426.095C186.59 425.684 186.761 425.248 187.165 424.888C187.575 424.521 188.218 424.435 188.675 424.576C189.609 424.858 190.241 425.397 190.827 426.024L189.988 426.521C189.535 425.39 188.793 424.214 187.72 423.684C187.184 423.428 186.549 423.298 186.042 423.583C185.511 423.858 185.191 424.51 185.011 425.158Z" fill="#3D1525"/>
<path d="M234.914 425.158C234.93 424.48 234.743 423.73 234.145 423.204C233.509 422.684 232.604 422.732 231.917 422.99C231.188 423.243 230.59 423.743 230.119 424.302C229.636 424.868 229.286 425.482 229.001 426.188C228.899 426.44 229.02 426.727 229.273 426.829C229.463 426.906 229.673 426.855 229.808 426.718L229.841 426.685C230.32 426.197 230.923 425.677 231.494 425.515C231.779 425.44 231.991 425.451 232.189 425.592C232.394 425.737 232.55 426.042 232.685 426.358C232.937 427.006 233.089 427.763 232.536 428.063C231.957 428.393 231.109 428.313 230.351 428.212C231.065 428.525 231.855 428.789 232.752 428.535C233.207 428.387 233.569 427.869 233.6 427.402C233.643 426.935 233.576 426.511 233.459 426.095C233.336 425.684 233.165 425.248 232.761 424.888C232.351 424.521 231.709 424.435 231.25 424.576C230.316 424.858 229.685 425.397 229.098 426.024L229.938 426.521C230.39 425.39 231.132 424.214 232.204 423.684C232.741 423.428 233.376 423.298 233.883 423.583C234.413 423.858 234.734 424.51 234.914 425.158Z" fill="#3D1525"/>
<path d="M232.432 410.075C231.895 405.533 230.352 400.991 227.294 397.591C222.625 392.395 215.173 390.636 208.179 390.598C205.297 390.588 202.318 390.842 199.739 392.151C197.17 393.469 195.334 395.912 195.315 398.802C193.312 398.46 191.281 399.642 190.099 401.293C188.917 402.945 188.439 404.995 188.126 406.998C187.452 411.364 187.452 415.828 188.145 420.193C188.253 420.204 188.36 420.223 188.468 420.252C188.73 420.32 189.206 420.533 189.701 420.825C189.856 421.223 190.044 421.606 190.302 421.937C190.557 422.264 191.023 422.372 191.381 422.165C193.905 420.707 195.522 417.927 196.191 415.064C196.887 412.083 196.695 409.243 196.593 406.196C196.567 405.453 197.101 404.574 197.792 404.297C198.482 404.021 199.25 404.059 199.988 404.128C203.296 404.434 206.53 405.253 209.781 405.935C213.032 406.617 216.352 407.165 219.663 406.915C221.286 406.792 222.915 406.459 224.44 405.887C224.649 406.575 224.73 407.313 224.721 408.034C224.704 409.371 224.425 410.691 224.321 412.024C224.041 415.595 225.082 419.248 227.174 422.152C227.491 422.591 228.122 422.658 228.498 422.27C229.238 421.506 230.033 420.872 230.889 420.246C231.419 420.13 231.95 420.119 232.451 420.223C232.706 416.834 232.824 413.435 232.432 410.075Z" fill="#3D1525"/>
<path d="M347.057 435.634C346.375 433.493 344.095 431.778 341.817 432.328C342.838 402.492 317.957 406.527 317.957 406.527C302.356 407.881 300.575 424.462 300.69 432.909C300.185 432.614 299.713 432.398 299.449 432.332C297.162 431.762 294.864 433.485 294.18 435.635C293.635 437.347 294.004 439.283 294.982 440.79C295.794 442.044 297.114 443.213 298.524 443.75C298.845 443.872 300.171 444.098 301.247 444.069C303.661 463.558 321.32 461.639 321.32 461.639C336.629 462.397 340.604 451.705 341.498 443.985C342.066 443.914 342.54 443.817 342.715 443.75C344.124 443.213 345.443 442.044 346.257 440.79C347.233 439.282 347.603 437.346 347.057 435.634Z" fill="#E29579"/>
<path d="M333.748 448.075C336.506 448.075 338.742 445.839 338.742 443.081C338.742 440.323 336.506 438.087 333.748 438.087C330.99 438.087 328.754 440.323 328.754 443.081C328.754 445.839 330.99 448.075 333.748 448.075Z" fill="#DF8666"/>
<path d="M308.893 448.075C311.651 448.075 313.887 445.839 313.887 443.081C313.887 440.323 311.651 438.087 308.893 438.087C306.134 438.087 303.898 440.323 303.898 443.081C303.898 445.839 306.134 448.075 308.893 448.075Z" fill="#DF8666"/>
<path d="M326.123 433.401C326.123 435.032 326.769 436.354 327.565 436.354C328.361 436.354 329.007 435.031 329.007 433.401C329.007 431.77 328.361 430.449 327.565 430.449C326.769 430.449 326.123 431.77 326.123 433.401Z" fill="#3D1525"/>
<path d="M330.509 429.514C330.265 429.992 329.945 430.408 329.533 430.774C329.125 431.138 328.606 431.421 328.023 431.555L327.999 431.561C327.711 431.627 327.425 431.447 327.359 431.16C327.294 430.873 327.473 430.586 327.76 430.521C327.807 430.51 327.855 430.507 327.901 430.508C328.707 430.54 329.602 430.048 330.214 429.336L330.224 429.324C330.285 429.252 330.395 429.243 330.466 429.306C330.529 429.357 330.544 429.444 330.509 429.514Z" fill="#3D1525"/>
<path d="M316.516 433.401C316.516 435.032 315.871 436.353 315.075 436.353C314.278 436.353 313.633 435.031 313.633 433.401C313.633 431.77 314.278 430.448 315.075 430.448C315.87 430.448 316.516 431.77 316.516 433.401Z" fill="#3D1525"/>
<path d="M312.426 429.335C313.037 430.047 313.932 430.538 314.739 430.506C315.033 430.495 315.281 430.724 315.293 431.018C315.305 431.313 315.076 431.56 314.781 431.573C314.734 431.575 314.687 431.57 314.644 431.56L314.616 431.554C314.033 431.421 313.514 431.138 313.107 430.773C312.695 430.408 312.375 429.991 312.13 429.514C312.087 429.429 312.121 429.325 312.205 429.282C312.278 429.245 312.364 429.264 312.415 429.323L312.426 429.335Z" fill="#3D1525"/>
<path d="M326.734 442.326C326.234 443.3 325.473 444.141 324.56 444.798C323.65 445.456 322.508 445.879 321.332 445.87C320.164 445.84 319.017 445.443 318.118 444.761C317.647 444.452 317.278 444.021 316.873 443.653C316.533 443.216 316.202 442.779 315.904 442.326C316.35 442.652 316.756 442.999 317.164 443.336C317.618 443.611 318.024 443.951 318.483 444.182C319.379 444.695 320.359 444.976 321.336 444.992C322.317 445.017 323.295 444.705 324.199 444.219C325.099 443.721 325.947 443.076 326.734 442.326Z" fill="#3D1525"/>
<path d="M322.839 447.561C322.428 447.927 321.864 448.059 321.32 448.076C320.775 448.059 320.22 447.911 319.801 447.561C320.334 447.646 320.819 447.75 321.321 447.732C321.823 447.751 322.314 447.663 322.839 447.561Z" fill="#3D1525"/>
<path d="M317.716 423.153C317.043 422.556 316.281 422.361 315.481 422.325C314.688 422.307 313.873 422.4 313.101 422.663C312.322 422.901 311.605 423.339 311.006 423.864C310.381 424.37 309.941 425.039 309.575 425.698C309.39 426.031 309.51 426.452 309.843 426.637C310.11 426.785 310.432 426.739 310.646 426.543L310.704 426.489C311.174 426.057 311.625 425.652 312.129 425.358C312.614 425.031 313.158 424.853 313.701 424.712C314.25 424.585 314.821 424.517 315.405 424.547C315.981 424.566 316.594 424.597 317.226 424.442L317.408 424.397C317.796 424.302 318.034 423.912 317.939 423.523C317.902 423.373 317.822 423.248 317.716 423.153Z" fill="#3D1525"/>
<path d="M324.925 423.153C325.598 422.556 326.36 422.361 327.16 422.325C327.953 422.307 328.768 422.4 329.54 422.663C330.319 422.901 331.036 423.339 331.635 423.864C332.261 424.37 332.7 425.039 333.066 425.698C333.251 426.031 333.131 426.452 332.798 426.637C332.532 426.785 332.209 426.739 331.996 426.543L331.937 426.489C331.467 426.057 331.016 425.652 330.512 425.358C330.028 425.031 329.483 424.853 328.94 424.712C328.392 424.585 327.82 424.517 327.236 424.547C326.66 424.566 326.047 424.597 325.415 424.442L325.233 424.397C324.845 424.302 324.607 423.912 324.703 423.523C324.739 423.373 324.818 423.248 324.925 423.153Z" fill="#3D1525"/>
<path d="M321.655 428.883C321.91 429.995 322.098 431.101 322.303 432.195C322.517 433.286 322.717 434.375 323.028 435.409C323.1 435.669 323.181 435.924 323.273 436.171C323.348 436.374 323.529 436.762 323.524 437.124C323.561 437.862 323.09 438.583 322.489 438.876C321.874 439.221 321.165 439.166 320.606 438.976C320.038 438.771 319.543 438.464 319.115 438.084C320.15 438.473 321.36 438.778 322.089 438.227C322.455 437.949 322.652 437.579 322.601 437.175C322.583 436.967 322.517 436.836 322.384 436.519C322.273 436.243 322.175 435.965 322.092 435.686C321.776 434.56 321.613 433.425 321.551 432.288C321.483 431.151 321.506 430.014 321.655 428.883Z" fill="#3D1525"/>
<path d="M295.989 437.23C295.973 436.552 296.16 435.802 296.758 435.276C297.395 434.756 298.299 434.804 298.986 435.062C299.716 435.315 300.314 435.815 300.784 436.374C301.267 436.94 301.617 437.554 301.902 438.26C302.004 438.512 301.883 438.8 301.631 438.901C301.441 438.978 301.231 438.927 301.096 438.79L301.063 438.757C300.584 438.269 299.981 437.749 299.41 437.587C299.125 437.513 298.913 437.523 298.715 437.664C298.511 437.809 298.354 438.115 298.219 438.43C297.967 439.078 297.816 439.835 298.368 440.135C298.947 440.465 299.796 440.385 300.553 440.284C299.839 440.597 299.049 440.862 298.152 440.607C297.697 440.459 297.335 439.941 297.305 439.474C297.261 439.007 297.328 438.583 297.445 438.167C297.569 437.756 297.74 437.32 298.144 436.961C298.554 436.594 299.197 436.508 299.655 436.649C300.589 436.931 301.22 437.471 301.807 438.097L300.967 438.594C300.515 437.463 299.773 436.287 298.701 435.757C298.165 435.501 297.529 435.371 297.022 435.656C296.49 435.93 296.169 436.582 295.989 437.23Z" fill="#3D1525"/>
<path d="M345.893 437.23C345.91 436.552 345.722 435.802 345.125 435.276C344.488 434.756 343.584 434.804 342.897 435.062C342.167 435.315 341.569 435.815 341.098 436.374C340.616 436.94 340.265 437.554 339.98 438.26C339.877 438.512 339.999 438.8 340.251 438.901C340.441 438.978 340.65 438.927 340.786 438.79L340.818 438.757C341.298 438.269 341.901 437.749 342.472 437.587C342.757 437.513 342.968 437.523 343.167 437.664C343.371 437.809 343.528 438.115 343.662 438.43C343.914 439.078 344.066 439.835 343.514 440.135C342.935 440.465 342.085 440.385 341.328 440.284C342.043 440.597 342.833 440.862 343.729 440.607C344.185 440.459 344.547 439.941 344.577 439.474C344.621 439.007 344.554 438.583 344.436 438.167C344.313 437.756 344.142 437.32 343.738 436.961C343.329 436.594 342.685 436.508 342.228 436.649C341.294 436.931 340.663 437.471 340.076 438.097L340.915 438.594C341.368 437.463 342.11 436.287 343.183 435.757C343.719 435.501 344.355 435.371 344.861 435.656C345.393 435.93 345.713 436.582 345.893 437.23Z" fill="#3D1525"/>
<path d="M356.132 454.017C355.058 451.605 353.691 449.251 353.378 446.633C352.919 442.902 354.648 439.044 353.603 435.43C352.274 430.888 347.137 428.563 344.88 424.403C343.249 421.414 343.288 417.8 342.135 414.586C340.866 411.031 338.131 408.091 334.848 406.206C331.576 404.321 327.776 403.452 324.006 403.286C317.237 402.992 310.468 404.994 304.93 408.795C301.218 411.334 298.923 415.427 298.18 419.852C297.272 425.302 294.82 430.499 291.147 434.621C289.399 436.574 287.309 438.449 286.761 441.009C286.136 443.891 287.66 446.84 287.387 449.78C287.191 451.87 286.098 453.775 285.502 455.797C284.906 457.819 284.954 460.32 286.586 461.657H310.341C310.341 460.906 310.312 460.222 310.272 459.636C310.253 459.489 310.224 459.333 310.194 459.187C306.141 456.872 302.282 452.447 301.247 444.067C300.173 444.096 298.844 443.871 298.522 443.754C297.116 443.217 295.798 442.045 294.986 440.794C294 439.281 293.638 437.346 294.176 435.637C294.869 433.488 297.164 431.76 299.45 432.336C299.714 432.405 300.183 432.619 300.691 432.913C300.691 432.888 300.691 432.863 300.69 432.839C301.388 433.87 301.988 434.962 302.389 436.142C303.964 434.582 304.504 432.246 304.557 430.029C304.609 427.813 304.247 425.601 304.34 423.386C304.433 421.171 305.29 418.671 306.946 417.199C306.458 418.703 306.23 420.293 306.269 421.874C306.302 423.259 306.183 424.217 307.498 424.814C310.24 426.057 313.229 426.873 316.186 427.394C322.15 428.445 328.356 428.151 334.178 426.474C334.702 426.323 335.222 426.16 335.739 425.987C336.329 423.603 336.338 420.989 336.036 418.552C339.027 423.953 336.193 431.178 339.164 436.591C339.706 435.464 340.119 434.215 340.895 433.235C341.167 432.892 341.481 432.582 341.812 432.293C341.812 432.306 341.812 432.317 341.812 432.329C344.097 431.781 346.373 433.501 347.057 435.64C347.604 437.349 347.233 439.284 346.255 440.798C345.445 442.048 344.126 443.22 342.71 443.757C342.534 443.826 342.065 443.923 341.499 443.992C340.874 449.364 338.754 456.182 332.356 459.571C332.229 460.05 332.142 460.568 332.092 461.124V461.134C332.073 461.31 332.063 461.486 332.053 461.662H353.092C354.548 461.662 355.651 461.72 357.107 461.681C357.989 459.194 357.198 456.43 356.132 454.017Z" fill="#F9D6B0"/>
<path d="M295.873 563.699C295.873 563.699 284.658 578.496 283.66 595.122C282.663 611.748 286.819 671.767 286.819 671.268C286.819 670.769 358.476 671.268 358.476 671.268C358.476 671.268 368.119 589.136 346.671 564.697L295.873 563.699Z" fill="#4A826B"/>
<path d="M308.954 473.645C307.342 474.882 305.222 475.957 302.492 476.553C304.656 479.556 306.678 482.673 308.823 485.668C311.636 489.595 315.636 495.483 320.845 496.293C331.315 497.921 337.942 486.146 341.802 476.842C338.186 476.362 335.519 475.076 333.584 473.565C333.285 472.32 332.944 470.778 332.656 469.131C332.187 466.426 331.854 463.456 332.089 461.122V461.112C332.196 459.959 332.44 458.963 332.88 458.23L321.463 452.393L309.438 456.24C309.742 456.746 310.063 458.317 310.271 459.626C310.45 462.109 310.342 466.603 309.904 469.13C309.608 470.813 309.259 472.387 308.954 473.645Z" fill="#E29579"/>
<path d="M310.229 459.133C310.229 459.133 318.002 464.606 332.349 459.559C332.349 459.559 321.134 475.883 310.229 459.133Z" fill="#DF8666"/>
<path d="M347.81 570.032C341.133 561.782 339.214 552.029 339.039 541.636C338.835 529.583 339.665 517.545 341.244 505.598C342.533 495.841 344.598 486.111 344.308 476.297L335.7 474.18L321.319 489.704L308.214 474.18L295.873 477.647C295.934 478.045 295.975 478.457 295.974 478.896C295.966 495.293 295.843 511.669 296.955 528.038C297.499 536.049 297.982 544.048 297.695 552.082C297.466 558.526 296.96 564.953 296.742 571.395C315.838 573.943 337.236 572.482 348.89 571.297C348.517 570.882 348.156 570.46 347.81 570.032Z" fill="#F2E8E2"/>
<path d="M390.398 534.194C389.234 525.31 358.848 481.057 354.029 478.049C352.149 476.875 343.384 475.376 338.688 474.637L333.599 473.499C333.599 473.499 323.737 505.814 323.238 510.304C322.74 514.793 326.064 582.663 326.064 582.663H357.084L348.127 561.049L358.766 573.311C358.766 573.311 391.561 543.076 390.398 534.194ZM346.902 554.715C346.773 553.407 346.681 551.939 346.681 550.371C346.681 547.846 349.289 535.126 352.122 522.058L361.127 536.26L346.902 554.715Z" fill="#6B393A"/>
<path d="M336.326 475.124C339.318 481.516 341.364 488.367 342.42 495.374C342.559 496.252 342.674 497.12 342.779 498.016C342.861 498.911 342.89 499.864 342.577 500.806C342.289 501.762 341.465 502.553 340.599 502.925C339.734 503.327 338.854 503.514 338.061 503.799C337.265 504.072 336.57 504.478 336.206 505.117C335.839 505.754 335.793 506.586 335.952 507.367C336.273 508.944 337.437 510.386 338.041 512.132C339.287 515.588 339.193 519.338 338.453 522.824C337.701 526.331 336.375 529.641 335.044 532.899L331.073 542.705C329.716 545.961 328.391 549.229 327.006 552.474C328.184 549.148 329.421 545.846 330.627 542.531L334.344 532.626C335.567 529.321 336.899 526.057 337.582 522.644C338.273 519.261 338.312 515.678 337.125 512.468C336.61 510.865 335.443 509.461 335.037 507.546C334.86 506.613 334.896 505.566 335.419 504.66C335.952 503.746 336.911 503.247 337.765 502.963C338.634 502.663 339.492 502.482 340.233 502.142C340.977 501.812 341.534 501.277 341.78 500.533C342.262 499.028 341.844 497.204 341.681 495.479C341.238 491.998 340.558 488.544 339.647 485.148C338.767 481.74 337.63 478.402 336.326 475.124Z" fill="#4D2222"/>
<path d="M346.9 554.928C347.372 556.078 347.611 557.211 347.848 558.353C348.056 559.501 348.256 560.641 348.245 561.885C347.516 560.873 347.131 559.715 346.89 558.538C346.678 557.356 346.603 556.138 346.9 554.928Z" fill="#4D2222"/>
<path d="M348.666 517.765C349.452 518.295 349.984 518.983 350.457 519.709C350.904 520.45 351.29 521.23 351.42 522.169C350.633 521.641 350.101 520.952 349.629 520.226C349.184 519.483 348.799 518.703 348.666 517.765Z" fill="#4D2222"/>
<path d="M365.236 531.086C364.603 531.771 363.915 532.377 363.207 532.955C362.859 533.251 362.487 533.521 362.132 533.8C361.963 533.927 361.856 534.041 361.851 534.085C361.832 534.126 361.904 534.145 361.781 534.05C361.665 534.05 361.874 534.038 362.102 533.946L362.752 533.737C363.192 533.613 363.626 533.472 364.071 533.366C364.955 533.136 365.851 532.938 366.778 532.833C365.984 533.323 365.157 533.721 364.32 534.087C363.904 534.279 363.476 534.436 363.055 534.611L362.414 534.849C362.304 534.887 362.213 534.926 362.054 534.972C361.907 535.01 361.679 535.059 361.414 534.956C361.145 534.85 360.97 534.588 360.921 534.376C360.866 534.156 360.882 533.949 360.961 533.744C361.129 533.356 361.403 533.179 361.601 533.047C361.995 532.806 362.372 532.556 362.773 532.333C363.564 531.871 364.372 531.439 365.236 531.086Z" fill="#4D2222"/>
<path d="M362.383 536.341C362.816 535.997 363.162 535.907 363.529 535.854C363.898 535.828 364.256 535.845 364.752 536.092C364.487 536.585 364.057 536.766 363.631 536.825C363.203 536.854 362.745 536.766 362.383 536.341Z" fill="#4D2222"/>
<path d="M355.355 565.751C355.355 565.751 355.261 565.169 348.133 560.958L348.458 564.829C348.458 564.829 341.376 574.809 341.947 575.665C342.517 576.521 348.385 571.957 348.385 571.957C348.385 571.957 342.446 578.233 343.159 579.445C343.872 580.657 346.368 579.445 346.368 579.445C346.368 579.445 346.011 581.37 346.796 581.656C347.58 581.941 352.787 578.732 352.787 578.732C352.787 578.732 349.935 585.221 350.719 585.649C351.503 586.077 358.914 578.413 359.453 573.829C359.991 569.246 355.355 565.751 355.355 565.751Z" fill="#E29579"/>
<path d="M346.508 579.081C347.078 577.856 347.874 576.828 348.721 575.847C349.591 574.885 350.514 573.973 351.664 573.26C351.094 574.487 350.3 575.515 349.451 576.494C348.58 577.453 347.655 578.366 346.508 579.081Z" fill="#DF8666"/>
<path d="M318.575 510.988C318.076 506.499 308.214 474.184 308.214 474.184C308.214 474.184 296.581 475.135 288.688 478.552C287.02 479.275 285.515 480.105 284.326 481.062C277.509 486.549 251.074 528.25 252.404 535.164C253.734 542.078 261.872 561.465 282.825 571.557L292.992 563.369L284.763 582.915L315.75 583.346C315.748 583.347 319.073 515.478 318.575 510.988ZM281.045 536.924L289.968 524.03C292.691 536.636 295.132 548.615 295.132 551.057C295.132 554.076 294.796 556.744 294.491 558.549L281.045 536.924Z" fill="#6B393A"/>
<path d="M307.53 475.121C306.227 478.399 305.09 481.737 304.21 485.142C303.3 488.538 302.62 491.993 302.177 495.474C302.014 497.199 301.595 499.022 302.078 500.528C302.323 501.272 302.881 501.806 303.625 502.136C304.364 502.476 305.223 502.658 306.092 502.957C306.947 503.241 307.906 503.74 308.439 504.655C308.962 505.56 308.998 506.607 308.82 507.54C308.414 509.457 307.248 510.859 306.733 512.463C305.547 515.672 305.584 519.256 306.275 522.638C306.958 526.051 308.291 529.315 309.513 532.62L313.23 542.526C314.437 545.84 315.673 549.143 316.852 552.469C315.468 549.224 314.141 545.956 312.784 542.7L308.813 532.894C307.482 529.636 306.156 526.325 305.404 522.818C304.665 519.333 304.571 515.581 305.816 512.127C306.42 510.379 307.585 508.939 307.905 507.361C308.064 506.579 308.019 505.748 307.651 505.111C307.286 504.472 306.592 504.067 305.797 503.794C305.004 503.509 304.123 503.321 303.258 502.919C302.392 502.547 301.569 501.756 301.28 500.801C300.967 499.859 300.996 498.906 301.079 498.01C301.183 497.115 301.298 496.248 301.437 495.368C302.493 488.363 304.538 481.512 307.53 475.121Z" fill="#4D2222"/>
<path d="M293.828 561.534C293.502 561.011 293.472 560.521 293.512 560.042C293.582 559.565 293.724 559.096 294.164 558.663C294.493 559.187 294.522 559.676 294.481 560.155C294.409 560.632 294.266 561.1 293.828 561.534Z" fill="#4D2222"/>
<path d="M273.473 533.009C274.706 532.93 275.962 533.278 277.068 533.88C278.18 534.481 279.135 535.383 279.831 536.446L280.323 537.198L279.452 537.17C277.938 537.122 276.441 536.568 275.363 535.574C276.738 536.058 278.101 536.299 279.451 536.248L279.073 536.971C278.398 536.051 277.554 535.273 276.618 534.608C275.675 533.941 274.625 533.43 273.473 533.009Z" fill="#4D2222"/>
<path d="M277.596 532.597C278.331 532.809 278.85 533.227 279.32 533.693C279.766 534.181 280.161 534.719 280.338 535.465C279.601 535.255 279.081 534.836 278.614 534.368C278.168 533.879 277.774 533.341 277.596 532.597Z" fill="#4D2222"/>
<path d="M289.666 524.107C290.324 522.771 291.161 521.617 292.023 520.476C292.91 519.353 293.815 518.252 294.945 517.281C294.455 518.689 293.67 519.919 292.795 521.073C291.897 522.208 290.904 523.277 289.666 524.107Z" fill="#4D2222"/>
<path d="M286.786 565.752C286.786 565.752 286.88 565.17 294.008 560.959L293.683 564.83C293.683 564.83 300.764 574.81 300.194 575.666C299.623 576.522 293.756 571.958 293.756 571.958C293.756 571.958 299.695 578.234 298.982 579.446C298.268 580.658 295.772 579.446 295.772 579.446C295.772 579.446 296.128 581.371 295.344 581.657C294.56 581.942 289.354 578.732 289.354 578.732C289.354 578.732 292.207 585.222 291.422 585.65C290.637 586.078 283.226 578.414 282.688 573.83C282.151 569.247 286.786 565.752 286.786 565.752Z" fill="#E29579"/>
<path d="M294.826 579.341C293.904 578.877 293.206 578.214 292.561 577.506C291.939 576.778 291.371 576.001 291.029 575.026C291.953 575.49 292.651 576.151 293.295 576.861C293.914 577.592 294.482 578.368 294.826 579.341Z" fill="#DF8666"/>
<path d="M450.816 549.567H393.707C393.707 549.567 384.355 565.278 382.983 585.105C381.611 604.931 389.592 692.217 389.592 692.217H460.542C460.542 692.217 465.72 605.68 463.225 584.981C460.731 564.281 450.816 549.567 450.816 549.567Z" fill="#242A4B"/>
<path d="M420.863 594.227C422.846 597.665 424.696 601.136 426.624 604.571C428.528 608.02 430.502 611.422 432.375 614.921C429.858 611.849 427.71 608.502 425.771 605.046C423.858 601.574 422.147 597.983 420.863 594.227Z" fill="#414C87"/>
<path d="M396.34 551.067C391.324 561.707 389.276 573.429 388.607 585.071C388.286 590.909 388.202 596.76 388.284 602.616C388.364 608.471 388.501 614.327 388.721 620.179C389.092 631.886 389.769 643.584 390.66 655.265C391.095 661.106 391.597 666.944 392.175 672.774C392.717 678.608 393.358 684.433 394.004 690.258C392.296 678.66 390.942 667.009 389.911 655.327C388.864 643.645 388.194 631.932 387.746 620.213C387.555 614.351 387.447 608.488 387.397 602.624C387.357 596.759 387.42 590.882 387.86 585.023C388.269 579.163 389.071 573.322 390.376 567.594C391.725 561.875 393.676 556.289 396.34 551.067Z" fill="#414C87"/>
<path d="M448.037 552.234C450.753 557.314 452.854 562.714 454.515 568.237C456.152 573.771 457.282 579.447 458.091 585.16C459.69 596.604 459.785 608.18 459.678 619.688L458.947 654.218L458.495 671.48L457.939 688.74L458.016 671.471L458.196 654.204L458.702 619.675C458.891 608.179 458.781 596.657 457.35 585.257C455.929 573.882 453.099 562.595 448.037 552.234Z" fill="#414C87"/>
<path d="M433.75 457.175C433.282 454.469 432.949 451.5 433.184 449.166V449.156C433.291 448.003 433.536 447.006 433.975 446.274L422.558 440.438L410.533 444.285C410.972 445.017 411.458 448.003 411.565 449.156L411.324 447.175C411.559 449.51 411.468 454.468 410.998 457.175C410.305 461.131 409.309 464.51 409.309 464.51L420.209 475.498L427.217 478.366L435.44 464.509C435.44 464.509 434.443 461.131 433.75 457.175Z" fill="#D48F65"/>
<path d="M411.322 447.178C411.322 447.178 419.096 452.65 433.443 447.604C433.443 447.604 422.227 463.927 411.322 447.178Z" fill="#D4815B"/>
<path d="M467.622 493.695L467.182 493.793L452.941 496.967C452.863 499.389 452.765 500.932 452.765 500.932C452.765 500.932 451.28 512.634 450.049 522.949C449.17 530.216 448.427 536.79 448.408 538.089C448.359 541.254 452.843 546.157 450.811 549.566C448.789 552.965 417.855 559.04 393.709 549.566C393.709 549.566 390.72 543.08 395.018 538.753L395.438 527.325L396.493 498.686V498.296L377.661 494.096L375.873 493.695C380.698 475.244 391.003 463.113 396.16 462.918C401.308 462.732 410.05 461.687 410.05 461.687C410.05 461.687 416.936 464.393 418.021 465.497C419.106 466.6 423.931 472.255 423.931 472.255C423.931 472.255 427.467 465.105 428.443 464.441C429.411 463.777 434.841 460.446 434.841 460.446C434.841 460.446 436.961 461.384 439.92 462.37C442.42 462.614 445.184 462.839 447.333 462.918C449.971 463.016 453.966 466.248 457.873 471.855C457.892 471.884 457.913 471.903 457.922 471.933C458.469 472.705 458.996 473.515 459.514 474.365C459.563 474.424 459.602 474.482 459.632 474.55C462.738 479.6 465.64 486.115 467.622 493.695Z" fill="#F2E8E2"/>
<path d="M407.967 463.031C409.688 463.616 411.369 464.318 413.013 465.119C414.639 465.951 416.211 466.913 417.66 468.058C420.559 470.365 422.801 473.325 424.967 476.222L424.105 476.412C424.831 473.078 426.545 470.014 428.858 467.573C431.159 465.123 434.064 463.218 437.262 462.308C434.201 463.579 431.518 465.595 429.399 468.059C427.303 470.535 425.715 473.463 425.053 476.613L424.833 477.659L424.191 476.803C422.017 473.907 419.863 471.002 417.165 468.653C415.823 467.475 414.336 466.455 412.776 465.553C411.232 464.619 409.6 463.827 407.967 463.031Z" fill="#E6CDBD"/>
<path d="M396.348 498.013C396.394 495.791 396.734 493.625 397.143 491.473C397.582 489.327 398.091 487.196 398.896 485.122C398.852 487.346 398.512 489.511 398.101 491.662C397.66 493.808 397.15 495.94 396.348 498.013Z" fill="#E6CDBD"/>
<path d="M452.181 497.31C451.167 495.359 450.438 493.319 449.776 491.258C449.143 489.188 448.579 487.097 448.303 484.915C449.319 486.865 450.048 488.905 450.708 490.966C451.338 493.037 451.903 495.129 452.181 497.31Z" fill="#E6CDBD"/>
<path d="M474.634 523.934C474.633 523.918 474.632 523.902 474.631 523.886C474.631 523.874 474.632 523.863 474.632 523.852H474.629C474.202 514.074 470.503 502.851 467.181 493.792L452.94 496.966C452.863 499.388 452.764 500.931 452.764 500.931C452.764 500.931 451.606 510.063 450.487 519.302C447.363 517.54 443.782 515.744 442.327 515.852C440.134 516.015 420.681 520.659 403.023 521.46C403.012 521.43 400.439 514.677 398.878 513.194C398.277 512.622 397.212 511.519 396.063 510.355L396.493 498.685V498.294L377.661 494.095C374.115 504.38 370.09 517.244 370.384 525.409C370.384 525.409 370.386 525.41 370.388 525.41C369.991 531.962 370.186 537.046 371.114 539.099C374.792 547.23 380.895 545.828 380.895 545.828V545.822C386.241 545.889 402.949 543.252 414.53 539.96C426.111 543.776 452.722 551.426 467.493 546.683C467.493 546.683 471.159 545.587 472.892 540.725C473.006 540.423 473.108 540.074 473.217 539.677C473.223 539.647 473.229 539.618 473.235 539.587C473.265 539.473 473.296 539.359 473.325 539.238C473.337 539.19 473.349 539.142 473.361 539.094C473.361 539.075 473.367 539.063 473.367 539.045C474.033 536.079 474.465 530.538 474.629 523.935C474.631 523.934 474.632 523.934 474.634 523.934Z" fill="#D48F65"/>
<path d="M380.539 520.742C381.302 520.681 382.062 520.676 382.823 520.656C383.584 520.648 384.342 520.665 385.102 520.681C386.619 520.741 388.136 520.819 389.646 520.965L389.407 521.873C387.354 520.916 385.185 520.167 383.039 519.253C385.351 519.526 387.633 520.07 389.798 521.004L392.265 522.067L389.559 521.913C388.049 521.826 386.544 521.672 385.04 521.499C384.29 521.4 383.538 521.301 382.788 521.176C382.038 521.041 381.287 520.918 380.539 520.742Z" fill="#C4704A"/>
<path d="M453.639 521.219C455.254 521.031 456.852 521.217 458.411 521.544C459.963 521.9 461.492 522.403 462.878 523.254C461.257 523.141 459.734 522.819 458.201 522.497C456.676 522.144 455.157 521.794 453.639 521.219Z" fill="#C4704A"/>
<path d="M453.514 521.237C454.491 521.572 455.257 522.226 455.896 522.968C456.514 523.728 457.021 524.599 457.174 525.621C456.356 524.997 455.755 524.3 455.147 523.593C454.562 522.867 453.983 522.152 453.514 521.237Z" fill="#C4704A"/>
<path d="M414.531 539.963C417.008 539.332 419.418 538.501 421.804 537.622C424.186 536.73 426.516 535.715 428.798 534.607C431.08 533.499 433.32 532.306 435.475 530.971C437.656 529.677 439.717 528.199 441.756 526.693L441.896 526.59L442.054 526.604C444.126 526.791 446.262 526.773 448.353 526.535C449.397 526.395 450.441 526.233 451.466 525.973C452.485 525.693 453.481 525.329 454.439 524.854C452.647 526.032 450.541 526.678 448.429 527.06C447.367 527.235 446.296 527.352 445.221 527.417C444.142 527.476 443.074 527.504 441.977 527.437L442.274 527.349C440.256 528.938 438.188 530.477 435.979 531.796C433.798 533.157 431.516 534.354 429.18 535.419C426.851 536.505 424.44 537.401 421.997 538.179C419.559 538.967 417.061 539.588 414.531 539.963Z" fill="#C4704A"/>
<path d="M380.197 513.515C381.637 513.489 383.011 513.819 384.335 514.27C385.649 514.75 386.926 515.358 388.028 516.284C386.608 516.064 385.31 515.635 384.01 515.19C382.72 514.717 381.441 514.235 380.197 513.515Z" fill="#C4704A"/>
<path d="M378.547 510.036C380.016 509.885 381.462 510.133 382.846 510.54C384.222 510.975 385.559 511.578 386.692 512.527C385.238 512.284 383.907 511.871 382.561 511.473C381.223 511.047 379.889 510.645 378.547 510.036Z" fill="#C4704A"/>
<path d="M381.98 506.186C383.53 506.122 385.038 506.488 386.46 507.038C387.87 507.613 389.218 508.384 390.298 509.497C388.819 509.049 387.473 508.477 386.098 507.944C384.735 507.384 383.364 506.875 381.98 506.186Z" fill="#C4704A"/>
<path d="M387.689 520.347C386.798 519.973 385.918 519.577 385.042 519.169C384.166 518.759 383.285 518.361 382.426 517.917C381.565 517.471 380.708 517.031 379.866 516.503C379.648 516.344 379.464 516.272 379.202 515.953C379.092 515.749 379.12 515.69 379.103 515.608C379.099 515.53 379.099 515.455 379.102 515.383C379.111 515.241 379.128 515.106 379.152 514.977C379.251 514.458 379.402 513.993 379.588 513.514L379.846 514.073C379.425 513.942 379.04 513.793 378.646 513.595C378.263 513.381 377.854 513.191 377.525 512.674C377.233 512.046 377.39 511.588 377.478 511.148C377.596 510.71 377.758 510.324 377.966 509.922L378.133 510.55C377.817 510.343 377.573 510.133 377.333 509.853C377.106 509.574 376.889 509.232 376.835 508.796C376.775 508.362 376.931 507.909 377.168 507.599C377.402 507.285 377.68 507.061 377.961 506.87C379.112 506.161 380.346 505.838 381.641 505.722L381.205 506.248C381.19 505.546 381.629 505.192 382.001 504.971C382.391 504.765 382.781 504.68 383.157 504.633C383.913 504.545 384.624 504.604 385.326 504.669C386.731 504.809 388.094 505.108 389.45 505.417L390.464 505.665C390.648 505.717 390.766 505.732 391.005 505.818C391.186 505.896 391.34 505.984 391.498 506.076C392.117 506.443 392.662 506.885 393.185 507.351C394.227 508.282 395.182 509.292 396.065 510.36C395.051 509.417 394.033 508.479 392.933 507.662C392.38 507.261 391.818 506.866 391.232 506.552C391.086 506.477 390.935 506.403 390.795 506.352C390.708 506.324 390.482 506.284 390.331 506.252L389.318 506.061C387.967 505.817 386.602 505.631 385.252 505.519C384.579 505.473 383.9 505.442 383.282 505.534C382.974 505.579 382.682 505.665 382.462 505.787C382.24 505.889 382.138 506.123 382.146 506.137L382.41 506.601L381.71 506.665C380.594 506.766 379.415 507.106 378.5 507.685C378.043 507.984 377.735 508.35 377.789 508.68C377.816 509.03 378.223 509.481 378.629 509.747L379.001 509.991L378.796 510.376C378.628 510.69 378.476 511.056 378.372 511.397C378.266 511.723 378.236 512.129 378.309 512.244C378.402 512.43 378.73 512.668 379.048 512.835C379.373 513.012 379.741 513.165 380.09 513.284L380.531 513.433L380.348 513.843C380.165 514.255 379.992 514.703 379.89 515.128C379.863 515.234 379.846 515.339 379.834 515.437L379.826 515.573C379.822 515.612 379.848 515.676 379.808 515.576C379.845 515.635 380.078 515.827 380.249 515.948C381.014 516.487 381.85 516.977 382.678 517.461L387.689 520.347Z" fill="#C4704A"/>
<path d="M448.149 423.662C447.467 421.522 445.187 419.807 442.909 420.356C443.93 390.52 419.049 394.555 419.049 394.555C403.447 395.909 401.667 412.49 401.782 420.937C401.277 420.642 400.805 420.426 400.541 420.36C398.254 419.79 395.957 421.513 395.272 423.663C394.727 425.375 395.096 427.311 396.074 428.819C396.886 430.072 398.205 431.241 399.616 431.778C399.937 431.9 401.263 432.126 402.339 432.097C404.753 451.586 422.411 449.667 422.411 449.667C437.721 450.425 441.696 439.733 442.589 432.013C443.158 431.942 443.631 431.845 443.807 431.778C445.216 431.241 446.536 430.072 447.349 428.819C448.325 427.31 448.694 425.374 448.149 423.662Z" fill="#D48F65"/>
<path d="M434.838 436.104C437.596 436.104 439.832 433.868 439.832 431.11C439.832 428.352 437.596 426.116 434.838 426.116C432.08 426.116 429.844 428.352 429.844 431.11C429.844 433.868 432.08 436.104 434.838 436.104Z" fill="#D4815B"/>
<path d="M409.982 436.104C412.741 436.104 414.977 433.868 414.977 431.11C414.977 428.352 412.741 426.116 409.982 426.116C407.224 426.116 404.988 428.352 404.988 431.11C404.988 433.868 407.224 436.104 409.982 436.104Z" fill="#D4815B"/>
<path d="M427.215 421.425C427.215 423.056 427.86 424.377 428.658 424.377C429.454 424.377 430.099 423.056 430.099 421.425C430.099 419.794 429.454 418.472 428.658 418.472C427.86 418.472 427.215 419.794 427.215 421.425Z" fill="#3D1525"/>
<path d="M431.601 417.538C431.357 418.015 431.037 418.432 430.624 418.797C430.217 419.162 429.698 419.444 429.115 419.578L429.091 419.584C428.803 419.65 428.517 419.471 428.451 419.184C428.385 418.896 428.564 418.61 428.852 418.544C428.898 418.533 428.947 418.529 428.992 418.531C429.799 418.564 430.694 418.073 431.305 417.36L431.315 417.347C431.377 417.276 431.486 417.266 431.558 417.329C431.621 417.381 431.636 417.468 431.601 417.538Z" fill="#3D1525"/>
<path d="M417.608 421.425C417.608 423.056 416.963 424.377 416.166 424.377C415.37 424.377 414.725 423.056 414.725 421.425C414.725 419.794 415.37 418.472 416.166 418.472C416.963 418.472 417.608 419.794 417.608 421.425Z" fill="#3D1525"/>
<path d="M413.516 417.359C414.127 418.071 415.022 418.562 415.828 418.53C416.123 418.518 416.371 418.748 416.383 419.042C416.394 419.337 416.165 419.586 415.871 419.597C415.823 419.599 415.777 419.594 415.733 419.585L415.706 419.579C415.123 419.445 414.604 419.162 414.196 418.797C413.785 418.432 413.465 418.015 413.22 417.538C413.177 417.453 413.211 417.35 413.295 417.306C413.367 417.27 413.454 417.288 413.504 417.348L413.516 417.359Z" fill="#3D1525"/>
<path d="M423.929 435.587C423.518 435.952 422.954 436.085 422.41 436.101C421.865 436.084 421.31 435.936 420.891 435.587C421.424 435.672 421.908 435.776 422.41 435.757C422.913 435.777 423.404 435.69 423.929 435.587Z" fill="#3D1525"/>
<path d="M418.02 429.886C418.02 429.886 421.711 430.541 426.904 429.886C426.904 429.886 426.312 434.437 422.461 434.562C419.194 434.668 418.02 429.886 418.02 429.886Z" fill="white"/>
<path d="M418.806 411.181C418.133 410.584 417.371 410.389 416.571 410.354C415.778 410.336 414.963 410.429 414.191 410.692C413.412 410.929 412.695 411.368 412.096 411.893C411.47 412.399 411.031 413.067 410.665 413.727C410.48 414.06 410.6 414.481 410.933 414.666C411.2 414.814 411.522 414.767 411.736 414.572L411.794 414.518C412.264 414.086 412.715 413.682 413.219 413.387C413.702 413.06 414.248 412.882 414.791 412.741C415.34 412.613 415.911 412.545 416.495 412.576C417.071 412.595 417.684 412.625 418.316 412.47L418.498 412.426C418.886 412.331 419.124 411.94 419.028 411.552C418.992 411.402 418.912 411.276 418.806 411.181Z" fill="#3D1525"/>
<path d="M426.015 411.181C426.688 410.584 427.45 410.389 428.25 410.354C429.043 410.335 429.858 410.428 430.63 410.691C431.409 410.929 432.126 411.367 432.725 411.892C433.35 412.398 433.79 413.067 434.156 413.727C434.341 414.06 434.221 414.481 433.888 414.666C433.622 414.813 433.299 414.767 433.085 414.572L433.027 414.518C432.557 414.086 432.106 413.681 431.602 413.387C431.118 413.06 430.573 412.882 430.03 412.74C429.481 412.613 428.91 412.545 428.326 412.575C427.75 412.595 427.137 412.625 426.505 412.47L426.323 412.426C425.935 412.331 425.697 411.94 425.792 411.551C425.829 411.402 425.908 411.275 426.015 411.181Z" fill="#3D1525"/>
<path d="M422.745 416.908C423 418.02 423.188 419.126 423.393 420.22C423.607 421.31 423.807 422.4 424.118 423.434C424.189 423.694 424.27 423.949 424.363 424.196C424.437 424.398 424.618 424.786 424.613 425.149C424.651 425.887 424.179 426.609 423.578 426.9C422.964 427.245 422.255 427.191 421.695 427.001C421.128 426.796 420.633 426.488 420.205 426.109C421.24 426.499 422.45 426.801 423.179 426.252C423.545 425.974 423.742 425.603 423.691 425.2C423.672 424.992 423.607 424.861 423.474 424.544C423.363 424.268 423.265 423.989 423.182 423.71C422.866 422.585 422.703 421.45 422.64 420.313C422.573 419.176 422.596 418.039 422.745 416.908Z" fill="#3D1525"/>
<path d="M397.081 425.259C397.065 424.581 397.252 423.83 397.85 423.305C398.486 422.785 399.391 422.833 400.078 423.091C400.807 423.343 401.405 423.843 401.877 424.403C402.359 424.969 402.71 425.583 402.995 426.289C403.097 426.541 402.976 426.828 402.723 426.929C402.533 427.006 402.323 426.956 402.188 426.818L402.155 426.785C401.676 426.297 401.073 425.777 400.502 425.615C400.217 425.54 400.005 425.55 399.808 425.692C399.603 425.837 399.447 426.142 399.312 426.458C399.06 427.105 398.908 427.862 399.461 428.163C400.04 428.492 400.889 428.413 401.646 428.311C400.932 428.625 400.142 428.889 399.245 428.634C398.79 428.486 398.428 427.968 398.397 427.502C398.354 427.034 398.421 426.611 398.537 426.195C398.66 425.784 398.831 425.348 399.235 424.989C399.645 424.621 400.287 424.535 400.746 424.677C401.68 424.958 402.311 425.498 402.898 426.125L402.058 426.622C401.606 425.49 400.863 424.315 399.791 423.785C399.254 423.529 398.619 423.398 398.112 423.683C397.581 423.959 397.261 424.609 397.081 425.259Z" fill="#3D1525"/>
<path d="M446.983 425.259C446.999 424.581 446.812 423.83 446.214 423.305C445.578 422.785 444.673 422.833 443.986 423.091C443.257 423.343 442.659 423.843 442.187 424.403C441.705 424.969 441.355 425.583 441.069 426.289C440.967 426.541 441.089 426.828 441.341 426.929C441.531 427.006 441.74 426.956 441.876 426.818L441.908 426.785C442.388 426.297 442.991 425.777 443.561 425.615C443.847 425.54 444.058 425.55 444.257 425.692C444.461 425.837 444.618 426.142 444.752 426.458C445.004 427.105 445.156 427.862 444.604 428.163C444.025 428.492 443.176 428.413 442.418 428.311C443.132 428.625 443.923 428.889 444.819 428.634C445.274 428.486 445.637 427.968 445.667 427.502C445.71 427.034 445.644 426.611 445.526 426.195C445.403 425.784 445.232 425.348 444.828 424.989C444.418 424.621 443.776 424.535 443.318 424.677C442.384 424.958 441.752 425.498 441.166 426.125L442.005 426.622C442.458 425.49 443.2 424.315 444.273 423.785C444.809 423.529 445.444 423.398 445.951 423.683C446.482 423.959 446.803 424.609 446.983 425.259Z" fill="#3D1525"/>
<path d="M449.335 443.186C450.391 438.673 453.535 434.688 453.604 430.058C453.673 424.735 449.688 420.339 447.577 415.446C445.858 411.46 445.369 407.016 443.504 403.1C439.879 395.462 431.187 390.88 422.748 391.154C414.299 391.427 408.008 397.717 401.327 402.894C396.189 406.88 393.123 413.385 393.308 419.88C393.444 424.462 395.086 428.838 396.316 433.252C397.556 437.667 398.396 442.424 396.96 446.781C395.915 449.925 393.756 452.602 392.555 455.698C391.442 458.589 391.266 461.813 391.959 464.841C393.542 463.62 394.987 462.965 396.159 462.917C401.19 462.731 409.667 461.735 410.039 461.686C410.049 461.686 410.049 461.686 410.049 461.686V461.676C410.351 460.426 410.703 458.853 410.996 457.174C411.435 454.615 411.543 450.023 411.348 447.563C411.329 447.455 411.309 447.338 411.289 447.221C407.236 444.896 403.377 440.471 402.342 432.101C401.257 432.13 399.939 431.905 399.617 431.778C398.211 431.241 396.882 430.078 396.072 428.818C395.096 427.314 394.724 425.38 395.271 423.661C395.955 421.512 398.249 419.793 400.545 420.36C400.701 420.4 400.935 420.496 401.2 420.626C401.233 420.696 401.26 420.77 401.296 420.838C401.673 421.566 402.187 422.212 402.697 422.854C403.488 423.848 404.533 424.855 405.477 425.706C405.364 424.027 406.041 422.406 406.704 420.858C407.204 419.69 407.715 418.504 408.528 417.529C409.467 416.404 410.749 415.629 411.86 414.672C414.634 412.283 416.67 408.743 416.696 405.082C417.123 407.795 418.566 410.337 420.677 412.096C422.787 413.854 425.547 414.813 428.293 414.744C429.647 414.71 431.098 414.456 432.282 415.113C433.992 416.062 434.301 418.408 435.635 419.839C436.824 421.115 438.864 421.5 440.437 420.746C440.338 421.587 440.088 422.405 440.229 423.239C440.372 424.074 440.792 424.9 441.516 425.337C441.772 423.685 442.173 421.861 442.906 420.289C442.905 420.313 442.906 420.336 442.905 420.36C445.18 419.812 447.466 421.522 448.15 423.661C448.687 425.38 448.326 427.315 447.348 428.818C446.528 430.078 445.209 431.241 443.803 431.778C443.627 431.847 443.158 431.944 442.582 432.013C441.967 437.394 439.847 444.213 433.439 447.602C433.439 447.602 433.439 447.612 433.429 447.621C433.312 448.09 433.224 448.608 433.175 449.155V449.165C432.94 451.5 433.273 454.469 433.742 457.175C433.966 458.434 434.22 459.626 434.455 460.681C434.699 460.535 434.837 460.447 434.837 460.447C434.837 460.447 436.937 461.385 439.897 462.371C442.407 462.615 445.181 462.84 447.329 462.919C448.12 462.948 449.029 463.261 450.026 463.836C450.928 457.271 447.773 449.887 449.335 443.186Z" fill="#6B393A"/>
</g>
<defs>
<clipPath id="clip0_393_17268">
<rect width="834" height="597" fill="white"/>
</clipPath>
</defs>
</svg>
