<svg width="240" height="150" viewBox="0 0 240 150" fill="none" xmlns="http://www.w3.org/2000/svg">
<g clip-path="url(#clip0_291_24771)">
<rect width="240" height="150" rx="10" fill="#FFE6C9"/>
<path d="M197.446 93.3034C198.48 90.8607 201.298 89.7184 203.74 90.752C204.469 91.0604 205.082 91.5278 205.556 92.0968L207.279 91.8334L206.365 93.4874C206.782 94.599 206.791 95.8665 206.292 97.0463C205.258 99.489 202.44 100.631 199.998 99.5977C197.555 98.5639 196.413 95.7458 197.446 93.3034Z" fill="#9595E7"/>
<path d="M199.551 97.0488H204.12C204.184 97.0488 204.237 96.9963 204.237 96.9316C204.237 96.867 204.184 96.8145 204.12 96.8145H199.551C199.487 96.8145 199.434 96.867 199.434 96.9316C199.434 96.9966 199.487 97.0488 199.551 97.0488Z" fill="white"/>
<path d="M199.551 95.5137H204.12C204.184 95.5137 204.237 95.4612 204.237 95.3965C204.237 95.3318 204.184 95.2793 204.12 95.2793H199.551C199.487 95.2793 199.434 95.3318 199.434 95.3965C199.434 95.4612 199.487 95.5137 199.551 95.5137Z" fill="white"/>
<path d="M199.551 93.8506H204.12C204.184 93.8506 204.237 93.7981 204.237 93.7334C204.237 93.6687 204.184 93.6162 204.12 93.6162H199.551C199.487 93.6162 199.434 93.6687 199.434 93.7334C199.434 93.7981 199.487 93.8506 199.551 93.8506Z" fill="white"/>
<path d="M204.472 81.3634C203.52 86.0009 198.988 88.9883 194.35 88.0358C192.967 87.7515 191.729 87.1484 190.7 86.319L187.777 87.3842L188.797 84.1688C187.677 82.3695 187.218 80.154 187.678 77.9138C188.63 73.2763 193.162 70.2889 197.8 71.2414C202.437 72.1939 205.425 76.7256 204.472 81.3634Z" fill="#766CCC"/>
<path d="M196.397 84.5395H196.693C197.382 84.5395 197.942 83.9524 197.942 83.2308C197.942 82.5092 197.381 81.9223 196.693 81.9223H196.397C195.708 81.9223 195.148 82.5094 195.148 83.2308C195.148 83.9524 195.708 84.5395 196.397 84.5395ZM196.693 82.1564C197.252 82.1564 197.707 82.6383 197.707 83.2306C197.707 83.8231 197.252 84.3049 196.693 84.3049H196.397C195.838 84.3049 195.383 83.8231 195.383 83.2306C195.383 82.6383 195.838 82.1564 196.397 82.1564H196.693ZM196.213 81.3607C196.219 81.3607 196.225 81.3605 196.231 81.3605C196.504 81.3584 196.717 81.3195 196.903 81.2381C197.36 81.0371 197.458 80.6267 197.513 80.2575L197.716 78.9024C197.721 78.8682 197.711 78.8332 197.687 78.8072L197.575 78.6811C197.555 78.6586 197.527 78.6446 197.497 78.6422C196.707 78.5789 196.148 78.4547 195.837 78.2724C195.542 78.1001 195.404 77.8943 195.404 77.6241C195.404 77.4188 195.478 77.2634 195.63 77.15C196.124 76.7796 196.661 76.9758 197.228 77.1835C197.635 77.3325 198.055 77.4868 198.473 77.4256C198.801 77.3778 199.1 77.1961 199.293 76.9273C199.487 76.6587 199.564 76.3175 199.505 75.9912C199.431 75.5764 199.134 75.1899 198.692 74.9304C197.814 74.4157 196.727 74.3389 196.157 74.3389C195.635 74.3389 195.146 74.4092 194.705 74.5479C194.261 74.6883 193.876 74.8913 193.559 75.151C193.24 75.4114 192.986 75.7362 192.805 76.1164C192.624 76.4986 192.535 76.9278 192.535 77.4284C192.535 77.8821 192.609 78.2822 192.754 78.6176C192.9 78.9525 193.103 79.2436 193.356 79.4832C193.608 79.7199 193.908 79.9182 194.25 80.0721C194.513 80.1905 194.859 80.2664 195.194 80.3396C195.263 80.3548 195.332 80.3696 195.398 80.3848C195.396 80.4209 195.393 80.464 195.392 80.5055C195.387 80.5906 195.383 80.6703 195.384 80.6867C195.392 80.8833 195.431 81.102 195.652 81.2349C195.836 81.3455 196.057 81.3607 196.213 81.3607ZM197.476 78.9221L197.281 80.2231C197.221 80.625 197.124 80.8852 196.809 81.0237C196.653 81.0919 196.469 81.1245 196.229 81.1264C196.027 81.1228 195.88 81.0985 195.773 81.0335C195.668 80.97 195.627 80.8765 195.618 80.6764C195.618 80.6597 195.622 80.5908 195.626 80.5174C195.641 80.2303 195.643 80.2003 195.543 80.1776C195.449 80.1551 195.347 80.1328 195.244 80.1101C194.921 80.0396 194.587 79.9664 194.346 79.8579C194.029 79.7145 193.75 79.5307 193.517 79.3118C193.287 79.0943 193.103 78.829 192.97 78.5234C192.837 78.2178 192.77 77.8493 192.77 77.4277C192.77 76.9627 192.851 76.5666 193.017 76.2164C193.183 75.8677 193.415 75.57 193.708 75.3319C194.001 75.091 194.36 74.9023 194.775 74.7708C195.194 74.6393 195.658 74.5728 196.157 74.5728C196.704 74.5728 197.744 74.6454 198.574 75.1322C198.957 75.357 199.213 75.6851 199.275 76.0325C199.322 76.2928 199.258 76.576 199.103 76.7902C198.949 77.0049 198.701 77.1556 198.439 77.1938C198.08 77.2456 197.706 77.1087 197.309 76.9634C196.708 76.7433 196.086 76.516 195.49 76.9622C195.278 77.1211 195.171 77.3435 195.171 77.6241C195.171 77.9761 195.355 78.2623 195.719 78.4746C196.059 78.6739 196.62 78.8039 197.432 78.8719L197.476 78.9221Z" fill="white"/>
<path d="M236.751 96.395L233.112 96.0361L221.152 100.521L215.797 98.967C215.083 99.1988 214.445 99.4259 213.87 99.6495C213.86 99.5897 210.315 100.872 210.116 100.958C207.448 102.114 204.911 103.673 202.844 105.733C200.349 108.219 198.71 111.413 198.352 114.934C198.109 117.327 198.519 119.772 198.564 122.179C198.615 124.889 198.633 127.599 198.619 130.309C198.59 135.73 198.431 141.15 198.143 146.562C198.123 146.925 198.107 147.306 198.269 147.63C198.798 148.692 203.806 148.939 204.861 148.977C207.247 149.065 243.284 148.973 243.998 148.977L244.943 121.016C244.943 121.016 254.231 115.151 254.224 114.952C254.217 114.76 254.208 114.569 254.197 114.379C253.657 104.922 246.179 97.3243 236.751 96.395Z" fill="#5353B8"/>
<path d="M215.436 103.953H227.959V149.012H215.436V103.953Z" fill="#F4F2ED"/>
<path d="M209.574 122.12C209.639 122.12 209.691 122.068 209.691 122.003V114.464C209.691 114.399 209.639 114.347 209.574 114.347C209.509 114.347 209.457 114.399 209.457 114.464V122.003C209.457 122.068 209.509 122.12 209.574 122.12Z" fill="#29297F"/>
<path d="M209.391 73.4811C210.177 70.9763 212.742 71.2969 214.066 71.6509C214.553 71.7812 214.874 71.9159 214.874 71.9159C215.937 71.7898 218.767 69.9392 220.165 68.9865C220.212 68.9546 220.256 68.9241 220.3 68.8944C220.712 68.6122 220.971 68.4277 220.971 68.4277L221.354 75.578C221.354 75.578 222.405 78.6446 223.087 78.2515C223.541 77.99 224.061 77.828 224.618 77.8025L227.467 77.6715L228.978 77.6021C229.28 77.5883 229.573 77.6169 229.855 77.679C230.373 77.7931 230.85 78.0251 231.254 78.3481C231.993 78.9399 232.488 79.8312 232.534 80.8461L232.547 81.1184C232.64 83.1591 231.047 84.9054 229.007 84.999L228.347 85.0292L232.096 96.458C233.088 99.9143 230.255 102.859 226.743 103.867L226.597 103.909C223.086 104.916 219.401 102.913 218.409 99.4566L217.065 94.7728C212.892 94.4182 209.586 90.8344 209.534 86.4237L209.391 74.3663C209.39 74.333 209.39 73.5144 209.391 73.4811Z" fill="#D96448"/>
<path d="M217.138 94.9086C217.138 94.9086 224.27 93.47 224.822 90.6647C224.822 90.6647 226.496 95.6091 218.498 99.7381L217.138 94.9086Z" fill="#BB432A"/>
<path d="M229.423 88.3091L226.495 85.0293H228.347L229.423 88.3091Z" fill="#0B1126"/>
<path d="M205.911 67.5521C205.923 67.1493 205.979 66.7417 206.085 66.3507C206.256 65.728 206.555 65.1479 207.012 64.6965C208.374 63.3512 211.034 63.3163 212.593 64.3328C213.115 64.6729 213.437 65.1988 213.859 65.6432C213.79 65.6003 213.822 65.1887 213.827 65.1104C213.836 64.937 213.866 64.7647 213.918 64.5993C214.018 64.2854 214.196 64.0086 214.435 63.7822C214.919 63.3219 215.589 63.0908 216.244 63.0231C217.935 62.8485 219.391 63.6833 220.519 64.874C220.6 64.9588 220.684 65.0755 220.636 65.1817C220.864 64.6787 221.734 64.5829 222.211 64.5683C222.886 64.5482 223.561 64.7326 224.159 65.038C225.018 65.4765 225.821 66.1579 226.458 66.8802C227.071 67.5746 227.588 68.3778 227.911 69.2483C227.923 69.28 227.931 69.3123 227.942 69.3442C229.143 69.8099 230.253 71.0849 230.929 72.4267C231.337 73.2367 231.54 74.2475 231.291 75.1679C231.059 76.0227 230.498 76.9602 229.856 77.6795C229.574 77.6174 229.28 77.5888 228.979 77.6026L227.468 77.672L225.575 77.7589C225.395 78.6831 225.055 79.5655 224.576 80.3666L224.721 83.8984C224.734 84.2082 224.85 84.5049 225.05 84.7421C227.57 89.341 224.707 95.0394 219.512 95.7615L219.004 95.832C218.876 95.8859 218.741 95.9208 218.603 95.9351L215.033 96.3038C211.986 96.6186 209.334 94.2322 209.327 91.1689L209.517 84.9432L209.806 85.4626C209.997 85.8057 210.476 85.8451 210.72 85.5376C211.12 85.036 211.704 84.7159 212.341 84.6495L215.941 84.2752C216.664 84.2 217.394 84.3181 218.056 84.6174L218.5 84.8984C219.859 85.7579 221.624 84.759 221.593 83.1514C221.576 82.317 221.456 79.8821 221.389 77.9593C220.81 75.602 220.357 72.6453 220.794 69.7682C218.906 71.2686 216.837 72.4417 214.671 73.2397C213.387 73.7127 212.047 74.0563 210.708 73.9421C209.368 73.828 208.018 73.2135 207.121 72.0179C206.191 70.78 205.865 69.0786 205.911 67.5521Z" fill="#0B1126"/>
<path d="M229.582 80.0674L228.426 81.5836L229.677 82.2623" fill="#D96448"/>
<path d="M229.677 82.4968C229.76 82.4968 229.84 82.4525 229.883 82.3742C229.945 82.2605 229.902 82.118 229.789 82.0564L228.778 81.508L229.768 80.2095C229.847 80.1066 229.827 79.9595 229.724 79.8809C229.621 79.8024 229.474 79.8226 229.396 79.9252L228.239 81.4412C228.198 81.4955 228.182 81.5654 228.197 81.6324C228.211 81.6994 228.254 81.7566 228.314 81.7892L229.565 82.468C229.601 82.4877 229.639 82.4968 229.677 82.4968Z" fill="#BB432A"/>
<path d="M219.001 76.8677C218.71 76.9371 218.365 76.8417 218.026 76.7686C217.687 76.6877 217.344 76.6151 217.043 76.5626C216.743 76.5096 216.395 76.4608 216.049 76.4208C215.705 76.3739 215.347 76.3453 215.1 76.1815C214.861 76.027 214.811 75.6958 215.184 75.3651C215.537 75.0412 216.359 74.7663 217.355 74.939C218.348 75.1162 219.015 75.6529 219.225 76.0758C219.451 76.5119 219.282 76.8044 219.001 76.8677Z" fill="#0B1126"/>
<path d="M211.596 76.2064C211.36 76.1651 211.101 76.2727 210.844 76.3603C210.588 76.4548 210.327 76.5422 210.098 76.6092C209.869 76.6765 209.603 76.7433 209.336 76.8021C209.073 76.8671 208.795 76.9165 208.621 77.078C208.451 77.2308 208.45 77.5266 208.779 77.7931C209.092 78.0551 209.767 78.2419 210.526 78.0216C211.284 77.7973 211.744 77.2779 211.861 76.8903C211.988 76.4897 211.822 76.2431 211.596 76.2064Z" fill="#0B1126"/>
<path d="M213.675 87.6201C213.68 87.6201 213.685 87.6201 213.69 87.6196L215.811 87.4799C216.599 87.4279 217.248 86.7456 217.354 85.8576C217.369 85.7289 217.277 85.6124 217.149 85.5972C217.021 85.5829 216.904 85.6738 216.888 85.8023C216.809 86.4662 216.344 86.9751 215.78 87.0123L213.66 87.152C213.53 87.1607 213.433 87.2723 213.441 87.4014C213.449 87.5249 213.552 87.6201 213.675 87.6201Z" fill="#BB432A"/>
<path d="M214.767 80.0384C214.834 79.2708 215.192 78.1201 216.7 77.8154C216.949 77.7652 217.181 77.757 217.402 77.776C218.422 77.8634 219.145 78.6064 219.586 79.2502C219.912 79.7267 219.661 80.3918 219.1 80.5275C218.924 80.5702 218.748 80.6065 218.573 80.6389C218.629 80.4781 218.658 80.3065 218.65 80.1289C218.612 79.3104 217.852 78.68 216.952 78.721C216.051 78.762 215.352 79.4588 215.389 80.2775C215.398 80.4694 215.448 80.6506 215.529 80.8156C215.43 80.8104 215.338 80.8048 215.257 80.7987C214.97 80.7776 214.747 80.5362 214.755 80.2489C214.756 80.1833 214.761 80.112 214.767 80.0384Z" fill="white"/>
<path d="M216.952 78.7206C217.852 78.6796 218.612 79.3099 218.649 80.1285C218.658 80.3064 218.629 80.4777 218.573 80.6385C217.384 80.8572 216.243 80.853 215.528 80.8152C215.447 80.6502 215.398 80.4691 215.389 80.2771C215.351 79.4585 216.051 78.7617 216.952 78.7206Z" fill="#0B1126"/>
<path d="M208.579 80.5901C208.633 79.9786 208.918 79.0619 210.119 78.8191C210.317 78.779 210.502 78.7727 210.678 78.7877C211.491 78.8573 212.067 79.4491 212.418 79.9622C212.677 80.3418 212.478 80.8718 212.031 80.9798C211.885 81.0152 211.738 81.0457 211.593 81.0719C211.639 80.9411 211.663 80.8015 211.656 80.6564C211.627 80.0044 211.021 79.5023 210.304 79.5349C209.587 79.5675 209.029 80.1227 209.059 80.7747C209.066 80.9297 209.107 81.0757 209.172 81.2083C209.099 81.2043 209.03 81.2001 208.968 81.1957C208.74 81.179 208.562 80.9866 208.568 80.7576C208.57 80.7056 208.574 80.6486 208.579 80.5901Z" fill="white"/>
<path d="M210.304 79.5357C211.021 79.5031 211.627 80.0051 211.657 80.6572C211.663 80.8022 211.639 80.9419 211.593 81.0727C210.645 81.245 209.737 81.2396 209.172 81.2091C209.107 81.0762 209.066 80.9304 209.059 80.7755C209.029 80.1235 209.587 79.5683 210.304 79.5357Z" fill="#0B1126"/>
<path d="M212.83 76.6572L211.937 82.0626C211.917 82.1814 211.943 82.3019 212.012 82.4008C212.261 82.7592 213.011 83.4967 214.75 82.9483" fill="#D96448"/>
<path d="M213.601 83.379C213.948 83.379 214.352 83.3195 214.82 83.1716C214.944 83.1327 215.012 83.001 214.973 82.8777C214.935 82.7542 214.802 82.6858 214.679 82.7247C213.083 83.2283 212.416 82.5723 212.204 82.2667C212.171 82.2186 212.158 82.1598 212.168 82.1008L213.061 76.6954C213.083 76.5676 212.996 76.4469 212.869 76.4258C212.742 76.4055 212.62 76.4912 212.599 76.619L211.706 82.0244C211.676 82.2044 211.716 82.3855 211.82 82.5344C212.024 82.8283 212.548 83.379 213.601 83.379Z" fill="#BB432A"/>
<path d="M216.913 97.4597C217.173 97.1749 217.615 97.1526 217.902 97.41L221.592 100.71L230.729 93.424C231.121 93.1113 231.682 93.1312 232.051 93.4706L235.912 97.023C236.269 97.3519 236.29 97.9092 235.959 98.2643L227.414 107.416C227.154 107.696 226.704 107.674 226.472 107.37L221.575 100.985L216.461 106.746C216.238 106.998 215.823 106.884 215.76 106.554L214.515 100.083L216.913 97.4597Z" fill="white"/>
<path d="M217.174 105.943L219.895 110.15C220.256 110.708 221.041 110.791 221.511 110.32L225.596 106.229L221.575 100.984L217.174 105.943Z" fill="#0B1126"/>
<path d="M226.521 119.992L221.603 117.757C220.036 117.044 218.324 116.831 216.666 117.142L211.292 118.147C210.521 118.291 209.391 118.525 208.823 119.109L200.996 123.449C200.536 123.682 200.385 124.267 200.676 124.694C200.682 124.703 200.689 124.713 200.695 124.722C201.197 125.458 202.175 125.696 202.957 125.271L206.954 123.1L206.791 123.258C206.343 123.691 206.166 124.373 206.337 125.01L206.641 126.139L206.588 126.633C206.515 127.311 206.805 127.979 207.333 128.35L212.444 131.935C212.757 132.154 213.169 132.038 213.339 131.682C213.76 130.804 213.515 129.709 212.769 129.127L211.146 127.861L215.821 129.245C216.591 129.473 217.395 129.497 218.169 129.317L220.669 128.732L224.761 131.808L226.521 119.992Z" fill="#D96448"/>
<path d="M207.046 123.298C207.07 123.298 207.094 123.29 207.115 123.275L209.797 121.328C209.849 121.29 209.861 121.217 209.823 121.165C209.785 121.112 209.711 121.101 209.659 121.139L206.977 123.086C206.924 123.124 206.913 123.197 206.951 123.249C206.974 123.281 207.01 123.298 207.046 123.298Z" fill="#BB432A"/>
<path d="M206.749 126.189C206.771 126.189 206.793 126.183 206.812 126.171L210.216 124.014C210.27 123.979 210.287 123.907 210.252 123.852C210.217 123.798 210.144 123.781 210.09 123.816L206.687 125.973C206.632 126.008 206.616 126.08 206.65 126.135C206.673 126.17 206.711 126.189 206.749 126.189Z" fill="#BB432A"/>
<path d="M211.146 127.978C211.183 127.978 211.219 127.96 211.242 127.928C211.279 127.874 211.266 127.802 211.213 127.765L210.228 127.077C210.176 127.04 210.103 127.052 210.065 127.106C210.028 127.159 210.041 127.232 210.094 127.269L211.079 127.957C211.099 127.971 211.122 127.978 211.146 127.978Z" fill="#BB432A"/>
<path d="M253.328 111.874L239.336 113.002L239.296 118.233L223.185 115.838C222.754 115.774 222.351 116.078 222.251 116.541L219.075 131.23C218.921 131.945 219.359 132.656 220.022 132.767C223.075 133.275 229.065 134.357 235.299 135.362C238.296 135.845 241.35 136.31 244.161 136.684C245.814 136.905 247.407 136.675 248.847 136.09C252.804 134.481 255.613 130.188 255.377 125.166C255.301 123.551 255.213 122.093 255.111 121.015C254.823 117.966 254.175 114.923 253.887 111.874" fill="#5353B8"/>
<path d="M239.587 118.261C239.589 118.261 239.59 118.261 239.592 118.261C239.657 118.258 239.707 118.204 239.704 118.139L239.311 108.14C239.308 108.075 239.261 108.028 239.189 108.027C239.124 108.03 239.074 108.085 239.076 108.149L239.47 118.148C239.473 118.211 239.525 118.261 239.587 118.261Z" fill="#29297F"/>
<path d="M242.827 119.082C242.883 119.082 242.933 119.042 242.942 118.984C242.953 118.921 242.909 118.86 242.846 118.85L227.978 116.383C227.913 116.372 227.854 116.415 227.843 116.479C227.833 116.543 227.876 116.603 227.94 116.614L242.807 119.081C242.814 119.082 242.82 119.082 242.827 119.082Z" fill="#29297F"/>
<path d="M245.921 136.986C247.19 136.986 248.452 136.633 249.557 135.958C249.613 135.925 249.63 135.853 249.596 135.797C249.563 135.742 249.491 135.724 249.435 135.758C248.09 136.58 246.503 136.909 244.967 136.682L227.977 134.019C227.914 134.01 227.853 134.052 227.843 134.117C227.833 134.18 227.877 134.24 227.941 134.25L244.933 136.914C245.26 136.962 245.591 136.986 245.921 136.986Z" fill="#29297F"/>
<path d="M156.381 108.189C156.049 107.976 155.873 107.602 155.741 107.24C155.677 107.066 155.622 106.889 155.572 106.711C154.131 104.7 153.945 101.858 155.125 99.6823C155.808 98.4225 156.929 97.4231 158.227 96.828C158.393 96.7519 158.563 96.682 158.735 96.6192C159.25 96.4308 159.787 96.3038 160.332 96.247C160.709 96.2079 161.067 96.2159 161.399 96.1481C161.598 96.0047 161.782 95.8455 161.94 95.6583C163.009 94.395 162.545 92.543 162.444 90.9077C162.369 89.6958 162.559 88.4899 162.963 87.352C161.423 86.7422 160.332 85.2427 160.332 83.4856C160.332 81.1878 162.195 79.3252 164.492 79.3252C166.025 79.3252 167.36 80.1561 168.082 81.3896C168.37 81.2053 168.667 81.0347 168.973 80.8803C173.879 78.4067 181.361 79.789 184.366 84.6654C185.405 86.3508 185.585 88.4142 185.656 90.3928C185.683 91.1311 185.706 91.8989 186.045 92.5549C186.602 93.6291 187.587 94.3088 187.997 95.4832C188.434 96.7345 188.369 98.1452 187.857 99.364C187.587 100.007 187.163 100.499 186.763 101.056C186.561 101.338 186.12 101.919 186.239 102.332C186.277 102.396 186.313 102.461 186.349 102.525C186.35 102.526 186.351 102.528 186.352 102.529V102.53C187.165 103.981 187.546 105.616 187.346 107.299C187.018 110.067 185.209 112.353 182.648 113.68C179.516 115.304 176.446 117.031 173.742 119.128C171.479 120.882 168.27 121.735 164.891 121.169C160.018 120.353 156.296 116.656 156.091 112.469C156.059 111.801 156.109 111.118 156.267 110.467C156.406 109.893 156.746 109.347 156.705 108.737C156.695 108.585 156.659 108.442 156.611 108.301C156.531 108.272 156.453 108.236 156.381 108.189Z" fill="#0B1126"/>
<path d="M195.941 128.983C196.609 112.168 181.202 110.184 181.202 110.184L181.201 110.253L176.964 110.267L171.326 112.904L165.875 109.408L160.943 110.455C160.943 110.455 149.898 113.114 150.289 126.737C150.297 127.009 150.497 127.238 150.768 127.284L155.331 131.862L157.016 144.46C156.246 146.016 154.936 149.029 154.936 149.029H195.296L195.941 128.983Z" fill="#FFD563"/>
<path d="M165.875 109.408L166.379 149.03H181.47L181.9 110.31" fill="#F4F2ED"/>
<path d="M174.085 117.168L173.944 117.165C170.545 117.085 167.295 115.147 167.366 111.884L167.468 110.177C167.509 109.499 167.993 108.929 168.655 108.779L173.887 107.596L179.51 109.5C180.055 109.685 180.418 110.202 180.405 110.778L180.393 111.38C180.322 114.644 177.484 117.248 174.085 117.168Z" fill="#FFD563"/>
<path d="M174.193 127.289C174.257 127.289 174.31 127.237 174.31 127.172V117.647C174.31 117.583 174.257 117.53 174.193 117.53C174.128 117.53 174.076 117.583 174.076 117.647V127.172C174.076 127.237 174.128 127.289 174.193 127.289Z" fill="#FFD563"/>
<path d="M176.696 119.165C177.089 119.165 177.407 118.85 177.407 118.462C177.407 118.075 177.089 117.76 176.696 117.76C176.304 117.76 175.986 118.075 175.986 118.462C175.986 118.85 176.304 119.165 176.696 119.165ZM176.696 117.994C176.959 117.994 177.173 118.204 177.173 118.462C177.173 118.721 176.959 118.93 176.696 118.93C176.434 118.93 176.22 118.72 176.22 118.462C176.22 118.204 176.434 117.994 176.696 117.994Z" fill="#FFD563"/>
<path d="M176.768 122.908C177.16 122.908 177.479 122.593 177.479 122.206C177.479 121.818 177.16 121.503 176.768 121.503C176.376 121.503 176.057 121.818 176.057 122.206C176.057 122.593 176.376 122.908 176.768 122.908ZM176.768 121.737C177.031 121.737 177.245 121.947 177.245 122.206C177.245 122.464 177.031 122.674 176.768 122.674C176.506 122.674 176.292 122.464 176.292 122.206C176.292 121.947 176.506 121.737 176.768 121.737Z" fill="#FFD563"/>
<path d="M174.282 131.146L178.346 128.999C179.64 128.315 181.083 128.048 182.508 128.227L187.121 128.809C187.784 128.893 188.755 129.034 189.267 129.502L196.133 132.791C196.536 132.967 196.694 133.456 196.468 133.833C196.463 133.841 196.458 133.85 196.453 133.858C196.064 134.508 195.246 134.759 194.56 134.438L191.055 132.796L191.202 132.922C191.605 133.267 191.789 133.838 191.676 134.387L191.475 135.362L191.545 135.779C191.641 136.35 191.429 136.933 190.999 137.274L186.839 140.577C186.585 140.779 186.229 140.701 186.067 140.407C185.665 139.682 185.818 138.74 186.422 138.208L187.736 137.051L183.836 138.463C183.194 138.695 182.512 138.756 181.846 138.642L179.693 138.272L176.373 141.091L174.282 131.146Z" fill="#FF9278"/>
<path d="M190.982 132.987C191.02 132.987 191.058 132.968 191.08 132.933C191.115 132.878 191.099 132.806 191.045 132.771L188.669 131.253C188.614 131.218 188.541 131.234 188.507 131.288C188.472 131.343 188.488 131.415 188.542 131.45L190.919 132.968C190.938 132.981 190.96 132.987 190.982 132.987Z" fill="#FF6A48"/>
<path d="M191.38 135.427C191.421 135.427 191.461 135.406 191.482 135.367C191.514 135.31 191.493 135.239 191.437 135.208L188.437 133.548C188.381 133.517 188.309 133.537 188.278 133.593C188.246 133.65 188.267 133.721 188.324 133.753L191.323 135.413C191.341 135.423 191.361 135.427 191.38 135.427Z" fill="#FF6A48"/>
<path d="M187.737 137.168C187.762 137.168 187.788 137.16 187.81 137.143L188.611 136.509C188.662 136.469 188.67 136.395 188.63 136.344C188.59 136.294 188.516 136.285 188.466 136.325L187.664 136.959C187.613 136.999 187.605 137.073 187.645 137.123C187.668 137.153 187.702 137.168 187.737 137.168Z" fill="#FF6A48"/>
<path d="M151.107 125.607L163.046 125.858L163.344 130.298L176.905 127.451C177.268 127.374 177.625 127.612 177.734 128L181.173 140.314C181.34 140.913 181.004 141.539 180.447 141.667C177.88 142.253 172.848 143.474 167.605 144.642C165.083 145.204 162.513 145.753 160.145 146.213C158.752 146.484 157.388 146.369 156.135 145.945C152.694 144.779 150.092 141.274 150.038 136.998C150.021 135.623 150.023 134.38 150.055 133.459C150.146 130.856 150.195 128.071 150.286 125.468" fill="#FFD563"/>
<path d="M163.093 130.354C163.093 130.354 163.094 130.354 163.095 130.354C163.16 130.353 163.211 130.299 163.21 130.235L163.039 121.723C163.037 121.659 162.986 121.612 162.919 121.608C162.854 121.61 162.803 121.663 162.804 121.728L162.975 130.239C162.977 130.303 163.029 130.354 163.093 130.354Z" fill="#D3A739"/>
<path d="M160.384 131.215C160.392 131.215 160.401 131.214 160.41 131.212L167.802 129.529C167.865 129.514 167.904 129.451 167.89 129.388C167.875 129.325 167.815 129.285 167.749 129.3L160.357 130.983C160.294 130.997 160.255 131.06 160.269 131.123C160.282 131.178 160.33 131.215 160.384 131.215Z" fill="#D3A739"/>
<path d="M158.32 146.586C158.717 146.586 159.114 146.546 159.504 146.465L167.138 144.876C167.201 144.863 167.242 144.8 167.229 144.737C167.215 144.674 167.153 144.632 167.09 144.646L159.457 146.235C158.167 146.504 156.808 146.306 155.628 145.678C155.572 145.647 155.5 145.669 155.469 145.726C155.439 145.783 155.461 145.854 155.518 145.885C156.389 146.348 157.354 146.586 158.32 146.586Z" fill="#D3A739"/>
<path d="M167.572 93.7093L170.192 93.9299C171.277 93.7682 172.368 92.2506 173.003 90.1991C174.094 89.9488 175.107 89.3877 175.916 88.5674C177.52 90.1407 179.572 91.4448 181.614 90.7691C182.702 90.4089 183.514 89.9305 184.12 89.4299C184.132 89.4203 184.141 89.4083 184.152 89.3985C184.153 89.4095 184.154 89.4205 184.155 89.4315L184.898 99.8373C185.16 103.496 182.782 106.725 179.433 107.521L179.376 110.174C179.313 113.125 176.891 115.484 173.995 115.415L173.875 115.413C170.978 115.344 168.212 113.596 168.275 110.645L168.873 100.304L167.608 100.31C165.875 100.319 164.448 98.8583 164.438 97.0637L164.438 96.9892C164.428 95.1943 165.839 93.7185 167.572 93.7093Z" fill="#FF9278"/>
<path d="M167.237 98.1322C167.28 98.1322 167.323 98.1205 167.362 98.0959L168.41 97.4333C168.467 97.3975 168.505 97.3391 168.516 97.2725C168.527 97.2062 168.509 97.1387 168.466 97.0867L167.403 95.7871C167.321 95.687 167.173 95.6722 167.073 95.754C166.973 95.8361 166.958 95.9837 167.04 96.0838L167.936 97.1786L167.112 97.6996C167.002 97.7687 166.97 97.9136 167.039 98.0228C167.084 98.0936 167.159 98.1322 167.237 98.1322Z" fill="#FF6A48"/>
<path d="M167.061 101.831C167.357 101.831 167.642 101.728 167.875 101.534C168.152 101.304 168.321 100.976 168.353 100.611C168.417 99.8755 167.89 99.2216 167.176 99.1544C166.837 99.1215 166.505 99.2261 166.24 99.4464C165.964 99.6763 165.795 100.004 165.763 100.369C165.699 101.105 166.227 101.758 166.94 101.826C166.98 101.83 167.02 101.831 167.061 101.831ZM167.056 99.3829C167.088 99.3829 167.121 99.3843 167.154 99.3876C167.739 99.4431 168.173 99.9829 168.119 100.591C168.093 100.893 167.953 101.164 167.725 101.354C167.509 101.534 167.238 101.618 166.962 101.592C166.376 101.537 165.943 100.997 165.996 100.389C166.022 100.087 166.162 99.8162 166.39 99.6264C166.581 99.4675 166.814 99.3829 167.056 99.3829Z" fill="white"/>
<path d="M180.306 95.9619C180.618 95.4158 181.151 94.772 181.965 94.6353C182.141 94.6058 182.328 94.5973 182.531 94.6215C182.548 94.6234 182.562 94.6269 182.578 94.6292C182.236 94.8563 182.02 95.2278 182.034 95.6401C182.057 96.3003 182.665 96.8148 183.391 96.7892C183.726 96.7773 184.028 96.6514 184.253 96.455C184.276 96.6835 184.113 96.8895 183.886 96.9249C183.28 97.0187 182.036 97.1553 180.779 96.9568C180.319 96.8841 180.075 96.3659 180.306 95.9619Z" fill="white"/>
<path d="M182.034 95.6407C182.019 95.2285 182.236 94.857 182.578 94.6299C183.771 94.7944 184.127 95.6787 184.229 96.2829C184.239 96.3418 184.247 96.3987 184.253 96.4512C184.254 96.4528 184.253 96.4543 184.253 96.4557C184.028 96.6521 183.726 96.7779 183.391 96.7899C182.664 96.8154 182.057 96.301 182.034 95.6407Z" fill="#0B1126"/>
<path d="M180.375 103.82C180.348 103.829 180.318 103.829 180.29 103.817C180.261 103.806 179.574 103.536 179.103 104.108C179.058 104.163 178.977 104.17 178.924 104.123C178.87 104.076 178.864 103.993 178.909 103.937C179.501 103.219 180.375 103.569 180.384 103.573C180.449 103.6 180.48 103.676 180.454 103.743C180.44 103.781 180.41 103.808 180.375 103.82Z" fill="#FF6A48"/>
<path d="M173.55 92.8258C173.777 92.8875 174.049 92.8167 174.316 92.7637C174.584 92.7044 174.854 92.6519 175.09 92.6149C175.327 92.5776 175.6 92.5444 175.873 92.5186C176.143 92.4869 176.425 92.4705 176.621 92.3421C176.811 92.2212 176.856 91.9533 176.57 91.6779C176.299 91.4084 175.659 91.1698 174.875 91.2914C174.093 91.4166 173.56 91.8398 173.388 92.179C173.204 92.5287 173.331 92.7691 173.55 92.8258Z" fill="#0B1126"/>
<path d="M183.911 92.5123C183.688 92.5912 183.412 92.5413 183.142 92.509C182.871 92.4705 182.597 92.4389 182.359 92.4199C182.12 92.4009 181.845 92.3887 181.572 92.3838C181.3 92.373 181.018 92.3782 180.813 92.2652C180.614 92.1593 180.55 91.8956 180.816 91.5989C181.067 91.3094 181.687 91.0223 182.478 91.0835C183.267 91.1484 183.828 91.5298 184.025 91.8546C184.234 92.1895 184.125 92.4391 183.911 92.5123Z" fill="#0B1126"/>
<path d="M176.026 99.8154C176.245 99.641 176.553 99.6583 176.77 99.8367C177.164 100.162 178.012 100.728 179.175 100.768C179.461 100.778 179.63 101.109 179.526 101.385C179.297 101.99 178.641 102.946 177.1 102.327C175.222 101.573 175.455 100.27 176.026 99.8154Z" fill="white"/>
<path d="M178.826 98.7615C179.368 98.7884 179.801 98.8941 180.292 98.5515C180.748 98.2325 181.112 97.5868 180.952 97.0088C180.881 96.7534 180.664 96.5673 180.411 96.5239L179.895 96.4358L179.641 94.0098" fill="#FF9278"/>
<path d="M179.468 99.0325C179.78 99.0325 180.09 98.9779 180.426 98.7435C180.946 98.3802 181.371 97.6462 181.177 96.9461C181.084 96.6088 180.799 96.3522 180.45 96.2927L180.11 96.2345L179.874 93.9853C179.86 93.8566 179.747 93.7633 179.616 93.7767C179.487 93.7903 179.394 93.9056 179.407 94.0342L179.662 96.4603C179.673 96.5648 179.752 96.6492 179.855 96.6667L180.371 96.7549C180.541 96.7839 180.68 96.9081 180.725 97.0713C180.855 97.5388 180.538 98.0931 180.157 98.3594C179.814 98.5992 179.514 98.5762 179.098 98.5448C179.014 98.5384 178.927 98.5319 178.838 98.5274C178.702 98.5185 178.599 98.6207 178.592 98.7499C178.586 98.879 178.685 98.9892 178.814 98.9955C178.9 98.9999 178.983 99.006 179.063 99.0121C179.2 99.0224 179.334 99.0325 179.468 99.0325Z" fill="#FF6A48"/>
<path d="M173.209 95.8306C173.59 95.1633 174.241 94.3765 175.236 94.2099C175.451 94.1738 175.68 94.1635 175.928 94.193C176.01 94.2028 176.087 94.2164 176.162 94.2314C175.525 94.4442 175.078 95.01 175.101 95.659C175.129 96.4657 175.872 97.0943 176.759 97.0631C177.29 97.0444 177.751 96.7927 178.031 96.4214C178.031 96.4233 178.032 96.4256 178.032 96.4278C178.062 96.7092 177.862 96.9642 177.583 97.0076C176.842 97.1222 175.323 97.2891 173.787 97.0465C173.225 96.9577 172.927 96.3244 173.209 95.8306Z" fill="white"/>
<path d="M176.759 97.0632C175.872 97.0943 175.13 96.4657 175.101 95.659C175.078 95.01 175.525 94.4443 176.163 94.2314C177.479 94.4923 177.883 95.5146 178.003 96.2225C178.015 96.2921 178.024 96.3591 178.031 96.4217C177.751 96.7927 177.29 97.0444 176.759 97.0632Z" fill="#0B1126"/>
<path d="M179.427 107.527C179.427 107.527 173.24 107.68 172.254 105.378C172.254 105.378 171.897 108.847 179.31 110.835L179.427 107.527Z" fill="#FF6A48"/>
<path d="M177.086 148.32C177.086 147.625 177.649 147.062 178.344 147.062H197.414L206.796 123.84C207.137 122.996 207.956 122.443 208.866 122.443H239.945C240.965 122.443 241.669 123.466 241.304 124.419L231.781 149.298L197.128 149.146C197.119 149.146 197.112 149.143 197.104 149.143H177.087V148.32H177.086Z" fill="#0B1126"/>
<path d="M193.029 148.466H195.264C195.282 148.466 195.296 148.452 195.296 148.435V147.923C195.296 147.906 195.282 147.892 195.264 147.892H193.029C193.012 147.892 192.998 147.906 192.998 147.923V148.434C192.998 148.452 193.012 148.466 193.029 148.466Z" fill="white"/>
<path d="M189.069 148.466H191.304C191.321 148.466 191.335 148.452 191.335 148.435V147.923C191.335 147.906 191.321 147.892 191.303 147.892H189.069C189.051 147.892 189.037 147.906 189.037 147.923V148.435C189.037 148.452 189.051 148.466 189.069 148.466Z" fill="white"/>
<path d="M220.392 138.024C221.398 139.031 223.275 138.786 224.584 137.477C225.892 136.168 226.137 134.292 225.131 133.285C224.125 132.278 222.248 132.523 220.939 133.832C219.63 135.141 219.386 137.018 220.392 138.024Z" fill="white"/>
<path d="M221.991 138.759C222.889 138.759 223.88 138.347 224.667 137.56C225.318 136.909 225.735 136.1 225.842 135.283C225.95 134.454 225.727 133.715 225.214 133.202C224.701 132.689 223.962 132.467 223.133 132.574C222.316 132.681 221.507 133.098 220.856 133.75C219.504 135.102 219.259 137.057 220.309 138.107C220.748 138.546 221.345 138.759 221.991 138.759ZM223.531 132.783C224.116 132.783 224.654 132.973 225.048 133.368C226.008 134.327 225.762 136.133 224.501 137.394C223.24 138.655 221.434 138.901 220.475 137.942C219.516 136.982 219.761 135.176 221.022 133.915C221.764 133.173 222.695 132.783 223.531 132.783Z" fill="#121936"/>
<path d="M221.672 139.633C222.826 139.633 224.102 139.101 225.116 138.086C226.854 136.349 227.176 133.844 225.834 132.503C224.493 131.162 221.988 131.484 220.251 133.221C218.514 134.958 218.192 137.463 219.533 138.805C220.091 139.363 220.851 139.633 221.672 139.633ZM223.694 131.791C224.486 131.791 225.216 132.05 225.752 132.586C227.047 133.882 226.725 136.312 225.034 138.004C223.342 139.695 220.911 140.018 219.616 138.722C218.32 137.426 218.642 134.996 220.334 133.304C221.326 132.312 222.572 131.791 223.694 131.791Z" fill="white"/>
<path d="M139.351 149.649H262.015C262.209 149.649 262.367 149.492 262.367 149.298C262.367 149.104 262.209 148.946 262.015 148.946H139.351C139.157 148.946 139 149.104 139 149.298C139 149.492 139.157 149.649 139.351 149.649Z" fill="#121936"/>
</g>
<defs>
<clipPath id="clip0_291_24771">
<rect width="240" height="150" rx="10" fill="white"/>
</clipPath>
</defs>
</svg>
