<svg xmlns="http://www.w3.org/2000/svg" width="46" height="55" viewBox="0 0 500 200" version="1.1"><path d="M 44.364 17.506 C 44.682 18.334, 58.699 42.218, 75.514 70.581 L 106.087 122.151 106.294 150.325 L 106.500 178.500 128.250 178.770 L 150 179.039 150 150.944 L 150 122.850 154.142 115.878 L 158.284 108.906 155.621 106.127 C 152.960 103.349, 152.960 103.347, 154.979 101.519 C 158.688 98.162, 156.928 94, 151.800 94 C 149.480 94, 149 93.571, 149 91.500 C 149 89.429, 149.480 89, 151.800 89 C 156.955 89, 158.537 85.265, 154.984 81.483 C 152.981 79.351, 152.981 79.327, 154.936 77.558 C 156.826 75.847, 157.006 75.859, 159.558 77.867 C 163.024 80.593, 166 79.253, 166 74.965 C 166 72.325, 166.335 72, 169.059 72 C 170.844 72, 171.861 72.417, 171.500 73 C 170.312 74.923, 172.098 73.969, 177.119 70 C 179.902 67.800, 182.538 66, 182.975 66 C 183.413 66, 189.519 56.212, 196.545 44.250 C 203.571 32.288, 210.148 21.306, 211.160 19.846 C 212.172 18.386, 213 16.923, 213 16.596 C 213 16.268, 201.822 16, 188.161 16 L 163.321 16 162.079 18.750 C 161.030 21.073, 129.115 80.943, 128.475 81.788 C 128.239 82.100, 119.272 65.695, 103.038 35.250 L 92.773 16 68.279 16 C 46.877 16, 43.859 16.190, 44.364 17.506 M 199.438 63.856 C 177.040 72.696, 162.960 91.575, 163.012 112.697 C 163.048 127.225, 171.657 141.565, 185.282 149.791 C 191.068 153.284, 198 155.105, 198 153.131 C 198 152.509, 197.213 151.990, 196.250 151.978 C 190.182 151.902, 178.409 142.714, 174.503 135.007 C 169.374 124.884, 168.696 109.167, 172.964 99.286 C 175.451 93.525, 182.439 86.347, 188.638 83.185 C 192.225 81.354, 199.278 79.105, 206.250 77.568 C 208.970 76.969, 209 76.874, 209 68.981 C 209 63.244, 208.648 61.010, 207.750 61.034 C 207.063 61.053, 203.322 62.323, 199.438 63.856 M 203.962 85.894 C 189.797 88.785, 179.723 101.072, 179.691 115.500 C 179.664 127.509, 185.846 137.322, 196.839 142.720 C 211.788 150.061, 230.172 142.975, 237.305 127.122 C 240.155 120.789, 240.155 110.211, 237.305 103.878 C 231.545 91.076, 217.004 83.233, 203.962 85.894 M 202.411 102.891 C 195.154 107.317, 192.631 114.128, 195.484 121.597 C 199.738 132.738, 215.101 134.689, 222.023 124.968 C 224.975 120.822, 225.580 115.325, 223.605 110.597 C 222.303 107.480, 221.611 106.869, 219.895 107.317 C 216.679 108.158, 213.129 106.362, 212.420 103.535 C 211.907 101.493, 211.172 101.001, 208.642 101.004 C 206.914 101.006, 204.110 101.855, 202.411 102.891 M 285 195 C 285 195.550, 285.863 196, 286.918 196 C 287.973 196, 289.661 196.262, 290.668 196.582 C 292.344 197.114, 292.335 197.029, 290.559 195.582 C 288.391 193.815, 285 193.460, 285 195 M 323.694 194.639 C 322.328 196.006, 324.192 196.843, 327.431 196.317 C 329.537 195.976, 332.024 196.364, 333.982 197.341 C 336.127 198.411, 337.011 198.529, 336.740 197.708 C 335.834 194.959, 325.747 192.587, 323.694 194.639" stroke="none" fill="#0cce7f" fill-rule="evenodd"/><path d="M 229 50.405 L 229 56.810 233.750 59.563 C 236.363 61.077, 241.425 65.322, 245 68.996 C 256.455 80.770, 262.014 95.799, 261.983 114.910 C 261.960 128.433, 260.048 137.446, 255.049 147.589 C 250.532 156.755, 241.059 167.099, 233.520 171.099 L 229 173.497 229 180.248 L 229 187 248.500 187 L 268 187 268 160 L 268 133 293.500 133 L 319 133 319 160 L 319 187 338.500 187 L 358 187 357.993 178.750 L 357.986 170.500 354.461 168.099 C 348.913 164.321, 340.805 154.994, 337.225 148.275 C 332.059 138.577, 329.873 128.508, 329.892 114.500 C 329.910 100.375, 331.342 93.928, 337.046 82.274 C 339.970 76.302, 342.867 72.272, 347.621 67.565 C 351.222 63.999, 355.030 60.808, 356.084 60.473 C 357.760 59.941, 358 58.871, 358 51.933 L 358 44 338.469 44 L 318.937 44 319.219 71.001 L 319.500 98.001 293.750 98.001 L 268 98 268 71 L 268 44 248.500 44 L 229 44 229 50.405 M 378.362 62.918 C 359.500 68.031, 347.400 78.848, 341.292 96.056 C 339.068 102.323, 338.642 105.240, 338.597 114.500 C 338.489 137.194, 347.313 152.678, 365.841 162.309 C 374.969 167.054, 383.640 169, 395.654 169 C 414.154 169, 426.698 164.274, 438.089 153.013 C 448.576 142.646, 453 131.267, 453 114.661 C 453 90.264, 439.814 71.704, 417 63.990 C 407.512 60.782, 388.216 60.247, 378.362 62.918 M 221 77.363 C 221 77.562, 223.890 79.148, 227.422 80.887 C 231.502 82.895, 235.633 86.007, 238.752 89.419 C 245.369 96.659, 247.500 103.256, 247.500 116.500 C 247.500 125.433, 247.201 127.110, 244.694 132.214 C 239.774 142.234, 230.197 148.967, 215.750 152.563 L 209 154.243 209 162.189 C 209 169.968, 209.047 170.120, 211.250 169.440 C 224.209 165.438, 236.910 157.568, 243.223 149.630 C 255.156 134.624, 257.781 116.036, 250.233 100 C 246.901 92.922, 237.190 83.285, 229.813 79.736 C 224.780 77.315, 221 76.297, 221 77.363 M 383.936 92.750 C 373.607 97.989, 368.373 109.153, 370.918 120.523 C 376.397 145.009, 411.377 146.886, 419.472 123.128 C 421.529 117.091, 421.395 112.131, 419.002 105.736 C 413.857 91.985, 397.436 85.903, 383.936 92.750 M 202.411 102.891 C 195.154 107.317, 192.631 114.128, 195.484 121.597 C 199.738 132.738, 215.101 134.689, 222.023 124.968 C 224.975 120.822, 225.580 115.325, 223.605 110.597 C 222.303 107.480, 221.611 106.869, 219.895 107.317 C 216.679 108.158, 213.129 106.362, 212.420 103.535 C 211.907 101.493, 211.172 101.001, 208.642 101.004 C 206.914 101.006, 204.110 101.855, 202.411 102.891" stroke="none" fill="#040407" fill-rule="evenodd"/></svg>