<svg width="32" height="32" viewBox="0 0 32 32" fill="none" xmlns="http://www.w3.org/2000/svg">
<g clip-path="url(#clip0_167_37251)">
<path fill-rule="evenodd" clip-rule="evenodd" d="M19 29.0003L7 24.0003V8.00032L19 3.00032V29.0003ZM5.23 26.5123C4.86569 26.3603 4.5545 26.104 4.33562 25.7755C4.11674 25.447 3.99997 25.0611 4 24.6663V7.33432C3.99997 6.93958 4.11674 6.55366 4.33562 6.22516C4.5545 5.89667 4.86569 5.64029 5.23 5.48832L17.846 0.230315C18.302 0.0403021 18.7978 -0.0341815 19.2894 0.0134781C19.7811 0.0611378 20.2534 0.229466 20.6644 0.503516C21.0754 0.777566 21.4123 1.14886 21.6453 1.58442C21.8783 2.01999 22.0001 2.50635 22 3.00032V4.00032H24.5C26.432 4.00032 28 5.56632 28 7.50032V24.5003C28 25.4286 27.6313 26.3188 26.9749 26.9752C26.3185 27.6316 25.4283 28.0003 24.5 28.0003H22V29.0003C22.0001 29.4943 21.8783 29.9806 21.6453 30.4162C21.4123 30.8518 21.0754 31.2231 20.6644 31.4971C20.2534 31.7712 19.7811 31.9395 19.2894 31.9872C18.7978 32.0348 18.302 31.9603 17.846 31.7703L5.23 26.5123ZM22 25.0003H24.5C24.6326 25.0003 24.7598 24.9476 24.8536 24.8539C24.9473 24.7601 25 24.6329 25 24.5003V7.50032C25 7.36771 24.9473 7.24053 24.8536 7.14676C24.7598 7.05299 24.6326 7.00032 24.5 7.00032H22V25.0003Z" fill="#0D6EFD"/>
</g>
<defs>
<clipPath id="clip0_167_37251">
<rect width="32" height="32" fill="white"/>
</clipPath>
</defs>
</svg>
