<svg width="651" height="367" viewBox="0 0 651 367" fill="none" xmlns="http://www.w3.org/2000/svg">
<g filter="url(#filter0_d_3003_12486)">
<g clip-path="url(#clip0_3003_12486)">
<path d="M64 72C64 67.5817 67.5817 64 72 64H579C583.418 64 587 67.5817 587 72V295C587 299.418 583.418 303 579 303H72C67.5817 303 64 299.418 64 295V72Z" fill="#D8CAF4"/>
<path d="M471 194.622C471 189.863 474.354 185.763 479.019 184.82L587 163V272L479.019 250.18C474.354 249.237 471 245.137 471 240.378V194.622Z" fill="white"/>
<g clip-path="url(#clip1_3003_12486)">
<path d="M340.795 75.6341L339.113 74.5532L339.653 73.7118C339.796 73.4886 339.845 73.2177 339.789 72.9585C339.732 72.6994 339.575 72.4733 339.352 72.33C339.129 72.1866 338.858 72.1378 338.599 72.1942C338.34 72.2507 338.114 72.4077 337.97 72.6309L337.43 73.4723L332.381 70.2296L332.922 69.3882C333.065 69.165 333.114 68.8941 333.058 68.635C333.001 68.3758 332.844 68.1497 332.621 68.0064C332.398 67.863 332.127 67.8142 331.868 67.8706C331.609 67.9271 331.383 68.0841 331.239 68.3073L330.699 69.1487L329.016 68.0678C328.347 67.6378 327.534 67.4913 326.756 67.6606C325.979 67.8299 325.301 68.3011 324.871 68.9706L318.385 79.0671C317.955 79.7365 317.809 80.5494 317.978 81.3268C318.147 82.1042 318.618 82.7825 319.288 83.2126L331.067 90.7788C331.737 91.2088 332.549 91.3553 333.327 91.186C334.104 91.0167 334.783 90.5455 335.213 89.8761L341.698 79.7795C342.128 79.1101 342.275 78.2973 342.105 77.5198C341.936 76.7424 341.465 76.0641 340.795 75.6341ZM333.53 88.7952C333.387 89.0183 333.16 89.1754 332.901 89.2318C332.642 89.2882 332.371 89.2394 332.148 89.0961L320.369 81.5298C320.146 81.3865 319.989 81.1604 319.932 80.9012C319.876 80.6421 319.925 80.3711 320.068 80.148L323.851 74.2583L337.313 82.9055L333.53 88.7952ZM338.394 81.2228L324.932 72.5756L326.553 70.0515C326.697 69.8283 326.923 69.6712 327.182 69.6148C327.441 69.5584 327.712 69.6072 327.935 69.7505L329.618 70.8314L329.077 71.6728C328.934 71.8959 328.885 72.1669 328.942 72.426C328.998 72.6852 329.155 72.9113 329.378 73.0546C329.601 73.198 329.872 73.2468 330.132 73.1903C330.391 73.1339 330.617 72.9768 330.76 72.7537L331.301 71.9123L336.349 75.155L335.808 75.9964C335.665 76.2195 335.616 76.4905 335.673 76.7496C335.729 77.0088 335.886 77.2349 336.109 77.3782C336.332 77.5216 336.603 77.5704 336.863 77.5139C337.122 77.4575 337.348 77.3004 337.491 77.0773L338.032 76.2359L339.714 77.3168C339.938 77.4602 340.095 77.6863 340.151 77.9454C340.207 78.2045 340.159 78.4755 340.015 78.6986L338.394 81.2228Z" fill="#B5A1DE"/>
</g>
<g clip-path="url(#clip2_3003_12486)">
<path d="M288.015 129.726L284.549 126.473L285.358 125.61C285.583 125.37 285.571 124.995 285.332 124.77C285.093 124.546 284.717 124.558 284.492 124.797L283.683 125.66L280.219 122.409L281.029 121.547C281.253 121.307 281.241 120.932 281.002 120.707C280.763 120.483 280.387 120.495 280.163 120.734L279.353 121.597L275.893 118.349C275.415 117.9 274.663 117.924 274.214 118.402L264.056 129.226C263.608 129.704 263.632 130.456 264.11 130.905L276.233 142.281C276.711 142.73 277.462 142.706 277.911 142.228L288.069 131.404C288.517 130.926 288.494 130.175 288.015 129.726ZM277.045 141.415L264.922 130.039L275.08 119.215L278.541 122.463L278.131 122.899C277.907 123.138 277.919 123.513 278.158 123.738C278.397 123.962 278.773 123.951 278.997 123.711L279.406 123.275L282.87 126.526L282.461 126.962C282.236 127.201 282.248 127.577 282.487 127.801C282.727 128.026 283.102 128.014 283.327 127.775L283.736 127.338L287.203 130.592L277.045 141.415ZM279.703 132.51L280.569 133.323C280.808 133.547 281.184 133.535 281.408 133.296L282.22 132.43C282.445 132.191 282.433 131.815 282.194 131.591L281.328 130.778C281.089 130.554 280.713 130.566 280.489 130.805L279.676 131.671C279.452 131.91 279.464 132.286 279.703 132.51ZM276.452 135.974L277.318 136.786C277.557 137.01 277.933 136.999 278.158 136.76L278.97 135.894C279.194 135.655 279.182 135.279 278.943 135.054L278.078 134.242C277.839 134.017 277.463 134.029 277.238 134.268L276.426 135.134C276.201 135.374 276.213 135.749 276.452 135.974ZM275.48 131.804L274.614 130.991C274.375 130.767 273.999 130.779 273.775 131.018L272.962 131.884C272.738 132.123 272.75 132.499 272.989 132.723L273.855 133.536C274.094 133.76 274.469 133.748 274.694 133.509L275.506 132.643C275.731 132.404 275.719 132.028 275.48 131.804ZM278.73 128.34L277.864 127.528C277.625 127.304 277.249 127.315 277.025 127.554L276.212 128.42C275.988 128.659 276 129.035 276.239 129.26L277.105 130.072C277.344 130.297 277.72 130.285 277.944 130.046L278.757 129.18C278.981 128.94 278.969 128.565 278.73 128.34ZM275.266 125.09L274.401 124.277C274.162 124.053 273.786 124.065 273.561 124.304L272.749 125.17C272.524 125.409 272.536 125.785 272.775 126.009L273.641 126.822C273.88 127.046 274.256 127.034 274.48 126.795L275.293 125.929C275.518 125.69 275.505 125.314 275.266 125.09ZM272.016 128.553L271.15 127.741C270.911 127.516 270.535 127.528 270.311 127.767L269.498 128.633C269.274 128.873 269.286 129.248 269.525 129.473L270.391 130.285C270.63 130.51 271.006 130.498 271.23 130.259L272.043 129.393C272.267 129.154 272.255 128.778 272.016 128.553Z" fill="#B5A1DE"/>
</g>
<path d="M236.979 71.0212L238.437 72.4899L231.635 79.3545L228.021 75.7087L229.479 74.2399L231.635 76.4066L236.979 71.0212ZM226.458 62.167C227.563 62.167 228.623 62.606 229.405 63.3874C230.186 64.1688 230.625 65.2286 230.625 66.3337C230.625 67.4387 230.186 68.4985 229.405 69.2799C228.623 70.0613 227.563 70.5003 226.458 70.5003C225.353 70.5003 224.293 70.0613 223.512 69.2799C222.731 68.4985 222.292 67.4387 222.292 66.3337C222.292 65.2286 222.731 64.1688 223.512 63.3874C224.293 62.606 225.353 62.167 226.458 62.167ZM226.458 64.2503C225.906 64.2503 225.376 64.4698 224.985 64.8605C224.594 65.2512 224.375 65.7811 224.375 66.3337C224.375 66.8862 224.594 67.4161 224.985 67.8068C225.376 68.1975 225.906 68.417 226.458 68.417C227.011 68.417 227.541 68.1975 227.931 67.8068C228.322 67.4161 228.542 66.8862 228.542 66.3337C228.542 65.7811 228.322 65.2512 227.931 64.8605C227.541 64.4698 227.011 64.2503 226.458 64.2503ZM226.458 71.542C227.167 71.542 228.021 71.6357 228.969 71.8128L227.229 73.5524L226.458 73.5212C223.365 73.5212 220.104 75.042 220.104 75.7087V76.8545H226.563L228.542 78.8337H218.125V75.7087C218.125 72.9378 223.677 71.542 226.458 71.542Z" fill="#B5A1DE"/>
<path d="M232.125 110.125L237.375 115.375L247.875 104.125" stroke="#B5A1DE" stroke-width="2.25" stroke-linecap="round" stroke-linejoin="round"/>
<g clip-path="url(#clip3_3003_12486)">
<path d="M286.375 74.9577L282.389 76.7108C281.502 75.7809 280.101 75.4413 278.861 75.9866C277.622 76.5318 276.925 77.7941 277.011 79.0763L273.026 80.8294C272.52 81.0519 272.123 81.4662 271.923 81.9811C271.723 82.496 271.735 83.0695 271.957 83.5752L277.829 96.9243C278.052 97.43 278.466 97.8267 278.981 98.027C279.496 98.2274 280.069 98.2149 280.575 97.9925L293.924 92.1208C294.43 91.8983 294.826 91.484 295.027 90.9691C295.227 90.4541 295.215 89.8807 294.992 89.3749L289.12 76.0259C288.898 75.5201 288.484 75.1235 287.969 74.9231C287.454 74.7228 286.88 74.7352 286.375 74.9577ZM279.7 77.8936C279.953 77.7823 280.24 77.7761 280.497 77.8763C280.755 77.9764 280.962 78.1748 281.073 78.4277C281.184 78.6805 281.19 78.9673 281.09 79.2247C280.99 79.4822 280.792 79.6893 280.539 79.8006C280.286 79.9118 279.999 79.918 279.742 79.8179C279.484 79.7177 279.277 79.5194 279.166 79.2665C279.055 79.0136 279.049 78.7269 279.149 78.4694C279.249 78.2119 279.447 78.0048 279.7 77.8936ZM276.61 83.8046L286.145 79.6105L285.306 77.7035L287.213 76.8647L293.085 90.2138L279.736 96.0855L273.864 82.7364L275.771 81.8976L276.61 83.8046ZM279.813 89.7927L280.614 87.7333L283.36 88.8015L285.764 82.6234L287.823 83.4246L284.618 91.662L279.813 89.7927Z" fill="#B5A1DE"/>
</g>
</g>
<path d="M72 64.5H579C583.142 64.5 586.5 67.8579 586.5 72V295C586.5 299.142 583.142 302.5 579 302.5H72C67.8579 302.5 64.5 299.142 64.5 295V72C64.5 67.8579 67.8579 64.5 72 64.5Z" stroke="#BAA3E8"/>
</g>
<defs>
<filter id="filter0_d_3003_12486" x="0" y="0" width="651" height="367" filterUnits="userSpaceOnUse" color-interpolation-filters="sRGB">
<feFlood flood-opacity="0" result="BackgroundImageFix"/>
<feColorMatrix in="SourceAlpha" type="matrix" values="0 0 0 0 0 0 0 0 0 0 0 0 0 0 0 0 0 0 127 0" result="hardAlpha"/>
<feOffset/>
<feGaussianBlur stdDeviation="32"/>
<feComposite in2="hardAlpha" operator="out"/>
<feColorMatrix type="matrix" values="0 0 0 0 0 0 0 0 0 0 0 0 0 0 0 0 0 0 0.1 0"/>
<feBlend mode="normal" in2="BackgroundImageFix" result="effect1_dropShadow_3003_12486"/>
<feBlend mode="normal" in="SourceGraphic" in2="effect1_dropShadow_3003_12486" result="shape"/>
</filter>
<clipPath id="clip0_3003_12486">
<path d="M64 72C64 67.5817 67.5817 64 72 64H579C583.418 64 587 67.5817 587 72V295C587 299.418 583.418 303 579 303H72C67.5817 303 64 299.418 64 295V72Z" fill="white"/>
</clipPath>
<clipPath id="clip1_3003_12486">
<rect width="24" height="24" fill="white" transform="translate(326.971 62) rotate(32.7142)"/>
</clipPath>
<clipPath id="clip2_3003_12486">
<rect width="25" height="25" fill="white" transform="translate(276.108 112) rotate(43.1813)"/>
</clipPath>
<clipPath id="clip3_3003_12486">
<rect width="25" height="25" fill="white" transform="translate(267 80.0659) rotate(-23.7428)"/>
</clipPath>
</defs>
</svg>
