<svg width="30" height="30" viewBox="0 0 30 30" fill="none" xmlns="http://www.w3.org/2000/svg">
<g id="certificate">
<g id="Group 1000006408">
<path id="Vector" d="M22.2642 12.77V3.51863C22.2642 2.52453 21.4554 1.71582 20.4613 1.71582H5.80281C4.80871 1.71582 4 2.52453 4 3.51863V22.7432C4 23.7373 4.80871 24.546 5.80281 24.546H16.8679V27.4517C16.8679 28.0866 17.5554 28.4893 18.11 28.1725L20.6038 26.7475C23.3582 28.3214 23.2142 28.2819 23.5095 28.2819C23.9679 28.2819 24.3397 27.9097 24.3397 27.4517V21.7947C27.2945 18.956 26.1241 14.0212 22.2642 12.77ZM5.80281 22.8857C5.72425 22.8857 5.66038 22.8218 5.66038 22.7432V3.51863C5.66038 3.44007 5.72425 3.3762 5.80281 3.3762H20.4614C20.5399 3.3762 20.6038 3.44007 20.6038 3.51863V12.5083C17.6283 12.5083 15.2076 14.929 15.2076 17.9045C15.2076 19.4315 15.8452 20.8121 16.8679 21.7947V22.8857H5.80281ZM22.6793 26.0211L21.0157 25.0705C20.7604 24.9247 20.4472 24.9247 20.1919 25.0705L18.5283 26.0211V22.8854C19.8521 23.4391 21.3537 23.4398 22.6792 22.8854L22.6793 26.0211ZM20.6038 21.6404C18.5438 21.6404 16.8679 19.9645 16.8679 17.9045C16.8679 15.8446 18.5438 14.1687 20.6038 14.1687C22.6638 14.1687 24.3397 15.8446 24.3397 17.9045C24.3397 19.9645 22.6638 21.6404 20.6038 21.6404Z" fill="black"/>
<path id="Vector_2" d="M20.1881 20.033C19.8638 20.033 19.8225 19.9562 18.4831 19.0633C18.1016 18.8089 17.9985 18.2935 18.2528 17.912C18.5072 17.5305 19.0226 17.4274 19.4041 17.6817L19.9586 18.0514L21.1585 16.2516C21.4128 15.8701 21.9284 15.767 22.3098 16.0213C22.6913 16.2757 22.7944 16.7911 22.5401 17.1726L20.8797 19.6632C20.7196 19.9032 20.4563 20.033 20.1881 20.033Z" fill="black"/>
<path id="Vector_3" d="M16.0372 7.52757H8.98058C8.52211 7.52757 8.15039 7.15585 8.15039 6.69738C8.15039 6.23891 8.52211 5.86719 8.98058 5.86719H16.0372C16.4957 5.86719 16.8674 6.23891 16.8674 6.69738C16.8674 7.15585 16.4957 7.52757 16.0372 7.52757Z" fill="black"/>
<path id="Vector_4" d="M16.0372 10.8479H8.98058C8.52211 10.8479 8.15039 10.4762 8.15039 10.0177C8.15039 9.55922 8.52211 9.1875 8.98058 9.1875H16.0372C16.4957 9.1875 16.8674 9.55922 16.8674 10.0177C16.8674 10.4762 16.4957 10.8479 16.0372 10.8479Z" fill="black"/>
<path id="Vector_5" d="M13.1315 14.1682H8.98058C8.52211 14.1682 8.15039 13.7965 8.15039 13.338C8.15039 12.8795 8.52211 12.5078 8.98058 12.5078H13.1315C13.59 12.5078 13.9617 12.8795 13.9617 13.338C13.9617 13.7965 13.59 14.1682 13.1315 14.1682Z" fill="black"/>
</g>
</g>
</svg>
