<svg width="25" height="24" viewBox="0 0 25 24" fill="none" xmlns="http://www.w3.org/2000/svg">
<g id="repeat 1">
<path id="Vector" d="M11.9336 5.5C11.6684 5.50001 11.414 5.60538 11.2265 5.79292C11.0389 5.98046 10.9336 6.23481 10.9336 6.50003V12.5C10.9336 12.7652 11.039 13.0196 11.2265 13.2071C11.414 13.3946 11.6684 13.5 11.9336 13.5H16.4336C16.5655 13.5009 16.6963 13.4757 16.8184 13.4259C16.9405 13.376 17.0515 13.3025 17.1451 13.2096C17.2387 13.1166 17.313 13.0061 17.3637 12.8843C17.4144 12.7625 17.4405 12.6319 17.4405 12.5C17.4405 12.3681 17.4144 12.2375 17.3637 12.1157C17.313 11.994 17.2387 11.8834 17.1451 11.7905C17.0515 11.6975 16.9405 11.624 16.8184 11.5741C16.6963 11.5243 16.5655 11.4991 16.4336 11.5H12.9336V6.50003C12.9336 6.23481 12.8282 5.98046 12.6407 5.79292C12.4532 5.60538 12.1988 5.50001 11.9336 5.5Z" fill="#0D6EFD"/>
<path id="Vector_2" d="M20.2115 4.22217C15.9224 -0.0668945 8.94383 -0.0668945 4.65477 4.22217C4.46801 4.40984 4.36332 4.66393 4.36364 4.9287C4.36397 5.19346 4.46929 5.44729 4.65651 5.6345C4.84374 5.82172 5.09757 5.92703 5.36233 5.92735C5.6271 5.92767 5.88118 5.82296 6.06885 5.6362C9.57763 2.12695 15.2876 2.12695 18.7974 5.6362C22.3062 9.14526 22.3062 14.8552 18.7974 18.3643C15.7025 21.4584 10.8675 21.8131 7.35308 19.4159L8.24563 19.1183C8.49725 19.0344 8.70523 18.854 8.82381 18.6167C8.94239 18.3795 8.96187 18.1048 8.87795 17.8532C8.79403 17.6016 8.6136 17.3936 8.37634 17.275C8.13908 17.1564 7.86444 17.137 7.61282 17.2209L5.02063 18.0851C4.79262 18.1612 4.59963 18.3169 4.47697 18.5236C4.35431 18.7303 4.31018 18.9743 4.35266 19.2109L4.88624 22.1772C4.9278 22.4079 5.049 22.6166 5.22871 22.7671C5.40843 22.9175 5.63525 23.0001 5.86963 23.0005C5.92937 23.0004 5.98897 22.995 6.04776 22.9844C6.30877 22.9374 6.54045 22.7887 6.69183 22.571C6.84321 22.3532 6.9019 22.0842 6.85499 21.8232L6.78308 21.4235C8.8854 22.6823 11.3475 23.204 13.7797 22.906C16.2119 22.608 18.4752 21.5073 20.2115 19.7782C24.5 15.4895 24.5 8.51095 20.2115 4.22217Z" fill="#0D6EFD"/>
<path id="Vector_3" d="M3.87149 6.73595C3.75344 6.67836 3.62519 6.6446 3.49408 6.63662C3.36298 6.62863 3.23158 6.64656 3.10741 6.6894C2.98324 6.73223 2.86874 6.79913 2.77044 6.88625C2.67215 6.97338 2.59199 7.07903 2.53456 7.19716C2.45353 7.36312 2.37736 7.53059 2.30605 7.69956C2.25398 7.82056 2.22633 7.95066 2.22469 8.08238C2.22305 8.2141 2.24745 8.34485 2.2965 8.46711C2.34555 8.58936 2.41827 8.70073 2.51049 8.79479C2.6027 8.88886 2.7126 8.96378 2.83386 9.01524C2.95512 9.06671 3.08536 9.0937 3.21708 9.09468C3.34881 9.09566 3.47943 9.0706 3.60144 9.02094C3.72345 8.97128 3.83445 8.898 3.92805 8.80531C4.02166 8.71262 4.09602 8.60235 4.14688 8.48083C4.20547 8.34362 4.26697 8.20741 4.33241 8.07264C4.38992 7.95461 4.42363 7.82641 4.43159 7.69535C4.43955 7.56429 4.42162 7.43295 4.37882 7.30882C4.33602 7.1847 4.26918 7.07022 4.18214 6.97192C4.09509 6.87363 3.98953 6.79345 3.87149 6.73595Z" fill="#0D6EFD"/>
<path id="Vector_4" d="M2.43689 12.7541C2.69756 12.754 2.94789 12.6521 3.13452 12.4701C3.32114 12.2881 3.42928 12.0404 3.43589 11.7799C3.44076 11.5911 3.45134 11.4023 3.46762 11.2135C3.47894 11.0827 3.46438 10.9509 3.42478 10.8257C3.38519 10.7005 3.32132 10.5844 3.23683 10.4839C3.15233 10.3834 3.04888 10.3005 2.93236 10.24C2.81584 10.1795 2.68854 10.1425 2.55773 10.1312C2.42692 10.1198 2.29516 10.1344 2.16998 10.174C2.04479 10.2136 1.92864 10.2775 1.82814 10.362C1.72764 10.4464 1.64476 10.5499 1.58424 10.6664C1.52373 10.7829 1.48675 10.9102 1.47543 11.0411C1.45543 11.2699 1.44257 11.499 1.43685 11.7286C1.43004 11.9936 1.52878 12.2506 1.71136 12.4429C1.89395 12.6351 2.14542 12.7471 2.41049 12.754C2.41931 12.7541 2.42807 12.7541 2.43689 12.7541Z" fill="#0D6EFD"/>
<path id="Vector_5" d="M3.80539 14.5689C3.7684 14.4424 3.70675 14.3244 3.624 14.2218C3.54125 14.1192 3.43903 14.034 3.32321 13.971C3.2074 13.9081 3.08028 13.8686 2.94917 13.855C2.81806 13.8413 2.68555 13.8537 2.55925 13.8915C2.43296 13.9293 2.31537 13.9916 2.21326 14.075C2.11115 14.1583 2.02653 14.2611 1.96427 14.3773C1.90201 14.4934 1.86334 14.6208 1.85047 14.752C1.83761 14.8832 1.85082 15.0156 1.88933 15.1417C1.94159 15.3169 1.99822 15.4918 2.0593 15.6649C2.10287 15.7887 2.17041 15.9028 2.25807 16.0006C2.34573 16.0984 2.4518 16.1779 2.57021 16.2347C2.68861 16.2915 2.81705 16.3244 2.94817 16.3316C3.0793 16.3387 3.21055 16.32 3.33444 16.2764C3.45832 16.2329 3.57241 16.1653 3.67019 16.0777C3.76797 15.99 3.84753 15.8839 3.90432 15.7655C3.96111 15.6471 3.99402 15.5187 4.00117 15.3876C4.00833 15.2564 3.98959 15.1252 3.94602 15.0013C3.8957 14.8581 3.84883 14.7139 3.80539 14.5689Z" fill="#0D6EFD"/>
</g>
</svg>
