<svg width="30" height="30" viewBox="0 0 30 30" fill="none" xmlns="http://www.w3.org/2000/svg">
<g id="course">
<g id="Group 1000006409">
<path id="Vector" d="M27.5679 6.25725H25.9394V4.62881C25.9394 4.33505 25.7011 4.09669 25.4073 4.09669H23.7789V2.46824C23.7789 2.17449 23.5405 1.93613 23.2468 1.93613H3.36961C3.07586 1.93613 2.8375 2.17449 2.8375 2.46824V23.2096C2.8375 23.5034 3.07586 23.7417 3.36961 23.7417H4.99806V25.3702C4.99806 25.6639 5.23642 25.9023 5.53017 25.9023H7.15862V27.5307C7.15862 27.8245 7.39698 28.0629 7.69073 28.0629H27.5679C27.8616 28.0629 28.1 27.8245 28.1 27.5307V6.78937C28.1 6.49561 27.8616 6.25725 27.5679 6.25725ZM27.0358 9.71415H8.22284V7.32148H27.0358V9.71415ZM24.8752 6.25725H7.69073C7.39698 6.25725 7.15862 6.49561 7.15862 6.78937V7.55359H6.06228V5.16092H24.8752V6.25725ZM22.7147 3.00036V4.09669H5.53017C5.23642 4.09669 4.99806 4.33505 4.99806 4.62881V5.39303H3.90172V3.00036H22.7147ZM3.90172 22.6775V6.45725H4.99806V22.6775H3.90172ZM6.06228 24.8381V8.61781H7.15862V24.8381H6.06228ZM8.22284 26.9986V10.7784H27.0358V26.9986H8.22284Z" fill="black" stroke="black" stroke-width="0.2"/>
<path id="Vector_2" d="M8.9873 7.98594H8.8873V8.08594V8.95016V9.05016H8.9873H9.85153H9.95153V8.95016V8.08594V7.98594H9.85153H8.9873Z" fill="black" stroke="black" stroke-width="0.2"/>
<path id="Vector_3" d="M10.7158 7.98594H10.6158V8.08594V8.95016V9.05016H10.7158H11.58H11.68V8.95016V8.08594V7.98594H11.58H10.7158Z" fill="black" stroke="black" stroke-width="0.2"/>
<path id="Vector_4" d="M12.4443 7.98594H12.3443V8.08594V8.95016V9.05016H12.4443H13.3086H13.4086V8.95016V8.08594V7.98594H13.3086H12.4443Z" fill="black" stroke="black" stroke-width="0.2"/>
<path id="Vector_5" d="M18.0615 7.98594H17.9615V8.08594V8.95016V9.05016H18.0615H26.2717H26.3717V8.95016V8.08594V7.98594H26.2717H18.0615Z" fill="black" stroke="black" stroke-width="0.2"/>
<path id="Vector_6" d="M17.6297 20.7169C20.0676 20.7169 22.0508 18.7336 22.0508 16.2957C22.0508 13.8578 20.0676 11.8746 17.6297 11.8746C15.1918 11.8746 13.2086 13.8578 13.2086 16.2957C13.2086 18.7336 15.1918 20.7169 17.6297 20.7169ZM17.6297 12.9388C19.4805 12.9388 20.9866 14.4449 20.9866 16.2957C20.9866 18.1465 19.4805 19.6526 17.6297 19.6526C15.7789 19.6526 14.2728 18.1465 14.2728 16.2957C14.2728 14.4449 15.7789 12.9388 17.6297 12.9388Z" fill="black" stroke="black" stroke-width="0.2"/>
<path id="Vector_7" d="M16.0524 18.4774L16.0528 18.4777C16.1384 18.5303 16.2352 18.5569 16.3325 18.5569C16.4139 18.5569 16.4952 18.5382 16.5701 18.5011L16.5704 18.5009L20.0273 16.7725L20.0274 16.7724C20.2076 16.6821 20.3215 16.498 20.3215 16.2963C20.3215 16.0946 20.2076 15.9106 20.0274 15.8202L20.0273 15.8201L16.5704 14.0917L16.5701 14.0916C16.4054 14.0097 16.2097 14.0182 16.0527 14.115L16.0527 14.115L16.0524 14.1152C15.8963 14.2124 15.8004 14.3831 15.8004 14.5679V18.0248C15.8004 18.2095 15.8963 18.3802 16.0524 18.4774ZM16.8646 17.1638V15.4288L18.5996 16.2963L16.8646 17.1638Z" fill="black" stroke="black" stroke-width="0.2"/>
<path id="Vector_8" d="M24.1117 22.2457C23.2887 22.2457 22.5976 22.7945 22.369 23.542H19.3728C19.1442 22.7945 18.4531 22.2457 17.6301 22.2457C16.807 22.2457 16.1159 22.7945 15.8873 23.542H12.8911C12.6625 22.7945 11.9714 22.2457 11.1484 22.2457C10.1399 22.2457 9.31992 23.0657 9.31992 24.0742C9.31992 25.0826 10.1399 25.9026 11.1484 25.9026C11.9714 25.9026 12.6625 25.3538 12.8911 24.6063H15.8873C16.1159 25.3538 16.807 25.9026 17.6301 25.9026C18.4531 25.9026 19.1442 25.3538 19.3728 24.6063H22.369C22.5976 25.3538 23.2887 25.9026 24.1117 25.9026C25.1202 25.9026 25.9402 25.0826 25.9402 24.0742C25.9402 23.0657 25.1202 22.2457 24.1117 22.2457ZM11.1484 24.8384C10.727 24.8384 10.3841 24.4955 10.3841 24.0742C10.3841 23.6528 10.727 23.3099 11.1484 23.3099C11.5698 23.3099 11.9126 23.6528 11.9126 24.0742C11.9126 24.4955 11.5698 24.8384 11.1484 24.8384ZM17.6301 24.8384C17.2087 24.8384 16.8658 24.4955 16.8658 24.0742C16.8658 23.6528 17.2087 23.3099 17.6301 23.3099C18.0514 23.3099 18.3943 23.6528 18.3943 24.0742C18.3943 24.4955 18.0514 24.8384 17.6301 24.8384ZM24.1117 24.8384C23.6903 24.8384 23.3475 24.4955 23.3475 24.0742C23.3475 23.6528 23.6903 23.3099 24.1117 23.3099C24.5331 23.3099 24.876 23.6528 24.876 24.0742C24.876 24.4955 24.5331 24.8384 24.1117 24.8384Z" fill="black" stroke="black" stroke-width="0.2"/>
<path id="Vector_9" d="M23.2471 12.3072H23.1471V12.4072V13.2715V13.3715H23.2471H26.2719H26.3719V13.2715V12.4072V12.3072H26.2719H23.2471Z" fill="black" stroke="black" stroke-width="0.2"/>
<path id="Vector_10" d="M23.2471 14.0357H23.1471V14.1357V15V15.1H23.2471H26.2719H26.3719V15V14.1357V14.0357H26.2719H23.2471Z" fill="black" stroke="black" stroke-width="0.2"/>
<path id="Vector_11" d="M23.2471 15.7643H23.1471V15.8643V16.7285V16.8285H23.2471H26.2719H26.3719V16.7285V15.8643V15.7643H26.2719H23.2471Z" fill="black" stroke="black" stroke-width="0.2"/>
</g>
</g>
</svg>
