<svg width="14" height="13" viewBox="0 0 14 13" fill="none" xmlns="http://www.w3.org/2000/svg">
<g id="Frame 1000006085">
<path id="Vector" d="M10.5689 7.75906C10.4295 7.89414 10.3655 8.08949 10.3973 8.28108L10.8757 10.9288C10.916 11.1533 10.8213 11.3804 10.6335 11.5101C10.4495 11.6446 10.2046 11.6608 10.0039 11.5531L7.62033 10.31C7.53745 10.2658 7.44542 10.2422 7.35124 10.2395H7.2054C7.15481 10.247 7.1053 10.2631 7.0601 10.2879L4.67603 11.537C4.55817 11.5962 4.4247 11.6172 4.29393 11.5962C3.97534 11.5359 3.76276 11.2324 3.81496 10.9122L4.29393 8.26439C4.32568 8.07119 4.26164 7.87476 4.12226 7.73753L2.17894 5.85395C2.01642 5.69627 1.95991 5.45948 2.03418 5.24583C2.10629 5.03271 2.29034 4.87718 2.5126 4.8422L5.18728 4.45419C5.39071 4.4332 5.56938 4.30942 5.66087 4.12644L6.83945 1.71008C6.86743 1.65627 6.90349 1.60676 6.94708 1.56478L6.99552 1.52711C7.02081 1.49912 7.04987 1.47598 7.08216 1.45715L7.14082 1.43562L7.23231 1.39795H7.45888C7.66123 1.41894 7.83936 1.54002 7.93246 1.72085L9.12665 4.12644C9.21276 4.30242 9.38013 4.42459 9.57333 4.45419L12.248 4.8422C12.474 4.87449 12.6629 5.03056 12.7377 5.24583C12.8082 5.46163 12.7474 5.69842 12.5817 5.85395L10.5689 7.75906Z" fill="#CBCBCB"/>
</g>
</svg>
