<svg width="14" height="13" viewBox="0 0 14 13" fill="none" xmlns="http://www.w3.org/2000/svg">
<g id="Frame 1000006084">
<path id="Vector" d="M10.5924 7.75906C10.453 7.89414 10.3889 8.08949 10.4207 8.28108L10.8991 10.9288C10.9395 11.1533 10.8448 11.3804 10.6569 11.5101C10.4729 11.6446 10.228 11.6608 10.0273 11.5531L7.64376 10.31C7.56089 10.2658 7.46886 10.2422 7.37468 10.2395H7.22884C7.17825 10.247 7.12874 10.2631 7.08353 10.2879L4.69946 11.537C4.58161 11.5962 4.44814 11.6172 4.31737 11.5962C3.99877 11.5359 3.7862 11.2324 3.8384 10.9122L4.31737 8.26439C4.34912 8.07119 4.28508 7.87476 4.14569 7.73753L2.20238 5.85395C2.03985 5.69627 1.98335 5.45948 2.05761 5.24583C2.12973 5.03271 2.31378 4.87718 2.53604 4.8422L5.21072 4.45419C5.41415 4.4332 5.59282 4.30942 5.68431 4.12644L6.86289 1.71008C6.89087 1.65627 6.92693 1.60676 6.97052 1.56478L7.01895 1.52711C7.04425 1.49912 7.07331 1.47598 7.1056 1.45715L7.16426 1.43562L7.25575 1.39795H7.48231C7.68466 1.41894 7.8628 1.54002 7.9559 1.72085L9.15009 4.12644C9.23619 4.30242 9.40356 4.42459 9.59676 4.45419L12.2714 4.8422C12.4975 4.87449 12.6864 5.03056 12.7612 5.24583C12.8317 5.46163 12.7709 5.69842 12.6051 5.85395L10.5924 7.75906Z" fill="#EEBA02"/>
</g>
</svg>
