<svg width="290" height="400" viewBox="0 0 290 400" fill="none" xmlns="http://www.w3.org/2000/svg">
<path d="M8 0.5H282C286.142 0.5 289.5 3.85786 289.5 8V392C289.5 396.142 286.142 399.5 282 399.5H8C3.85787 399.5 0.5 396.142 0.5 392V7.99999C0.5 3.85786 3.85786 0.5 8 0.5Z" fill="white"/>
<path d="M8 0.5H282C286.142 0.5 289.5 3.85786 289.5 8V392C289.5 396.142 286.142 399.5 282 399.5H8C3.85787 399.5 0.5 396.142 0.5 392V7.99999C0.5 3.85786 3.85786 0.5 8 0.5Z" stroke="#DEE2E6"/>
<rect x="16.5" y="16.5" width="257" height="367" rx="7.5" fill="white"/>
<rect x="16.5" y="16.5" width="257" height="367" rx="7.5" stroke="#DEE2E6"/>
<path d="M16 36C16 24.9543 24.9543 16 36 16H254C265.046 16 274 24.9543 274 36V103.561C274 103.561 245.994 118.301 195.787 108.921C144.612 99.3609 16 54.7172 16 54.7172V36Z" fill="#07B0B0"/>
<path d="M16 24C16 19.5817 19.5817 16 24 16H266C270.418 16 274 19.5817 274 24V41.0335L215.087 76.7956C215.087 76.7956 160.562 111.469 121.13 120.221C81.0384 129.119 16 120.221 16 120.221V24Z" fill="#3E00C2"/>
<path d="M31.7441 384C31.7441 384 72.9846 346.555 117.769 345.601C165.254 344.59 227.276 384 227.276 384H31.7441Z" fill="#4513B0"/>
<path d="M245.966 363.78L274.001 342.549V375.999C274.001 380.418 270.419 383.999 266.001 383.999H219.15L245.966 363.78Z" fill="#28A6C2"/>
<path d="M198 119.5C198 150.152 174.047 175 144.5 175C114.953 175 91 150.152 91 119.5C91 88.8482 114.953 64 144.5 64C174.047 64 198 88.8482 198 119.5ZM94.1127 119.5C94.1127 148.368 116.672 171.771 144.5 171.771C172.328 171.771 194.887 148.368 194.887 119.5C194.887 90.6315 172.328 67.229 144.5 67.229C116.672 67.229 94.1127 90.6315 94.1127 119.5Z" fill="white"/>
</svg>
