<svg width="11" height="11" viewBox="0 0 11 11" fill="none" xmlns="http://www.w3.org/2000/svg">
<g id="history 1" clip-path="url(#clip0_2_21714)">
<g id="Layer 2">
<path id="Vector" d="M8.9045 3.53293H7.4042C7.32264 3.53293 7.24442 3.50053 7.18675 3.44286C7.12908 3.38519 7.09668 3.30697 7.09668 3.22541C7.09668 3.14385 7.12908 3.06563 7.18675 3.00796C7.24442 2.95029 7.32264 2.91789 7.4042 2.91789H8.61625L8.70359 1.56479C8.7102 1.48368 8.74815 1.40834 8.80939 1.35475C8.87063 1.30116 8.95035 1.27355 9.03161 1.27776C9.07205 1.28031 9.11158 1.29084 9.14793 1.30874C9.18427 1.32663 9.21672 1.35154 9.2434 1.38203C9.27008 1.41252 9.29046 1.44799 9.30338 1.48639C9.31629 1.5248 9.32147 1.56537 9.31863 1.60579L9.21285 3.24591C9.20772 3.32404 9.17295 3.39727 9.11564 3.45062C9.05833 3.50397 8.9828 3.53341 8.9045 3.53293Z" fill="black"/>
<path id="Vector_2" d="M5.35418 9.68284C4.58048 9.68268 3.82046 9.47887 3.15049 9.0919C2.48052 8.70493 1.9242 8.14844 1.53746 7.47833C1.15072 6.80823 0.947165 6.04814 0.947266 5.27444C0.947366 4.50075 1.15111 3.74071 1.53803 3.07071C1.92495 2.4007 2.4814 1.84435 3.15147 1.45755C3.82155 1.07076 4.58162 0.867147 5.35532 0.867188C6.12902 0.867228 6.88907 1.07092 7.5591 1.45778C8.22913 1.84465 8.78553 2.40106 9.17238 3.0711C9.21316 3.14179 9.22419 3.22578 9.20304 3.30459C9.1819 3.38341 9.13031 3.4506 9.05962 3.49138C8.98894 3.53216 8.90495 3.54319 8.82613 3.52205C8.74731 3.5009 8.68012 3.44931 8.63934 3.37862C8.17938 2.58129 7.44524 1.97836 6.57369 1.68219C5.70215 1.38602 4.75265 1.41679 3.90212 1.76879C3.05159 2.12078 2.35803 2.76999 1.95068 3.59544C1.54332 4.42089 1.44995 5.36628 1.68797 6.25547C1.92598 7.14466 2.47914 7.91699 3.24439 8.42857C4.00963 8.94014 4.93476 9.15606 5.8474 9.0361C6.76005 8.91613 7.59795 8.46847 8.20499 7.77651C8.81204 7.08456 9.14682 6.19551 9.14696 5.27501C9.14696 5.19345 9.17936 5.11523 9.23703 5.05756C9.2947 4.99989 9.37292 4.96749 9.45448 4.96749C9.53604 4.96749 9.61426 4.99989 9.67193 5.05756C9.7296 5.11523 9.762 5.19345 9.762 5.27501C9.7607 6.44364 9.29589 7.56403 8.46954 8.39038C7.6432 9.21672 6.52281 9.68154 5.35418 9.68284Z" fill="black"/>
<path id="Vector_3" d="M6.99411 6.81277C6.9277 6.81274 6.8631 6.79116 6.81001 6.75126L5.16988 5.52117C5.13169 5.49253 5.10069 5.45538 5.07934 5.41268C5.05799 5.36998 5.04688 5.3229 5.04688 5.27515V3.225C5.04688 3.14344 5.07927 3.06522 5.13695 3.00755C5.19462 2.94988 5.27284 2.91748 5.3544 2.91748C5.43596 2.91748 5.51418 2.94988 5.57185 3.00755C5.62952 3.06522 5.66192 3.14344 5.66192 3.225V5.12139L7.17903 6.25923C7.2307 6.29797 7.26885 6.352 7.28808 6.41365C7.30732 6.4753 7.30666 6.54144 7.2862 6.60269C7.26573 6.66394 7.22651 6.71719 7.17408 6.7549C7.12165 6.79261 7.05869 6.81285 6.99411 6.81277Z" fill="black"/>
</g>
</g>
<defs>
<clipPath id="clip0_2_21714">
<rect width="9.84073" height="9.84073" fill="white" transform="translate(0.433594 0.354492)"/>
</clipPath>
</defs>
</svg>
