<svg width="30" height="30" viewBox="0 0 30 30" fill="none" xmlns="http://www.w3.org/2000/svg">
<g id="language">
<g id="Group">
<g id="Group_2">
<path id="Vector" d="M11.9384 15.6133C11.8967 15.4046 10.4605 8.22366 10.415 7.99611C10.3438 7.64008 10.0312 7.38379 9.66808 7.38379H8.14465C7.78156 7.38379 7.4689 7.64008 7.39776 7.99611C7.35149 8.22752 5.91383 15.4158 5.87432 15.6133C5.7918 16.0258 6.05936 16.4271 6.47186 16.5096C6.88436 16.5921 7.28568 16.3245 7.36815 15.912L7.85504 13.4775H9.95769L10.4446 15.9121C10.5271 16.3248 10.9286 16.5922 11.3409 16.5096C11.7534 16.4271 12.0209 16.0258 11.9384 15.6133ZM8.15973 11.9541L8.7691 8.90723H9.04363L9.653 11.9541H8.15973Z" fill="black"/>
</g>
</g>
<g id="Group_3">
<g id="Group_4">
<path id="Vector_2" d="M24.1406 13.4766H21.8555V12.7148C21.8555 12.2942 21.5144 11.9531 21.0938 11.9531C20.6731 11.9531 20.332 12.2942 20.332 12.7148V13.4766H18.0469C17.6262 13.4766 17.2852 13.8176 17.2852 14.2383C17.2852 14.659 17.6262 15 18.0469 15H18.2312C18.6652 16.4022 19.3187 17.4784 20.0378 18.3409C19.4525 18.8762 18.8603 19.3152 18.3328 19.7372C18.0043 20 17.951 20.4793 18.2138 20.8079C18.4768 21.1365 18.9562 21.1895 19.2845 20.9268C19.8149 20.5024 20.4508 20.0308 21.0938 19.4407C21.7372 20.0312 22.3742 20.5037 22.903 20.9268C23.2315 21.1896 23.7109 21.1363 23.9737 20.8079C24.2365 20.4793 24.1832 20 23.8547 19.7372C23.3286 19.3162 22.7356 18.8767 22.1497 18.3409C22.8688 17.4784 23.5223 16.4022 23.9563 15H24.1406C24.5613 15 24.9023 14.659 24.9023 14.2383C24.9023 13.8176 24.5613 13.4766 24.1406 13.4766ZM21.0938 17.2214C20.6075 16.611 20.1701 15.8825 19.8403 14.9949H22.3471C22.0174 15.8825 21.58 16.611 21.0938 17.2214Z" fill="black"/>
</g>
</g>
<g id="Group_5">
<g id="Group_6">
<path id="Vector_3" d="M25.7148 6.62109H14.7257L14.3992 4.0017C14.2566 2.86054 13.2818 2 12.1317 2H4.28516C3.02512 2 2 3.02512 2 4.28516V21.0938C2 22.3538 3.02512 23.3789 4.28516 23.3789H10.7081L11.0305 25.9983C11.1729 27.1372 12.1477 28 13.298 28H25.7148C26.9749 28 28 26.9749 28 25.7148V8.90625C28 7.64621 26.9749 6.62109 25.7148 6.62109ZM4.28516 21.8555C3.86514 21.8555 3.52344 21.5138 3.52344 21.0938V4.28516C3.52344 3.86514 3.86514 3.52344 4.28516 3.52344H12.1317C12.5151 3.52344 12.84 3.81025 12.8875 4.1904C12.9979 5.07582 14.9801 20.9772 15.0896 21.8555H4.28516ZM12.4977 25.4482L12.243 23.3789H14.2867L12.4977 25.4482ZM26.4766 25.7148C26.4766 26.1349 26.1349 26.4766 25.7148 26.4766H13.6225L16.5223 23.1223C16.6708 22.9549 16.7373 22.7326 16.7066 22.5117L14.9157 8.14453H25.7148C26.1349 8.14453 26.4766 8.48624 26.4766 8.90625V25.7148Z" fill="black"/>
</g>
</g>
</g>
</svg>
