<svg width="17" height="21" viewBox="0 0 17 21" fill="none" xmlns="http://www.w3.org/2000/svg">
<g id="Group 138">
<path id="Vector" d="M10.375 1H2.875C2.37772 1 1.90081 1.20018 1.54917 1.5565C1.19754 1.91282 1 2.39609 1 2.9V18.1C1 18.6039 1.19754 19.0872 1.54917 19.4435C1.90081 19.7998 2.37772 20 2.875 20H14.125C14.6223 20 15.0992 19.7998 15.4508 19.4435C15.8025 19.0872 16 18.6039 16 18.1V6.7L10.375 1Z" stroke="#FF6969" stroke-width="1.5" stroke-linecap="round" stroke-linejoin="round"/>
<path id="Vector_2" d="M7 1V7H13" stroke="#FF6969" stroke-width="1.5" stroke-linecap="round" stroke-linejoin="round"/>
<path id="Vector_3" d="M9 11H2" stroke="#FF6969" stroke-width="1.5" stroke-linecap="round" stroke-linejoin="round"/>
<path id="Vector_4" d="M9 15H2" stroke="#FF6969" stroke-width="1.5" stroke-linecap="round" stroke-linejoin="round"/>
<path id="Vector_5" d="M3 7H2.5H2" stroke="#FF6969" stroke-width="1.5" stroke-linecap="round" stroke-linejoin="round"/>
</g>
</svg>
