<svg width="32" height="32" viewBox="0 0 32 32" fill="none" xmlns="http://www.w3.org/2000/svg">
<path d="M24 30H8C7.46957 30 6.96086 29.7893 6.58579 29.4142C6.21071 29.0391 6 28.5304 6 28V4C6 3.46957 6.21071 2.96086 6.58579 2.58579C6.96086 2.21071 7.46957 2 8 2H24C24.5304 2 25.0391 2.21071 25.4142 2.58579C25.7893 2.96086 26 3.46957 26 4V20.618L21 18.118L16 20.618V4H8V28H24V24H26V28C25.9992 28.5302 25.7882 29.0384 25.4133 29.4133C25.0384 29.7882 24.5302 29.9992 24 30ZM21 15.882L24 17.382V4H18V17.382L21 15.882Z" fill="#007661"/>
</svg>
