<svg width="24" height="24" viewBox="0 0 24 24" fill="none" xmlns="http://www.w3.org/2000/svg">
<g id="material-symbols:pending-actions-rounded">
<path id="Vector" d="M17 22C15.6167 22 14.4377 21.5123 13.463 20.537C12.4883 19.5617 12.0007 18.3827 12 17C11.9993 15.6173 12.487 14.4383 13.463 13.463C14.439 12.4877 15.618 12 17 12C18.382 12 19.5613 12.4877 20.538 13.463C21.5147 14.4383 22.002 15.6173 22 17C21.998 18.3827 21.5103 19.562 20.537 20.538C19.5637 21.514 18.3847 22.0013 17 22ZM17.5 16.8V14.5C17.5 14.3667 17.45 14.25 17.35 14.15C17.25 14.05 17.1333 14 17 14C16.8667 14 16.75 14.05 16.65 14.15C16.55 14.25 16.5 14.3667 16.5 14.5V16.775C16.5 16.9083 16.525 17.0377 16.575 17.163C16.625 17.2883 16.7 17.4007 16.8 17.5L18.325 19.025C18.425 19.125 18.5417 19.175 18.675 19.175C18.8083 19.175 18.925 19.125 19.025 19.025C19.125 18.925 19.175 18.8083 19.175 18.675C19.175 18.5417 19.125 18.425 19.025 18.325L17.5 16.8ZM5 21C4.45 21 3.97933 20.8043 3.588 20.413C3.19667 20.0217 3.00067 19.5507 3 19V5C3 4.45 3.196 3.97933 3.588 3.588C3.98 3.19667 4.45067 3.00067 5 3H9.175C9.35833 2.41667 9.71667 1.93767 10.25 1.563C10.7833 1.18833 11.3667 1.00067 12 1C12.6667 1 13.2627 1.18767 13.788 1.563C14.3133 1.93833 14.6673 2.41733 14.85 3H19C19.55 3 20.021 3.196 20.413 3.588C20.805 3.98 21.0007 4.45067 21 5V9C21 9.28333 20.904 9.521 20.712 9.713C20.52 9.905 20.2827 10.0007 20 10C19.7173 9.99933 19.48 9.90333 19.288 9.712C19.096 9.52067 19 9.28333 19 9V5H17V7C17 7.28333 16.904 7.521 16.712 7.713C16.52 7.905 16.2827 8.00067 16 8H8C7.71667 8 7.47933 7.904 7.288 7.712C7.09667 7.52 7.00067 7.28267 7 7V5H5V19H9.5C9.78333 19 10.021 19.096 10.213 19.288C10.405 19.48 10.5007 19.7173 10.5 20C10.4993 20.2827 10.4033 20.5203 10.212 20.713C10.0207 20.9057 9.78333 21.0013 9.5 21H5ZM12 5C12.2833 5 12.521 4.904 12.713 4.712C12.905 4.52 13.0007 4.28267 13 4C12.9993 3.71733 12.9033 3.48 12.712 3.288C12.5207 3.096 12.2833 3 12 3C11.7167 3 11.4793 3.096 11.288 3.288C11.0967 3.48 11.0007 3.71733 11 4C10.9993 4.28267 11.0953 4.52033 11.288 4.713C11.4807 4.90567 11.718 5.00133 12 5Z" fill="#0D6EFD"/>
</g>
</svg>
