<svg width="32" height="32" viewBox="0 0 32 32" fill="none" xmlns="http://www.w3.org/2000/svg">
<path d="M13.1387 13.1387L12.6667 12.6667M19.3387 19.3387L18.8667 18.8667M12.6667 19.3333L19.3334 12.6667M12.9507 4.85334C13.7254 4.19334 14.1134 3.86267 14.5187 3.66934C14.9813 3.44833 15.4874 3.33362 16.0001 3.33362C16.5127 3.33362 17.0188 3.44833 17.4814 3.66934C17.8867 3.86267 18.2747 4.19334 19.0494 4.85334C19.8481 5.53334 20.6587 5.87734 21.7254 5.96134C22.7401 6.04267 23.2481 6.084 23.6721 6.23334C24.6507 6.58 25.4214 7.34934 25.7667 8.32934C25.9161 8.752 25.9574 9.26 26.0387 10.276C26.1227 11.3427 26.4654 12.152 27.1454 12.9507C27.8067 13.7253 28.1374 14.1133 28.3307 14.5187C28.7787 15.456 28.7787 16.5453 28.3307 17.4813C28.1374 17.8867 27.8067 18.2747 27.1467 19.0493C26.4865 19.7911 26.0961 20.734 26.0387 21.7253C25.9574 22.74 25.9161 23.248 25.7667 23.672C25.5958 24.1554 25.3188 24.5944 24.9561 24.9569C24.5935 25.3193 24.1543 25.596 23.6707 25.7667C23.2481 25.916 22.7401 25.9573 21.7241 26.0387C20.6574 26.1227 19.8481 26.4653 19.0494 27.1453C18.2747 27.8067 17.8867 28.1373 17.4814 28.3307C17.0188 28.5517 16.5127 28.6664 16.0001 28.6664C15.4874 28.6664 14.9813 28.5517 14.5187 28.3307C14.1134 28.1373 13.7254 27.8067 12.9507 27.1467C12.209 26.4865 11.2661 26.096 10.2747 26.0387C9.26006 25.9573 8.75206 25.916 8.32806 25.7667C7.84465 25.5957 7.40562 25.3188 7.04316 24.9561C6.68071 24.5934 6.40403 24.1542 6.23339 23.6707C6.08406 23.248 6.04273 22.74 5.96139 21.724C5.9042 20.7333 5.51426 19.7908 4.85473 19.0493C4.19339 18.2747 3.86273 17.8867 3.66806 17.4813C3.44726 17.0187 3.33278 16.5125 3.33301 15.9999C3.33324 15.4872 3.44818 14.9811 3.66939 14.5187C3.86273 14.1133 4.19339 13.7253 4.85339 12.9507C5.54673 12.136 5.87873 11.32 5.96139 10.2747C6.04273 9.26 6.08406 8.752 6.23339 8.328C6.40433 7.84459 6.6813 7.40556 7.04398 7.04311C7.40667 6.68065 7.84587 6.40397 8.32939 6.23334C8.75206 6.084 9.26006 6.04267 10.2761 5.96134C11.2668 5.90414 12.2092 5.51287 12.9507 4.85334Z" stroke="#B56A00" stroke-width="1.5" stroke-linecap="round" stroke-linejoin="round"/>
</svg>
