<svg width="24" height="24" viewBox="0 0 24 24" fill="none" xmlns="http://www.w3.org/2000/svg">
<g id="pajamas:status">
<path id="Vector" fill-rule="evenodd" clip-rule="evenodd" d="M21.927 10.7913C22.2036 13.0619 21.6935 15.3586 20.4817 17.2986C19.27 19.2386 17.4298 20.7045 15.2681 21.452C13.1063 22.1995 10.7537 22.1833 8.60242 21.4062C6.45115 20.6291 4.63129 19.138 3.4463 17.1816C3.31734 16.9689 3.27814 16.7137 3.33733 16.4721C3.39653 16.2305 3.54926 16.0224 3.76194 15.8934C3.97462 15.7644 4.22982 15.7252 4.4714 15.7844C4.71298 15.8436 4.92115 15.9964 5.05011 16.209C5.68844 17.2631 6.55815 18.1582 7.59345 18.8265C8.62874 19.4949 9.80249 19.919 11.0259 20.0668C12.2493 20.2145 13.4902 20.0821 14.6549 19.6795C15.8196 19.2769 16.8774 18.6147 17.7484 17.743C18.6193 16.8712 19.2806 15.8128 19.6821 14.6478C20.0837 13.4828 20.215 12.2417 20.0661 11.0184C19.9172 9.79517 19.4921 8.6218 18.8228 7.58711C18.1535 6.55241 17.2577 5.6835 16.203 5.04612C15.9902 4.91749 15.8372 4.70957 15.7776 4.4681C15.7181 4.22664 15.7569 3.97142 15.8855 3.75857C16.0142 3.54573 16.2221 3.3927 16.4635 3.33316C16.705 3.27361 16.9602 3.31243 17.1731 3.44106C18.4709 4.22557 19.5734 5.295 20.397 6.56841C21.2206 7.84183 21.7438 9.28589 21.927 10.7913ZM13.2504 3.2498C13.2504 3.58134 13.1187 3.89929 12.8843 4.13372C12.6499 4.36815 12.3319 4.49985 12.0004 4.49985C11.6688 4.49985 11.3509 4.36815 11.1165 4.13372C10.882 3.89929 10.7503 3.58134 10.7503 3.2498C10.7503 2.91827 10.882 2.60032 11.1165 2.36589C11.3509 2.13146 11.6688 1.99976 12.0004 1.99976C12.3319 1.99976 12.6499 2.13146 12.8843 2.36589C13.1187 2.60032 13.2504 2.91827 13.2504 3.2498ZM5.50513 8.24999C5.58851 8.10777 5.64293 7.95047 5.66526 7.78713C5.68759 7.62379 5.6774 7.45765 5.63526 7.29827C5.59312 7.13889 5.51988 6.98942 5.41974 6.85846C5.3196 6.72751 5.19454 6.61765 5.05177 6.53522C4.90901 6.45279 4.75134 6.39942 4.58786 6.37817C4.42438 6.35692 4.25831 6.36822 4.09921 6.41141C3.94012 6.4546 3.79113 6.52884 3.66084 6.62985C3.53056 6.73085 3.42153 6.85663 3.34005 6.99994C3.1769 7.2869 3.13387 7.62674 3.22036 7.94531C3.30685 8.26387 3.51583 8.5353 3.8017 8.70035C4.08757 8.8654 4.42712 8.91068 4.74625 8.82631C5.06538 8.74194 5.33819 8.53476 5.50513 8.24999ZM3.25005 10.7501C3.58158 10.7501 3.89953 10.8818 4.13396 11.1162C4.36839 11.3506 4.50009 11.6686 4.50009 12.0001C4.50009 12.3317 4.36839 12.6496 4.13396 12.884C3.89953 13.1185 3.58158 13.2502 3.25005 13.2502C2.91851 13.2502 2.60056 13.1185 2.36613 12.884C2.1317 12.6496 2 12.3317 2 12.0001C2 11.6686 2.1317 11.3506 2.36613 11.1162C2.60056 10.8818 2.91851 10.7501 3.25005 10.7501ZM8.25023 5.50489C8.39355 5.42341 8.51933 5.31438 8.62033 5.18409C8.72134 5.0538 8.79558 4.90482 8.83877 4.74572C8.88196 4.58663 8.89326 4.42056 8.87201 4.25708C8.85076 4.0936 8.79739 3.93593 8.71496 3.79316C8.63253 3.65039 8.52267 3.52534 8.39171 3.4252C8.26076 3.32506 8.11129 3.25182 7.95191 3.20968C7.79253 3.16754 7.62639 3.15734 7.46305 3.17968C7.29971 3.20201 7.14241 3.25643 7.00019 3.33981C6.71542 3.50675 6.50824 3.77955 6.42387 4.09869C6.3395 4.41782 6.38478 4.75737 6.54983 5.04324C6.71488 5.32911 6.9863 5.53809 7.30487 5.62458C7.62343 5.71107 7.96328 5.66804 8.25023 5.50489Z" fill="#0D6EFD"/>
</g>
</svg>
