<svg width="24" height="24" viewBox="0 0 24 24" fill="none" xmlns="http://www.w3.org/2000/svg">
<g id="basil:wallet-outline">
<path id="Vector" d="M15.5 12C15.5 11.6022 15.658 11.2206 15.9393 10.9393C16.2206 10.658 16.6022 10.5 17 10.5C17.3978 10.5 17.7794 10.658 18.0607 10.9393C18.342 11.2206 18.5 11.6022 18.5 12C18.5 12.3978 18.342 12.7794 18.0607 13.0607C17.7794 13.342 17.3978 13.5 17 13.5C16.6022 13.5 16.2206 13.342 15.9393 13.0607C15.658 12.7794 15.5 12.3978 15.5 12Z" fill="#0D6EFD"/>
<path id="Vector_2" fill-rule="evenodd" clip-rule="evenodd" d="M20.4407 6.67404C20.1117 5.90151 19.5823 5.23094 18.9071 4.73179C18.232 4.23263 17.4357 3.92303 16.6007 3.83504L15.9487 3.76704C12.6564 3.42057 9.3358 3.44338 6.04865 3.83504L5.61665 3.88604C4.80516 3.98256 4.04886 4.34637 3.46695 4.92013C2.88504 5.4939 2.5106 6.24499 2.40265 7.05504C1.96474 10.3372 1.96474 13.6629 2.40265 16.945C2.5106 17.7551 2.88504 18.5062 3.46695 19.0799C4.04886 19.6537 4.80516 20.0175 5.61665 20.114L6.04865 20.165C9.33565 20.557 12.6557 20.58 15.9487 20.233L16.6007 20.165C17.4357 20.0771 18.232 19.7675 18.9071 19.2683C19.5823 18.7691 20.1117 18.0986 20.4407 17.326C20.9589 17.1725 21.4209 16.8706 21.7697 16.4576C22.1185 16.0447 22.3389 15.5387 22.4037 15.002C22.6367 13.008 22.6367 10.992 22.4037 8.99804C22.3389 8.46138 22.1185 7.9554 21.7697 7.54245C21.4209 7.1295 20.9589 6.82763 20.4407 6.67404ZM15.7907 5.25804C12.6098 4.92341 9.40156 4.94555 6.22565 5.32404L5.79365 5.37604C5.31299 5.43326 4.86502 5.64875 4.52031 5.98858C4.1756 6.3284 3.95373 6.77324 3.88965 7.25304C3.46923 10.4037 3.46923 13.5963 3.88965 16.747C3.95356 17.2269 4.17538 17.6718 4.52012 18.0117C4.86487 18.3515 5.31293 18.567 5.79365 18.624L6.22565 18.676C9.40165 19.054 12.6107 19.076 15.7917 18.742L16.4437 18.673C17.2716 18.586 18.0333 18.1804 18.5677 17.542C17.0584 17.6301 15.5443 17.5906 14.0417 17.424C13.4206 17.3551 12.8411 17.0783 12.3972 16.6387C11.9532 16.1991 11.6707 15.6223 11.5957 15.002C11.3624 13.0075 11.3624 10.9926 11.5957 8.99804C11.6707 8.37774 11.9532 7.801 12.3972 7.36137C12.8411 6.92173 13.4206 6.64499 14.0417 6.57604C15.5443 6.40942 17.0584 6.36994 18.5677 6.45804C18.0333 5.81964 17.2716 5.41406 16.4437 5.32704L15.7907 5.25804ZM19.2767 8.01504L19.2787 8.02604L19.2847 8.06604L19.4837 8.03404C19.5867 8.04404 19.6887 8.05504 19.7917 8.06704C20.3787 8.13204 20.8467 8.59704 20.9137 9.17204C21.1336 11.051 21.1336 12.949 20.9137 14.828C20.8779 15.1115 20.7477 15.3746 20.5442 15.575C20.3407 15.7755 20.0756 15.9016 19.7917 15.933C19.6887 15.945 19.5867 15.956 19.4837 15.966L19.2847 15.935L19.2787 15.974L19.2767 15.985C17.5987 16.137 15.8767 16.12 14.2077 15.933C13.9237 15.9016 13.6586 15.7755 13.4551 15.575C13.2516 15.3746 13.1214 15.1115 13.0857 14.828C12.8659 12.9491 12.8659 11.051 13.0857 9.17204C13.1214 8.88862 13.2516 8.62548 13.4551 8.42503C13.6586 8.22458 13.9237 8.09848 14.2077 8.06704C15.8917 7.88046 17.5892 7.86304 19.2767 8.01504Z" fill="#0D6EFD"/>
</g>
</svg>
