<svg width="30" height="30" viewBox="0 0 30 30" fill="none" xmlns="http://www.w3.org/2000/svg">
<g id="wi:time-12">
<path id="Vector" d="M8.70356 20.7559L8.70417 20.7565C10.4618 22.5142 12.5598 23.3904 15.0102 23.3904C16.6161 23.3904 18.1125 22.9937 19.4764 22.1896C20.8375 21.3872 21.9363 20.3092 22.7397 18.9362C23.5431 17.5633 23.9502 16.0772 23.9502 14.4704C23.9502 12.8638 23.5432 11.3677 22.7397 9.99467C21.9367 8.62246 20.8482 7.53397 19.476 6.73097C18.1026 5.92725 16.6163 5.53043 15.0102 5.53043C13.4044 5.53043 11.9079 5.92713 10.5441 6.73121C9.18248 7.53393 8.08421 8.62199 7.27119 9.99396C6.45667 11.3685 6.07023 12.8651 6.07023 14.4704C6.07023 16.8813 6.94683 18.9788 8.70356 20.7559ZM3.89023 14.4704C3.89023 12.4567 4.39334 10.5928 5.38977 8.88606C6.38675 7.17837 7.73818 5.82694 9.44586 4.82997C11.1524 3.83368 13.0062 3.34043 15.0102 3.34043C16.51 3.34043 17.95 3.63632 19.3216 4.21851C20.694 4.80104 21.8681 5.60033 22.8647 6.58702C23.8598 7.57227 24.6491 8.75552 25.232 10.1387C25.8144 11.5205 26.1102 12.9508 26.1102 14.4704C26.1102 15.9702 25.8143 17.4102 25.2322 18.7818C24.6494 20.1547 23.8501 21.3384 22.8642 22.3244C21.8786 23.3099 20.695 24.0994 19.3216 24.6824C17.95 25.2646 16.5199 25.5604 15.0102 25.5604C13.5003 25.5604 12.0502 25.2645 10.6788 24.6824C9.30606 24.0997 8.12205 23.3003 7.12577 22.3138C6.13097 21.3289 5.35118 20.1454 4.75779 18.7806C4.16669 17.4211 3.89023 15.9817 3.89023 14.4704ZM14.4895 14.9576C14.3546 14.8143 14.2902 14.6507 14.2902 14.4704V7.81043C14.2902 7.6185 14.3556 7.45718 14.4863 7.3265C14.617 7.19581 14.7783 7.13043 14.9702 7.13043C15.1595 7.13043 15.3134 7.19409 15.4574 7.32966C15.5954 7.45952 15.6602 7.6191 15.6602 7.81043V14.4704C15.6602 14.659 15.5972 14.8113 15.4542 14.9544C15.3118 15.0967 15.1498 15.1604 14.9702 15.1604C14.7789 15.1604 14.6193 15.0956 14.4895 14.9576Z" fill="black" stroke="white" stroke-width="0.3"/>
</g>
</svg>
