<svg width="30" height="30" viewBox="0 0 30 30" fill="none" xmlns="http://www.w3.org/2000/svg">
<g id="writing">
<g id="Group">
<g id="Group_2">
<g id="Group_3">
<path id="Vector" d="M18.9995 12.2731C18.9995 11.8164 18.6294 11.4463 18.1727 11.4463H9.65686C9.20023 11.4463 8.83008 11.8164 8.83008 12.2731C8.83008 12.7297 9.20023 13.0999 9.65686 13.0999H18.1727C18.6294 13.0999 18.9995 12.7297 18.9995 12.2731Z" fill="black"/>
<path id="Vector_2" d="M9.65686 14.7529C9.20023 14.7529 8.83008 15.1231 8.83008 15.5797C8.83008 16.0363 9.20023 16.4065 9.65686 16.4065H14.8288C15.2855 16.4065 15.6556 16.0363 15.6556 15.5797C15.6556 15.1231 15.2855 14.7529 14.8288 14.7529H9.65686Z" fill="black"/>
<path id="Vector_3" d="M11.0425 25.3552H7.83554C6.77808 25.3552 5.91777 24.4949 5.91777 23.4375V6.56112C5.91777 5.50366 6.77808 4.64335 7.83554 4.64335H19.6245C20.6819 4.64335 21.5423 5.50366 21.5423 6.56112V12.4583C21.5423 12.9879 21.9715 13.4171 22.5011 13.4171C23.0307 13.4171 23.46 12.9879 23.46 12.4583V6.56112C23.46 4.44621 21.7394 2.72559 19.6245 2.72559H7.83554C5.72062 2.72559 4 4.44621 4 6.56112V23.4375C4 25.5524 5.72062 27.273 7.83554 27.273H11.0425C11.5721 27.273 12.0014 26.8437 12.0014 26.3141C12.0014 25.7845 11.5721 25.3552 11.0425 25.3552Z" fill="black"/>
<path id="Vector_4" d="M25.1584 16.6099C24.0368 15.4883 22.2119 15.4882 21.091 16.6091L15.8265 21.8619C15.7147 21.9734 15.6323 22.1108 15.5864 22.262L14.4399 26.0364C14.3382 26.371 14.4268 26.7344 14.671 26.9847C14.854 27.1722 15.1025 27.274 15.3574 27.274C15.4427 27.274 15.5288 27.2626 15.6133 27.2392L19.4836 26.1671C19.6429 26.123 19.7881 26.0384 19.9051 25.9216L25.1585 20.6781C26.2801 19.5565 26.2801 17.7316 25.1584 16.6099ZM18.7287 24.3862L16.7816 24.9256L17.3514 23.0496L20.9036 19.5053L22.2599 20.8617L18.7287 24.3862ZM23.8031 19.3215L23.6173 19.5069L22.2612 18.1508L22.4463 17.966C22.8202 17.5922 23.4285 17.5922 23.8024 17.966C24.1763 18.3399 24.1763 18.9482 23.8031 19.3215Z" fill="black"/>
<path id="Vector_5" d="M18.1727 8.13867H9.65686C9.20023 8.13867 8.83008 8.50882 8.83008 8.96546C8.83008 9.42209 9.20023 9.79224 9.65686 9.79224H18.1727C18.6294 9.79224 18.9995 9.42209 18.9995 8.96546C18.9995 8.50882 18.6294 8.13867 18.1727 8.13867Z" fill="black"/>
</g>
</g>
</g>
</g>
</svg>
