<svg width="1283" height="760" viewBox="0 0 1283 760" fill="none" xmlns="http://www.w3.org/2000/svg">
<g filter="url(#filter0_d_3040_933)">
<path d="M64 72C64 67.5817 67.5817 64 72 64H1210.44C1214.86 64 1218.44 67.5817 1218.44 72V688C1218.44 692.418 1214.86 696 1210.44 696H72C67.5817 696 64 692.418 64 688V72Z" fill="#FDDED2"/>
<path d="M72 64.5H1210.44C1214.58 64.5 1217.94 67.8579 1217.94 72V688C1217.94 692.142 1214.58 695.5 1210.44 695.5H72C67.8578 695.5 64.5 692.142 64.5 688V72C64.5 67.8579 67.8579 64.5 72 64.5Z" stroke="#E6AC96"/>
<path d="M133 311.41C133 305.68 133 302.815 134.125 300.649C135.114 298.744 136.689 297.208 138.619 296.267C140.813 295.198 143.677 295.27 149.405 295.415L1082.4 319.026C1087.88 319.165 1090.61 319.234 1092.7 320.343C1094.53 321.319 1096.02 322.841 1096.94 324.699C1098 326.811 1098 329.547 1098 335.021V486.979C1098 492.453 1098 495.189 1096.94 497.301C1096.02 499.159 1094.53 500.681 1092.7 501.657C1090.61 502.766 1087.88 502.835 1082.4 502.974L149.405 526.585C143.677 526.73 140.813 526.802 138.619 525.733C136.689 524.792 135.114 523.256 134.125 521.351C133 519.185 133 516.32 133 510.59V311.41Z" fill="#F0F7FF"/>
<path d="M412.252 539.978C416.943 539.216 426.125 538.575 430.014 541.662C430.535 542.063 430.736 542.424 430.936 543.026L430.495 544.589C428.971 544.83 419.589 541.141 417.344 540.5C415.74 540.058 413.936 540.058 412.252 539.978Z" fill="#F299A9"/>
<path d="M302.873 302.728C304.918 293.145 304.477 286.168 299.706 277.748L303.395 281.236C304.196 282.198 304.718 283 305.319 284.083C307.204 287.491 309.088 290.498 309.008 294.628C309.85 295.911 309.489 297.956 309.489 299.52C308.647 300.803 309.489 302.206 308.767 303.249C308.446 303.73 308.406 304.091 308.246 304.652C307.564 307.259 306.321 309.865 304.838 312.11C303.755 313.754 302.954 315.639 301.751 317.283C301.189 318.085 301.189 318.446 300.909 319.368L300.548 320.09C300.147 320.851 300.187 321.333 300.187 322.175C300.187 322.736 300.187 322.455 299.946 323.017C299.425 324.099 299.706 325.783 299.706 326.946C300.267 327.828 299.946 328.51 300.428 329.191C300.748 329.673 300.668 329.512 300.788 330.074C301.149 331.557 302.192 333.362 303.114 334.524L303.314 334.805C305.038 337.05 307.765 340.018 310.171 341.381C311.734 342.263 313.258 344.508 314.822 345.551C317.227 347.155 320.555 350.082 321.918 352.648C322.76 354.252 323.763 355.174 324.364 357.059C325.006 358.983 325.607 361.79 325.567 363.675C324.805 364.837 325.487 365.96 324.885 366.882C322.48 370.491 321.116 374.982 317.027 377.147C315.864 377.748 314.541 379.072 313.338 379.874C314.821 376.505 316.024 373.218 316.145 369.489C316.305 363.153 313.659 356.898 309.329 352.327C304.237 345.631 297.861 341.702 294.173 333.722L292.81 328.309V327.868L298.423 314.837C300.267 310.907 302.272 306.978 302.873 302.728Z" fill="#CFE2F4"/>
<path d="M292.891 328.27L294.254 333.683C297.943 341.622 304.318 345.592 309.41 352.288C313.74 356.899 316.386 363.114 316.226 369.449C316.146 373.178 314.903 376.466 313.419 379.834C312.858 381.117 310.292 382.32 309.009 382.882C307.004 383.724 305 384.205 302.834 384.526C301.712 384.405 300.669 384.926 299.667 385.287C296.459 387.332 292.851 387.012 289.242 386.931L285.514 386.21L285.193 384.365C284.471 381.959 281.344 380.516 279.339 379.353L270.157 374.261L267.912 360.949C270.759 360.107 273.525 359.265 276.091 357.741C283.709 353.25 288.561 345.552 291.007 337.171C291.808 334.285 292.129 331.237 292.891 328.27Z" fill="#3D3C80"/>
<path d="M299.667 385.247C300.188 384.164 302.193 383.002 303.155 382.2C305.28 380.355 307.004 377.909 307.886 375.183C311.094 365.038 307.365 356.658 302.754 347.797C305.801 350.684 307.926 354.413 310.011 358.022C312.056 364.236 313.339 371.414 310.212 377.508C308.688 380.476 305.962 383.202 302.875 384.485C301.712 384.365 300.709 384.886 299.667 385.247Z" fill="#FEFEFE"/>
<path d="M292.891 328.27L294.254 333.683C293.813 339.176 293.693 345.151 291.808 350.363C290.165 354.934 287.238 358.743 284.792 362.913C281.624 368.286 280.301 373.218 279.339 379.353L270.157 374.261L267.912 360.949C270.759 360.107 273.525 359.265 276.091 357.741C283.709 353.25 288.561 345.552 291.007 337.171C291.808 334.284 292.129 331.237 292.891 328.27Z" fill="#1B1652"/>
<path d="M313.781 396.273C315.665 397.396 319.314 398.959 320.637 400.643C323.684 404.533 325.849 411.63 327.774 416.241L343.972 458.383C345.576 463.114 347.58 468.046 348.783 472.898C349.024 473.86 348.984 474.782 348.863 475.784C347.34 477.95 345.616 479.072 343.21 480.155L331.542 484.445C323.203 486.851 315.224 488.214 306.604 489.097L305.12 488.575C313.981 462.994 315.144 433.924 314.061 407.099L312.979 399.801C313.099 398.518 313.38 397.436 313.781 396.273Z" fill="#F18330"/>
<path d="M314.02 407.06L314.381 403.611C315.624 406.859 316.145 410.548 316.787 413.956L319.794 429.273L331.501 484.406C323.162 486.812 315.183 488.175 306.563 489.057L305.079 488.536C313.94 462.954 315.143 433.884 314.02 407.06Z" fill="#E65D38"/>
<path d="M217.793 280.715C221.441 274.099 227.375 268.686 234.151 265.398C243.614 260.787 254.8 259.625 264.784 263.233C267.59 264.276 273.364 266.722 274.647 269.448C278.095 269.408 281.784 269.127 285.192 269.729C291.607 270.811 297.26 274.661 301.871 279.071C302.473 279.633 302.994 280.234 303.515 280.916L303.475 281.237L299.786 277.748C304.558 286.168 304.999 293.145 302.954 302.728C301.27 296.273 300.428 289.296 294.815 284.845L294.293 284.444C290.003 281.076 281.984 277.868 276.692 276.666L276.09 278.269L275.689 278.791L272.602 285.527C266.307 295.03 257.767 302.327 246.3 304.653C239.243 306.056 230.904 305.856 223.967 303.811C219.517 302.047 217.031 300.603 213.703 297.075L214.104 291.942L215.548 286.168L217.793 280.715Z" fill="#3D3C80"/>
<path d="M275.209 270.129L276.332 270.851C275.41 274.34 270.197 278.028 267.19 279.793C253.999 287.451 236.478 292.944 221.242 288.694C219.277 288.133 217.393 287.09 215.588 286.168L217.834 280.715L218.114 280.835C222.284 282.64 226.294 282.68 230.784 282.64C240.888 282.519 251.313 279.993 260.735 276.384L275.209 270.129Z" fill="#635B9C"/>
<path d="M214.104 291.943L214.705 292.424C218.073 294.99 222.163 295.872 226.253 296.434C237.64 297.997 250.63 296.474 260.694 290.74C263.541 289.136 266.307 286.971 268.753 284.806C270.597 283.162 273.404 279.112 275.689 278.791L272.602 285.527C266.307 295.03 257.767 302.328 246.3 304.653C239.243 306.057 230.904 305.856 223.967 303.811C219.517 302.047 217.031 300.604 213.703 297.075L214.104 291.943Z" fill="#635B9C"/>
<path d="M213.744 297.074C217.072 300.602 219.558 302.046 224.009 303.81C225.011 306.296 225.773 308.622 226.254 311.268C223.728 310.266 222.164 309.664 219.558 310.907C216.912 312.19 215.388 315.077 214.586 317.764C213.584 321.092 213.664 324.339 215.348 327.467C217.233 330.955 219.799 332.76 223.527 333.922C225.612 333.922 227.296 333.802 229.301 333.201C230.985 342.343 234.072 348.317 241.329 354.251L240.728 359.544C240.046 363.915 239.285 368.606 237.44 372.656C233.19 374.661 229.421 376.826 225.572 379.552C224.009 380.675 222.284 381.758 221.122 383.321C219.037 385.046 214.626 387.211 211.9 387.05L211.339 387.01C203.4 386.73 193.176 382.359 187.723 376.706C183.072 371.894 180.105 364.436 180.265 357.7C180.466 349.4 185.397 344.428 191.011 339.015C186.52 340.378 181.909 343.506 178.541 346.673C172.808 352.046 171.725 356.938 171.485 364.476C170.763 362.311 169.801 359.825 169.761 357.539C169.64 343.786 184.315 336.489 194.86 331.276C198.949 329.231 203.681 327.307 206.888 323.979C210.216 320.49 213.784 313.714 213.624 308.822H212.822C214.707 305.855 213.744 300.562 213.744 297.074Z" fill="#3D3C80"/>
<path d="M223.528 333.922C225.613 333.922 227.297 333.802 229.301 333.201C230.985 342.343 234.073 348.317 241.33 354.251L240.728 359.544C240.047 363.915 239.285 368.606 237.44 372.656C233.19 374.661 229.422 376.826 225.573 379.552C224.009 380.675 222.285 381.758 221.122 383.321C219.037 385.046 214.627 387.211 211.9 387.05L211.339 387.01C210.617 385.487 208.372 384.043 207.129 382.76C205.204 380.795 203.881 378.309 202.839 375.823C197.466 362.952 204.523 354.452 213.544 346.192C217.393 342.663 221.322 339.416 223.287 334.484L223.528 333.922Z" fill="#1B1652"/>
<path d="M276.091 278.27L276.693 276.666C281.985 277.869 290.004 281.077 294.214 284.405L294.735 284.806C300.348 289.256 301.19 296.233 302.874 302.689C302.233 306.939 300.268 310.868 298.504 314.758L292.891 327.789V328.23C292.129 331.197 291.808 334.245 290.966 337.172C288.52 345.552 283.669 353.251 276.051 357.741C273.445 359.265 270.718 360.107 267.872 360.949C267.391 361.109 266.95 361.23 266.428 361.35C256.605 363.034 249.188 359.907 241.329 354.253C234.072 348.319 230.985 342.304 229.301 333.202C227.296 333.844 225.612 333.924 223.527 333.924C219.798 332.761 217.232 330.957 215.348 327.468C213.664 324.341 213.584 321.093 214.586 317.765C215.388 315.079 216.912 312.151 219.558 310.908C222.164 309.666 223.728 310.267 226.254 311.269C225.772 308.623 224.971 306.297 224.008 303.811C230.905 305.856 239.284 306.057 246.341 304.653C257.808 302.328 266.388 295.03 272.643 285.527L275.73 278.791L276.091 278.27Z" fill="#F7988A"/>
<path d="M280.902 308.341L281.262 308.301C284.39 308.101 287.638 308.943 290.043 311.028L289.923 312.03L288.439 312.271L280.862 311.308C279.619 311.068 279.659 311.108 278.937 310.025L279.458 308.782L280.902 308.341Z" fill="#1B1652"/>
<path d="M281.945 317.643C283.549 317.283 283.549 317.283 284.993 318.044C285.754 319.087 286.276 319.889 286.316 321.172C286.396 323.337 286.075 324.821 284.552 326.425C282.908 326.785 282.547 326.665 281.184 325.823C280.502 324.941 280.302 324.179 280.261 323.056C280.181 320.811 280.382 319.368 281.945 317.643Z" fill="#1B1652"/>
<path d="M250.912 317.123C252.275 316.882 252.436 316.842 253.719 317.404C254.962 318.807 255.322 320.411 255.282 322.255C255.242 323.979 254.681 325.222 253.398 326.425L251.754 326.666C251.233 326.385 250.712 326.064 250.27 325.623C249.108 324.38 248.907 322.215 249.028 320.571C249.148 318.967 249.709 318.206 250.912 317.123Z" fill="#1B1652"/>
<path d="M220.681 318.926C221.884 318.405 223.047 318.084 224.33 318.605C225.813 319.247 226.775 320.41 227.577 321.773L227.377 322.294C227.176 322.896 227.176 323.337 227.257 323.978C228.54 324.901 228.62 324.901 228.941 326.424L228.459 326.986C227.217 326.665 226.334 326.304 225.292 325.582C224.249 326.023 223.327 326.504 222.365 327.106L220.841 325.462C220.08 323.497 219.719 321.933 219.679 319.848L220.681 318.926Z" fill="#CC424F"/>
<path d="M220.841 325.463C220.08 323.498 219.719 321.934 219.679 319.849L220.721 318.927L221.042 319.328C222.205 320.611 224.009 320.411 224.971 322.055L220.841 325.463Z" fill="#E76168"/>
<path d="M253.999 337.451H277.614C276.291 340.138 274.928 342.463 273.003 344.789C271.52 346.353 269.595 347.876 267.47 348.478C265.025 349.199 262.418 348.558 260.253 347.315C256.324 345.029 255.201 341.501 253.999 337.451Z" fill="#FEFEFE"/>
<path d="M276.091 278.269C276.612 279.231 276.812 280.033 277.855 280.474L276.973 280.434C276.171 283.12 275.209 286.488 273.284 288.613C268.793 295.751 262.218 301.926 254.399 305.213C251.914 306.256 248.746 306.697 246.501 308.1C249.428 307.659 252.194 307.539 255.121 307.579L255.843 308.541L255.602 309.985C252.756 311.789 244.576 310.907 240.928 310.947L239.885 310.266L240.126 308.822L233.069 308.461L231.305 320.25C229.862 317.042 228.579 313.914 226.253 311.228C225.772 308.582 224.97 306.256 224.008 303.77C230.904 305.815 239.284 306.015 246.34 304.612C257.808 302.286 266.388 294.989 272.643 285.486L275.73 278.75L276.091 278.269Z" fill="#1B1652"/>
<path d="M276.091 278.27L276.693 276.666C281.985 277.869 290.004 281.077 294.214 284.405L294.735 284.806C300.349 289.256 301.19 296.233 302.874 302.689C302.233 306.939 300.268 310.868 298.504 314.758L292.891 327.789C292.129 324.862 292.49 321.053 292.249 317.966C291.648 309.986 291.207 300.844 287.558 293.627C284.952 288.535 280.943 284.445 277.013 280.395L277.896 280.435C276.813 280.034 276.653 279.192 276.091 278.27Z" fill="#2E2461"/>
<path d="M393.56 541.946L364.732 533.165L358.517 559.388C357.355 565.363 356.954 570.615 351.541 574.264C349.937 575.347 347.932 576.309 346.088 576.91C344.524 577.752 343.402 578.514 342.119 579.797C335.664 584.489 327.605 588.057 320.668 592.027L283.942 613.719C275.04 619.052 265.779 625.307 256.356 629.517C257.279 638.258 260.526 647.039 263.694 655.219L263.934 655.54L266.099 660.351C270.951 659.95 275.802 658.547 280.574 657.464C286.427 656.101 292.281 654.938 298.015 653.054L438.787 587.656L440.631 584.609C442.957 578.755 444.841 573.823 443.598 567.448C443.598 566.111 443.252 564.968 442.86 563.677L442.836 563.598C442.676 561.874 443.438 561.152 444.28 559.749L443.638 559.388L442.476 560.591C441.674 560.351 441.313 559.308 440.872 558.586C439.829 556.662 438.226 555.138 436.702 553.574L434.737 551.85L432.292 550.126C431.329 548.402 430.808 546.517 430.207 544.633C428.723 544.873 419.301 541.144 417.056 540.543C415.412 540.102 413.648 540.102 411.964 540.022L401.298 541.625C398.492 542.107 396.367 542.868 393.56 541.946Z" fill="#71395B"/>
<path d="M358.886 559.387L392.124 557.663C388.596 560.55 382.502 562.113 378.212 563.958L355.678 573.902L347.459 577.791C345.935 578.553 344.171 579.636 342.447 579.756C343.73 578.473 344.853 577.711 346.417 576.869C348.261 576.267 350.266 575.305 351.869 574.222C357.322 570.614 357.723 565.361 358.886 559.387Z" fill="#421D45"/>
<path d="M365.061 533.123L393.889 541.904C396.696 542.826 398.821 542.065 401.628 541.583L412.293 539.98C413.977 540.06 415.741 540.06 417.385 540.501C419.63 541.102 429.052 544.831 430.536 544.591C431.137 546.475 431.658 548.36 432.621 550.084C427.007 547.117 422.838 545.753 416.543 547.718C411.05 549.442 405.677 552.249 400.425 554.615C397.859 555.778 394.972 557.261 392.165 557.702L358.927 559.426L365.061 533.123Z" fill="#F7988A"/>
<path d="M443.887 567.445C445.129 573.821 443.245 578.753 440.92 584.607L439.075 587.654L439.516 597.959L427.608 598.119L411.691 608.143L386.471 621.536L381.579 623.941L366.825 630.237L379.775 638.336L382.301 640.341C383.143 641.744 384.386 642.947 383.865 644.671C383.745 645.072 383.424 645.433 383.223 645.714L383.464 646.997L383.023 647.438C381.98 648.521 381.419 650.485 380.858 651.849L375.846 662.755C375.204 667.045 372.157 669.852 369.19 672.779C367.747 673.06 366.544 673.22 365.101 673.06L320.435 660.87C313.098 659.026 305.199 656.219 298.343 653.011C292.61 654.896 286.756 656.059 280.902 657.422C276.131 658.505 271.279 659.908 266.428 660.309L264.263 655.497C265.947 653.974 270.157 653.453 272.362 652.771L297.501 644.752C319.633 637.494 341.164 628.512 362.615 619.41L406.358 599.282C417.023 593.869 429.613 587.494 438.113 578.953C439.997 577.068 441.962 574.462 442.644 571.816C443.044 570.252 442.844 569.049 443.766 567.646L443.887 567.445Z" fill="#421D45"/>
<path d="M298.343 653.011L366.905 630.236L379.855 638.336L382.381 640.341C383.223 641.744 384.466 642.947 383.945 644.671C383.824 645.072 383.504 645.433 383.303 645.714L383.544 646.997L383.103 647.438C382.06 648.52 381.499 650.485 380.938 651.848L375.926 662.755C375.284 667.045 372.237 669.852 369.27 672.779C367.827 673.06 366.624 673.22 365.18 673.059L320.435 660.87C313.098 659.066 305.199 656.219 298.343 653.011Z" fill="#CC424F"/>
<path d="M331.502 484.366L343.169 480.075L347.78 491.783L362.335 491.703C365.262 491.703 367.948 491.743 370.153 494.029C371.396 495.312 372.038 497.156 372.679 498.76C372.198 503.612 370.835 508.263 369.712 512.994L365.021 533.083L358.846 559.346C357.684 565.321 357.283 570.573 351.87 574.222C350.266 575.305 348.261 576.267 346.417 576.868C344.853 577.71 343.731 578.472 342.448 579.755C336.033 584.406 327.934 587.975 320.997 591.985L284.27 613.677C275.369 618.97 266.108 625.265 256.685 629.475L247.263 633.846C243.454 635.129 239.445 636.372 235.435 636.893C221.563 638.617 207.81 635.089 194.338 632.202L174.131 623.42L167.315 620.052L147.307 609.186L128.784 598.12L120.444 597.999L119.361 591.864L113.949 586.692C111.222 583.003 109.498 579.154 107.734 574.984H107.694L106.331 572.297C104.246 565.24 103.965 559.507 106.411 552.45L108.736 548.52L110.1 546.796C115.432 541.343 123.21 539.258 130.628 539.017C148.27 540.942 166.392 549.763 182.51 556.78C187.803 559.065 193.416 561.952 198.909 563.556C202.277 564.759 206.407 565.882 209.534 567.606L243.695 568.047L244.376 564.358C245.178 562.153 245.499 559.707 245.98 557.381L251.754 529.474L255.202 512.754C256.284 507.18 256.846 499.041 261.056 494.911C264.624 491.423 268.393 491.503 273.044 491.503L303.837 491.543C304.799 490.741 304.799 489.779 305.08 488.616L306.563 489.137C315.183 488.175 323.202 486.771 331.502 484.366Z" fill="#6183C2"/>
<path d="M307.644 540.34L306.401 539.017C304.918 537.614 304.236 536.331 304.236 534.206C304.236 532.081 305.038 529.955 306.642 528.512C308.206 527.149 310.05 526.627 312.055 526.788C314.581 527.028 315.904 528.712 317.468 530.517C318.069 532.923 318.47 535.048 317.107 537.333C315.984 539.178 313.859 540.581 311.734 540.942C310.411 541.223 308.887 540.701 307.644 540.34Z" fill="#FEFEFE"/>
<path d="M331.502 484.366L343.169 480.075L347.78 491.783H317.148C315.264 491.743 311.054 492.184 309.37 491.583C308.648 491.342 307.164 489.578 306.523 489.017C315.183 488.175 323.202 486.771 331.502 484.366Z" fill="#E76168"/>
<path d="M251.753 529.434L255.201 512.713C256.284 507.14 256.845 499 261.055 494.87C264.623 491.382 268.392 491.462 273.043 491.462C269.595 493.748 265.906 495.752 263.821 499.481C261.737 503.21 261.055 507.942 260.213 512.112L256.524 529.554L248.866 565.962C248.305 568.608 247.583 571.455 249.107 573.901C250.189 575.625 252.034 576.707 253.998 577.148C257.767 577.991 263.461 577.469 267.39 577.309L346.537 576.988C344.973 577.83 343.85 578.592 342.567 579.875C336.152 584.526 328.053 588.095 321.117 592.104L284.39 613.797L223.607 588.095H222.684C212.42 583.323 200.793 580.677 190.809 575.304L183.352 573.46C181.427 573.139 178.34 572.818 176.736 571.695C175.934 571.134 176.014 570.693 175.894 569.811L176.936 568.608L209.654 567.686L243.814 568.127L244.496 564.438C245.298 562.233 245.619 559.787 246.1 557.461L251.753 529.434Z" fill="#1B1652"/>
<path d="M251.753 529.434L255.201 512.713C256.284 507.14 256.845 499 261.055 494.87C264.624 491.382 268.392 491.462 273.043 491.462C269.595 493.748 265.907 495.752 263.822 499.481C261.737 503.21 261.055 507.942 260.213 512.112L256.524 529.554L248.866 565.962C248.305 568.608 247.583 571.455 249.107 573.901C250.189 575.625 252.034 576.707 253.998 577.148C257.767 577.991 263.461 577.469 267.39 577.309L346.537 576.988C344.973 577.83 343.85 578.592 342.567 579.875L230.262 578.111L223.326 587.253L223.527 588.015H222.604C212.34 583.243 200.713 580.597 190.729 575.224L183.272 573.379C181.347 573.059 178.26 572.738 176.656 571.615C175.854 571.054 175.934 570.613 175.814 569.731L176.856 568.528L209.574 567.605L243.734 568.047L244.416 564.358C245.218 562.152 245.538 559.706 246.02 557.381L251.753 529.434Z" fill="#2D4D90"/>
<path d="M190.73 575.184L230.263 578.111L223.327 587.253L223.527 588.015H222.605C212.341 583.203 200.754 580.557 190.73 575.184Z" fill="#2E2461"/>
<path d="M209.534 567.566L243.695 568.007C243.133 571.375 242.933 573.5 240.006 575.585C236.798 577.831 230.343 576.668 226.614 576.467L195.902 573.941C191.892 573.58 187.281 572.578 183.312 573.34C181.388 573.019 178.3 572.698 176.696 571.576C175.895 571.014 175.975 570.573 175.854 569.691L176.897 568.488L209.534 567.566Z" fill="#6183C2"/>
<path d="M362.375 491.743C365.302 491.743 367.988 491.783 370.193 494.068C371.436 495.351 372.078 497.196 372.719 498.8C372.238 503.651 370.875 508.303 369.752 513.034L365.061 533.122L358.887 559.386C357.724 565.36 357.323 570.613 351.91 574.261C350.306 575.344 348.302 576.306 346.457 576.908L267.311 577.229C275.971 570.132 284.03 562.393 292.129 554.614L301.271 545.833C303.235 543.948 305.2 541.663 307.606 540.34C308.849 540.661 310.372 541.182 311.695 540.981C313.82 540.62 315.985 539.217 317.068 537.373C318.431 535.087 318.03 533.002 317.429 530.556L349.144 499L353.955 494.028C354.396 493.547 355.238 492.384 355.759 492.104C356.481 491.703 360.571 491.983 361.854 491.783L362.375 491.743Z" fill="#3D6DB7"/>
<path d="M130.628 538.977C148.27 540.901 166.392 549.722 182.51 556.739C187.803 559.025 193.416 561.912 198.909 563.516C202.277 564.719 206.407 565.841 209.534 567.565L176.817 568.488L175.774 569.691C175.895 570.613 175.815 571.014 176.616 571.575C178.22 572.698 181.308 573.019 183.232 573.339L190.69 575.184C200.673 580.557 212.261 583.203 222.565 587.975H223.487L284.27 613.677C275.369 618.969 266.108 625.264 256.685 629.475L247.263 633.845C243.454 635.128 239.445 636.371 235.435 636.892C221.563 638.617 207.81 635.088 194.338 632.201L174.131 623.42L167.315 620.052L147.307 609.186L128.784 598.119L120.444 597.999L119.361 591.864L113.949 586.691C111.222 583.003 109.498 579.153 107.734 574.983H107.694L106.331 572.297C104.246 565.24 103.965 559.506 106.411 552.449L108.736 548.52L110.1 546.795C115.432 541.302 123.251 539.217 130.628 538.977Z" fill="#71395B"/>
<path d="M107.734 574.984L108.135 575.145L209.615 618.93C212.101 608.224 215.789 596.797 222.645 588.016H223.568L284.351 613.718C275.45 619.01 266.188 625.306 256.766 629.516L247.344 633.886C243.535 635.169 239.525 636.412 235.516 636.934C221.643 638.658 207.891 635.129 194.419 632.242L174.131 623.421L167.315 620.053L147.308 609.187L128.784 598.12L120.444 598L119.362 591.865L113.949 586.693C111.263 583.004 109.539 579.154 107.734 574.984Z" fill="#421D45"/>
<path d="M241.328 354.252C249.187 359.906 256.564 362.993 266.427 361.349C266.949 361.269 267.39 361.108 267.871 360.948L270.116 374.26L279.298 379.352C281.303 380.555 284.43 381.959 285.152 384.364L285.472 386.209L289.201 386.931L303.114 391.622C303.836 391.863 306.322 392.544 306.763 393.025C309.289 393.907 311.454 394.91 313.739 396.313C313.378 397.476 313.057 398.559 312.897 399.802L313.98 407.099C315.062 433.924 313.899 463.034 305.039 488.576C304.758 489.778 304.758 490.701 303.796 491.503L273.003 491.462C268.352 491.462 264.583 491.382 261.015 494.871C256.765 499.001 256.243 507.14 255.161 512.714L251.713 529.434L245.939 557.341C245.498 559.667 245.137 562.113 244.335 564.318L243.654 568.007L209.493 567.566C206.366 565.842 202.236 564.719 198.868 563.516L200.151 552.449C183.392 546.355 165.269 539.859 151.115 528.712C148.87 526.948 145.863 524.622 144.46 522.136C141.934 517.686 151.717 489.177 153.681 483.523L155.125 478.872C153.12 477.629 148.83 475.344 148.189 472.938C147.547 470.492 151.476 462.834 152.479 460.307C159.495 442.665 166.271 424.501 176.054 408.182C179.823 401.927 184.153 396.073 190.969 392.905C193.536 391.742 196.422 391.101 199.109 390.419C201.635 390.058 209.613 388.815 211.257 386.891L211.819 386.931C214.545 387.131 218.955 384.926 221.04 383.202C222.163 381.638 223.927 380.555 225.491 379.433C229.34 376.706 233.069 374.541 237.359 372.536C239.203 368.486 239.965 363.795 240.647 359.424L241.328 354.252Z" fill="#F7AB3F"/>
<path d="M312.938 399.721C310.612 398.478 308.327 395.591 306.402 393.706L306.803 392.984C309.329 393.866 311.494 394.869 313.78 396.272C313.379 397.435 313.098 398.518 312.938 399.721Z" fill="#EA9C3E"/>
<path d="M263.822 461.029C264.664 460.789 265.546 460.829 266.428 460.829C267.551 461.831 267.751 462.032 268.152 463.475C267.751 464.959 267.551 465.119 266.428 466.202L265.185 466.522C263.541 465.921 263.381 465.64 262.338 464.237C262.419 462.392 262.539 462.392 263.822 461.029Z" fill="#FEFEFE"/>
<path d="M259.892 421.896C260.614 421.655 261.256 421.655 262.017 421.575C263.3 422.217 263.501 422.337 264.263 423.58C264.223 425.465 264.182 425.625 263.02 427.109C262.298 427.55 261.376 427.429 260.574 427.469C259.531 426.627 259.09 426.106 258.649 424.823C258.85 423.259 258.89 423.059 259.892 421.896Z" fill="#FEFEFE"/>
<path d="M261.938 439.979C262.218 439.858 262.299 439.818 262.619 439.778C264.263 439.578 264.664 439.979 265.867 440.981C266.188 441.703 266.428 442.184 266.308 442.986C266.108 444.59 265.667 444.71 264.464 445.712C263.822 445.873 263.181 445.873 262.499 445.913C261.296 445.151 260.895 444.51 260.334 443.186C260.534 441.422 260.695 441.302 261.938 439.979Z" fill="#FEFEFE"/>
<path d="M241.33 354.252C249.188 359.906 256.566 362.993 266.429 361.349C266.95 361.269 267.391 361.108 267.872 360.948L270.118 374.26L279.299 379.352C281.304 380.555 284.431 381.959 285.153 384.364L285.474 386.209L285.594 415.72C284.351 415.199 281.585 413.635 280.382 413.595C278.177 414.878 276.011 415.239 273.646 416.041C270.278 417.163 266.79 418.326 263.221 418.647C256.084 419.289 248.867 417.324 241.891 416.001C238.964 415.439 235.797 415.199 232.95 414.517C232.549 414.397 232.188 414.196 231.827 413.996C229.462 414.317 226.014 416.362 223.728 417.324L221.162 383.362C222.285 381.798 224.049 380.716 225.613 379.593C229.462 376.866 233.19 374.701 237.481 372.696C239.325 368.647 240.087 363.955 240.768 359.585L241.33 354.252Z" fill="#FEFEFE"/>
<path d="M231.826 413.957L249.588 405.737L257.527 412.112C259.973 411.27 263.18 407.661 265.225 405.897C266.949 406.218 268.994 407.661 270.598 408.503L280.421 413.596C278.216 414.879 276.051 415.24 273.685 416.042C270.317 417.164 266.829 418.327 263.26 418.648C256.124 419.289 248.906 417.325 241.93 416.002C239.003 415.44 235.836 415.2 232.989 414.518C232.508 414.358 232.187 414.157 231.826 413.957Z" fill="#F18330"/>
<path d="M241.33 354.252C249.188 359.906 256.566 362.993 266.429 361.349C266.95 361.269 267.391 361.108 267.872 360.948L270.118 374.26L269.957 379.112C267.872 389.296 262.459 398.559 255.283 405.936C248.667 397.276 236.719 384.164 237.481 372.656C239.325 368.607 240.087 363.915 240.768 359.545L241.33 354.252Z" fill="#E76168"/>
<path d="M241.329 354.252C249.188 359.906 256.565 362.993 266.429 361.349C266.95 361.269 267.391 361.108 267.872 360.948L270.117 374.26L269.957 379.112C265.667 378.911 245.459 363.274 240.768 359.545L241.329 354.252Z" fill="#CC424F"/>
<path d="M180.386 489.337C189.889 476.867 196.424 458.623 198.99 443.306C199.712 438.895 200.153 434.445 200.393 429.954C200.594 425.904 199.672 409.905 201.356 407.419L209.134 459.345C210.938 469.81 212.181 481.999 216.592 491.702C222.445 504.573 233.953 516.803 245.299 525.143L251.755 529.393L245.981 557.3C243.415 554.173 239.726 551.446 236.639 548.8L212.743 529.834L206.127 525.183C205.365 524.662 203.721 523.94 203.24 523.299C203.04 523.018 202.839 522.216 202.719 521.855L202.318 522.096C199.672 521.294 196.063 517.966 193.537 516.362L181.549 509.586L185.198 497.396L187.523 490.66C186.882 489.978 181.629 489.537 180.386 489.337Z" fill="#F18330"/>
<path d="M187.563 490.74C189.367 490.62 190.089 490.86 191.332 489.377C194.7 485.327 197.226 478.912 199.471 474.14L202.799 521.935L202.398 522.176C199.752 521.374 196.143 518.046 193.617 516.442L181.629 509.666L185.278 497.476L187.563 490.74Z" fill="#FEFEFE"/>
<path d="M155.167 478.912C163.426 483.644 171.405 486.37 180.386 489.337C181.629 489.538 186.882 490.019 187.563 490.741L185.238 497.477L181.589 509.666L193.577 516.443C196.063 518.006 199.712 521.374 202.358 522.176L202.759 521.936C202.879 522.297 203.08 523.099 203.28 523.379C203.802 524.021 205.405 524.743 206.167 525.264L212.783 529.915L236.679 548.881C239.766 551.527 243.455 554.254 246.021 557.381C245.58 559.707 245.219 562.153 244.417 564.358L243.736 568.047L209.575 567.606C206.448 565.882 202.318 564.759 198.95 563.556L200.233 552.489C183.474 546.395 165.351 539.899 151.197 528.752C148.952 526.988 145.945 524.662 144.542 522.176C142.016 517.726 151.799 489.217 153.764 483.563L155.167 478.912Z" fill="#F7988A"/>
<path d="M155.166 478.912C163.426 483.644 171.404 486.37 180.386 489.337C181.628 489.538 186.881 490.019 187.563 490.741L185.237 497.477C181.749 496.555 178.22 494.951 174.853 493.587C167.595 490.66 160.539 487.373 153.723 483.563L155.166 478.912Z" fill="#E76168"/>
<path d="M200.192 552.49C214.345 557.783 229.501 561.712 244.416 564.319L243.734 568.008L209.574 567.567C206.446 565.842 202.317 564.72 198.949 563.517L200.192 552.49Z" fill="#421D45"/>
<path d="M256.726 629.475C257.608 638.256 260.855 646.997 264.063 655.177L264.304 655.498L266.469 660.309L262.82 660.71L247.063 664.038L211.9 669.331C203.961 670.414 195.662 672.138 187.643 671.416C182.751 670.013 179.423 667.727 175.975 664.119C175.574 663.317 174.933 662.876 174.211 662.354C170.763 658.665 168.878 655.017 167.395 650.165C166.713 646.837 166.994 644.11 167.676 640.782L169.239 637.174C171.003 635.329 172.727 633.605 175.093 632.563C181.107 629.916 187.923 632.563 194.098 632.162L194.379 632.121C207.85 635.008 221.603 638.497 235.476 636.813C239.485 636.332 243.494 635.049 247.303 633.765L256.726 629.475Z" fill="#E76168"/>
<path d="M256.725 629.475C257.607 638.256 260.855 646.997 264.062 655.177L264.303 655.498L266.468 660.309L262.819 660.71L247.062 664.038L245.9 658.345C244.737 650.325 244.697 641.584 247.343 633.846L256.725 629.475Z" fill="#ECB89A"/>
<path d="M264.062 655.218L264.303 655.539L266.468 660.35L262.819 660.751L247.062 664.079L245.899 658.385L264.062 655.218Z" fill="#F7AA84"/>
</g>
<defs>
<filter id="filter0_d_3040_933" x="0" y="0" width="1282.44" height="760" filterUnits="userSpaceOnUse" color-interpolation-filters="sRGB">
<feFlood flood-opacity="0" result="BackgroundImageFix"/>
<feColorMatrix in="SourceAlpha" type="matrix" values="0 0 0 0 0 0 0 0 0 0 0 0 0 0 0 0 0 0 127 0" result="hardAlpha"/>
<feOffset/>
<feGaussianBlur stdDeviation="32"/>
<feComposite in2="hardAlpha" operator="out"/>
<feColorMatrix type="matrix" values="0 0 0 0 0 0 0 0 0 0 0 0 0 0 0 0 0 0 0.1 0"/>
<feBlend mode="normal" in2="BackgroundImageFix" result="effect1_dropShadow_3040_933"/>
<feBlend mode="normal" in="SourceGraphic" in2="effect1_dropShadow_3040_933" result="shape"/>
</filter>
</defs>
</svg>
