<svg width="196" height="196" viewBox="0 0 196 196" fill="none" xmlns="http://www.w3.org/2000/svg">
<path id="Ellipse 1928" d="M182.955 98C190.159 98 196.089 92.1339 195.133 84.993C193.155 70.2235 187.826 56.0392 179.484 43.5541C168.716 27.4381 153.41 14.8772 135.503 7.45981C117.596 0.0424177 97.8913 -1.89831 78.8811 1.88304C59.871 5.66439 42.4091 14.998 28.7035 28.7035C14.998 42.4091 5.66439 59.871 1.88304 78.8811C-1.89831 97.8913 0.0424179 117.596 7.45981 135.503C14.8772 153.41 27.4381 168.716 43.5541 179.484C56.0392 187.826 70.2235 193.155 84.993 195.133C92.1339 196.089 98 190.159 98 182.955C98 175.75 92.1124 170.029 85.026 168.73C75.4266 166.969 66.2396 163.263 58.0492 157.791C46.2237 149.889 37.0068 138.658 31.5642 125.519C26.1215 112.379 24.6975 97.9202 27.4721 83.9711C30.2468 70.022 37.0955 57.209 47.1522 47.1522C57.209 37.0955 70.022 30.2468 83.9711 27.4721C97.9202 24.6975 112.379 26.1215 125.519 31.5642C138.658 37.0068 149.889 46.2237 157.791 58.0492C163.263 66.2396 166.969 75.4266 168.73 85.026C170.029 92.1124 175.75 98 182.955 98Z" fill="#0D6EFD"/>
</svg>
