<svg width="455" height="80" viewBox="0 0 455 80" fill="none" xmlns="http://www.w3.org/2000/svg">
<path d="M203.948 6.59155L243.421 -36H447C451.419 -36 455 -32.4183 455 -28V148C455 152.418 451.419 156 447 156H80.0002L203.948 6.59155Z" fill="#65A8CD"/>
<path d="M457.257 -5.78528C444.232 -5.62054 431.765 0.414169 422.598 10.9913C413.431 21.5684 408.315 35.8215 408.376 50.6151C408.437 65.4087 413.67 79.5309 422.923 89.8751C432.176 100.219 444.692 105.938 457.717 105.773L457.681 97.2572C446.645 97.3967 436.04 92.5511 428.2 83.7862C420.36 75.0214 415.926 63.0553 415.874 50.5203C415.823 37.9853 420.157 25.9083 427.925 16.9461C435.692 7.9838 446.256 2.87044 457.292 2.73087L457.257 -5.78528Z" fill="#5897BA"/>
<path d="M238.882 54.2247C265.995 54.9011 287.349 80.4182 286.578 111.219C285.808 142.019 263.204 166.44 236.092 165.763C208.979 165.087 187.625 139.57 188.396 108.769C189.166 77.9688 211.77 53.5483 238.882 54.2247ZM236.305 157.249C259.278 157.822 278.43 137.13 279.083 111.032C279.736 84.9337 261.642 63.3125 238.669 62.7393C215.696 62.1662 196.544 82.8582 195.891 108.956C195.238 135.054 213.332 156.676 236.305 157.249Z" fill="#5897BA"/>
<circle cx="271.619" cy="18.619" r="1.61905" fill="#5897BA"/>
<circle cx="271.619" cy="23.4762" r="1.61905" fill="#5897BA"/>
<circle cx="271.619" cy="27.5238" r="1.61905" fill="#5897BA"/>
<circle cx="271.619" cy="32.381" r="1.61905" fill="#5897BA"/>
<circle cx="275.667" cy="18.619" r="1.61905" fill="#5897BA"/>
<circle cx="275.667" cy="23.4762" r="1.61905" fill="#5897BA"/>
<circle cx="275.667" cy="27.5238" r="1.61905" fill="#5897BA"/>
<circle cx="275.667" cy="32.381" r="1.61905" fill="#5897BA"/>
<circle cx="279.715" cy="18.619" r="1.61905" fill="#5897BA"/>
<circle cx="279.715" cy="23.4762" r="1.61905" fill="#5897BA"/>
<circle cx="279.715" cy="27.5238" r="1.61905" fill="#5897BA"/>
<circle cx="279.715" cy="32.381" r="1.61905" fill="#5897BA"/>
<circle cx="283.762" cy="18.619" r="1.61905" fill="#5897BA"/>
<circle cx="283.762" cy="23.4762" r="1.61905" fill="#5897BA"/>
<circle cx="283.762" cy="27.5238" r="1.61905" fill="#5897BA"/>
<circle cx="283.762" cy="32.381" r="1.61905" fill="#5897BA"/>
<path opacity="0.23" d="M204.348 -15.8213L9.39989 215.368" stroke="#3D8BFD" stroke-width="3"/>
</svg>
